G04 Layer: TopSolderMaskLayer*
G04 EasyEDA v6.3.53, 2020-07-05T11:12:03+02:00*
G04 cde15f3eeb0949078ea0d990088cac7f,f7dd187871414131b8e6a9aac608ee48,10*
G04 Gerber Generator version 0.2*
G04 Scale: 100 percent, Rotated: No, Reflected: No *
G04 Dimensions in millimeters *
G04 leading zeros omitted , absolute positions ,3 integer and 3 decimal *
%FSLAX33Y33*%
%MOMM*%
G90*
G71D02*

%ADD36C,2.003196*%
%ADD41C,1.727200*%
%ADD43C,1.981200*%
%ADD45C,1.903197*%
%ADD48C,2.108200*%

%LPD*%
G54D36*
G01X10619Y18297D02*
G01X10619Y20697D01*
G01X6519Y14793D02*
G01X8719Y14793D01*
G36*
G01X3616Y17396D02*
G01X3616Y21597D01*
G01X5621Y21597D01*
G01X5621Y17396D01*
G01X3616Y17396D01*
G37*
G36*
G01X13002Y16268D02*
G01X13002Y18021D01*
G01X14206Y18021D01*
G01X14206Y16268D01*
G01X13002Y16268D01*
G37*
G36*
G01X15003Y16268D02*
G01X15003Y18021D01*
G01X16207Y18021D01*
G01X16207Y16268D01*
G01X15003Y16268D01*
G37*
G36*
G01X19448Y16268D02*
G01X19448Y18021D01*
G01X20652Y18021D01*
G01X20652Y16268D01*
G01X19448Y16268D01*
G37*
G36*
G01X17447Y16268D02*
G01X17447Y18021D01*
G01X18651Y18021D01*
G01X18651Y16268D01*
G01X17447Y16268D01*
G37*
G36*
G01X20873Y1577D02*
G01X20873Y2202D01*
G01X21676Y2202D01*
G01X21676Y1577D01*
G01X20873Y1577D01*
G37*
G36*
G01X20873Y2227D02*
G01X20873Y2852D01*
G01X21676Y2852D01*
G01X21676Y2227D01*
G01X20873Y2227D01*
G37*
G36*
G01X20873Y2877D02*
G01X20873Y3502D01*
G01X21676Y3502D01*
G01X21676Y2877D01*
G01X20873Y2877D01*
G37*
G36*
G01X22773Y2877D02*
G01X22773Y3502D01*
G01X23576Y3502D01*
G01X23576Y2877D01*
G01X22773Y2877D01*
G37*
G36*
G01X22773Y2227D02*
G01X22773Y2852D01*
G01X23576Y2852D01*
G01X23576Y2227D01*
G01X22773Y2227D01*
G37*
G36*
G01X22773Y1577D02*
G01X22773Y2202D01*
G01X23576Y2202D01*
G01X23576Y1577D01*
G01X22773Y1577D01*
G37*
G36*
G01X35227Y16268D02*
G01X35227Y18021D01*
G01X36431Y18021D01*
G01X36431Y16268D01*
G01X35227Y16268D01*
G37*
G36*
G01X37228Y16268D02*
G01X37228Y18021D01*
G01X38432Y18021D01*
G01X38432Y16268D01*
G01X37228Y16268D01*
G37*
G36*
G01X24432Y16268D02*
G01X24432Y18021D01*
G01X25636Y18021D01*
G01X25636Y16268D01*
G01X24432Y16268D01*
G37*
G36*
G01X26433Y16268D02*
G01X26433Y18021D01*
G01X27637Y18021D01*
G01X27637Y16268D01*
G01X26433Y16268D01*
G37*
G36*
G01X15638Y11188D02*
G01X15638Y12941D01*
G01X16842Y12941D01*
G01X16842Y11188D01*
G01X15638Y11188D01*
G37*
G36*
G01X13637Y11188D02*
G01X13637Y12941D01*
G01X14841Y12941D01*
G01X14841Y11188D01*
G01X13637Y11188D01*
G37*
G36*
G01X22623Y11188D02*
G01X22623Y12941D01*
G01X23827Y12941D01*
G01X23827Y11188D01*
G01X22623Y11188D01*
G37*
G36*
G01X20622Y11188D02*
G01X20622Y12941D01*
G01X21826Y12941D01*
G01X21826Y11188D01*
G01X20622Y11188D01*
G37*
G36*
G01X15638Y8013D02*
G01X15638Y9766D01*
G01X16842Y9766D01*
G01X16842Y8013D01*
G01X15638Y8013D01*
G37*
G36*
G01X13637Y8013D02*
G01X13637Y9766D01*
G01X14841Y9766D01*
G01X14841Y8013D01*
G01X13637Y8013D01*
G37*
G36*
G01X22623Y8013D02*
G01X22623Y9766D01*
G01X23827Y9766D01*
G01X23827Y8013D01*
G01X22623Y8013D01*
G37*
G36*
G01X20622Y8013D02*
G01X20622Y9766D01*
G01X21826Y9766D01*
G01X21826Y8013D01*
G01X20622Y8013D01*
G37*
G36*
G01X15638Y4838D02*
G01X15638Y6591D01*
G01X16842Y6591D01*
G01X16842Y4838D01*
G01X15638Y4838D01*
G37*
G36*
G01X13637Y4838D02*
G01X13637Y6591D01*
G01X14841Y6591D01*
G01X14841Y4838D01*
G01X13637Y4838D01*
G37*
G36*
G01X8026Y10185D02*
G01X8026Y11912D01*
G01X9753Y11912D01*
G01X9753Y10185D01*
G01X8026Y10185D01*
G37*
G54D41*
G01X6350Y11049D03*
G01X8890Y8509D03*
G01X6350Y8509D03*
G01X8890Y5969D03*
G01X6350Y5969D03*
G01X8890Y3429D03*
G01X6350Y3429D03*
G36*
G01X46634Y914D02*
G01X46634Y2895D01*
G01X48615Y2895D01*
G01X48615Y914D01*
G01X46634Y914D01*
G37*
G54D43*
G01X47625Y5715D03*
G01X47625Y9525D03*
G01X47625Y13335D03*
G01X47625Y17145D03*
G01X47625Y20955D03*
G36*
G01X30627Y5844D02*
G01X30627Y7546D01*
G01X33632Y7546D01*
G01X33632Y5844D01*
G01X30627Y5844D01*
G37*
G36*
G01X40027Y5844D02*
G01X40027Y7546D01*
G01X43032Y7546D01*
G01X43032Y5844D01*
G01X40027Y5844D01*
G37*
G36*
G01X30627Y1343D02*
G01X30627Y3045D01*
G01X33632Y3045D01*
G01X33632Y1343D01*
G01X30627Y1343D01*
G37*
G36*
G01X40027Y1343D02*
G01X40027Y3045D01*
G01X43032Y3045D01*
G01X43032Y1343D01*
G01X40027Y1343D01*
G37*
G36*
G01X30627Y13464D02*
G01X30627Y15166D01*
G01X33632Y15166D01*
G01X33632Y13464D01*
G01X30627Y13464D01*
G37*
G36*
G01X40027Y13464D02*
G01X40027Y15166D01*
G01X43032Y15166D01*
G01X43032Y13464D01*
G01X40027Y13464D01*
G37*
G36*
G01X30627Y8963D02*
G01X30627Y10665D01*
G01X33632Y10665D01*
G01X33632Y8963D01*
G01X30627Y8963D01*
G37*
G36*
G01X40027Y8963D02*
G01X40027Y10665D01*
G01X43032Y10665D01*
G01X43032Y8963D01*
G01X40027Y8963D01*
G37*
G36*
G01X22623Y4838D02*
G01X22623Y6591D01*
G01X23827Y6591D01*
G01X23827Y4838D01*
G01X22623Y4838D01*
G37*
G36*
G01X20622Y4838D02*
G01X20622Y6591D01*
G01X21826Y6591D01*
G01X21826Y4838D01*
G01X20622Y4838D01*
G37*
G54D45*
G01X1905Y3429D03*
G01X1905Y5969D03*
G01X1905Y8509D03*
G36*
G01X952Y10096D02*
G01X952Y12001D01*
G01X2857Y12001D01*
G01X2857Y10096D01*
G01X952Y10096D01*
G37*
G36*
G01X29019Y19392D02*
G01X29019Y21501D01*
G01X31127Y21501D01*
G01X31127Y19392D01*
G01X29019Y19392D01*
G37*
G54D48*
G01X27533Y20447D03*
G01X24993Y20447D03*
G01X19278Y20447D03*
G01X16738Y20447D03*
G36*
G01X13144Y19392D02*
G01X13144Y21501D01*
G01X15252Y21501D01*
G01X15252Y19392D01*
G01X13144Y19392D01*
G37*
G36*
G01X39814Y19392D02*
G01X39814Y21501D01*
G01X41922Y21501D01*
G01X41922Y19392D01*
G01X39814Y19392D01*
G37*
G01X38328Y20447D03*
G01X35788Y20447D03*
M00*
M02*
