G04 Layer: BottomSilkLayer*
G04 EasyEDA v6.3.53, 2020-07-05T11:12:03+02:00*
G04 cde15f3eeb0949078ea0d990088cac7f,f7dd187871414131b8e6a9aac608ee48,10*
G04 Gerber Generator version 0.2*
G04 Scale: 100 percent, Rotated: No, Reflected: No *
G04 Dimensions in millimeters *
G04 leading zeros omitted , absolute positions ,3 integer and 3 decimal *
%FSLAX33Y33*%
%MOMM*%
G90*
G71D02*

%ADD10C,0.254000*%
%ADD34C,0.076200*%
%ADD35C,0.152400*%

%LPD*%
G54D10*
G01X32529Y14947D02*
G01X32529Y-53D01*
G01X22529Y14947D02*
G01X32529Y14947D01*
G01X22529Y14947D02*
G01X22529Y-53D01*
G01X25019Y15113D02*
G01X25019Y19177D01*
G01X27559Y15113D02*
G01X27559Y19177D01*
G01X30099Y15113D02*
G01X30099Y19177D01*
G01X21734Y14947D02*
G01X21734Y-53D01*
G01X11734Y14947D02*
G01X21734Y14947D01*
G01X11734Y14947D02*
G01X11734Y-53D01*
G01X14224Y15113D02*
G01X14224Y19177D01*
G01X16764Y15113D02*
G01X16764Y19177D01*
G01X19304Y15113D02*
G01X19304Y19177D01*
G01X43324Y14947D02*
G01X43324Y-53D01*
G01X33324Y14947D02*
G01X43324Y14947D01*
G01X33324Y14947D02*
G01X33324Y-53D01*
G01X35814Y15113D02*
G01X35814Y19177D01*
G01X38354Y15113D02*
G01X38354Y19177D01*
G01X40894Y15113D02*
G01X40894Y19177D01*

%LPD*%
G36*
G01X45009Y20047D02*
G01X44907Y20050D01*
G01X44805Y20047D01*
G01X44709Y20036D01*
G01X44617Y20019D01*
G01X44531Y19994D01*
G01X44383Y19924D01*
G01X44272Y19827D01*
G01X44199Y19703D01*
G01X44175Y19555D01*
G01X44200Y19408D01*
G01X44272Y19286D01*
G01X44383Y19190D01*
G01X44531Y19121D01*
G01X44617Y19096D01*
G01X44709Y19078D01*
G01X44805Y19068D01*
G01X44907Y19065D01*
G01X45009Y19068D01*
G01X45106Y19078D01*
G01X45197Y19095D01*
G01X45283Y19118D01*
G01X45430Y19187D01*
G01X45542Y19283D01*
G01X45614Y19407D01*
G01X45638Y19555D01*
G01X45615Y19703D01*
G01X45544Y19827D01*
G01X45432Y19924D01*
G01X45283Y19994D01*
G01X45197Y20019D01*
G01X45106Y20036D01*
G01X45009Y20047D01*
G37*

%LPC*%
G36*
G01X45039Y19912D02*
G01X44907Y19918D01*
G01X44774Y19912D01*
G01X44657Y19895D01*
G01X44553Y19865D01*
G01X44465Y19824D01*
G01X44343Y19710D01*
G01X44302Y19555D01*
G01X44343Y19402D01*
G01X44465Y19288D01*
G01X44553Y19247D01*
G01X44657Y19218D01*
G01X44774Y19200D01*
G01X44907Y19194D01*
G01X45039Y19200D01*
G01X45158Y19218D01*
G01X45261Y19247D01*
G01X45351Y19288D01*
G01X45473Y19402D01*
G01X45514Y19555D01*
G01X45473Y19710D01*
G01X45351Y19824D01*
G01X45261Y19865D01*
G01X45158Y19895D01*
G01X45039Y19912D01*
G37*

%LPD*%
G36*
G01X44317Y18846D02*
G01X44274Y18846D01*
G01X44257Y18845D01*
G01X44242Y18842D01*
G01X44228Y18836D01*
G01X44216Y18829D01*
G01X44207Y18818D01*
G01X44201Y18806D01*
G01X44197Y18792D01*
G01X44196Y18775D01*
G01X44196Y18760D01*
G01X44197Y18744D01*
G01X44201Y18730D01*
G01X44207Y18719D01*
G01X44216Y18709D01*
G01X44228Y18700D01*
G01X44242Y18694D01*
G01X44257Y18690D01*
G01X44274Y18689D01*
G01X44317Y18689D01*
G01X44334Y18690D01*
G01X44349Y18694D01*
G01X44362Y18700D01*
G01X44373Y18709D01*
G01X44382Y18719D01*
G01X44389Y18730D01*
G01X44393Y18744D01*
G01X44394Y18760D01*
G01X44394Y18775D01*
G01X44393Y18792D01*
G01X44389Y18806D01*
G01X44382Y18818D01*
G01X44373Y18829D01*
G01X44362Y18836D01*
G01X44349Y18842D01*
G01X44334Y18845D01*
G01X44317Y18846D01*
G37*

%LPD*%
G36*
G01X44703Y18497D02*
G01X44691Y18498D01*
G01X44680Y18497D01*
G01X44669Y18494D01*
G01X44659Y18488D01*
G01X44650Y18481D01*
G01X44644Y18472D01*
G01X44639Y18463D01*
G01X44636Y18452D01*
G01X44635Y18440D01*
G01X44635Y18303D01*
G01X44256Y18303D01*
G01X44244Y18302D01*
G01X44233Y18298D01*
G01X44222Y18293D01*
G01X44213Y18285D01*
G01X44206Y18276D01*
G01X44200Y18265D01*
G01X44197Y18254D01*
G01X44196Y18242D01*
G01X44197Y18229D01*
G01X44200Y18217D01*
G01X44206Y18207D01*
G01X44213Y18199D01*
G01X44222Y18191D01*
G01X44233Y18185D01*
G01X44244Y18182D01*
G01X44256Y18181D01*
G01X44635Y18181D01*
G01X44635Y17584D01*
G01X44636Y17573D01*
G01X44639Y17562D01*
G01X44645Y17551D01*
G01X44653Y17541D01*
G01X44663Y17533D01*
G01X44675Y17528D01*
G01X44686Y17524D01*
G01X44698Y17523D01*
G01X44710Y17524D01*
G01X44720Y17527D01*
G01X44730Y17532D01*
G01X44739Y17538D01*
G01X45593Y18191D01*
G01X45604Y18201D01*
G01X45612Y18212D01*
G01X45616Y18226D01*
G01X45618Y18242D01*
G01X45617Y18255D01*
G01X45613Y18267D01*
G01X45608Y18278D01*
G01X45600Y18288D01*
G01X45591Y18294D01*
G01X45580Y18299D01*
G01X45569Y18302D01*
G01X45557Y18303D01*
G01X44749Y18303D01*
G01X44749Y18440D01*
G01X44748Y18452D01*
G01X44745Y18463D01*
G01X44739Y18472D01*
G01X44731Y18481D01*
G01X44723Y18488D01*
G01X44714Y18494D01*
G01X44703Y18497D01*
G37*

%LPC*%
G36*
G01X45399Y18181D02*
G01X44749Y18181D01*
G01X44749Y17691D01*
G01X45399Y18181D01*
G37*

%LPD*%
G36*
G01X45215Y17380D02*
G01X45204Y17381D01*
G01X45186Y17379D01*
G01X45177Y17377D01*
G01X45168Y17373D01*
G01X44234Y16974D01*
G01X44226Y16970D01*
G01X44219Y16965D01*
G01X44212Y16959D01*
G01X44206Y16951D01*
G01X44201Y16944D01*
G01X44198Y16936D01*
G01X44196Y16929D01*
G01X44196Y16921D01*
G01X44195Y16911D01*
G01X44196Y16901D01*
G01X44199Y16892D01*
G01X44203Y16883D01*
G01X44209Y16876D01*
G01X44216Y16870D01*
G01X44224Y16864D01*
G01X44234Y16860D01*
G01X45168Y16459D01*
G01X45171Y16459D01*
G01X45174Y16458D01*
G01X45185Y16455D01*
G01X45189Y16454D01*
G01X45196Y16454D01*
G01X45208Y16455D01*
G01X45220Y16457D01*
G01X45230Y16462D01*
G01X45239Y16469D01*
G01X45247Y16477D01*
G01X45253Y16488D01*
G01X45256Y16500D01*
G01X45257Y16515D01*
G01X45256Y16524D01*
G01X45254Y16533D01*
G01X45250Y16542D01*
G01X45245Y16550D01*
G01X45239Y16557D01*
G01X45225Y16569D01*
G01X45217Y16573D01*
G01X44394Y16918D01*
G01X45217Y17266D01*
G01X45225Y17270D01*
G01X45239Y17282D01*
G01X45245Y17289D01*
G01X45250Y17297D01*
G01X45254Y17306D01*
G01X45255Y17315D01*
G01X45255Y17325D01*
G01X45254Y17335D01*
G01X45251Y17345D01*
G01X45246Y17354D01*
G01X45239Y17363D01*
G01X45232Y17371D01*
G01X45224Y17376D01*
G01X45215Y17380D01*
G37*

%LPD*%
G36*
G01X44230Y15745D02*
G01X44201Y15748D01*
G01X44173Y15745D01*
G01X44144Y15740D01*
G01X44115Y15730D01*
G01X44086Y15717D01*
G01X44058Y15702D01*
G01X44033Y15685D01*
G01X44012Y15665D01*
G01X43992Y15643D01*
G01X43976Y15622D01*
G01X43964Y15600D01*
G01X43957Y15578D01*
G01X43954Y15557D01*
G01X43955Y15546D01*
G01X43957Y15536D01*
G01X43960Y15527D01*
G01X43964Y15519D01*
G01X43971Y15512D01*
G01X43979Y15508D01*
G01X43988Y15505D01*
G01X43997Y15504D01*
G01X44007Y15504D01*
G01X44015Y15506D01*
G01X44022Y15509D01*
G01X44028Y15514D01*
G01X44031Y15519D01*
G01X44035Y15527D01*
G01X44038Y15535D01*
G01X44041Y15544D01*
G01X44044Y15555D01*
G01X44048Y15564D01*
G01X44051Y15571D01*
G01X44053Y15577D01*
G01X44061Y15591D01*
G01X44071Y15602D01*
G01X44082Y15612D01*
G01X44094Y15621D01*
G01X44108Y15627D01*
G01X44123Y15632D01*
G01X44139Y15635D01*
G01X44155Y15636D01*
G01X44166Y15635D01*
G01X44175Y15633D01*
G01X44183Y15629D01*
G01X44190Y15623D01*
G01X44197Y15616D01*
G01X44202Y15608D01*
G01X44205Y15600D01*
G01X44206Y15590D01*
G01X44205Y15575D01*
G01X44201Y15562D01*
G01X44196Y15548D01*
G01X44188Y15537D01*
G01X44199Y15526D01*
G01X44210Y15518D01*
G01X44222Y15513D01*
G01X44236Y15511D01*
G01X44253Y15514D01*
G01X44270Y15521D01*
G01X44285Y15533D01*
G01X44300Y15549D01*
G01X44312Y15568D01*
G01X44320Y15587D01*
G01X44326Y15607D01*
G01X44328Y15628D01*
G01X44326Y15654D01*
G01X44319Y15676D01*
G01X44309Y15697D01*
G01X44295Y15714D01*
G01X44276Y15729D01*
G01X44254Y15739D01*
G01X44230Y15745D01*
G37*

%LPD*%
G36*
G01X45182Y15365D02*
G01X45171Y15367D01*
G01X45159Y15365D01*
G01X45148Y15362D01*
G01X45138Y15356D01*
G01X45130Y15349D01*
G01X45124Y15341D01*
G01X45119Y15331D01*
G01X45116Y15320D01*
G01X45115Y15308D01*
G01X45115Y15105D01*
G01X44434Y15105D01*
G01X44399Y15106D01*
G01X44370Y15112D01*
G01X44347Y15121D01*
G01X44330Y15133D01*
G01X44318Y15149D01*
G01X44309Y15167D01*
G01X44304Y15187D01*
G01X44302Y15209D01*
G01X44304Y15223D01*
G01X44305Y15231D01*
G01X44309Y15248D01*
G01X44311Y15255D01*
G01X44312Y15262D01*
G01X44312Y15267D01*
G01X44311Y15276D01*
G01X44309Y15285D01*
G01X44304Y15293D01*
G01X44297Y15300D01*
G01X44289Y15306D01*
G01X44281Y15310D01*
G01X44271Y15312D01*
G01X44262Y15313D01*
G01X44248Y15311D01*
G01X44236Y15305D01*
G01X44225Y15294D01*
G01X44216Y15280D01*
G01X44207Y15263D01*
G01X44201Y15245D01*
G01X44197Y15225D01*
G01X44196Y15204D01*
G01X44196Y15177D01*
G01X44198Y15151D01*
G01X44201Y15127D01*
G01X44206Y15105D01*
G01X44213Y15084D01*
G01X44226Y15063D01*
G01X44244Y15043D01*
G01X44267Y15024D01*
G01X44296Y15006D01*
G01X44333Y14993D01*
G01X44377Y14986D01*
G01X44429Y14983D01*
G01X45115Y14983D01*
G01X45115Y14836D01*
G01X45116Y14823D01*
G01X45120Y14812D01*
G01X45125Y14802D01*
G01X45133Y14792D01*
G01X45141Y14786D01*
G01X45151Y14781D01*
G01X45161Y14778D01*
G01X45173Y14777D01*
G01X45185Y14778D01*
G01X45195Y14781D01*
G01X45205Y14786D01*
G01X45214Y14792D01*
G01X45221Y14802D01*
G01X45226Y14812D01*
G01X45228Y14823D01*
G01X45229Y14836D01*
G01X45229Y14983D01*
G01X45455Y14983D01*
G01X45468Y14984D01*
G01X45479Y14988D01*
G01X45489Y14993D01*
G01X45499Y15001D01*
G01X45506Y15010D01*
G01X45512Y15021D01*
G01X45515Y15032D01*
G01X45516Y15044D01*
G01X45515Y15057D01*
G01X45512Y15069D01*
G01X45506Y15078D01*
G01X45499Y15087D01*
G01X45489Y15095D01*
G01X45479Y15100D01*
G01X45468Y15104D01*
G01X45455Y15105D01*
G01X45229Y15105D01*
G01X45229Y15308D01*
G01X45228Y15319D01*
G01X45225Y15329D01*
G01X45219Y15340D01*
G01X45212Y15349D01*
G01X45202Y15356D01*
G01X45193Y15362D01*
G01X45182Y15365D01*
G37*

%LPD*%
G36*
G01X44510Y14650D02*
G01X44465Y14653D01*
G01X44346Y14626D01*
G01X44254Y14546D01*
G01X44195Y14429D01*
G01X44175Y14284D01*
G01X44187Y14167D01*
G01X44221Y14061D01*
G01X44279Y13970D01*
G01X44361Y13891D01*
G01X44373Y13883D01*
G01X44384Y13878D01*
G01X44395Y13874D01*
G01X44404Y13873D01*
G01X44417Y13875D01*
G01X44428Y13880D01*
G01X44437Y13889D01*
G01X44444Y13901D01*
G01X44450Y13908D01*
G01X44454Y13916D01*
G01X44456Y13924D01*
G01X44457Y13934D01*
G01X44456Y13945D01*
G01X44452Y13956D01*
G01X44446Y13967D01*
G01X44437Y13977D01*
G01X44368Y14042D01*
G01X44319Y14117D01*
G01X44289Y14202D01*
G01X44279Y14297D01*
G01X44282Y14344D01*
G01X44291Y14388D01*
G01X44305Y14429D01*
G01X44325Y14467D01*
G01X44350Y14498D01*
G01X44381Y14521D01*
G01X44416Y14534D01*
G01X44457Y14538D01*
G01X44498Y14534D01*
G01X44533Y14522D01*
G01X44562Y14501D01*
G01X44587Y14472D01*
G01X44606Y14435D01*
G01X44625Y14391D01*
G01X44642Y14341D01*
G01X44658Y14284D01*
G01X44707Y14135D01*
G01X44770Y14020D01*
G01X44808Y13978D01*
G01X44854Y13948D01*
G01X44908Y13930D01*
G01X44970Y13924D01*
G01X45011Y13927D01*
G01X45049Y13936D01*
G01X45086Y13951D01*
G01X45120Y13972D01*
G01X45151Y13997D01*
G01X45178Y14026D01*
G01X45202Y14060D01*
G01X45222Y14099D01*
G01X45237Y14140D01*
G01X45249Y14183D01*
G01X45255Y14230D01*
G01X45257Y14279D01*
G01X45255Y14324D01*
G01X45249Y14368D01*
G01X45238Y14412D01*
G01X45224Y14457D01*
G01X45205Y14499D01*
G01X45181Y14538D01*
G01X45152Y14574D01*
G01X45118Y14607D01*
G01X45110Y14615D01*
G01X45101Y14620D01*
G01X45090Y14624D01*
G01X45077Y14625D01*
G01X45066Y14623D01*
G01X45055Y14620D01*
G01X45044Y14613D01*
G01X45034Y14605D01*
G01X45029Y14597D01*
G01X45026Y14589D01*
G01X45024Y14580D01*
G01X45024Y14569D01*
G01X45025Y14559D01*
G01X45028Y14550D01*
G01X45032Y14542D01*
G01X45039Y14533D01*
G01X45065Y14507D01*
G01X45088Y14479D01*
G01X45107Y14449D01*
G01X45123Y14417D01*
G01X45135Y14383D01*
G01X45143Y14347D01*
G01X45149Y14310D01*
G01X45151Y14272D01*
G01X45147Y14227D01*
G01X45139Y14184D01*
G01X45125Y14145D01*
G01X45105Y14109D01*
G01X45080Y14079D01*
G01X45050Y14058D01*
G01X45014Y14045D01*
G01X44973Y14041D01*
G01X44935Y14047D01*
G01X44901Y14061D01*
G01X44872Y14084D01*
G01X44848Y14114D01*
G01X44827Y14154D01*
G01X44807Y14201D01*
G01X44788Y14257D01*
G01X44770Y14320D01*
G01X44756Y14371D01*
G01X44742Y14417D01*
G01X44727Y14459D01*
G01X44711Y14495D01*
G01X44693Y14528D01*
G01X44672Y14558D01*
G01X44647Y14585D01*
G01X44620Y14610D01*
G01X44588Y14628D01*
G01X44552Y14642D01*
G01X44510Y14650D01*
G37*

%LPD*%
G36*
G01X44861Y13683D02*
G01X44716Y13700D01*
G01X44571Y13683D01*
G01X44439Y13632D01*
G01X44329Y13552D01*
G01X44246Y13446D01*
G01X44193Y13322D01*
G01X44175Y13185D01*
G01X44193Y13047D01*
G01X44246Y12923D01*
G01X44329Y12818D01*
G01X44439Y12738D01*
G01X44571Y12688D01*
G01X44716Y12672D01*
G01X44861Y12688D01*
G01X44993Y12738D01*
G01X45102Y12818D01*
G01X45186Y12923D01*
G01X45239Y13047D01*
G01X45257Y13185D01*
G01X45239Y13322D01*
G01X45186Y13446D01*
G01X45102Y13552D01*
G01X44993Y13632D01*
G01X44861Y13683D01*
G37*

%LPC*%
G36*
G01X44776Y13575D02*
G01X44716Y13578D01*
G01X44657Y13575D01*
G01X44600Y13566D01*
G01X44546Y13550D01*
G01X44495Y13528D01*
G01X44450Y13500D01*
G01X44409Y13467D01*
G01X44373Y13428D01*
G01X44343Y13385D01*
G01X44319Y13339D01*
G01X44303Y13289D01*
G01X44293Y13238D01*
G01X44289Y13185D01*
G01X44293Y13131D01*
G01X44304Y13081D01*
G01X44321Y13032D01*
G01X44345Y12987D01*
G01X44376Y12944D01*
G01X44411Y12907D01*
G01X44452Y12873D01*
G01X44498Y12844D01*
G01X44549Y12822D01*
G01X44602Y12806D01*
G01X44658Y12797D01*
G01X44716Y12793D01*
G01X44776Y12797D01*
G01X44832Y12806D01*
G01X44885Y12822D01*
G01X44935Y12844D01*
G01X44981Y12873D01*
G01X45023Y12906D01*
G01X45059Y12944D01*
G01X45090Y12987D01*
G01X45114Y13032D01*
G01X45131Y13081D01*
G01X45142Y13131D01*
G01X45145Y13185D01*
G01X45142Y13238D01*
G01X45131Y13289D01*
G01X45114Y13339D01*
G01X45090Y13385D01*
G01X45059Y13428D01*
G01X45023Y13467D01*
G01X44981Y13500D01*
G01X44935Y13528D01*
G01X44885Y13550D01*
G01X44832Y13566D01*
G01X44776Y13575D01*
G37*

%LPD*%
G36*
G01X45557Y12390D02*
G01X44610Y12390D01*
G01X44549Y12386D01*
G01X44492Y12375D01*
G01X44437Y12357D01*
G01X44386Y12331D01*
G01X44339Y12300D01*
G01X44298Y12264D01*
G01X44262Y12221D01*
G01X44231Y12174D01*
G01X44207Y12122D01*
G01X44189Y12067D01*
G01X44179Y12008D01*
G01X44175Y11945D01*
G01X44180Y11884D01*
G01X44193Y11826D01*
G01X44215Y11771D01*
G01X44246Y11719D01*
G01X44328Y11629D01*
G01X44434Y11562D01*
G01X44442Y11557D01*
G01X44450Y11554D01*
G01X44457Y11552D01*
G01X44465Y11551D01*
G01X44477Y11552D01*
G01X44488Y11557D01*
G01X44497Y11563D01*
G01X44513Y11581D01*
G01X44519Y11591D01*
G01X44522Y11601D01*
G01X44523Y11612D01*
G01X44521Y11628D01*
G01X44514Y11643D01*
G01X44503Y11656D01*
G01X44488Y11668D01*
G01X44446Y11691D01*
G01X44409Y11717D01*
G01X44377Y11746D01*
G01X44348Y11780D01*
G01X44326Y11818D01*
G01X44310Y11858D01*
G01X44300Y11900D01*
G01X44297Y11945D01*
G01X44319Y12072D01*
G01X44383Y12174D01*
G01X44483Y12238D01*
G01X44610Y12260D01*
G01X45557Y12260D01*
G01X45569Y12261D01*
G01X45580Y12265D01*
G01X45591Y12270D01*
G01X45600Y12278D01*
G01X45608Y12289D01*
G01X45613Y12300D01*
G01X45617Y12312D01*
G01X45618Y12326D01*
G01X45617Y12339D01*
G01X45613Y12352D01*
G01X45608Y12362D01*
G01X45600Y12372D01*
G01X45591Y12379D01*
G01X45580Y12385D01*
G01X45569Y12389D01*
G01X45557Y12390D01*
G37*

%LPD*%
G36*
G01X44853Y10703D02*
G01X44256Y10703D01*
G01X44244Y10702D01*
G01X44233Y10698D01*
G01X44222Y10693D01*
G01X44213Y10685D01*
G01X44206Y10676D01*
G01X44200Y10665D01*
G01X44197Y10654D01*
G01X44196Y10642D01*
G01X44197Y10630D01*
G01X44200Y10619D01*
G01X44206Y10608D01*
G01X44213Y10599D01*
G01X44222Y10591D01*
G01X44233Y10586D01*
G01X44244Y10582D01*
G01X44256Y10581D01*
G01X44848Y10581D01*
G01X44911Y10577D01*
G01X44968Y10564D01*
G01X45018Y10544D01*
G01X45062Y10515D01*
G01X45098Y10478D01*
G01X45125Y10431D01*
G01X45140Y10376D01*
G01X45145Y10312D01*
G01X45143Y10269D01*
G01X45135Y10228D01*
G01X45123Y10186D01*
G01X45105Y10147D01*
G01X45083Y10109D01*
G01X45057Y10076D01*
G01X45028Y10046D01*
G01X44996Y10020D01*
G01X44961Y9998D01*
G01X44924Y9984D01*
G01X44887Y9975D01*
G01X44848Y9972D01*
G01X44256Y9972D01*
G01X44244Y9971D01*
G01X44233Y9967D01*
G01X44222Y9961D01*
G01X44213Y9954D01*
G01X44206Y9945D01*
G01X44200Y9934D01*
G01X44197Y9923D01*
G01X44196Y9911D01*
G01X44197Y9897D01*
G01X44200Y9885D01*
G01X44206Y9875D01*
G01X44213Y9865D01*
G01X44222Y9858D01*
G01X44233Y9854D01*
G01X44244Y9851D01*
G01X44256Y9850D01*
G01X45166Y9850D01*
G01X45179Y9851D01*
G01X45191Y9853D01*
G01X45202Y9858D01*
G01X45212Y9865D01*
G01X45218Y9875D01*
G01X45223Y9885D01*
G01X45226Y9897D01*
G01X45227Y9911D01*
G01X45226Y9923D01*
G01X45223Y9934D01*
G01X45218Y9945D01*
G01X45212Y9954D01*
G01X45202Y9961D01*
G01X45191Y9967D01*
G01X45179Y9971D01*
G01X45166Y9972D01*
G01X45054Y9972D01*
G01X45097Y10002D01*
G01X45135Y10038D01*
G01X45170Y10080D01*
G01X45201Y10129D01*
G01X45226Y10180D01*
G01X45244Y10232D01*
G01X45254Y10284D01*
G01X45257Y10337D01*
G01X45230Y10502D01*
G01X45148Y10617D01*
G01X45018Y10681D01*
G01X44853Y10703D01*
G37*

%LPD*%
G36*
G01X45171Y9530D02*
G01X44256Y9530D01*
G01X44244Y9529D01*
G01X44233Y9525D01*
G01X44222Y9519D01*
G01X44213Y9512D01*
G01X44206Y9503D01*
G01X44200Y9492D01*
G01X44197Y9481D01*
G01X44196Y9469D01*
G01X44197Y9456D01*
G01X44200Y9445D01*
G01X44206Y9435D01*
G01X44213Y9425D01*
G01X44222Y9418D01*
G01X44233Y9412D01*
G01X44244Y9409D01*
G01X44256Y9408D01*
G01X44394Y9408D01*
G01X44349Y9379D01*
G01X44309Y9344D01*
G01X44272Y9303D01*
G01X44239Y9255D01*
G01X44211Y9203D01*
G01X44191Y9149D01*
G01X44179Y9093D01*
G01X44175Y9034D01*
G01X44193Y8904D01*
G01X44246Y8788D01*
G01X44331Y8692D01*
G01X44442Y8618D01*
G01X44573Y8572D01*
G01X44719Y8557D01*
G01X44866Y8573D01*
G01X44998Y8620D01*
G01X45107Y8693D01*
G01X45189Y8790D01*
G01X45240Y8905D01*
G01X45257Y9032D01*
G01X45254Y9091D01*
G01X45242Y9149D01*
G01X45224Y9203D01*
G01X45199Y9255D01*
G01X45167Y9303D01*
G01X45131Y9344D01*
G01X45090Y9379D01*
G01X45044Y9408D01*
G01X45171Y9408D01*
G01X45183Y9409D01*
G01X45195Y9412D01*
G01X45206Y9418D01*
G01X45217Y9425D01*
G01X45224Y9435D01*
G01X45230Y9445D01*
G01X45233Y9456D01*
G01X45234Y9469D01*
G01X45233Y9481D01*
G01X45230Y9492D01*
G01X45224Y9503D01*
G01X45217Y9512D01*
G01X45206Y9519D01*
G01X45195Y9525D01*
G01X45183Y9529D01*
G01X45171Y9530D01*
G37*

%LPC*%
G36*
G01X44777Y9412D02*
G01X44719Y9415D01*
G01X44659Y9412D01*
G01X44603Y9403D01*
G01X44550Y9388D01*
G01X44500Y9367D01*
G01X44454Y9342D01*
G01X44412Y9311D01*
G01X44376Y9276D01*
G01X44345Y9235D01*
G01X44321Y9192D01*
G01X44304Y9146D01*
G01X44293Y9098D01*
G01X44289Y9047D01*
G01X44293Y8994D01*
G01X44304Y8944D01*
G01X44321Y8898D01*
G01X44345Y8854D01*
G01X44376Y8814D01*
G01X44412Y8779D01*
G01X44454Y8748D01*
G01X44500Y8722D01*
G01X44550Y8702D01*
G01X44603Y8687D01*
G01X44659Y8679D01*
G01X44719Y8676D01*
G01X44778Y8679D01*
G01X44835Y8688D01*
G01X44887Y8703D01*
G01X44937Y8724D01*
G01X44983Y8751D01*
G01X45024Y8782D01*
G01X45059Y8817D01*
G01X45090Y8856D01*
G01X45114Y8900D01*
G01X45131Y8946D01*
G01X45142Y8995D01*
G01X45145Y9047D01*
G01X45142Y9098D01*
G01X45131Y9146D01*
G01X45114Y9192D01*
G01X45090Y9235D01*
G01X45059Y9276D01*
G01X45023Y9311D01*
G01X44981Y9342D01*
G01X44935Y9367D01*
G01X44885Y9388D01*
G01X44833Y9403D01*
G01X44777Y9412D01*
G37*

%LPD*%
G36*
G01X45191Y8308D02*
G01X44256Y8308D01*
G01X44244Y8307D01*
G01X44233Y8303D01*
G01X44222Y8298D01*
G01X44213Y8290D01*
G01X44206Y8281D01*
G01X44200Y8272D01*
G01X44197Y8260D01*
G01X44196Y8247D01*
G01X44197Y8235D01*
G01X44200Y8224D01*
G01X44206Y8213D01*
G01X44213Y8204D01*
G01X44222Y8196D01*
G01X44233Y8190D01*
G01X44244Y8187D01*
G01X44256Y8186D01*
G01X45191Y8186D01*
G01X45203Y8187D01*
G01X45215Y8190D01*
G01X45225Y8196D01*
G01X45234Y8204D01*
G01X45242Y8213D01*
G01X45248Y8224D01*
G01X45251Y8235D01*
G01X45252Y8247D01*
G01X45251Y8260D01*
G01X45248Y8272D01*
G01X45242Y8281D01*
G01X45234Y8290D01*
G01X45225Y8298D01*
G01X45215Y8303D01*
G01X45203Y8307D01*
G01X45191Y8308D01*
G37*

%LPD*%
G36*
G01X45483Y8331D02*
G01X45463Y8331D01*
G01X45446Y8330D01*
G01X45431Y8326D01*
G01X45418Y8319D01*
G01X45407Y8310D01*
G01X45399Y8298D01*
G01X45394Y8283D01*
G01X45390Y8266D01*
G01X45389Y8247D01*
G01X45390Y8228D01*
G01X45394Y8211D01*
G01X45399Y8196D01*
G01X45407Y8183D01*
G01X45418Y8174D01*
G01X45431Y8168D01*
G01X45446Y8165D01*
G01X45463Y8163D01*
G01X45483Y8163D01*
G01X45501Y8165D01*
G01X45516Y8169D01*
G01X45529Y8176D01*
G01X45539Y8186D01*
G01X45548Y8199D01*
G01X45554Y8213D01*
G01X45558Y8230D01*
G01X45559Y8249D01*
G01X45555Y8285D01*
G01X45541Y8310D01*
G01X45517Y8326D01*
G01X45483Y8331D01*
G37*

%LPD*%
G36*
G01X45209Y7998D02*
G01X45194Y8001D01*
G01X45181Y7999D01*
G01X45168Y7996D01*
G01X45158Y7990D01*
G01X45148Y7983D01*
G01X45140Y7975D01*
G01X45135Y7965D01*
G01X45131Y7956D01*
G01X45130Y7945D01*
G01X45131Y7939D01*
G01X45133Y7929D01*
G01X45136Y7918D01*
G01X45140Y7904D01*
G01X45145Y7890D01*
G01X45148Y7876D01*
G01X45150Y7862D01*
G01X45151Y7848D01*
G01X45147Y7811D01*
G01X45136Y7774D01*
G01X45118Y7737D01*
G01X45092Y7701D01*
G01X45061Y7665D01*
G01X45026Y7632D01*
G01X44986Y7604D01*
G01X44942Y7579D01*
G01X44897Y7558D01*
G01X44851Y7543D01*
G01X44805Y7534D01*
G01X44759Y7531D01*
G01X44256Y7531D01*
G01X44244Y7530D01*
G01X44233Y7526D01*
G01X44222Y7520D01*
G01X44213Y7513D01*
G01X44206Y7504D01*
G01X44200Y7493D01*
G01X44197Y7482D01*
G01X44196Y7470D01*
G01X44197Y7456D01*
G01X44200Y7445D01*
G01X44206Y7435D01*
G01X44213Y7426D01*
G01X44222Y7419D01*
G01X44233Y7413D01*
G01X44244Y7410D01*
G01X44256Y7409D01*
G01X45166Y7409D01*
G01X45179Y7410D01*
G01X45191Y7413D01*
G01X45202Y7419D01*
G01X45212Y7426D01*
G01X45218Y7435D01*
G01X45223Y7445D01*
G01X45226Y7456D01*
G01X45227Y7470D01*
G01X45226Y7482D01*
G01X45223Y7493D01*
G01X45218Y7504D01*
G01X45212Y7513D01*
G01X45202Y7520D01*
G01X45191Y7526D01*
G01X45179Y7530D01*
G01X45166Y7531D01*
G01X44988Y7531D01*
G01X45044Y7557D01*
G01X45095Y7589D01*
G01X45140Y7626D01*
G01X45181Y7670D01*
G01X45215Y7721D01*
G01X45238Y7774D01*
G01X45253Y7832D01*
G01X45257Y7894D01*
G01X45256Y7914D01*
G01X45254Y7932D01*
G01X45249Y7951D01*
G01X45242Y7967D01*
G01X45233Y7982D01*
G01X45222Y7992D01*
G01X45209Y7998D01*
G37*

%LPD*%
G36*
G01X45638Y7089D02*
G01X44256Y7089D01*
G01X44244Y7088D01*
G01X44233Y7084D01*
G01X44222Y7078D01*
G01X44213Y7071D01*
G01X44206Y7062D01*
G01X44200Y7053D01*
G01X44197Y7041D01*
G01X44196Y7028D01*
G01X44197Y7015D01*
G01X44200Y7004D01*
G01X44206Y6994D01*
G01X44213Y6985D01*
G01X44222Y6977D01*
G01X44233Y6971D01*
G01X44244Y6968D01*
G01X44256Y6967D01*
G01X44399Y6967D01*
G01X44353Y6938D01*
G01X44312Y6904D01*
G01X44275Y6864D01*
G01X44241Y6817D01*
G01X44212Y6765D01*
G01X44192Y6710D01*
G01X44179Y6653D01*
G01X44175Y6593D01*
G01X44193Y6465D01*
G01X44246Y6350D01*
G01X44329Y6253D01*
G01X44439Y6179D01*
G01X44571Y6132D01*
G01X44719Y6116D01*
G01X44864Y6132D01*
G01X44993Y6179D01*
G01X45104Y6253D01*
G01X45189Y6350D01*
G01X45240Y6464D01*
G01X45257Y6591D01*
G01X45254Y6649D01*
G01X45242Y6706D01*
G01X45224Y6760D01*
G01X45199Y6812D01*
G01X45166Y6860D01*
G01X45130Y6901D01*
G01X45089Y6937D01*
G01X45044Y6967D01*
G01X45638Y6967D01*
G01X45650Y6968D01*
G01X45662Y6971D01*
G01X45672Y6977D01*
G01X45681Y6985D01*
G01X45689Y6994D01*
G01X45695Y7004D01*
G01X45698Y7015D01*
G01X45699Y7028D01*
G01X45698Y7041D01*
G01X45695Y7053D01*
G01X45689Y7062D01*
G01X45681Y7071D01*
G01X45672Y7078D01*
G01X45662Y7084D01*
G01X45650Y7088D01*
G01X45638Y7089D01*
G37*

%LPC*%
G36*
G01X44777Y6971D02*
G01X44719Y6974D01*
G01X44659Y6971D01*
G01X44602Y6963D01*
G01X44549Y6948D01*
G01X44498Y6929D01*
G01X44451Y6902D01*
G01X44409Y6872D01*
G01X44373Y6836D01*
G01X44343Y6797D01*
G01X44319Y6752D01*
G01X44303Y6706D01*
G01X44293Y6657D01*
G01X44289Y6606D01*
G01X44293Y6554D01*
G01X44304Y6505D01*
G01X44321Y6459D01*
G01X44345Y6416D01*
G01X44376Y6376D01*
G01X44411Y6340D01*
G01X44452Y6310D01*
G01X44498Y6283D01*
G01X44549Y6262D01*
G01X44602Y6247D01*
G01X44659Y6238D01*
G01X44719Y6235D01*
G01X44777Y6238D01*
G01X44833Y6247D01*
G01X44885Y6262D01*
G01X44935Y6283D01*
G01X44981Y6310D01*
G01X45023Y6340D01*
G01X45059Y6376D01*
G01X45090Y6416D01*
G01X45114Y6459D01*
G01X45131Y6505D01*
G01X45142Y6554D01*
G01X45145Y6606D01*
G01X45142Y6657D01*
G01X45131Y6706D01*
G01X45114Y6752D01*
G01X45090Y6797D01*
G01X45059Y6836D01*
G01X45023Y6872D01*
G01X44981Y6902D01*
G01X44935Y6929D01*
G01X44885Y6948D01*
G01X44833Y6963D01*
G01X44777Y6971D01*
G37*

%LPD*%
G36*
G01X44263Y5964D02*
G01X44251Y5966D01*
G01X44239Y5965D01*
G01X44229Y5961D01*
G01X44219Y5956D01*
G01X44211Y5948D01*
G01X44203Y5938D01*
G01X44198Y5927D01*
G01X44194Y5916D01*
G01X44193Y5905D01*
G01X44194Y5895D01*
G01X44196Y5886D01*
G01X44200Y5878D01*
G01X44206Y5869D01*
G01X44211Y5862D01*
G01X44218Y5856D01*
G01X44225Y5851D01*
G01X44234Y5847D01*
G01X44607Y5694D01*
G01X44607Y5034D01*
G01X44234Y4881D01*
G01X44216Y4872D01*
G01X44203Y4861D01*
G01X44196Y4846D01*
G01X44193Y4828D01*
G01X44194Y4815D01*
G01X44197Y4803D01*
G01X44202Y4793D01*
G01X44208Y4785D01*
G01X44215Y4778D01*
G01X44224Y4774D01*
G01X44235Y4771D01*
G01X44246Y4770D01*
G01X44272Y4770D01*
G01X45582Y5308D01*
G01X45600Y5318D01*
G01X45613Y5331D01*
G01X45620Y5348D01*
G01X45623Y5369D01*
G01X45622Y5379D01*
G01X45620Y5388D01*
G01X45617Y5396D01*
G01X45613Y5405D01*
G01X45607Y5412D01*
G01X45600Y5418D01*
G01X45592Y5423D01*
G01X45582Y5427D01*
G01X44277Y5961D01*
G01X44270Y5963D01*
G01X44263Y5964D01*
G37*

%LPC*%
G36*
G01X45420Y5359D02*
G01X44726Y5643D01*
G01X44726Y5080D01*
G01X45420Y5359D01*
G37*

%LPD*%
G36*
G01X45005Y4057D02*
G01X44907Y4064D01*
G01X44809Y4057D01*
G01X44715Y4039D01*
G01X44626Y4009D01*
G01X44541Y3967D01*
G01X44394Y3854D01*
G01X44282Y3708D01*
G01X44242Y3624D01*
G01X44213Y3535D01*
G01X44196Y3443D01*
G01X44190Y3347D01*
G01X44196Y3252D01*
G01X44213Y3161D01*
G01X44242Y3073D01*
G01X44282Y2989D01*
G01X44333Y2911D01*
G01X44394Y2841D01*
G01X44463Y2780D01*
G01X44541Y2727D01*
G01X44626Y2685D01*
G01X44715Y2655D01*
G01X44809Y2637D01*
G01X44907Y2631D01*
G01X45005Y2637D01*
G01X45099Y2655D01*
G01X45188Y2685D01*
G01X45272Y2727D01*
G01X45420Y2840D01*
G01X45532Y2987D01*
G01X45572Y3071D01*
G01X45600Y3159D01*
G01X45617Y3251D01*
G01X45623Y3347D01*
G01X45617Y3443D01*
G01X45600Y3535D01*
G01X45572Y3624D01*
G01X45532Y3708D01*
G01X45420Y3854D01*
G01X45272Y3967D01*
G01X45188Y4009D01*
G01X45099Y4039D01*
G01X45005Y4057D01*
G37*

%LPC*%
G36*
G01X45074Y3946D02*
G01X44907Y3967D01*
G01X44739Y3946D01*
G01X44589Y3883D01*
G01X44463Y3785D01*
G01X44368Y3657D01*
G01X44307Y3510D01*
G01X44287Y3347D01*
G01X44307Y3186D01*
G01X44368Y3037D01*
G01X44463Y2911D01*
G01X44589Y2814D01*
G01X44739Y2751D01*
G01X44907Y2730D01*
G01X45074Y2751D01*
G01X45224Y2814D01*
G01X45351Y2911D01*
G01X45448Y3037D01*
G01X45509Y3186D01*
G01X45529Y3347D01*
G01X45509Y3510D01*
G01X45448Y3657D01*
G01X45351Y3785D01*
G01X45224Y3883D01*
G01X45074Y3946D01*
G37*

%LPD*%
G36*
G01X44626Y3641D02*
G01X44617Y3642D01*
G01X44611Y3641D01*
G01X44604Y3640D01*
G01X44598Y3639D01*
G01X44592Y3637D01*
G01X44586Y3633D01*
G01X44581Y3629D01*
G01X44575Y3624D01*
G01X44571Y3619D01*
G01X44542Y3564D01*
G01X44522Y3507D01*
G01X44509Y3447D01*
G01X44505Y3385D01*
G01X44509Y3327D01*
G01X44519Y3272D01*
G01X44535Y3221D01*
G01X44559Y3172D01*
G01X44587Y3127D01*
G01X44620Y3088D01*
G01X44658Y3054D01*
G01X44701Y3025D01*
G01X44748Y3001D01*
G01X44798Y2985D01*
G01X44851Y2975D01*
G01X44907Y2971D01*
G01X44962Y2975D01*
G01X45013Y2985D01*
G01X45063Y3001D01*
G01X45110Y3025D01*
G01X45153Y3053D01*
G01X45192Y3086D01*
G01X45226Y3125D01*
G01X45255Y3169D01*
G01X45278Y3218D01*
G01X45295Y3271D01*
G01X45304Y3326D01*
G01X45308Y3385D01*
G01X45307Y3417D01*
G01X45303Y3448D01*
G01X45298Y3479D01*
G01X45290Y3510D01*
G01X45281Y3539D01*
G01X45269Y3567D01*
G01X45255Y3593D01*
G01X45239Y3616D01*
G01X45232Y3628D01*
G01X45222Y3635D01*
G01X45210Y3640D01*
G01X45196Y3642D01*
G01X45188Y3641D01*
G01X45179Y3639D01*
G01X45171Y3636D01*
G01X45163Y3632D01*
G01X45155Y3624D01*
G01X45148Y3614D01*
G01X45144Y3603D01*
G01X45143Y3591D01*
G01X45143Y3581D01*
G01X45145Y3573D01*
G01X45147Y3566D01*
G01X45151Y3561D01*
G01X45174Y3518D01*
G01X45191Y3475D01*
G01X45200Y3431D01*
G01X45204Y3385D01*
G01X45183Y3259D01*
G01X45120Y3162D01*
G01X45075Y3126D01*
G01X45025Y3101D01*
G01X44969Y3086D01*
G01X44907Y3081D01*
G01X44844Y3086D01*
G01X44787Y3101D01*
G01X44737Y3126D01*
G01X44693Y3162D01*
G01X44630Y3259D01*
G01X44610Y3385D01*
G01X44613Y3430D01*
G01X44622Y3474D01*
G01X44638Y3517D01*
G01X44664Y3569D01*
G01X44666Y3577D01*
G01X44668Y3591D01*
G01X44667Y3603D01*
G01X44663Y3614D01*
G01X44657Y3624D01*
G01X44648Y3632D01*
G01X44641Y3636D01*
G01X44633Y3639D01*
G01X44626Y3641D01*
G37*

%LPD*%
G54D34*
G01X49541Y2361D02*
G01X49483Y2389D01*
G01X49426Y2447D01*
G01X49397Y2505D01*
G01X49397Y2620D01*
G01X49426Y2678D01*
G01X49483Y2736D01*
G01X49541Y2765D01*
G01X49628Y2794D01*
G01X49772Y2794D01*
G01X49859Y2765D01*
G01X49916Y2736D01*
G01X49974Y2678D01*
G01X50003Y2620D01*
G01X50003Y2505D01*
G01X49974Y2447D01*
G01X49916Y2389D01*
G01X49859Y2361D01*
G01X49772Y2361D01*
G01X49772Y2505D02*
G01X49772Y2361D01*
G01X49397Y2170D02*
G01X50003Y2170D01*
G01X49397Y2170D02*
G01X50003Y1766D01*
G01X49397Y1766D02*
G01X50003Y1766D01*
G01X49397Y1575D02*
G01X50003Y1575D01*
G01X49397Y1575D02*
G01X49397Y1373D01*
G01X49426Y1287D01*
G01X49483Y1229D01*
G01X49541Y1200D01*
G01X49628Y1171D01*
G01X49772Y1171D01*
G01X49859Y1200D01*
G01X49916Y1229D01*
G01X49974Y1287D01*
G01X50003Y1373D01*
G01X50003Y1575D01*
G01X49541Y6552D02*
G01X49483Y6580D01*
G01X49426Y6638D01*
G01X49397Y6696D01*
G01X49397Y6811D01*
G01X49426Y6869D01*
G01X49483Y6927D01*
G01X49541Y6956D01*
G01X49628Y6985D01*
G01X49772Y6985D01*
G01X49859Y6956D01*
G01X49916Y6927D01*
G01X49974Y6869D01*
G01X50003Y6811D01*
G01X50003Y6696D01*
G01X49974Y6638D01*
G01X49916Y6580D01*
G01X49859Y6552D01*
G01X49772Y6552D01*
G01X49772Y6696D02*
G01X49772Y6552D01*
G01X49397Y6361D02*
G01X50003Y6361D01*
G01X49397Y6361D02*
G01X49397Y6101D01*
G01X49426Y6015D01*
G01X49454Y5986D01*
G01X49512Y5957D01*
G01X49599Y5957D01*
G01X49657Y5986D01*
G01X49685Y6015D01*
G01X49714Y6101D01*
G01X49714Y6361D01*
G01X49397Y5766D02*
G01X50003Y5766D01*
G01X49397Y5403D02*
G01X49426Y5461D01*
G01X49483Y5518D01*
G01X49541Y5547D01*
G01X49628Y5576D01*
G01X49772Y5576D01*
G01X49859Y5547D01*
G01X49916Y5518D01*
G01X49974Y5461D01*
G01X50003Y5403D01*
G01X50003Y5287D01*
G01X49974Y5230D01*
G01X49916Y5172D01*
G01X49859Y5143D01*
G01X49772Y5114D01*
G01X49628Y5114D01*
G01X49541Y5143D01*
G01X49483Y5172D01*
G01X49426Y5230D01*
G01X49397Y5287D01*
G01X49397Y5403D01*
G01X49541Y4895D02*
G01X49512Y4895D01*
G01X49454Y4866D01*
G01X49426Y4837D01*
G01X49397Y4779D01*
G01X49397Y4664D01*
G01X49426Y4606D01*
G01X49454Y4577D01*
G01X49512Y4548D01*
G01X49570Y4548D01*
G01X49628Y4577D01*
G01X49714Y4635D01*
G01X50003Y4924D01*
G01X50003Y4520D01*
G01X49397Y4329D02*
G01X50003Y4329D01*
G01X49397Y10229D02*
G01X49397Y9911D01*
G01X49628Y10084D01*
G01X49628Y9998D01*
G01X49657Y9940D01*
G01X49685Y9911D01*
G01X49772Y9882D01*
G01X49830Y9882D01*
G01X49916Y9911D01*
G01X49974Y9969D01*
G01X50003Y10056D01*
G01X50003Y10142D01*
G01X49974Y10229D01*
G01X49945Y10258D01*
G01X49887Y10287D01*
G01X49397Y9692D02*
G01X50003Y9461D01*
G01X49397Y9230D02*
G01X50003Y9461D01*
G01X49397Y8982D02*
G01X49397Y8664D01*
G01X49628Y8838D01*
G01X49628Y8751D01*
G01X49657Y8693D01*
G01X49685Y8664D01*
G01X49772Y8636D01*
G01X49830Y8636D01*
G01X49916Y8664D01*
G01X49974Y8722D01*
G01X50003Y8809D01*
G01X50003Y8895D01*
G01X49974Y8982D01*
G01X49945Y9011D01*
G01X49887Y9040D01*
G01X49397Y14097D02*
G01X50003Y13866D01*
G01X49397Y13635D02*
G01X50003Y13866D01*
G01X49397Y13444D02*
G01X50003Y13444D01*
G01X49397Y13254D02*
G01X50003Y13254D01*
G01X49397Y13254D02*
G01X50003Y12850D01*
G01X49397Y12850D02*
G01X50003Y12850D01*
G01X49541Y18109D02*
G01X49483Y18137D01*
G01X49426Y18195D01*
G01X49397Y18253D01*
G01X49397Y18368D01*
G01X49426Y18426D01*
G01X49483Y18484D01*
G01X49541Y18513D01*
G01X49628Y18542D01*
G01X49772Y18542D01*
G01X49859Y18513D01*
G01X49916Y18484D01*
G01X49974Y18426D01*
G01X50003Y18368D01*
G01X50003Y18253D01*
G01X49974Y18195D01*
G01X49916Y18137D01*
G01X49859Y18109D01*
G01X49397Y17918D02*
G01X50003Y17774D01*
G01X49397Y17629D02*
G01X50003Y17774D01*
G01X49397Y17629D02*
G01X50003Y17485D01*
G01X49397Y17341D02*
G01X50003Y17485D01*
G01X49281Y16631D02*
G01X50205Y17150D01*
G01X49397Y16440D02*
G01X50003Y16440D01*
G01X49397Y16077D02*
G01X49426Y16134D01*
G01X49483Y16192D01*
G01X49541Y16221D01*
G01X49628Y16250D01*
G01X49772Y16250D01*
G01X49859Y16221D01*
G01X49916Y16192D01*
G01X49974Y16134D01*
G01X50003Y16077D01*
G01X50003Y15961D01*
G01X49974Y15903D01*
G01X49916Y15846D01*
G01X49859Y15817D01*
G01X49772Y15788D01*
G01X49628Y15788D01*
G01X49541Y15817D01*
G01X49483Y15846D01*
G01X49426Y15903D01*
G01X49397Y15961D01*
G01X49397Y16077D01*
G01X49397Y15540D02*
G01X49397Y15222D01*
G01X49628Y15395D01*
G01X49628Y15309D01*
G01X49657Y15251D01*
G01X49685Y15222D01*
G01X49772Y15193D01*
G01X49830Y15193D01*
G01X49916Y15222D01*
G01X49974Y15280D01*
G01X50003Y15367D01*
G01X50003Y15453D01*
G01X49974Y15540D01*
G01X49945Y15569D01*
G01X49887Y15597D01*
G01X49270Y22352D02*
G01X49876Y22207D01*
G01X49270Y22063D02*
G01X49876Y22207D01*
G01X49270Y22063D02*
G01X49876Y21919D01*
G01X49270Y21774D02*
G01X49876Y21919D01*
G01X49270Y21584D02*
G01X49876Y21439D01*
G01X49270Y21295D02*
G01X49876Y21439D01*
G01X49270Y21295D02*
G01X49876Y21151D01*
G01X49270Y21006D02*
G01X49876Y21151D01*
G01X49154Y20296D02*
G01X50078Y20816D01*
G01X49270Y20106D02*
G01X49876Y20106D01*
G01X49270Y19742D02*
G01X49299Y19800D01*
G01X49356Y19858D01*
G01X49414Y19887D01*
G01X49501Y19915D01*
G01X49645Y19915D01*
G01X49732Y19887D01*
G01X49789Y19858D01*
G01X49847Y19800D01*
G01X49876Y19742D01*
G01X49876Y19627D01*
G01X49847Y19569D01*
G01X49789Y19511D01*
G01X49732Y19482D01*
G01X49645Y19454D01*
G01X49501Y19454D01*
G01X49414Y19482D01*
G01X49356Y19511D01*
G01X49299Y19569D01*
G01X49270Y19627D01*
G01X49270Y19742D01*
G01X49385Y19263D02*
G01X49356Y19205D01*
G01X49270Y19119D01*
G01X49876Y19119D01*
G01X40564Y21982D02*
G01X40536Y21924D01*
G01X40478Y21867D01*
G01X40420Y21838D01*
G01X40305Y21838D01*
G01X40247Y21867D01*
G01X40189Y21924D01*
G01X40160Y21982D01*
G01X40132Y22069D01*
G01X40132Y22213D01*
G01X40160Y22300D01*
G01X40189Y22357D01*
G01X40247Y22415D01*
G01X40305Y22444D01*
G01X40420Y22444D01*
G01X40478Y22415D01*
G01X40536Y22357D01*
G01X40564Y22300D01*
G01X40564Y22213D01*
G01X40420Y22213D02*
G01X40564Y22213D01*
G01X40755Y21838D02*
G01X40755Y22444D01*
G01X40755Y21838D02*
G01X41159Y22444D01*
G01X41159Y21838D02*
G01X41159Y22444D01*
G01X41350Y21838D02*
G01X41350Y22444D01*
G01X41350Y21838D02*
G01X41552Y21838D01*
G01X41638Y21867D01*
G01X41696Y21924D01*
G01X41725Y21982D01*
G01X41754Y22069D01*
G01X41754Y22213D01*
G01X41725Y22300D01*
G01X41696Y22357D01*
G01X41638Y22415D01*
G01X41552Y22444D01*
G01X41350Y22444D01*
G01X29769Y21982D02*
G01X29741Y21924D01*
G01X29683Y21867D01*
G01X29625Y21838D01*
G01X29510Y21838D01*
G01X29452Y21867D01*
G01X29394Y21924D01*
G01X29365Y21982D01*
G01X29337Y22069D01*
G01X29337Y22213D01*
G01X29365Y22300D01*
G01X29394Y22357D01*
G01X29452Y22415D01*
G01X29510Y22444D01*
G01X29625Y22444D01*
G01X29683Y22415D01*
G01X29741Y22357D01*
G01X29769Y22300D01*
G01X29769Y22213D01*
G01X29625Y22213D02*
G01X29769Y22213D01*
G01X29960Y21838D02*
G01X29960Y22444D01*
G01X29960Y21838D02*
G01X30364Y22444D01*
G01X30364Y21838D02*
G01X30364Y22444D01*
G01X30555Y21838D02*
G01X30555Y22444D01*
G01X30555Y21838D02*
G01X30757Y21838D01*
G01X30843Y21867D01*
G01X30901Y21924D01*
G01X30930Y21982D01*
G01X30959Y22069D01*
G01X30959Y22213D01*
G01X30930Y22300D01*
G01X30901Y22357D01*
G01X30843Y22415D01*
G01X30757Y22444D01*
G01X30555Y22444D01*
G01X13767Y21982D02*
G01X13739Y21924D01*
G01X13681Y21867D01*
G01X13623Y21838D01*
G01X13508Y21838D01*
G01X13450Y21867D01*
G01X13392Y21924D01*
G01X13363Y21982D01*
G01X13335Y22069D01*
G01X13335Y22213D01*
G01X13363Y22300D01*
G01X13392Y22357D01*
G01X13450Y22415D01*
G01X13508Y22444D01*
G01X13623Y22444D01*
G01X13681Y22415D01*
G01X13739Y22357D01*
G01X13767Y22300D01*
G01X13767Y22213D01*
G01X13623Y22213D02*
G01X13767Y22213D01*
G01X13958Y21838D02*
G01X13958Y22444D01*
G01X13958Y21838D02*
G01X14362Y22444D01*
G01X14362Y21838D02*
G01X14362Y22444D01*
G01X14553Y21838D02*
G01X14553Y22444D01*
G01X14553Y21838D02*
G01X14755Y21838D01*
G01X14841Y21867D01*
G01X14899Y21924D01*
G01X14928Y21982D01*
G01X14957Y22069D01*
G01X14957Y22213D01*
G01X14928Y22300D01*
G01X14899Y22357D01*
G01X14841Y22415D01*
G01X14755Y22444D01*
G01X14553Y22444D01*
G01X3815Y5461D02*
G01X3210Y5461D01*
G01X3815Y5461D02*
G01X3815Y5720D01*
G01X3787Y5806D01*
G01X3759Y5836D01*
G01X3700Y5864D01*
G01X3642Y5864D01*
G01X3583Y5836D01*
G01X3556Y5806D01*
G01X3528Y5720D01*
G01X3528Y5461D01*
G01X3528Y5664D02*
G01X3210Y5864D01*
G01X3815Y6055D02*
G01X3210Y6459D01*
G01X3815Y6459D02*
G01X3210Y6055D01*
G01X3815Y2598D02*
G01X3815Y2915D01*
G01X3583Y2743D01*
G01X3583Y2829D01*
G01X3556Y2885D01*
G01X3528Y2915D01*
G01X3441Y2943D01*
G01X3383Y2943D01*
G01X3296Y2915D01*
G01X3238Y2857D01*
G01X3210Y2771D01*
G01X3210Y2684D01*
G01X3238Y2598D01*
G01X3266Y2567D01*
G01X3324Y2540D01*
G01X3815Y3134D02*
G01X3210Y3365D01*
G01X3815Y3596D02*
G01X3210Y3365D01*
G01X3815Y3845D02*
G01X3815Y4163D01*
G01X3583Y3987D01*
G01X3583Y4076D01*
G01X3556Y4132D01*
G01X3528Y4163D01*
G01X3441Y4191D01*
G01X3383Y4191D01*
G01X3296Y4163D01*
G01X3238Y4104D01*
G01X3210Y4018D01*
G01X3210Y3931D01*
G01X3238Y3845D01*
G01X3266Y3815D01*
G01X3324Y3787D01*
G01X3815Y8204D02*
G01X3210Y8204D01*
G01X3815Y8001D02*
G01X3815Y8404D01*
G01X3815Y8595D02*
G01X3210Y8999D01*
G01X3815Y8999D02*
G01X3210Y8595D01*
G01X3670Y10591D02*
G01X3728Y10563D01*
G01X3787Y10505D01*
G01X3815Y10449D01*
G01X3815Y10332D01*
G01X3787Y10274D01*
G01X3728Y10218D01*
G01X3670Y10187D01*
G01X3583Y10160D01*
G01X3441Y10160D01*
G01X3352Y10187D01*
G01X3296Y10218D01*
G01X3238Y10274D01*
G01X3210Y10332D01*
G01X3210Y10449D01*
G01X3238Y10505D01*
G01X3296Y10563D01*
G01X3352Y10591D01*
G01X3441Y10591D01*
G01X3441Y10449D02*
G01X3441Y10591D01*
G01X3815Y10782D02*
G01X3210Y10782D01*
G01X3815Y10782D02*
G01X3210Y11188D01*
G01X3815Y11188D02*
G01X3210Y11188D01*
G01X3815Y11379D02*
G01X3210Y11379D01*
G01X3815Y11379D02*
G01X3815Y11579D01*
G01X3787Y11666D01*
G01X3728Y11724D01*
G01X3670Y11752D01*
G01X3583Y11783D01*
G01X3441Y11783D01*
G01X3352Y11752D01*
G01X3296Y11724D01*
G01X3238Y11666D01*
G01X3210Y11579D01*
G01X3210Y11379D01*
G01X10617Y10593D02*
G01X10673Y10565D01*
G01X10731Y10506D01*
G01X10759Y10448D01*
G01X10759Y10333D01*
G01X10731Y10275D01*
G01X10673Y10217D01*
G01X10617Y10189D01*
G01X10528Y10161D01*
G01X10386Y10161D01*
G01X10299Y10189D01*
G01X10241Y10217D01*
G01X10182Y10275D01*
G01X10154Y10333D01*
G01X10154Y10448D01*
G01X10182Y10506D01*
G01X10241Y10565D01*
G01X10299Y10593D01*
G01X10386Y10593D01*
G01X10386Y10448D02*
G01X10386Y10593D01*
G01X10759Y10783D02*
G01X10154Y10783D01*
G01X10759Y10783D02*
G01X10154Y11187D01*
G01X10759Y11187D02*
G01X10154Y11187D01*
G01X10759Y11377D02*
G01X10154Y11377D01*
G01X10759Y11377D02*
G01X10759Y11581D01*
G01X10731Y11667D01*
G01X10673Y11723D01*
G01X10617Y11753D01*
G01X10528Y11781D01*
G01X10386Y11781D01*
G01X10299Y11753D01*
G01X10241Y11723D01*
G01X10182Y11667D01*
G01X10154Y11581D01*
G01X10154Y11377D01*
G01X10759Y7875D02*
G01X10154Y7875D01*
G01X10759Y8238D02*
G01X10731Y8180D01*
G01X10673Y8121D01*
G01X10617Y8093D01*
G01X10528Y8065D01*
G01X10386Y8065D01*
G01X10299Y8093D01*
G01X10241Y8121D01*
G01X10182Y8180D01*
G01X10154Y8238D01*
G01X10154Y8352D01*
G01X10182Y8411D01*
G01X10241Y8469D01*
G01X10299Y8497D01*
G01X10386Y8525D01*
G01X10528Y8525D01*
G01X10617Y8497D01*
G01X10673Y8469D01*
G01X10731Y8411D01*
G01X10759Y8352D01*
G01X10759Y8238D01*
G01X10617Y8746D02*
G01X10645Y8746D01*
G01X10703Y8774D01*
G01X10731Y8802D01*
G01X10759Y8860D01*
G01X10759Y8977D01*
G01X10731Y9033D01*
G01X10703Y9063D01*
G01X10645Y9091D01*
G01X10586Y9091D01*
G01X10528Y9063D01*
G01X10441Y9005D01*
G01X10154Y8716D01*
G01X10154Y9119D01*
G01X10759Y5335D02*
G01X10154Y5335D01*
G01X10759Y5698D02*
G01X10731Y5640D01*
G01X10673Y5581D01*
G01X10617Y5553D01*
G01X10528Y5525D01*
G01X10386Y5525D01*
G01X10299Y5553D01*
G01X10241Y5581D01*
G01X10182Y5640D01*
G01X10154Y5698D01*
G01X10154Y5812D01*
G01X10182Y5871D01*
G01X10241Y5929D01*
G01X10299Y5957D01*
G01X10386Y5985D01*
G01X10528Y5985D01*
G01X10617Y5957D01*
G01X10673Y5929D01*
G01X10731Y5871D01*
G01X10759Y5812D01*
G01X10759Y5698D01*
G01X10759Y6351D02*
G01X10731Y6262D01*
G01X10645Y6206D01*
G01X10500Y6176D01*
G01X10414Y6176D01*
G01X10269Y6206D01*
G01X10182Y6262D01*
G01X10154Y6351D01*
G01X10154Y6407D01*
G01X10182Y6493D01*
G01X10269Y6551D01*
G01X10414Y6579D01*
G01X10500Y6579D01*
G01X10645Y6551D01*
G01X10731Y6493D01*
G01X10759Y6407D01*
G01X10759Y6351D01*
G01X10759Y762D02*
G01X10154Y762D01*
G01X10759Y1125D02*
G01X10731Y1066D01*
G01X10673Y1010D01*
G01X10617Y980D01*
G01X10528Y952D01*
G01X10386Y952D01*
G01X10299Y980D01*
G01X10241Y1010D01*
G01X10182Y1066D01*
G01X10154Y1125D01*
G01X10154Y1242D01*
G01X10182Y1297D01*
G01X10241Y1356D01*
G01X10299Y1384D01*
G01X10386Y1414D01*
G01X10528Y1414D01*
G01X10617Y1384D01*
G01X10673Y1356D01*
G01X10731Y1297D01*
G01X10759Y1242D01*
G01X10759Y1125D01*
G01X10759Y1663D02*
G01X10759Y1981D01*
G01X10528Y1805D01*
G01X10528Y1892D01*
G01X10500Y1950D01*
G01X10472Y1981D01*
G01X10386Y2009D01*
G01X10327Y2009D01*
G01X10241Y1981D01*
G01X10182Y1922D01*
G01X10154Y1836D01*
G01X10154Y1750D01*
G01X10182Y1663D01*
G01X10210Y1633D01*
G01X10269Y1605D01*
G01X10876Y2717D02*
G01X9951Y2199D01*
G01X10759Y2908D02*
G01X10154Y2908D01*
G01X10759Y2908D02*
G01X10759Y3169D01*
G01X10731Y3256D01*
G01X10703Y3284D01*
G01X10645Y3314D01*
G01X10586Y3314D01*
G01X10528Y3284D01*
G01X10500Y3256D01*
G01X10472Y3169D01*
G01X10472Y2908D01*
G01X10472Y3111D02*
G01X10154Y3314D01*
G01X10759Y3505D02*
G01X10154Y3909D01*
G01X10759Y3909D02*
G01X10154Y3505D01*
G01X5171Y2598D02*
G01X5171Y2915D01*
G01X4940Y2743D01*
G01X4940Y2829D01*
G01X4912Y2885D01*
G01X4884Y2915D01*
G01X4798Y2943D01*
G01X4739Y2943D01*
G01X4653Y2915D01*
G01X4594Y2857D01*
G01X4566Y2771D01*
G01X4566Y2684D01*
G01X4594Y2598D01*
G01X4622Y2567D01*
G01X4681Y2540D01*
G01X5171Y3134D02*
G01X4566Y3365D01*
G01X5171Y3596D02*
G01X4566Y3365D01*
G01X5171Y3845D02*
G01X5171Y4163D01*
G01X4940Y3987D01*
G01X4940Y4076D01*
G01X4912Y4132D01*
G01X4884Y4163D01*
G01X4798Y4191D01*
G01X4739Y4191D01*
G01X4653Y4163D01*
G01X4594Y4104D01*
G01X4566Y4018D01*
G01X4566Y3931D01*
G01X4594Y3845D01*
G01X4622Y3815D01*
G01X4681Y3787D01*
G01X5172Y5207D02*
G01X4565Y5207D01*
G01X5172Y5207D02*
G01X5172Y5466D01*
G01X5142Y5552D01*
G01X5114Y5582D01*
G01X5055Y5610D01*
G01X4999Y5610D01*
G01X4941Y5582D01*
G01X4913Y5552D01*
G01X4883Y5466D01*
G01X4883Y5207D01*
G01X4883Y5410D02*
G01X4565Y5610D01*
G01X5086Y6205D02*
G01X5142Y6146D01*
G01X5172Y6060D01*
G01X5172Y5946D01*
G01X5142Y5859D01*
G01X5086Y5801D01*
G01X5027Y5801D01*
G01X4969Y5829D01*
G01X4941Y5859D01*
G01X4913Y5918D01*
G01X4855Y6090D01*
G01X4824Y6146D01*
G01X4796Y6177D01*
G01X4738Y6205D01*
G01X4652Y6205D01*
G01X4596Y6146D01*
G01X4565Y6060D01*
G01X4565Y5946D01*
G01X4596Y5859D01*
G01X4652Y5801D01*
G01X5172Y6598D02*
G01X4565Y6598D01*
G01X5172Y6395D02*
G01X5172Y6799D01*
G01X5029Y7670D02*
G01X5085Y7642D01*
G01X5143Y7584D01*
G01X5171Y7528D01*
G01X5171Y7411D01*
G01X5143Y7353D01*
G01X5085Y7297D01*
G01X5029Y7266D01*
G01X4940Y7239D01*
G01X4798Y7239D01*
G01X4711Y7266D01*
G01X4653Y7297D01*
G01X4594Y7353D01*
G01X4566Y7411D01*
G01X4566Y7528D01*
G01X4594Y7584D01*
G01X4653Y7642D01*
G01X4711Y7670D01*
G01X5171Y7861D02*
G01X4566Y7861D01*
G01X5171Y8267D02*
G01X4566Y8267D01*
G01X4884Y7861D02*
G01X4884Y8267D01*
G01X4363Y8458D02*
G01X4363Y8976D01*
G01X5171Y9166D02*
G01X4566Y9166D01*
G01X5171Y9166D02*
G01X5171Y9425D01*
G01X5143Y9512D01*
G01X5115Y9542D01*
G01X5057Y9570D01*
G01X4970Y9570D01*
G01X4912Y9542D01*
G01X4884Y9512D01*
G01X4853Y9425D01*
G01X4853Y9166D01*
G01X5171Y9761D02*
G01X4566Y9761D01*
G01X5171Y9761D02*
G01X5171Y9964D01*
G01X5143Y10050D01*
G01X5085Y10109D01*
G01X5029Y10137D01*
G01X4940Y10165D01*
G01X4798Y10165D01*
G01X4711Y10137D01*
G01X4653Y10109D01*
G01X4594Y10050D01*
G01X4566Y9964D01*
G01X4566Y9761D01*
G01X5171Y10541D02*
G01X4566Y10541D01*
G01X5171Y10904D02*
G01X5143Y10845D01*
G01X5085Y10789D01*
G01X5029Y10759D01*
G01X4940Y10731D01*
G01X4798Y10731D01*
G01X4711Y10759D01*
G01X4653Y10789D01*
G01X4594Y10845D01*
G01X4566Y10904D01*
G01X4566Y11021D01*
G01X4594Y11076D01*
G01X4653Y11135D01*
G01X4711Y11163D01*
G01X4798Y11193D01*
G01X4940Y11193D01*
G01X5029Y11163D01*
G01X5085Y11135D01*
G01X5143Y11076D01*
G01X5171Y11021D01*
G01X5171Y10904D01*
G01X5057Y11384D02*
G01X5085Y11442D01*
G01X5171Y11529D01*
G01X4566Y11529D01*
G01X5288Y12237D02*
G01X4363Y11719D01*
G01X5171Y12631D02*
G01X4566Y12631D01*
G01X5171Y12428D02*
G01X5171Y12832D01*
G01X5171Y13022D02*
G01X4566Y13426D01*
G01X5171Y13426D02*
G01X4566Y13022D01*
G01X3124Y19102D02*
G01X3180Y19074D01*
G01X3238Y19015D01*
G01X3266Y18957D01*
G01X3266Y18842D01*
G01X3238Y18784D01*
G01X3180Y18726D01*
G01X3124Y18698D01*
G01X3035Y18670D01*
G01X2893Y18670D01*
G01X2806Y18698D01*
G01X2748Y18726D01*
G01X2689Y18784D01*
G01X2661Y18842D01*
G01X2661Y18957D01*
G01X2689Y19015D01*
G01X2748Y19074D01*
G01X2806Y19102D01*
G01X2893Y19102D01*
G01X2893Y18957D02*
G01X2893Y19102D01*
G01X3266Y19292D02*
G01X2661Y19292D01*
G01X3266Y19292D02*
G01X2661Y19696D01*
G01X3266Y19696D02*
G01X2661Y19696D01*
G01X3266Y19886D02*
G01X2661Y19886D01*
G01X3266Y19886D02*
G01X3266Y20090D01*
G01X3238Y20176D01*
G01X3180Y20232D01*
G01X3124Y20262D01*
G01X3035Y20290D01*
G01X2893Y20290D01*
G01X2806Y20262D01*
G01X2748Y20232D01*
G01X2689Y20176D01*
G01X2661Y20090D01*
G01X2661Y19886D01*
G01X9276Y18796D02*
G01X8670Y19026D01*
G01X9276Y19257D02*
G01X8670Y19026D01*
G01X9276Y19448D02*
G01X8670Y19448D01*
G01X9276Y19638D02*
G01X8670Y19638D01*
G01X9276Y19638D02*
G01X8670Y20042D01*
G01X9276Y20042D02*
G01X8670Y20042D01*
G01X38024Y21982D02*
G01X37996Y21924D01*
G01X37938Y21867D01*
G01X37880Y21838D01*
G01X37765Y21838D01*
G01X37707Y21867D01*
G01X37649Y21924D01*
G01X37620Y21982D01*
G01X37592Y22069D01*
G01X37592Y22213D01*
G01X37620Y22300D01*
G01X37649Y22357D01*
G01X37707Y22415D01*
G01X37765Y22444D01*
G01X37880Y22444D01*
G01X37938Y22415D01*
G01X37996Y22357D01*
G01X38024Y22300D01*
G01X38215Y21838D02*
G01X38359Y22444D01*
G01X38504Y21838D02*
G01X38359Y22444D01*
G01X38504Y21838D02*
G01X38648Y22444D01*
G01X38792Y21838D02*
G01X38648Y22444D01*
G01X26924Y21838D02*
G01X27068Y22444D01*
G01X27212Y21838D02*
G01X27068Y22444D01*
G01X27212Y21838D02*
G01X27356Y22444D01*
G01X27501Y21838D02*
G01X27356Y22444D01*
G01X27691Y21838D02*
G01X27836Y22444D01*
G01X27980Y21838D02*
G01X27836Y22444D01*
G01X27980Y21838D02*
G01X28124Y22444D01*
G01X28269Y21838D02*
G01X28124Y22444D01*
G01X24384Y21838D02*
G01X24384Y22444D01*
G01X24747Y21838D02*
G01X24689Y21867D01*
G01X24632Y21924D01*
G01X24603Y21982D01*
G01X24574Y22069D01*
G01X24574Y22213D01*
G01X24603Y22300D01*
G01X24632Y22357D01*
G01X24689Y22415D01*
G01X24747Y22444D01*
G01X24863Y22444D01*
G01X24920Y22415D01*
G01X24978Y22357D01*
G01X25007Y22300D01*
G01X25036Y22213D01*
G01X25036Y22069D01*
G01X25007Y21982D01*
G01X24978Y21924D01*
G01X24920Y21867D01*
G01X24863Y21838D01*
G01X24747Y21838D01*
G01X25226Y21953D02*
G01X25284Y21924D01*
G01X25371Y21838D01*
G01X25371Y22444D01*
G01X35306Y21838D02*
G01X35306Y22444D01*
G01X35669Y21838D02*
G01X35611Y21867D01*
G01X35554Y21924D01*
G01X35525Y21982D01*
G01X35496Y22069D01*
G01X35496Y22213D01*
G01X35525Y22300D01*
G01X35554Y22357D01*
G01X35611Y22415D01*
G01X35669Y22444D01*
G01X35785Y22444D01*
G01X35842Y22415D01*
G01X35900Y22357D01*
G01X35929Y22300D01*
G01X35958Y22213D01*
G01X35958Y22069D01*
G01X35929Y21982D01*
G01X35900Y21924D01*
G01X35842Y21867D01*
G01X35785Y21838D01*
G01X35669Y21838D01*
G01X36206Y21838D02*
G01X36524Y21838D01*
G01X36350Y22069D01*
G01X36437Y22069D01*
G01X36495Y22098D01*
G01X36524Y22126D01*
G01X36552Y22213D01*
G01X36552Y22271D01*
G01X36524Y22357D01*
G01X36466Y22415D01*
G01X36379Y22444D01*
G01X36293Y22444D01*
G01X36206Y22415D01*
G01X36177Y22386D01*
G01X36148Y22328D01*
G54D35*
G01X26982Y12816D02*
G01X26878Y12867D01*
G01X26774Y12971D01*
G01X26720Y13075D01*
G01X26670Y13233D01*
G01X26670Y13492D01*
G01X26720Y13647D01*
G01X26774Y13751D01*
G01X26878Y13855D01*
G01X26982Y13906D01*
G01X27190Y13906D01*
G01X27292Y13855D01*
G01X27396Y13751D01*
G01X27449Y13647D01*
G01X27500Y13492D01*
G01X27500Y13233D01*
G01X27449Y13075D01*
G01X27396Y12971D01*
G01X27292Y12867D01*
G01X27190Y12816D01*
G01X26982Y12816D01*
G01X27137Y13700D02*
G01X27449Y14010D01*
G01X27896Y13075D02*
G01X27896Y13025D01*
G01X27947Y12920D01*
G01X28000Y12867D01*
G01X28105Y12816D01*
G01X28310Y12816D01*
G01X28414Y12867D01*
G01X28468Y12920D01*
G01X28519Y13025D01*
G01X28519Y13129D01*
G01X28468Y13233D01*
G01X28364Y13388D01*
G01X27843Y13906D01*
G01X28572Y13906D01*
G01X15875Y12816D02*
G01X15875Y13596D01*
G01X15925Y13751D01*
G01X16029Y13855D01*
G01X16187Y13906D01*
G01X16291Y13906D01*
G01X16446Y13855D01*
G01X16550Y13751D01*
G01X16601Y13596D01*
G01X16601Y12816D01*
G01X16997Y13075D02*
G01X16997Y13025D01*
G01X17048Y12920D01*
G01X17101Y12867D01*
G01X17205Y12816D01*
G01X17411Y12816D01*
G01X17515Y12867D01*
G01X17569Y12920D01*
G01X17619Y13025D01*
G01X17619Y13129D01*
G01X17569Y13233D01*
G01X17465Y13388D01*
G01X16944Y13906D01*
G01X17673Y13906D01*
G01X37777Y12816D02*
G01X37673Y12867D01*
G01X37569Y12971D01*
G01X37515Y13075D01*
G01X37465Y13233D01*
G01X37465Y13492D01*
G01X37515Y13647D01*
G01X37569Y13751D01*
G01X37673Y13855D01*
G01X37777Y13906D01*
G01X37985Y13906D01*
G01X38087Y13855D01*
G01X38191Y13751D01*
G01X38244Y13647D01*
G01X38295Y13492D01*
G01X38295Y13233D01*
G01X38244Y13075D01*
G01X38191Y12971D01*
G01X38087Y12867D01*
G01X37985Y12816D01*
G01X37777Y12816D01*
G01X37932Y13700D02*
G01X38244Y14010D01*
G01X38638Y13025D02*
G01X38742Y12971D01*
G01X38900Y12816D01*
G01X38900Y13906D01*
M00*
M02*
