G04 Layer: TopLayer*
G04 EasyEDA v6.3.53, 2020-07-05T11:12:03+02:00*
G04 cde15f3eeb0949078ea0d990088cac7f,f7dd187871414131b8e6a9aac608ee48,10*
G04 Gerber Generator version 0.2*
G04 Scale: 100 percent, Rotated: No, Reflected: No *
G04 Dimensions in millimeters *
G04 leading zeros omitted , absolute positions ,3 integer and 3 decimal *
%FSLAX33Y33*%
%MOMM*%
G90*
G71D02*

%ADD10C,0.254000*%
%ADD11C,0.508000*%
%ADD12C,0.759993*%
%ADD13C,0.510007*%
%ADD14C,0.259994*%
%ADD15C,0.999998*%
%ADD16R,0.999998X1.550010*%
%ADD17R,0.599999X0.419989*%
%ADD18R,2.799994X1.499997*%
%ADD19R,1.799996X3.999992*%
%ADD20R,1.524000X1.524000*%
%ADD21C,1.524000*%
%ADD22R,1.778000X1.778000*%
%ADD23C,1.778000*%
%ADD24C,1.699997*%
%ADD25R,1.699997X1.699997*%
%ADD26R,1.905000X1.905000*%
%ADD27C,1.905000*%
%ADD28C,1.799996*%

%LPD*%
G36*
G01X9724Y21682D02*
G01X8986Y21682D01*
G01X8970Y21681D01*
G01X8955Y21677D01*
G01X8940Y21671D01*
G01X8926Y21663D01*
G01X8914Y21652D01*
G01X7526Y20264D01*
G01X7515Y20252D01*
G01X7507Y20239D01*
G01X7501Y20224D01*
G01X7497Y20208D01*
G01X7496Y20193D01*
G01X7496Y17653D01*
G01X7495Y17619D01*
G01X7491Y17586D01*
G01X7486Y17553D01*
G01X7479Y17520D01*
G01X7469Y17488D01*
G01X7457Y17457D01*
G01X7443Y17426D01*
G01X7427Y17397D01*
G01X7410Y17369D01*
G01X7390Y17341D01*
G01X7369Y17315D01*
G01X7346Y17291D01*
G01X6141Y16085D01*
G01X6131Y16073D01*
G01X6122Y16060D01*
G01X6116Y16045D01*
G01X6112Y16029D01*
G01X6111Y16014D01*
G01X6112Y15999D01*
G01X6115Y15985D01*
G01X6120Y15972D01*
G01X6127Y15959D01*
G01X6136Y15947D01*
G01X6146Y15937D01*
G01X6157Y15928D01*
G01X6171Y15921D01*
G01X6184Y15916D01*
G01X6198Y15913D01*
G01X6213Y15912D01*
G01X6237Y15915D01*
G01X6293Y15927D01*
G01X6349Y15937D01*
G01X6405Y15944D01*
G01X6462Y15948D01*
G01X6519Y15950D01*
G01X8719Y15950D01*
G01X8768Y15949D01*
G01X8817Y15946D01*
G01X8866Y15941D01*
G01X8914Y15933D01*
G01X8963Y15924D01*
G01X9010Y15913D01*
G01X9058Y15899D01*
G01X9104Y15884D01*
G01X9150Y15866D01*
G01X9195Y15847D01*
G01X9240Y15826D01*
G01X9283Y15803D01*
G01X9325Y15778D01*
G01X9367Y15752D01*
G01X9407Y15723D01*
G01X9446Y15693D01*
G01X9483Y15662D01*
G01X9519Y15628D01*
G01X9554Y15594D01*
G01X9587Y15558D01*
G01X9619Y15520D01*
G01X9649Y15481D01*
G01X9677Y15441D01*
G01X9704Y15400D01*
G01X9729Y15357D01*
G01X9752Y15314D01*
G01X9773Y15269D01*
G01X9792Y15224D01*
G01X9809Y15179D01*
G01X9825Y15132D01*
G01X9838Y15085D01*
G01X9850Y15037D01*
G01X9859Y14989D01*
G01X9866Y14940D01*
G01X9871Y14892D01*
G01X9875Y14842D01*
G01X9876Y14793D01*
G01X9875Y14745D01*
G01X9871Y14696D01*
G01X9866Y14648D01*
G01X9859Y14599D01*
G01X9850Y14551D01*
G01X9839Y14504D01*
G01X9826Y14457D01*
G01X9811Y14411D01*
G01X9793Y14365D01*
G01X9774Y14320D01*
G01X9754Y14276D01*
G01X9731Y14233D01*
G01X9706Y14191D01*
G01X9680Y14150D01*
G01X9652Y14110D01*
G01X9623Y14071D01*
G01X9591Y14034D01*
G01X9559Y13998D01*
G01X9525Y13963D01*
G01X9488Y13930D01*
G01X9451Y13898D01*
G01X9441Y13888D01*
G01X9432Y13876D01*
G01X9424Y13863D01*
G01X9419Y13849D01*
G01X9415Y13834D01*
G01X9414Y13820D01*
G01X9415Y13805D01*
G01X9418Y13791D01*
G01X9423Y13777D01*
G01X9439Y13753D01*
G01X9449Y13743D01*
G01X9461Y13734D01*
G01X9474Y13727D01*
G01X9487Y13722D01*
G01X9502Y13719D01*
G01X9516Y13718D01*
G01X10389Y13718D01*
G01X10404Y13719D01*
G01X10420Y13723D01*
G01X10435Y13729D01*
G01X10448Y13737D01*
G01X10460Y13748D01*
G01X10535Y13823D01*
G01X10559Y13846D01*
G01X10585Y13866D01*
G01X10613Y13886D01*
G01X10641Y13903D01*
G01X10671Y13919D01*
G01X10701Y13933D01*
G01X10732Y13945D01*
G01X10764Y13955D01*
G01X10797Y13962D01*
G01X10830Y13967D01*
G01X10863Y13971D01*
G01X10896Y13972D01*
G01X24257Y13972D01*
G01X24273Y13973D01*
G01X24289Y13977D01*
G01X24303Y13983D01*
G01X24316Y13991D01*
G01X24329Y14002D01*
G01X24490Y14163D01*
G01X24500Y14175D01*
G01X24508Y14188D01*
G01X24515Y14203D01*
G01X24518Y14219D01*
G01X24520Y14235D01*
G01X24519Y14249D01*
G01X24516Y14263D01*
G01X24511Y14277D01*
G01X24503Y14290D01*
G01X24495Y14301D01*
G01X24485Y14311D01*
G01X24473Y14320D01*
G01X24460Y14327D01*
G01X24446Y14332D01*
G01X24432Y14335D01*
G01X24418Y14336D01*
G01X24401Y14335D01*
G01X24385Y14331D01*
G01X24369Y14324D01*
G01X24331Y14304D01*
G01X24292Y14286D01*
G01X24252Y14271D01*
G01X24212Y14259D01*
G01X24171Y14248D01*
G01X24130Y14240D01*
G01X24087Y14234D01*
G01X24045Y14230D01*
G01X24003Y14229D01*
G01X23962Y14230D01*
G01X23923Y14233D01*
G01X23883Y14238D01*
G01X23844Y14246D01*
G01X23805Y14255D01*
G01X23767Y14267D01*
G01X23729Y14280D01*
G01X23692Y14296D01*
G01X23656Y14313D01*
G01X23621Y14332D01*
G01X23587Y14353D01*
G01X23554Y14376D01*
G01X23523Y14400D01*
G01X23492Y14427D01*
G01X23464Y14454D01*
G01X23437Y14484D01*
G01X23411Y14514D01*
G01X23387Y14546D01*
G01X23364Y14579D01*
G01X23344Y14613D01*
G01X23325Y14649D01*
G01X23308Y14685D01*
G01X23293Y14722D01*
G01X23269Y14798D01*
G01X23263Y14815D01*
G01X23255Y14831D01*
G01X23243Y14845D01*
G01X21610Y16478D01*
G01X21598Y16489D01*
G01X21584Y16497D01*
G01X21569Y16503D01*
G01X21553Y16507D01*
G01X21538Y16508D01*
G01X20908Y16508D01*
G01X20893Y16507D01*
G01X20879Y16504D01*
G01X20866Y16499D01*
G01X20853Y16492D01*
G01X20841Y16483D01*
G01X20831Y16473D01*
G01X20822Y16461D01*
G01X20815Y16449D01*
G01X20810Y16435D01*
G01X20807Y16421D01*
G01X20806Y16406D01*
G01X20806Y16369D01*
G01X20805Y16346D01*
G01X20802Y16323D01*
G01X20796Y16299D01*
G01X20789Y16277D01*
G01X20779Y16255D01*
G01X20768Y16235D01*
G01X20754Y16215D01*
G01X20739Y16197D01*
G01X20722Y16180D01*
G01X20704Y16165D01*
G01X20685Y16151D01*
G01X20664Y16140D01*
G01X20642Y16131D01*
G01X20620Y16123D01*
G01X20597Y16117D01*
G01X20573Y16114D01*
G01X20550Y16113D01*
G01X19549Y16113D01*
G01X19526Y16114D01*
G01X19502Y16117D01*
G01X19479Y16123D01*
G01X19457Y16131D01*
G01X19435Y16140D01*
G01X19414Y16151D01*
G01X19395Y16165D01*
G01X19377Y16180D01*
G01X19360Y16197D01*
G01X19345Y16215D01*
G01X19331Y16235D01*
G01X19320Y16255D01*
G01X19310Y16277D01*
G01X19303Y16299D01*
G01X19297Y16323D01*
G01X19294Y16346D01*
G01X19293Y16369D01*
G01X19293Y17920D01*
G01X19294Y17944D01*
G01X19297Y17967D01*
G01X19303Y17991D01*
G01X19311Y18014D01*
G01X19321Y18036D01*
G01X19333Y18057D01*
G01X19347Y18076D01*
G01X19362Y18095D01*
G01X19380Y18112D01*
G01X19391Y18124D01*
G01X19401Y18138D01*
G01X19408Y18154D01*
G01X19412Y18171D01*
G01X19414Y18187D01*
G01X19414Y19136D01*
G01X19413Y19151D01*
G01X19410Y19165D01*
G01X19405Y19179D01*
G01X19389Y19203D01*
G01X19379Y19213D01*
G01X19367Y19222D01*
G01X19354Y19229D01*
G01X19341Y19234D01*
G01X19326Y19237D01*
G01X19312Y19238D01*
G01X19310Y19238D01*
G01X19278Y19237D01*
G01X19228Y19238D01*
G01X19179Y19242D01*
G01X19129Y19247D01*
G01X19079Y19254D01*
G01X19030Y19263D01*
G01X18981Y19275D01*
G01X18934Y19288D01*
G01X18886Y19303D01*
G01X18839Y19320D01*
G01X18793Y19339D01*
G01X18748Y19360D01*
G01X18704Y19383D01*
G01X18660Y19408D01*
G01X18618Y19434D01*
G01X18577Y19462D01*
G01X18536Y19492D01*
G01X18497Y19523D01*
G01X18460Y19556D01*
G01X18424Y19591D01*
G01X18390Y19627D01*
G01X18357Y19664D01*
G01X18325Y19703D01*
G01X18295Y19743D01*
G01X18267Y19784D01*
G01X18240Y19826D01*
G01X18215Y19869D01*
G01X18193Y19914D01*
G01X18172Y19959D01*
G01X18152Y20006D01*
G01X18135Y20052D01*
G01X18120Y20100D01*
G01X18107Y20148D01*
G01X18102Y20162D01*
G01X18095Y20175D01*
G01X18086Y20187D01*
G01X18076Y20198D01*
G01X18064Y20207D01*
G01X18051Y20214D01*
G01X18038Y20220D01*
G01X18023Y20223D01*
G01X18008Y20225D01*
G01X17993Y20223D01*
G01X17979Y20220D01*
G01X17965Y20214D01*
G01X17952Y20207D01*
G01X17940Y20198D01*
G01X17930Y20187D01*
G01X17921Y20175D01*
G01X17915Y20162D01*
G01X17910Y20148D01*
G01X17896Y20100D01*
G01X17881Y20052D01*
G01X17864Y20006D01*
G01X17845Y19960D01*
G01X17824Y19915D01*
G01X17801Y19870D01*
G01X17776Y19827D01*
G01X17750Y19785D01*
G01X17722Y19744D01*
G01X17692Y19704D01*
G01X17661Y19665D01*
G01X17628Y19628D01*
G01X17594Y19592D01*
G01X17558Y19558D01*
G01X17520Y19524D01*
G01X17482Y19493D01*
G01X17442Y19464D01*
G01X17401Y19435D01*
G01X17358Y19409D01*
G01X17315Y19384D01*
G01X17271Y19361D01*
G01X17226Y19340D01*
G01X17212Y19333D01*
G01X17199Y19323D01*
G01X17188Y19312D01*
G01X17180Y19299D01*
G01X17162Y19271D01*
G01X17143Y19245D01*
G01X17122Y19220D01*
G01X17100Y19196D01*
G01X16208Y18304D01*
G01X16198Y18292D01*
G01X16189Y18278D01*
G01X16183Y18263D01*
G01X16179Y18248D01*
G01X16178Y18232D01*
G01X16179Y18216D01*
G01X16183Y18202D01*
G01X16188Y18187D01*
G01X16196Y18174D01*
G01X16206Y18162D01*
G01X16217Y18152D01*
G01X16230Y18143D01*
G01X16251Y18130D01*
G01X16270Y18115D01*
G01X16289Y18098D01*
G01X16305Y18080D01*
G01X16320Y18060D01*
G01X16332Y18039D01*
G01X16342Y18016D01*
G01X16350Y17993D01*
G01X16356Y17968D01*
G01X16360Y17944D01*
G01X16361Y17920D01*
G01X16361Y16369D01*
G01X16360Y16346D01*
G01X16357Y16323D01*
G01X16351Y16299D01*
G01X16344Y16277D01*
G01X16334Y16255D01*
G01X16323Y16235D01*
G01X16309Y16215D01*
G01X16294Y16197D01*
G01X16277Y16180D01*
G01X16259Y16165D01*
G01X16240Y16151D01*
G01X16219Y16140D01*
G01X16197Y16131D01*
G01X16175Y16123D01*
G01X16152Y16117D01*
G01X16128Y16114D01*
G01X16105Y16113D01*
G01X15104Y16113D01*
G01X15081Y16114D01*
G01X15057Y16117D01*
G01X15034Y16123D01*
G01X15012Y16131D01*
G01X14990Y16140D01*
G01X14969Y16151D01*
G01X14950Y16165D01*
G01X14932Y16180D01*
G01X14915Y16197D01*
G01X14900Y16215D01*
G01X14886Y16235D01*
G01X14875Y16255D01*
G01X14865Y16277D01*
G01X14858Y16299D01*
G01X14852Y16323D01*
G01X14849Y16346D01*
G01X14848Y16369D01*
G01X14848Y17920D01*
G01X14849Y17943D01*
G01X14852Y17965D01*
G01X14857Y17987D01*
G01X14864Y18009D01*
G01X14873Y18030D01*
G01X14884Y18051D01*
G01X14897Y18070D01*
G01X14911Y18088D01*
G01X14927Y18104D01*
G01X14944Y18119D01*
G01X14962Y18133D01*
G01X14982Y18145D01*
G01X15003Y18155D01*
G01X15024Y18163D01*
G01X15039Y18169D01*
G01X15052Y18178D01*
G01X15064Y18188D01*
G01X15074Y18200D01*
G01X15083Y18214D01*
G01X15089Y18228D01*
G01X15093Y18244D01*
G01X15094Y18260D01*
G01X15094Y18425D01*
G01X15095Y18458D01*
G01X15098Y18491D01*
G01X15103Y18524D01*
G01X15111Y18557D01*
G01X15121Y18589D01*
G01X15133Y18620D01*
G01X15147Y18651D01*
G01X15162Y18680D01*
G01X15180Y18709D01*
G01X15199Y18736D01*
G01X15221Y18762D01*
G01X15244Y18786D01*
G01X15894Y19437D01*
G01X15904Y19449D01*
G01X15913Y19463D01*
G01X15919Y19477D01*
G01X15923Y19493D01*
G01X15924Y19509D01*
G01X15923Y19525D01*
G01X15919Y19541D01*
G01X15913Y19555D01*
G01X15904Y19569D01*
G01X15893Y19581D01*
G01X15856Y19620D01*
G01X15820Y19660D01*
G01X15786Y19701D01*
G01X15754Y19744D01*
G01X15724Y19788D01*
G01X15696Y19834D01*
G01X15670Y19881D01*
G01X15645Y19929D01*
G01X15624Y19978D01*
G01X15604Y20027D01*
G01X15601Y20035D01*
G01X15599Y20042D01*
G01X15582Y20091D01*
G01X15568Y20141D01*
G01X15556Y20191D01*
G01X15546Y20241D01*
G01X15539Y20293D01*
G01X15534Y20343D01*
G01X15530Y20395D01*
G01X15529Y20447D01*
G01X15530Y20498D01*
G01X15534Y20550D01*
G01X15539Y20600D01*
G01X15546Y20652D01*
G01X15556Y20702D01*
G01X15568Y20752D01*
G01X15582Y20802D01*
G01X15599Y20851D01*
G01X15601Y20858D01*
G01X15604Y20866D01*
G01X15623Y20914D01*
G01X15644Y20962D01*
G01X15668Y21008D01*
G01X15693Y21054D01*
G01X15720Y21099D01*
G01X15749Y21142D01*
G01X15780Y21184D01*
G01X15813Y21225D01*
G01X15847Y21264D01*
G01X15857Y21276D01*
G01X15864Y21289D01*
G01X15869Y21303D01*
G01X15873Y21318D01*
G01X15874Y21332D01*
G01X15872Y21348D01*
G01X15869Y21364D01*
G01X15863Y21379D01*
G01X15855Y21392D01*
G01X15844Y21405D01*
G01X15596Y21652D01*
G01X15584Y21663D01*
G01X15570Y21671D01*
G01X15555Y21677D01*
G01X15540Y21681D01*
G01X15524Y21682D01*
G01X15459Y21682D01*
G01X15445Y21681D01*
G01X15431Y21678D01*
G01X15417Y21673D01*
G01X15404Y21666D01*
G01X15392Y21658D01*
G01X15382Y21647D01*
G01X15374Y21636D01*
G01X15367Y21623D01*
G01X15361Y21609D01*
G01X15358Y21595D01*
G01X15357Y21581D01*
G01X15359Y21563D01*
G01X15364Y21545D01*
G01X15384Y21505D01*
G01X15394Y21480D01*
G01X15402Y21453D01*
G01X15406Y21426D01*
G01X15407Y21399D01*
G01X15407Y20986D01*
G01X14738Y20986D01*
G01X14738Y21581D01*
G01X14737Y21595D01*
G01X14734Y21609D01*
G01X14728Y21623D01*
G01X14722Y21636D01*
G01X14713Y21647D01*
G01X14703Y21658D01*
G01X14691Y21666D01*
G01X14679Y21673D01*
G01X14665Y21678D01*
G01X14651Y21681D01*
G01X14637Y21682D01*
G01X13760Y21682D01*
G01X13745Y21681D01*
G01X13731Y21678D01*
G01X13718Y21673D01*
G01X13705Y21666D01*
G01X13694Y21658D01*
G01X13683Y21647D01*
G01X13674Y21636D01*
G01X13668Y21623D01*
G01X13663Y21609D01*
G01X13660Y21595D01*
G01X13659Y21581D01*
G01X13658Y21581D01*
G01X13658Y20986D01*
G01X12989Y20986D01*
G01X12989Y21399D01*
G01X12991Y21426D01*
G01X12995Y21453D01*
G01X13002Y21480D01*
G01X13012Y21505D01*
G01X13025Y21529D01*
G01X13032Y21545D01*
G01X13037Y21563D01*
G01X13039Y21581D01*
G01X13038Y21595D01*
G01X13035Y21609D01*
G01X13030Y21623D01*
G01X13023Y21636D01*
G01X13014Y21647D01*
G01X13004Y21658D01*
G01X12992Y21666D01*
G01X12979Y21673D01*
G01X12966Y21678D01*
G01X12951Y21681D01*
G01X12937Y21682D01*
G01X11514Y21682D01*
G01X11500Y21681D01*
G01X11485Y21678D01*
G01X11472Y21673D01*
G01X11459Y21666D01*
G01X11448Y21658D01*
G01X11437Y21647D01*
G01X11428Y21636D01*
G01X11422Y21623D01*
G01X11417Y21609D01*
G01X11414Y21595D01*
G01X11413Y21581D01*
G01X11414Y21565D01*
G01X11417Y21550D01*
G01X11423Y21535D01*
G01X11432Y21521D01*
G01X11442Y21509D01*
G01X11476Y21473D01*
G01X11509Y21435D01*
G01X11540Y21396D01*
G01X11570Y21355D01*
G01X11597Y21314D01*
G01X11623Y21271D01*
G01X11647Y21227D01*
G01X11669Y21182D01*
G01X11689Y21136D01*
G01X11707Y21089D01*
G01X11723Y21042D01*
G01X11737Y20994D01*
G01X11749Y20945D01*
G01X11759Y20896D01*
G01X11766Y20846D01*
G01X11771Y20797D01*
G01X11775Y20747D01*
G01X11776Y20696D01*
G01X11776Y18297D01*
G01X11775Y18247D01*
G01X11771Y18199D01*
G01X11766Y18150D01*
G01X11759Y18101D01*
G01X11750Y18053D01*
G01X11738Y18005D01*
G01X11725Y17958D01*
G01X11710Y17911D01*
G01X11692Y17865D01*
G01X11673Y17820D01*
G01X11652Y17776D01*
G01X11629Y17732D01*
G01X11604Y17690D01*
G01X11577Y17649D01*
G01X11549Y17609D01*
G01X11519Y17570D01*
G01X11487Y17533D01*
G01X11454Y17496D01*
G01X11419Y17461D01*
G01X11383Y17428D01*
G01X11346Y17396D01*
G01X11307Y17366D01*
G01X11267Y17339D01*
G01X11226Y17312D01*
G01X11183Y17287D01*
G01X11140Y17264D01*
G01X11096Y17243D01*
G01X11051Y17223D01*
G01X11004Y17206D01*
G01X10958Y17191D01*
G01X10911Y17178D01*
G01X10863Y17166D01*
G01X10815Y17157D01*
G01X10766Y17150D01*
G01X10717Y17144D01*
G01X10669Y17141D01*
G01X10619Y17140D01*
G01X10570Y17141D01*
G01X10521Y17144D01*
G01X10472Y17150D01*
G01X10424Y17157D01*
G01X10375Y17166D01*
G01X10328Y17178D01*
G01X10280Y17191D01*
G01X10234Y17206D01*
G01X10188Y17223D01*
G01X10143Y17243D01*
G01X10099Y17264D01*
G01X10055Y17287D01*
G01X10013Y17312D01*
G01X9931Y17366D01*
G01X9893Y17396D01*
G01X9855Y17428D01*
G01X9819Y17461D01*
G01X9784Y17496D01*
G01X9751Y17533D01*
G01X9720Y17570D01*
G01X9690Y17609D01*
G01X9661Y17649D01*
G01X9634Y17690D01*
G01X9609Y17732D01*
G01X9586Y17776D01*
G01X9565Y17820D01*
G01X9546Y17865D01*
G01X9529Y17911D01*
G01X9513Y17958D01*
G01X9500Y18005D01*
G01X9488Y18053D01*
G01X9479Y18101D01*
G01X9472Y18150D01*
G01X9467Y18199D01*
G01X9464Y18247D01*
G01X9463Y18297D01*
G01X9463Y20696D01*
G01X9464Y20747D01*
G01X9467Y20797D01*
G01X9473Y20846D01*
G01X9480Y20896D01*
G01X9490Y20945D01*
G01X9502Y20994D01*
G01X9515Y21042D01*
G01X9549Y21136D01*
G01X9569Y21182D01*
G01X9592Y21227D01*
G01X9615Y21271D01*
G01X9641Y21314D01*
G01X9669Y21355D01*
G01X9698Y21396D01*
G01X9729Y21435D01*
G01X9762Y21473D01*
G01X9797Y21509D01*
G01X9807Y21521D01*
G01X9815Y21535D01*
G01X9821Y21550D01*
G01X9825Y21565D01*
G01X9826Y21581D01*
G01X9825Y21595D01*
G01X9822Y21609D01*
G01X9817Y21623D01*
G01X9810Y21636D01*
G01X9801Y21647D01*
G01X9791Y21658D01*
G01X9780Y21666D01*
G01X9766Y21673D01*
G01X9753Y21678D01*
G01X9739Y21681D01*
G01X9724Y21682D01*
G37*

%LPC*%
G36*
G01X13291Y16693D02*
G01X12848Y16693D01*
G01X12848Y16369D01*
G01X12849Y16346D01*
G01X12852Y16323D01*
G01X12858Y16299D01*
G01X12865Y16277D01*
G01X12875Y16255D01*
G01X12886Y16235D01*
G01X12900Y16215D01*
G01X12915Y16197D01*
G01X12932Y16180D01*
G01X12950Y16165D01*
G01X12969Y16151D01*
G01X12990Y16140D01*
G01X13012Y16131D01*
G01X13034Y16123D01*
G01X13057Y16117D01*
G01X13081Y16114D01*
G01X13104Y16113D01*
G01X13291Y16113D01*
G01X13291Y16693D01*
G37*
G36*
G01X14361Y16693D02*
G01X13918Y16693D01*
G01X13918Y16113D01*
G01X14105Y16113D01*
G01X14128Y16114D01*
G01X14152Y16117D01*
G01X14175Y16123D01*
G01X14197Y16131D01*
G01X14219Y16140D01*
G01X14240Y16151D01*
G01X14259Y16165D01*
G01X14277Y16180D01*
G01X14294Y16197D01*
G01X14309Y16215D01*
G01X14323Y16235D01*
G01X14334Y16255D01*
G01X14344Y16277D01*
G01X14351Y16299D01*
G01X14357Y16323D01*
G01X14360Y16346D01*
G01X14361Y16369D01*
G01X14361Y16693D01*
G37*
G36*
G01X17736Y16693D02*
G01X17293Y16693D01*
G01X17293Y16369D01*
G01X17294Y16346D01*
G01X17297Y16323D01*
G01X17303Y16299D01*
G01X17310Y16277D01*
G01X17320Y16255D01*
G01X17331Y16235D01*
G01X17345Y16215D01*
G01X17360Y16197D01*
G01X17377Y16180D01*
G01X17395Y16165D01*
G01X17414Y16151D01*
G01X17435Y16140D01*
G01X17457Y16131D01*
G01X17479Y16123D01*
G01X17502Y16117D01*
G01X17526Y16114D01*
G01X17549Y16113D01*
G01X17736Y16113D01*
G01X17736Y16693D01*
G37*
G36*
G01X18806Y16693D02*
G01X18363Y16693D01*
G01X18363Y16113D01*
G01X18550Y16113D01*
G01X18573Y16114D01*
G01X18597Y16117D01*
G01X18620Y16123D01*
G01X18642Y16131D01*
G01X18664Y16140D01*
G01X18685Y16151D01*
G01X18704Y16165D01*
G01X18722Y16180D01*
G01X18739Y16197D01*
G01X18754Y16215D01*
G01X18768Y16235D01*
G01X18779Y16255D01*
G01X18789Y16277D01*
G01X18796Y16299D01*
G01X18802Y16323D01*
G01X18805Y16346D01*
G01X18806Y16369D01*
G01X18806Y16693D01*
G37*
G36*
G01X18550Y18176D02*
G01X18363Y18176D01*
G01X18363Y17596D01*
G01X18806Y17596D01*
G01X18806Y17920D01*
G01X18805Y17943D01*
G01X18802Y17966D01*
G01X18796Y17990D01*
G01X18789Y18012D01*
G01X18779Y18034D01*
G01X18768Y18054D01*
G01X18754Y18074D01*
G01X18739Y18092D01*
G01X18722Y18109D01*
G01X18704Y18124D01*
G01X18685Y18138D01*
G01X18664Y18149D01*
G01X18642Y18158D01*
G01X18620Y18166D01*
G01X18597Y18172D01*
G01X18573Y18175D01*
G01X18550Y18176D01*
G37*
G36*
G01X17736Y18176D02*
G01X17549Y18176D01*
G01X17526Y18175D01*
G01X17502Y18172D01*
G01X17479Y18166D01*
G01X17457Y18158D01*
G01X17435Y18149D01*
G01X17414Y18138D01*
G01X17395Y18124D01*
G01X17377Y18109D01*
G01X17360Y18092D01*
G01X17345Y18074D01*
G01X17331Y18054D01*
G01X17320Y18034D01*
G01X17310Y18012D01*
G01X17303Y17990D01*
G01X17297Y17966D01*
G01X17294Y17943D01*
G01X17293Y17920D01*
G01X17293Y17596D01*
G01X17736Y17596D01*
G01X17736Y18176D01*
G37*
G36*
G01X13291Y18176D02*
G01X13104Y18176D01*
G01X13081Y18175D01*
G01X13057Y18172D01*
G01X13034Y18166D01*
G01X13012Y18158D01*
G01X12990Y18149D01*
G01X12969Y18138D01*
G01X12950Y18124D01*
G01X12932Y18109D01*
G01X12915Y18092D01*
G01X12900Y18074D01*
G01X12886Y18054D01*
G01X12875Y18034D01*
G01X12865Y18012D01*
G01X12858Y17990D01*
G01X12852Y17966D01*
G01X12849Y17943D01*
G01X12848Y17920D01*
G01X12848Y17596D01*
G01X13291Y17596D01*
G01X13291Y18176D01*
G37*
G36*
G01X14105Y18176D02*
G01X13918Y18176D01*
G01X13918Y17596D01*
G01X14361Y17596D01*
G01X14361Y17920D01*
G01X14360Y17943D01*
G01X14357Y17966D01*
G01X14351Y17990D01*
G01X14344Y18012D01*
G01X14334Y18034D01*
G01X14323Y18054D01*
G01X14309Y18074D01*
G01X14294Y18092D01*
G01X14277Y18109D01*
G01X14259Y18124D01*
G01X14240Y18138D01*
G01X14219Y18149D01*
G01X14197Y18158D01*
G01X14175Y18166D01*
G01X14152Y18172D01*
G01X14128Y18175D01*
G01X14105Y18176D01*
G37*
G36*
G01X15407Y19906D02*
G01X14738Y19906D01*
G01X14738Y19237D01*
G01X15151Y19237D01*
G01X15174Y19238D01*
G01X15198Y19242D01*
G01X15221Y19247D01*
G01X15243Y19255D01*
G01X15265Y19264D01*
G01X15286Y19276D01*
G01X15305Y19289D01*
G01X15323Y19305D01*
G01X15340Y19321D01*
G01X15355Y19340D01*
G01X15369Y19359D01*
G01X15380Y19380D01*
G01X15390Y19402D01*
G01X15397Y19424D01*
G01X15403Y19447D01*
G01X15406Y19470D01*
G01X15407Y19494D01*
G01X15407Y19906D01*
G37*
G36*
G01X13658Y19906D02*
G01X12989Y19906D01*
G01X12989Y19494D01*
G01X12990Y19470D01*
G01X12994Y19447D01*
G01X12999Y19424D01*
G01X13006Y19402D01*
G01X13016Y19380D01*
G01X13028Y19359D01*
G01X13041Y19340D01*
G01X13056Y19321D01*
G01X13073Y19305D01*
G01X13091Y19289D01*
G01X13110Y19276D01*
G01X13131Y19264D01*
G01X13153Y19255D01*
G01X13175Y19247D01*
G01X13198Y19242D01*
G01X13222Y19238D01*
G01X13246Y19237D01*
G01X13658Y19237D01*
G01X13658Y19906D01*
G37*

%LPD*%
G36*
G01X28061Y22603D02*
G01X16338Y22603D01*
G01X16323Y22602D01*
G01X16309Y22599D01*
G01X16296Y22594D01*
G01X16283Y22587D01*
G01X16271Y22578D01*
G01X16261Y22568D01*
G01X16252Y22556D01*
G01X16245Y22544D01*
G01X16240Y22530D01*
G01X16237Y22516D01*
G01X16236Y22501D01*
G01X16237Y22486D01*
G01X16241Y22470D01*
G01X16247Y22455D01*
G01X16256Y22441D01*
G01X16266Y22430D01*
G01X17076Y21619D01*
G01X17088Y21609D01*
G01X17101Y21601D01*
G01X17116Y21595D01*
G01X17163Y21578D01*
G01X17211Y21560D01*
G01X17257Y21539D01*
G01X17302Y21516D01*
G01X17346Y21491D01*
G01X17389Y21466D01*
G01X17431Y21437D01*
G01X17472Y21407D01*
G01X17511Y21376D01*
G01X17549Y21343D01*
G01X17586Y21308D01*
G01X17622Y21272D01*
G01X17656Y21234D01*
G01X17688Y21195D01*
G01X17718Y21155D01*
G01X17746Y21114D01*
G01X17773Y21070D01*
G01X17799Y21027D01*
G01X17822Y20982D01*
G01X17844Y20936D01*
G01X17863Y20889D01*
G01X17881Y20842D01*
G01X17896Y20794D01*
G01X17910Y20745D01*
G01X17915Y20731D01*
G01X17921Y20718D01*
G01X17930Y20706D01*
G01X17940Y20695D01*
G01X17952Y20686D01*
G01X17965Y20679D01*
G01X17979Y20673D01*
G01X17993Y20670D01*
G01X18008Y20668D01*
G01X18023Y20670D01*
G01X18038Y20673D01*
G01X18051Y20679D01*
G01X18064Y20686D01*
G01X18076Y20695D01*
G01X18086Y20706D01*
G01X18095Y20718D01*
G01X18102Y20731D01*
G01X18107Y20745D01*
G01X18120Y20793D01*
G01X18135Y20841D01*
G01X18152Y20887D01*
G01X18172Y20934D01*
G01X18193Y20979D01*
G01X18215Y21024D01*
G01X18240Y21067D01*
G01X18267Y21109D01*
G01X18295Y21150D01*
G01X18325Y21190D01*
G01X18357Y21229D01*
G01X18390Y21266D01*
G01X18424Y21302D01*
G01X18460Y21337D01*
G01X18497Y21370D01*
G01X18536Y21401D01*
G01X18577Y21431D01*
G01X18618Y21459D01*
G01X18660Y21485D01*
G01X18704Y21510D01*
G01X18748Y21533D01*
G01X18793Y21554D01*
G01X18839Y21573D01*
G01X18886Y21590D01*
G01X18934Y21605D01*
G01X18981Y21618D01*
G01X19030Y21630D01*
G01X19079Y21639D01*
G01X19129Y21646D01*
G01X19179Y21651D01*
G01X19228Y21655D01*
G01X19278Y21656D01*
G01X19328Y21655D01*
G01X19378Y21651D01*
G01X19427Y21646D01*
G01X19477Y21639D01*
G01X19526Y21630D01*
G01X19575Y21618D01*
G01X19623Y21605D01*
G01X19671Y21590D01*
G01X19718Y21573D01*
G01X19764Y21554D01*
G01X19809Y21533D01*
G01X19854Y21510D01*
G01X19897Y21485D01*
G01X19940Y21458D01*
G01X19981Y21430D01*
G01X20021Y21401D01*
G01X20059Y21369D01*
G01X20097Y21336D01*
G01X20133Y21301D01*
G01X20168Y21265D01*
G01X20201Y21228D01*
G01X20232Y21189D01*
G01X20262Y21149D01*
G01X20290Y21108D01*
G01X20317Y21065D01*
G01X20341Y21022D01*
G01X20364Y20977D01*
G01X20386Y20932D01*
G01X20404Y20886D01*
G01X20422Y20839D01*
G01X20437Y20791D01*
G01X20450Y20743D01*
G01X20461Y20694D01*
G01X20471Y20646D01*
G01X20478Y20596D01*
G01X20483Y20547D01*
G01X20486Y20496D01*
G01X20487Y20447D01*
G01X20486Y20390D01*
G01X20482Y20334D01*
G01X20475Y20277D01*
G01X20466Y20221D01*
G01X20464Y20203D01*
G01X20465Y20187D01*
G01X20469Y20171D01*
G01X20475Y20156D01*
G01X20484Y20143D01*
G01X20494Y20131D01*
G01X20500Y20124D01*
G01X20527Y20096D01*
G01X20551Y20067D01*
G01X20574Y20036D01*
G01X20595Y20004D01*
G01X20614Y19970D01*
G01X20631Y19935D01*
G01X20646Y19900D01*
G01X20658Y19864D01*
G01X20668Y19827D01*
G01X20676Y19789D01*
G01X20682Y19751D01*
G01X20686Y19713D01*
G01X20687Y19674D01*
G01X20687Y18186D01*
G01X20688Y18169D01*
G01X20692Y18153D01*
G01X20699Y18137D01*
G01X20709Y18123D01*
G01X20738Y18094D01*
G01X20753Y18076D01*
G01X20767Y18056D01*
G01X20779Y18035D01*
G01X20788Y18013D01*
G01X20796Y17990D01*
G01X20802Y17967D01*
G01X20805Y17944D01*
G01X20806Y17920D01*
G01X20806Y17883D01*
G01X20807Y17868D01*
G01X20810Y17854D01*
G01X20815Y17840D01*
G01X20822Y17828D01*
G01X20831Y17816D01*
G01X20841Y17806D01*
G01X20853Y17797D01*
G01X20866Y17790D01*
G01X20879Y17785D01*
G01X20893Y17782D01*
G01X20908Y17781D01*
G01X21844Y17781D01*
G01X21882Y17780D01*
G01X21920Y17776D01*
G01X21958Y17770D01*
G01X21996Y17763D01*
G01X22033Y17752D01*
G01X22069Y17740D01*
G01X22105Y17725D01*
G01X22139Y17708D01*
G01X22173Y17689D01*
G01X22205Y17668D01*
G01X22236Y17645D01*
G01X22266Y17621D01*
G01X22294Y17595D01*
G01X24143Y15745D01*
G01X24157Y15733D01*
G01X24173Y15725D01*
G01X24190Y15719D01*
G01X24266Y15695D01*
G01X24303Y15680D01*
G01X24339Y15663D01*
G01X24375Y15644D01*
G01X24409Y15624D01*
G01X24442Y15601D01*
G01X24474Y15577D01*
G01X24504Y15551D01*
G01X24534Y15524D01*
G01X24561Y15496D01*
G01X24588Y15465D01*
G01X24612Y15434D01*
G01X24635Y15401D01*
G01X24656Y15367D01*
G01X24675Y15332D01*
G01X24692Y15296D01*
G01X24708Y15259D01*
G01X24721Y15221D01*
G01X24733Y15183D01*
G01X24742Y15144D01*
G01X24750Y15105D01*
G01X24755Y15065D01*
G01X24758Y15026D01*
G01X24759Y14986D01*
G01X24758Y14943D01*
G01X24754Y14901D01*
G01X24748Y14859D01*
G01X24740Y14817D01*
G01X24729Y14776D01*
G01X24717Y14736D01*
G01X24702Y14696D01*
G01X24684Y14657D01*
G01X24664Y14619D01*
G01X24657Y14603D01*
G01X24653Y14587D01*
G01X24652Y14570D01*
G01X24653Y14556D01*
G01X24656Y14542D01*
G01X24661Y14528D01*
G01X24668Y14515D01*
G01X24677Y14503D01*
G01X24687Y14493D01*
G01X24698Y14485D01*
G01X24711Y14478D01*
G01X24725Y14472D01*
G01X24739Y14469D01*
G01X24753Y14468D01*
G01X24769Y14470D01*
G01X24785Y14473D01*
G01X24800Y14480D01*
G01X24813Y14488D01*
G01X24825Y14498D01*
G01X26362Y16036D01*
G01X26373Y16048D01*
G01X26381Y16061D01*
G01X26387Y16076D01*
G01X26391Y16091D01*
G01X26392Y16107D01*
G01X26391Y16124D01*
G01X26387Y16140D01*
G01X26380Y16155D01*
G01X26371Y16169D01*
G01X26360Y16182D01*
G01X26343Y16199D01*
G01X26329Y16216D01*
G01X26315Y16236D01*
G01X26304Y16257D01*
G01X26295Y16278D01*
G01X26287Y16300D01*
G01X26282Y16323D01*
G01X26279Y16346D01*
G01X26278Y16369D01*
G01X26278Y17920D01*
G01X26279Y17943D01*
G01X26282Y17966D01*
G01X26288Y17990D01*
G01X26295Y18012D01*
G01X26305Y18034D01*
G01X26316Y18054D01*
G01X26330Y18074D01*
G01X26345Y18092D01*
G01X26362Y18109D01*
G01X26380Y18124D01*
G01X26399Y18138D01*
G01X26420Y18149D01*
G01X26442Y18158D01*
G01X26464Y18166D01*
G01X26487Y18172D01*
G01X26511Y18175D01*
G01X26534Y18176D01*
G01X27535Y18176D01*
G01X27558Y18175D01*
G01X27582Y18172D01*
G01X27605Y18166D01*
G01X27627Y18158D01*
G01X27649Y18149D01*
G01X27670Y18138D01*
G01X27689Y18124D01*
G01X27707Y18109D01*
G01X27724Y18092D01*
G01X27739Y18074D01*
G01X27753Y18054D01*
G01X27764Y18034D01*
G01X27774Y18012D01*
G01X27781Y17990D01*
G01X27787Y17966D01*
G01X27790Y17943D01*
G01X27791Y17920D01*
G01X27791Y16369D01*
G01X27790Y16346D01*
G01X27787Y16324D01*
G01X27782Y16302D01*
G01X27775Y16280D01*
G01X27766Y16259D01*
G01X27755Y16239D01*
G01X27742Y16219D01*
G01X27728Y16202D01*
G01X27712Y16185D01*
G01X27695Y16170D01*
G01X27677Y16156D01*
G01X27658Y16144D01*
G01X27637Y16134D01*
G01X27615Y16126D01*
G01X27601Y16120D01*
G01X27587Y16112D01*
G01X27575Y16101D01*
G01X27565Y16089D01*
G01X27557Y16076D01*
G01X27551Y16061D01*
G01X27547Y16045D01*
G01X27546Y16029D01*
G01X27546Y15986D01*
G01X27545Y15953D01*
G01X27541Y15920D01*
G01X27536Y15887D01*
G01X27529Y15854D01*
G01X27519Y15822D01*
G01X27507Y15791D01*
G01X27493Y15761D01*
G01X27477Y15731D01*
G01X27460Y15703D01*
G01X27440Y15675D01*
G01X27419Y15649D01*
G01X27396Y15625D01*
G01X24872Y13100D01*
G01X24847Y13077D01*
G01X24821Y13057D01*
G01X24794Y13037D01*
G01X24766Y13020D01*
G01X24736Y13004D01*
G01X24706Y12990D01*
G01X24675Y12978D01*
G01X24643Y12968D01*
G01X24610Y12961D01*
G01X24577Y12956D01*
G01X24544Y12952D01*
G01X24511Y12951D01*
G01X24082Y12951D01*
G01X24068Y12950D01*
G01X24054Y12947D01*
G01X24040Y12942D01*
G01X24027Y12935D01*
G01X24016Y12926D01*
G01X24006Y12916D01*
G01X23997Y12904D01*
G01X23990Y12892D01*
G01X23985Y12878D01*
G01X23982Y12864D01*
G01X23981Y12849D01*
G01X23981Y12516D01*
G01X23538Y12516D01*
G01X23538Y12849D01*
G01X23537Y12864D01*
G01X23534Y12878D01*
G01X23529Y12892D01*
G01X23522Y12904D01*
G01X23513Y12916D01*
G01X23503Y12926D01*
G01X23491Y12935D01*
G01X23479Y12942D01*
G01X23465Y12947D01*
G01X23451Y12950D01*
G01X23437Y12951D01*
G01X23012Y12951D01*
G01X22998Y12950D01*
G01X22984Y12947D01*
G01X22970Y12942D01*
G01X22958Y12935D01*
G01X22946Y12926D01*
G01X22936Y12916D01*
G01X22927Y12904D01*
G01X22920Y12892D01*
G01X22915Y12878D01*
G01X22912Y12864D01*
G01X22911Y12849D01*
G01X22911Y12516D01*
G01X22468Y12516D01*
G01X22468Y12849D01*
G01X22467Y12864D01*
G01X22464Y12878D01*
G01X22459Y12892D01*
G01X22452Y12904D01*
G01X22443Y12916D01*
G01X22433Y12926D01*
G01X22422Y12935D01*
G01X22409Y12942D01*
G01X22395Y12947D01*
G01X22381Y12950D01*
G01X22367Y12951D01*
G01X22097Y12951D01*
G01X22081Y12950D01*
G01X22065Y12946D01*
G01X22051Y12940D01*
G01X22038Y12932D01*
G01X22025Y12921D01*
G01X22011Y12907D01*
G01X22000Y12895D01*
G01X21992Y12881D01*
G01X21986Y12866D01*
G01X21982Y12851D01*
G01X21981Y12835D01*
G01X21981Y11289D01*
G01X21980Y11266D01*
G01X21977Y11243D01*
G01X21971Y11219D01*
G01X21964Y11197D01*
G01X21954Y11175D01*
G01X21943Y11155D01*
G01X21929Y11135D01*
G01X21914Y11117D01*
G01X21897Y11100D01*
G01X21879Y11085D01*
G01X21860Y11071D01*
G01X21839Y11060D01*
G01X21817Y11051D01*
G01X21795Y11043D01*
G01X21772Y11037D01*
G01X21748Y11034D01*
G01X21725Y11033D01*
G01X20724Y11033D01*
G01X20701Y11034D01*
G01X20677Y11037D01*
G01X20654Y11043D01*
G01X20632Y11051D01*
G01X20610Y11060D01*
G01X20589Y11071D01*
G01X20570Y11085D01*
G01X20552Y11100D01*
G01X20535Y11117D01*
G01X20520Y11135D01*
G01X20506Y11155D01*
G01X20495Y11175D01*
G01X20485Y11197D01*
G01X20478Y11219D01*
G01X20472Y11243D01*
G01X20469Y11266D01*
G01X20468Y11289D01*
G01X20468Y12849D01*
G01X20467Y12864D01*
G01X20464Y12878D01*
G01X20459Y12892D01*
G01X20452Y12904D01*
G01X20443Y12916D01*
G01X20433Y12926D01*
G01X20422Y12935D01*
G01X20409Y12942D01*
G01X20395Y12947D01*
G01X20381Y12950D01*
G01X20367Y12951D01*
G01X19358Y12951D01*
G01X19344Y12950D01*
G01X19329Y12947D01*
G01X19316Y12942D01*
G01X19303Y12935D01*
G01X19292Y12926D01*
G01X19281Y12916D01*
G01X19273Y12904D01*
G01X19266Y12892D01*
G01X19261Y12878D01*
G01X19258Y12864D01*
G01X19257Y12849D01*
G01X19258Y12834D01*
G01X19261Y12820D01*
G01X19266Y12806D01*
G01X19274Y12792D01*
G01X19283Y12781D01*
G01X19294Y12771D01*
G01X19307Y12762D01*
G01X19334Y12745D01*
G01X19360Y12725D01*
G01X19385Y12705D01*
G01X19409Y12683D01*
G01X19919Y12172D01*
G01X19942Y12148D01*
G01X19963Y12122D01*
G01X19983Y12094D01*
G01X20000Y12066D01*
G01X20016Y12037D01*
G01X20030Y12006D01*
G01X20042Y11975D01*
G01X20052Y11943D01*
G01X20059Y11910D01*
G01X20064Y11877D01*
G01X20068Y11844D01*
G01X20069Y11811D01*
G01X20069Y10668D01*
G01X20068Y10634D01*
G01X20064Y10601D01*
G01X20059Y10568D01*
G01X20052Y10535D01*
G01X20042Y10503D01*
G01X20030Y10472D01*
G01X20016Y10441D01*
G01X20000Y10412D01*
G01X19983Y10384D01*
G01X19963Y10356D01*
G01X19942Y10330D01*
G01X19919Y10306D01*
G01X19421Y9808D01*
G01X19397Y9785D01*
G01X19371Y9764D01*
G01X19344Y9744D01*
G01X19315Y9727D01*
G01X19286Y9711D01*
G01X19255Y9697D01*
G01X19224Y9685D01*
G01X19192Y9675D01*
G01X19159Y9668D01*
G01X19126Y9663D01*
G01X19093Y9659D01*
G01X19060Y9658D01*
G01X18828Y9658D01*
G01X18813Y9657D01*
G01X18799Y9654D01*
G01X18785Y9649D01*
G01X18773Y9642D01*
G01X18761Y9633D01*
G01X18751Y9623D01*
G01X18742Y9611D01*
G01X18735Y9599D01*
G01X18730Y9585D01*
G01X18727Y9571D01*
G01X18726Y9557D01*
G01X18727Y9541D01*
G01X18730Y9527D01*
G01X18736Y9513D01*
G01X18743Y9500D01*
G01X18752Y9488D01*
G01X18763Y9478D01*
G01X18818Y9429D01*
G01X18830Y9419D01*
G01X18843Y9411D01*
G01X18858Y9405D01*
G01X18873Y9401D01*
G01X18889Y9400D01*
G01X20366Y9400D01*
G01X20381Y9401D01*
G01X20395Y9404D01*
G01X20408Y9409D01*
G01X20421Y9416D01*
G01X20433Y9425D01*
G01X20443Y9435D01*
G01X20452Y9447D01*
G01X20459Y9459D01*
G01X20464Y9473D01*
G01X20467Y9487D01*
G01X20468Y9502D01*
G01X20468Y9665D01*
G01X20469Y9688D01*
G01X20472Y9711D01*
G01X20478Y9735D01*
G01X20485Y9757D01*
G01X20495Y9779D01*
G01X20506Y9799D01*
G01X20520Y9819D01*
G01X20535Y9837D01*
G01X20552Y9854D01*
G01X20570Y9869D01*
G01X20589Y9883D01*
G01X20610Y9894D01*
G01X20632Y9903D01*
G01X20654Y9911D01*
G01X20677Y9917D01*
G01X20701Y9920D01*
G01X20724Y9921D01*
G01X21725Y9921D01*
G01X21748Y9920D01*
G01X21772Y9917D01*
G01X21795Y9911D01*
G01X21817Y9903D01*
G01X21839Y9894D01*
G01X21860Y9883D01*
G01X21879Y9869D01*
G01X21897Y9854D01*
G01X21914Y9837D01*
G01X21929Y9819D01*
G01X21943Y9799D01*
G01X21954Y9779D01*
G01X21964Y9757D01*
G01X21971Y9735D01*
G01X21977Y9711D01*
G01X21980Y9688D01*
G01X21981Y9665D01*
G01X21981Y8106D01*
G01X21982Y8091D01*
G01X21985Y8077D01*
G01X21990Y8063D01*
G01X21997Y8051D01*
G01X22006Y8039D01*
G01X22016Y8029D01*
G01X22027Y8020D01*
G01X22040Y8013D01*
G01X22054Y8008D01*
G01X22068Y8005D01*
G01X22083Y8004D01*
G01X22366Y8004D01*
G01X22381Y8005D01*
G01X22395Y8008D01*
G01X22409Y8013D01*
G01X22422Y8020D01*
G01X22433Y8029D01*
G01X22443Y8039D01*
G01X22452Y8051D01*
G01X22459Y8063D01*
G01X22464Y8077D01*
G01X22467Y8091D01*
G01X22468Y8106D01*
G01X22468Y8438D01*
G01X22911Y8438D01*
G01X22911Y8106D01*
G01X22912Y8091D01*
G01X22915Y8077D01*
G01X22920Y8063D01*
G01X22927Y8051D01*
G01X22936Y8039D01*
G01X22946Y8029D01*
G01X22958Y8020D01*
G01X22970Y8013D01*
G01X22984Y8008D01*
G01X22998Y8005D01*
G01X23012Y8004D01*
G01X23437Y8004D01*
G01X23451Y8005D01*
G01X23465Y8008D01*
G01X23479Y8013D01*
G01X23491Y8020D01*
G01X23503Y8029D01*
G01X23513Y8039D01*
G01X23522Y8051D01*
G01X23529Y8063D01*
G01X23534Y8077D01*
G01X23537Y8091D01*
G01X23538Y8106D01*
G01X23538Y8438D01*
G01X23981Y8438D01*
G01X23981Y8106D01*
G01X23982Y8091D01*
G01X23985Y8077D01*
G01X23990Y8063D01*
G01X23997Y8051D01*
G01X24006Y8039D01*
G01X24016Y8029D01*
G01X24027Y8020D01*
G01X24040Y8013D01*
G01X24054Y8008D01*
G01X24068Y8005D01*
G01X24083Y8004D01*
G01X25908Y8004D01*
G01X25923Y8005D01*
G01X25939Y8009D01*
G01X25954Y8015D01*
G01X25967Y8023D01*
G01X25979Y8034D01*
G01X28795Y10850D01*
G01X28806Y10862D01*
G01X28814Y10875D01*
G01X28820Y10890D01*
G01X28824Y10906D01*
G01X28825Y10922D01*
G01X28825Y14732D01*
G01X28826Y14765D01*
G01X28830Y14798D01*
G01X28835Y14831D01*
G01X28842Y14864D01*
G01X28852Y14896D01*
G01X28864Y14927D01*
G01X28878Y14958D01*
G01X28894Y14987D01*
G01X28911Y15015D01*
G01X28931Y15043D01*
G01X28952Y15069D01*
G01X28975Y15093D01*
G01X29864Y15982D01*
G01X29888Y16005D01*
G01X29914Y16026D01*
G01X29942Y16046D01*
G01X29970Y16063D01*
G01X29999Y16079D01*
G01X30030Y16093D01*
G01X30061Y16105D01*
G01X30093Y16115D01*
G01X30126Y16122D01*
G01X30159Y16127D01*
G01X30192Y16131D01*
G01X30226Y16132D01*
G01X34998Y16132D01*
G01X35012Y16133D01*
G01X35027Y16136D01*
G01X35040Y16141D01*
G01X35053Y16148D01*
G01X35065Y16157D01*
G01X35075Y16167D01*
G01X35084Y16179D01*
G01X35091Y16191D01*
G01X35096Y16205D01*
G01X35099Y16219D01*
G01X35100Y16234D01*
G01X35098Y16253D01*
G01X35092Y16272D01*
G01X35084Y16296D01*
G01X35078Y16320D01*
G01X35074Y16344D01*
G01X35073Y16369D01*
G01X35073Y17920D01*
G01X35074Y17943D01*
G01X35077Y17966D01*
G01X35083Y17990D01*
G01X35090Y18012D01*
G01X35100Y18034D01*
G01X35111Y18054D01*
G01X35125Y18074D01*
G01X35140Y18092D01*
G01X35157Y18109D01*
G01X35175Y18124D01*
G01X35194Y18138D01*
G01X35215Y18149D01*
G01X35237Y18158D01*
G01X35259Y18166D01*
G01X35282Y18172D01*
G01X35306Y18175D01*
G01X35329Y18176D01*
G01X35341Y18176D01*
G01X35355Y18177D01*
G01X35369Y18180D01*
G01X35383Y18185D01*
G01X35395Y18192D01*
G01X35407Y18201D01*
G01X35417Y18211D01*
G01X35426Y18222D01*
G01X35433Y18236D01*
G01X35438Y18249D01*
G01X35441Y18263D01*
G01X35442Y18278D01*
G01X35442Y19037D01*
G01X35440Y19058D01*
G01X35434Y19078D01*
G01X35422Y19107D01*
G01X35413Y19137D01*
G01X35407Y19168D01*
G01X35403Y19199D01*
G01X35402Y19231D01*
G01X35400Y19246D01*
G01X35397Y19260D01*
G01X35391Y19274D01*
G01X35384Y19287D01*
G01X35375Y19299D01*
G01X35364Y19309D01*
G01X35351Y19318D01*
G01X35338Y19324D01*
G01X35292Y19344D01*
G01X35248Y19365D01*
G01X35203Y19388D01*
G01X35161Y19413D01*
G01X35119Y19440D01*
G01X35078Y19468D01*
G01X35039Y19498D01*
G01X35000Y19530D01*
G01X34964Y19563D01*
G01X34928Y19597D01*
G01X34894Y19633D01*
G01X34861Y19670D01*
G01X34830Y19709D01*
G01X34801Y19749D01*
G01X34773Y19790D01*
G01X34747Y19832D01*
G01X34722Y19876D01*
G01X34700Y19920D01*
G01X34679Y19964D01*
G01X34660Y20010D01*
G01X34628Y20104D01*
G01X34604Y20200D01*
G01X34595Y20249D01*
G01X34588Y20298D01*
G01X34583Y20347D01*
G01X34580Y20397D01*
G01X34579Y20447D01*
G01X34580Y20497D01*
G01X34583Y20549D01*
G01X34589Y20599D01*
G01X34596Y20650D01*
G01X34606Y20700D01*
G01X34618Y20750D01*
G01X34631Y20799D01*
G01X34665Y20895D01*
G01X34685Y20942D01*
G01X34707Y20988D01*
G01X34731Y21033D01*
G01X34757Y21077D01*
G01X34784Y21120D01*
G01X34814Y21162D01*
G01X34845Y21202D01*
G01X34877Y21242D01*
G01X34886Y21253D01*
G01X34893Y21266D01*
G01X34898Y21280D01*
G01X34902Y21294D01*
G01X34903Y21309D01*
G01X34902Y21323D01*
G01X34899Y21337D01*
G01X34894Y21351D01*
G01X34878Y21375D01*
G01X34868Y21385D01*
G01X34856Y21394D01*
G01X34843Y21401D01*
G01X34830Y21406D01*
G01X34815Y21409D01*
G01X34801Y21410D01*
G01X31384Y21410D01*
G01X31370Y21409D01*
G01X31355Y21406D01*
G01X31342Y21401D01*
G01X31329Y21394D01*
G01X31317Y21385D01*
G01X31307Y21375D01*
G01X31298Y21363D01*
G01X31291Y21351D01*
G01X31286Y21337D01*
G01X31283Y21323D01*
G01X31282Y21309D01*
G01X31282Y20986D01*
G01X30613Y20986D01*
G01X30613Y21309D01*
G01X30612Y21323D01*
G01X30609Y21337D01*
G01X30603Y21351D01*
G01X30597Y21363D01*
G01X30588Y21375D01*
G01X30578Y21385D01*
G01X30566Y21394D01*
G01X30554Y21401D01*
G01X30540Y21406D01*
G01X30526Y21409D01*
G01X30512Y21410D01*
G01X29635Y21410D01*
G01X29620Y21409D01*
G01X29606Y21406D01*
G01X29593Y21401D01*
G01X29580Y21394D01*
G01X29569Y21385D01*
G01X29558Y21375D01*
G01X29549Y21363D01*
G01X29543Y21351D01*
G01X29538Y21337D01*
G01X29535Y21323D01*
G01X29534Y21309D01*
G01X29533Y21309D01*
G01X29533Y20986D01*
G01X28864Y20986D01*
G01X28864Y21115D01*
G01X28863Y21129D01*
G01X28860Y21143D01*
G01X28855Y21157D01*
G01X28848Y21169D01*
G01X28839Y21181D01*
G01X28829Y21191D01*
G01X28817Y21200D01*
G01X28805Y21207D01*
G01X28791Y21212D01*
G01X28777Y21215D01*
G01X28762Y21216D01*
G01X28747Y21215D01*
G01X28731Y21211D01*
G01X28716Y21205D01*
G01X28703Y21197D01*
G01X28691Y21187D01*
G01X28625Y21121D01*
G01X28615Y21109D01*
G01X28607Y21095D01*
G01X28600Y21080D01*
G01X28597Y21065D01*
G01X28595Y21049D01*
G01X28597Y21033D01*
G01X28600Y21017D01*
G01X28607Y21002D01*
G01X28629Y20958D01*
G01X28649Y20912D01*
G01X28667Y20866D01*
G01X28670Y20858D01*
G01X28673Y20851D01*
G01X28689Y20802D01*
G01X28703Y20752D01*
G01X28715Y20702D01*
G01X28725Y20652D01*
G01X28732Y20600D01*
G01X28738Y20550D01*
G01X28741Y20498D01*
G01X28742Y20447D01*
G01X28741Y20395D01*
G01X28738Y20343D01*
G01X28732Y20293D01*
G01X28725Y20241D01*
G01X28715Y20191D01*
G01X28703Y20141D01*
G01X28689Y20091D01*
G01X28673Y20042D01*
G01X28670Y20035D01*
G01X28667Y20027D01*
G01X28649Y19980D01*
G01X28628Y19934D01*
G01X28605Y19888D01*
G01X28581Y19844D01*
G01X28555Y19800D01*
G01X28527Y19758D01*
G01X28497Y19717D01*
G01X28466Y19677D01*
G01X28433Y19639D01*
G01X28398Y19602D01*
G01X28362Y19566D01*
G01X28324Y19532D01*
G01X28285Y19500D01*
G01X28245Y19469D01*
G01X28203Y19440D01*
G01X28160Y19413D01*
G01X28116Y19387D01*
G01X28072Y19364D01*
G01X28026Y19342D01*
G01X27979Y19323D01*
G01X27931Y19305D01*
G01X27883Y19289D01*
G01X27834Y19276D01*
G01X27785Y19264D01*
G01X27735Y19254D01*
G01X27685Y19247D01*
G01X27634Y19242D01*
G01X27584Y19238D01*
G01X27533Y19237D01*
G01X27483Y19238D01*
G01X27434Y19242D01*
G01X27384Y19247D01*
G01X27334Y19254D01*
G01X27285Y19263D01*
G01X27236Y19275D01*
G01X27189Y19288D01*
G01X27141Y19303D01*
G01X27094Y19320D01*
G01X27048Y19339D01*
G01X27003Y19360D01*
G01X26959Y19383D01*
G01X26915Y19408D01*
G01X26873Y19434D01*
G01X26832Y19462D01*
G01X26791Y19492D01*
G01X26752Y19523D01*
G01X26715Y19556D01*
G01X26679Y19591D01*
G01X26645Y19627D01*
G01X26612Y19664D01*
G01X26580Y19703D01*
G01X26550Y19743D01*
G01X26522Y19784D01*
G01X26495Y19826D01*
G01X26470Y19869D01*
G01X26448Y19914D01*
G01X26427Y19959D01*
G01X26407Y20006D01*
G01X26390Y20052D01*
G01X26375Y20100D01*
G01X26362Y20148D01*
G01X26357Y20162D01*
G01X26350Y20175D01*
G01X26341Y20187D01*
G01X26331Y20198D01*
G01X26319Y20207D01*
G01X26306Y20214D01*
G01X26293Y20220D01*
G01X26278Y20223D01*
G01X26263Y20225D01*
G01X26248Y20223D01*
G01X26234Y20220D01*
G01X26220Y20214D01*
G01X26207Y20207D01*
G01X26195Y20198D01*
G01X26185Y20187D01*
G01X26176Y20175D01*
G01X26170Y20162D01*
G01X26165Y20148D01*
G01X26151Y20100D01*
G01X26136Y20052D01*
G01X26119Y20005D01*
G01X26100Y19959D01*
G01X26079Y19914D01*
G01X26056Y19869D01*
G01X26031Y19826D01*
G01X26005Y19784D01*
G01X25976Y19742D01*
G01X25946Y19703D01*
G01X25915Y19664D01*
G01X25882Y19627D01*
G01X25847Y19591D01*
G01X25811Y19556D01*
G01X25773Y19523D01*
G01X25735Y19491D01*
G01X25695Y19462D01*
G01X25654Y19434D01*
G01X25611Y19407D01*
G01X25568Y19383D01*
G01X25523Y19360D01*
G01X25478Y19339D01*
G01X25465Y19332D01*
G01X25453Y19323D01*
G01X25443Y19313D01*
G01X25434Y19301D01*
G01X25426Y19289D01*
G01X25421Y19275D01*
G01X25418Y19260D01*
G01X25417Y19246D01*
G01X25418Y19234D01*
G01X25420Y19189D01*
G01X25420Y18278D01*
G01X25421Y18263D01*
G01X25424Y18249D01*
G01X25429Y18236D01*
G01X25437Y18222D01*
G01X25445Y18211D01*
G01X25455Y18201D01*
G01X25467Y18192D01*
G01X25480Y18185D01*
G01X25493Y18180D01*
G01X25507Y18177D01*
G01X25522Y18176D01*
G01X25535Y18176D01*
G01X25558Y18175D01*
G01X25582Y18172D01*
G01X25605Y18166D01*
G01X25627Y18158D01*
G01X25649Y18149D01*
G01X25670Y18138D01*
G01X25689Y18124D01*
G01X25707Y18109D01*
G01X25724Y18092D01*
G01X25739Y18074D01*
G01X25753Y18054D01*
G01X25764Y18034D01*
G01X25774Y18012D01*
G01X25781Y17990D01*
G01X25787Y17966D01*
G01X25790Y17943D01*
G01X25791Y17920D01*
G01X25791Y16369D01*
G01X25790Y16346D01*
G01X25787Y16323D01*
G01X25781Y16299D01*
G01X25774Y16277D01*
G01X25764Y16255D01*
G01X25753Y16235D01*
G01X25739Y16215D01*
G01X25724Y16197D01*
G01X25707Y16180D01*
G01X25689Y16165D01*
G01X25670Y16151D01*
G01X25649Y16140D01*
G01X25627Y16131D01*
G01X25605Y16123D01*
G01X25582Y16117D01*
G01X25558Y16114D01*
G01X25535Y16113D01*
G01X24534Y16113D01*
G01X24511Y16114D01*
G01X24487Y16117D01*
G01X24464Y16123D01*
G01X24442Y16131D01*
G01X24420Y16140D01*
G01X24399Y16151D01*
G01X24380Y16165D01*
G01X24362Y16180D01*
G01X24345Y16197D01*
G01X24330Y16215D01*
G01X24316Y16235D01*
G01X24305Y16255D01*
G01X24295Y16277D01*
G01X24288Y16299D01*
G01X24282Y16323D01*
G01X24279Y16346D01*
G01X24278Y16369D01*
G01X24278Y17920D01*
G01X24279Y17943D01*
G01X24282Y17966D01*
G01X24288Y17990D01*
G01X24295Y18012D01*
G01X24305Y18034D01*
G01X24316Y18054D01*
G01X24330Y18074D01*
G01X24345Y18092D01*
G01X24362Y18109D01*
G01X24380Y18124D01*
G01X24399Y18138D01*
G01X24420Y18149D01*
G01X24442Y18158D01*
G01X24464Y18166D01*
G01X24487Y18172D01*
G01X24511Y18175D01*
G01X24534Y18176D01*
G01X24546Y18176D01*
G01X24560Y18177D01*
G01X24574Y18180D01*
G01X24588Y18185D01*
G01X24600Y18192D01*
G01X24612Y18201D01*
G01X24622Y18211D01*
G01X24631Y18222D01*
G01X24638Y18236D01*
G01X24643Y18249D01*
G01X24646Y18263D01*
G01X24647Y18278D01*
G01X24647Y19037D01*
G01X24645Y19058D01*
G01X24639Y19078D01*
G01X24627Y19107D01*
G01X24618Y19137D01*
G01X24612Y19168D01*
G01X24608Y19199D01*
G01X24607Y19231D01*
G01X24605Y19246D01*
G01X24602Y19260D01*
G01X24596Y19274D01*
G01X24589Y19287D01*
G01X24580Y19299D01*
G01X24569Y19309D01*
G01X24556Y19318D01*
G01X24543Y19324D01*
G01X24497Y19344D01*
G01X24453Y19365D01*
G01X24408Y19388D01*
G01X24366Y19413D01*
G01X24324Y19440D01*
G01X24283Y19468D01*
G01X24244Y19498D01*
G01X24205Y19530D01*
G01X24169Y19563D01*
G01X24133Y19597D01*
G01X24099Y19633D01*
G01X24066Y19670D01*
G01X24035Y19709D01*
G01X24006Y19749D01*
G01X23978Y19790D01*
G01X23952Y19832D01*
G01X23927Y19876D01*
G01X23905Y19920D01*
G01X23884Y19964D01*
G01X23865Y20010D01*
G01X23833Y20104D01*
G01X23809Y20200D01*
G01X23800Y20249D01*
G01X23793Y20298D01*
G01X23788Y20347D01*
G01X23785Y20397D01*
G01X23784Y20447D01*
G01X23785Y20496D01*
G01X23788Y20547D01*
G01X23793Y20596D01*
G01X23800Y20646D01*
G01X23810Y20694D01*
G01X23821Y20743D01*
G01X23834Y20791D01*
G01X23850Y20839D01*
G01X23867Y20886D01*
G01X23886Y20932D01*
G01X23907Y20977D01*
G01X23930Y21022D01*
G01X23954Y21065D01*
G01X23981Y21108D01*
G01X24009Y21149D01*
G01X24039Y21189D01*
G01X24071Y21228D01*
G01X24104Y21265D01*
G01X24138Y21301D01*
G01X24174Y21336D01*
G01X24212Y21369D01*
G01X24250Y21401D01*
G01X24291Y21430D01*
G01X24332Y21458D01*
G01X24374Y21485D01*
G01X24418Y21510D01*
G01X24462Y21533D01*
G01X24507Y21554D01*
G01X24554Y21573D01*
G01X24600Y21590D01*
G01X24648Y21605D01*
G01X24696Y21618D01*
G01X24745Y21630D01*
G01X24794Y21639D01*
G01X24844Y21646D01*
G01X24893Y21651D01*
G01X24943Y21655D01*
G01X24993Y21656D01*
G01X25043Y21655D01*
G01X25093Y21651D01*
G01X25142Y21646D01*
G01X25192Y21639D01*
G01X25241Y21630D01*
G01X25290Y21618D01*
G01X25338Y21605D01*
G01X25385Y21590D01*
G01X25432Y21573D01*
G01X25478Y21554D01*
G01X25523Y21533D01*
G01X25568Y21510D01*
G01X25611Y21485D01*
G01X25654Y21459D01*
G01X25695Y21431D01*
G01X25735Y21401D01*
G01X25774Y21370D01*
G01X25811Y21337D01*
G01X25847Y21302D01*
G01X25882Y21266D01*
G01X25915Y21229D01*
G01X25946Y21190D01*
G01X25976Y21150D01*
G01X26005Y21109D01*
G01X26031Y21067D01*
G01X26056Y21024D01*
G01X26079Y20979D01*
G01X26100Y20934D01*
G01X26119Y20887D01*
G01X26136Y20841D01*
G01X26151Y20793D01*
G01X26165Y20745D01*
G01X26170Y20731D01*
G01X26176Y20718D01*
G01X26185Y20706D01*
G01X26195Y20695D01*
G01X26207Y20686D01*
G01X26220Y20679D01*
G01X26234Y20673D01*
G01X26248Y20670D01*
G01X26263Y20668D01*
G01X26278Y20670D01*
G01X26293Y20673D01*
G01X26306Y20679D01*
G01X26319Y20686D01*
G01X26331Y20695D01*
G01X26341Y20706D01*
G01X26350Y20718D01*
G01X26357Y20731D01*
G01X26362Y20745D01*
G01X26375Y20794D01*
G01X26391Y20843D01*
G01X26408Y20890D01*
G01X26428Y20938D01*
G01X26450Y20984D01*
G01X26474Y21029D01*
G01X26499Y21073D01*
G01X26527Y21116D01*
G01X26556Y21158D01*
G01X26587Y21199D01*
G01X26619Y21238D01*
G01X26653Y21276D01*
G01X26689Y21312D01*
G01X26726Y21347D01*
G01X26765Y21380D01*
G01X26805Y21412D01*
G01X26846Y21442D01*
G01X26889Y21470D01*
G01X26933Y21496D01*
G01X26977Y21520D01*
G01X27023Y21543D01*
G01X27070Y21563D01*
G01X27118Y21582D01*
G01X27166Y21598D01*
G01X27215Y21613D01*
G01X27264Y21625D01*
G01X27314Y21636D01*
G01X27329Y21639D01*
G01X27343Y21645D01*
G01X27356Y21654D01*
G01X27367Y21664D01*
G01X28134Y22430D01*
G01X28144Y22441D01*
G01X28152Y22455D01*
G01X28158Y22470D01*
G01X28162Y22486D01*
G01X28163Y22501D01*
G01X28162Y22516D01*
G01X28159Y22530D01*
G01X28154Y22544D01*
G01X28147Y22556D01*
G01X28138Y22568D01*
G01X28128Y22578D01*
G01X28116Y22587D01*
G01X28104Y22594D01*
G01X28090Y22599D01*
G01X28076Y22602D01*
G01X28061Y22603D01*
G37*

%LPC*%
G36*
G01X22911Y9921D02*
G01X22724Y9921D01*
G01X22701Y9920D01*
G01X22677Y9917D01*
G01X22654Y9911D01*
G01X22632Y9903D01*
G01X22610Y9894D01*
G01X22589Y9883D01*
G01X22570Y9869D01*
G01X22552Y9854D01*
G01X22535Y9837D01*
G01X22520Y9819D01*
G01X22506Y9799D01*
G01X22495Y9779D01*
G01X22485Y9757D01*
G01X22478Y9735D01*
G01X22472Y9711D01*
G01X22469Y9688D01*
G01X22468Y9665D01*
G01X22468Y9341D01*
G01X22911Y9341D01*
G01X22911Y9921D01*
G37*
G36*
G01X23725Y9921D02*
G01X23538Y9921D01*
G01X23538Y9341D01*
G01X23981Y9341D01*
G01X23981Y9665D01*
G01X23980Y9688D01*
G01X23977Y9711D01*
G01X23971Y9735D01*
G01X23964Y9757D01*
G01X23954Y9779D01*
G01X23943Y9799D01*
G01X23929Y9819D01*
G01X23914Y9837D01*
G01X23897Y9854D01*
G01X23879Y9869D01*
G01X23860Y9883D01*
G01X23839Y9894D01*
G01X23817Y9903D01*
G01X23795Y9911D01*
G01X23772Y9917D01*
G01X23748Y9920D01*
G01X23725Y9921D01*
G37*
G36*
G01X22911Y11613D02*
G01X22468Y11613D01*
G01X22468Y11289D01*
G01X22469Y11266D01*
G01X22472Y11243D01*
G01X22478Y11219D01*
G01X22485Y11197D01*
G01X22495Y11175D01*
G01X22506Y11155D01*
G01X22520Y11135D01*
G01X22535Y11117D01*
G01X22552Y11100D01*
G01X22570Y11085D01*
G01X22589Y11071D01*
G01X22610Y11060D01*
G01X22632Y11051D01*
G01X22654Y11043D01*
G01X22677Y11037D01*
G01X22701Y11034D01*
G01X22724Y11033D01*
G01X22911Y11033D01*
G01X22911Y11613D01*
G37*
G36*
G01X23981Y11613D02*
G01X23538Y11613D01*
G01X23538Y11033D01*
G01X23725Y11033D01*
G01X23748Y11034D01*
G01X23772Y11037D01*
G01X23795Y11043D01*
G01X23817Y11051D01*
G01X23839Y11060D01*
G01X23860Y11071D01*
G01X23879Y11085D01*
G01X23897Y11100D01*
G01X23914Y11117D01*
G01X23929Y11135D01*
G01X23943Y11155D01*
G01X23954Y11175D01*
G01X23964Y11197D01*
G01X23971Y11219D01*
G01X23977Y11243D01*
G01X23980Y11266D01*
G01X23981Y11289D01*
G01X23981Y11613D01*
G37*
G36*
G01X29533Y19906D02*
G01X28864Y19906D01*
G01X28864Y19494D01*
G01X28865Y19470D01*
G01X28869Y19447D01*
G01X28874Y19424D01*
G01X28881Y19402D01*
G01X28891Y19380D01*
G01X28903Y19359D01*
G01X28916Y19340D01*
G01X28931Y19321D01*
G01X28948Y19305D01*
G01X28966Y19289D01*
G01X28985Y19276D01*
G01X29006Y19264D01*
G01X29028Y19255D01*
G01X29050Y19247D01*
G01X29073Y19242D01*
G01X29097Y19238D01*
G01X29121Y19237D01*
G01X29533Y19237D01*
G01X29533Y19906D01*
G37*
G36*
G01X31282Y19906D02*
G01X30613Y19906D01*
G01X30613Y19237D01*
G01X31026Y19237D01*
G01X31049Y19238D01*
G01X31073Y19242D01*
G01X31096Y19247D01*
G01X31118Y19255D01*
G01X31140Y19264D01*
G01X31161Y19276D01*
G01X31180Y19289D01*
G01X31198Y19305D01*
G01X31215Y19321D01*
G01X31230Y19340D01*
G01X31244Y19359D01*
G01X31255Y19380D01*
G01X31265Y19402D01*
G01X31272Y19424D01*
G01X31278Y19447D01*
G01X31281Y19470D01*
G01X31282Y19494D01*
G01X31282Y19906D01*
G37*

%LPD*%
G36*
G01X51076Y22603D02*
G01X47122Y22603D01*
G01X47107Y22602D01*
G01X47093Y22599D01*
G01X47079Y22594D01*
G01X47067Y22587D01*
G01X47055Y22578D01*
G01X47045Y22568D01*
G01X47036Y22556D01*
G01X47029Y22544D01*
G01X47024Y22530D01*
G01X47021Y22516D01*
G01X47020Y22501D01*
G01X47021Y22486D01*
G01X47025Y22470D01*
G01X47031Y22455D01*
G01X47039Y22441D01*
G01X47049Y22430D01*
G01X47364Y22115D01*
G01X47376Y22105D01*
G01X47389Y22096D01*
G01X47404Y22090D01*
G01X47420Y22087D01*
G01X47436Y22086D01*
G01X47451Y22087D01*
G01X47509Y22094D01*
G01X47567Y22099D01*
G01X47625Y22100D01*
G01X47673Y22099D01*
G01X47722Y22096D01*
G01X47770Y22091D01*
G01X47818Y22084D01*
G01X47866Y22074D01*
G01X47913Y22063D01*
G01X47960Y22050D01*
G01X48006Y22035D01*
G01X48052Y22017D01*
G01X48096Y21998D01*
G01X48140Y21978D01*
G01X48183Y21955D01*
G01X48225Y21930D01*
G01X48266Y21903D01*
G01X48306Y21876D01*
G01X48344Y21846D01*
G01X48381Y21815D01*
G01X48417Y21782D01*
G01X48452Y21747D01*
G01X48485Y21711D01*
G01X48516Y21674D01*
G01X48546Y21636D01*
G01X48573Y21596D01*
G01X48600Y21555D01*
G01X48625Y21513D01*
G01X48648Y21470D01*
G01X48668Y21426D01*
G01X48687Y21382D01*
G01X48705Y21336D01*
G01X48720Y21290D01*
G01X48733Y21243D01*
G01X48744Y21196D01*
G01X48754Y21148D01*
G01X48761Y21100D01*
G01X48766Y21052D01*
G01X48769Y21003D01*
G01X48770Y20955D01*
G01X48769Y20906D01*
G01X48766Y20857D01*
G01X48761Y20809D01*
G01X48754Y20761D01*
G01X48744Y20713D01*
G01X48733Y20666D01*
G01X48720Y20619D01*
G01X48705Y20573D01*
G01X48687Y20527D01*
G01X48668Y20483D01*
G01X48648Y20439D01*
G01X48625Y20396D01*
G01X48600Y20354D01*
G01X48573Y20313D01*
G01X48546Y20273D01*
G01X48516Y20235D01*
G01X48485Y20198D01*
G01X48452Y20162D01*
G01X48417Y20127D01*
G01X48381Y20094D01*
G01X48344Y20063D01*
G01X48306Y20033D01*
G01X48266Y20006D01*
G01X48225Y19979D01*
G01X48183Y19954D01*
G01X48140Y19931D01*
G01X48096Y19911D01*
G01X48052Y19892D01*
G01X48006Y19874D01*
G01X47960Y19859D01*
G01X47913Y19846D01*
G01X47866Y19835D01*
G01X47818Y19825D01*
G01X47770Y19818D01*
G01X47722Y19813D01*
G01X47673Y19810D01*
G01X47625Y19809D01*
G01X47576Y19810D01*
G01X47527Y19813D01*
G01X47479Y19818D01*
G01X47431Y19825D01*
G01X47383Y19835D01*
G01X47336Y19846D01*
G01X47289Y19859D01*
G01X47243Y19874D01*
G01X47197Y19892D01*
G01X47153Y19911D01*
G01X47109Y19931D01*
G01X47066Y19954D01*
G01X47024Y19979D01*
G01X46983Y20006D01*
G01X46943Y20033D01*
G01X46905Y20063D01*
G01X46868Y20094D01*
G01X46832Y20127D01*
G01X46797Y20162D01*
G01X46764Y20198D01*
G01X46733Y20235D01*
G01X46703Y20273D01*
G01X46676Y20313D01*
G01X46649Y20354D01*
G01X46624Y20396D01*
G01X46601Y20439D01*
G01X46581Y20483D01*
G01X46562Y20527D01*
G01X46544Y20573D01*
G01X46529Y20619D01*
G01X46516Y20666D01*
G01X46505Y20713D01*
G01X46495Y20761D01*
G01X46488Y20809D01*
G01X46483Y20857D01*
G01X46480Y20906D01*
G01X46479Y20955D01*
G01X46480Y21012D01*
G01X46485Y21070D01*
G01X46492Y21128D01*
G01X46493Y21143D01*
G01X46492Y21159D01*
G01X46489Y21175D01*
G01X46483Y21190D01*
G01X46474Y21203D01*
G01X46464Y21215D01*
G01X46299Y21380D01*
G01X46286Y21391D01*
G01X46273Y21399D01*
G01X46258Y21405D01*
G01X46242Y21409D01*
G01X46226Y21410D01*
G01X42179Y21410D01*
G01X42165Y21409D01*
G01X42150Y21406D01*
G01X42137Y21401D01*
G01X42124Y21394D01*
G01X42112Y21385D01*
G01X42102Y21375D01*
G01X42093Y21363D01*
G01X42086Y21351D01*
G01X42081Y21337D01*
G01X42078Y21323D01*
G01X42077Y21309D01*
G01X42077Y20986D01*
G01X41408Y20986D01*
G01X41408Y21309D01*
G01X41407Y21323D01*
G01X41404Y21337D01*
G01X41398Y21351D01*
G01X41392Y21363D01*
G01X41383Y21375D01*
G01X41373Y21385D01*
G01X41361Y21394D01*
G01X41349Y21401D01*
G01X41335Y21406D01*
G01X41321Y21409D01*
G01X41307Y21410D01*
G01X40430Y21410D01*
G01X40415Y21409D01*
G01X40401Y21406D01*
G01X40388Y21401D01*
G01X40375Y21394D01*
G01X40364Y21385D01*
G01X40353Y21375D01*
G01X40344Y21363D01*
G01X40338Y21351D01*
G01X40333Y21337D01*
G01X40330Y21323D01*
G01X40329Y21309D01*
G01X40329Y20986D01*
G01X39659Y20986D01*
G01X39659Y21309D01*
G01X39658Y21323D01*
G01X39655Y21337D01*
G01X39650Y21351D01*
G01X39643Y21363D01*
G01X39634Y21375D01*
G01X39624Y21385D01*
G01X39612Y21394D01*
G01X39600Y21401D01*
G01X39586Y21406D01*
G01X39572Y21409D01*
G01X39557Y21410D01*
G01X39315Y21410D01*
G01X39301Y21409D01*
G01X39287Y21406D01*
G01X39273Y21401D01*
G01X39260Y21394D01*
G01X39249Y21385D01*
G01X39238Y21375D01*
G01X39230Y21363D01*
G01X39223Y21351D01*
G01X39218Y21337D01*
G01X39215Y21323D01*
G01X39214Y21309D01*
G01X39215Y21294D01*
G01X39218Y21280D01*
G01X39223Y21266D01*
G01X39230Y21253D01*
G01X39239Y21242D01*
G01X39274Y21199D01*
G01X39307Y21156D01*
G01X39339Y21110D01*
G01X39367Y21064D01*
G01X39394Y21016D01*
G01X39419Y20967D01*
G01X39442Y20917D01*
G01X39462Y20866D01*
G01X39465Y20858D01*
G01X39468Y20851D01*
G01X39484Y20802D01*
G01X39498Y20752D01*
G01X39510Y20702D01*
G01X39520Y20652D01*
G01X39527Y20600D01*
G01X39533Y20550D01*
G01X39536Y20498D01*
G01X39537Y20447D01*
G01X39536Y20395D01*
G01X39533Y20343D01*
G01X39527Y20293D01*
G01X39520Y20241D01*
G01X39510Y20191D01*
G01X39498Y20141D01*
G01X39484Y20091D01*
G01X39468Y20042D01*
G01X39465Y20035D01*
G01X39462Y20027D01*
G01X39444Y19980D01*
G01X39423Y19934D01*
G01X39400Y19888D01*
G01X39376Y19844D01*
G01X39350Y19800D01*
G01X39322Y19758D01*
G01X39292Y19717D01*
G01X39261Y19677D01*
G01X39228Y19639D01*
G01X39193Y19602D01*
G01X39157Y19566D01*
G01X39119Y19532D01*
G01X39080Y19500D01*
G01X39040Y19469D01*
G01X38998Y19440D01*
G01X38955Y19413D01*
G01X38911Y19387D01*
G01X38867Y19364D01*
G01X38821Y19342D01*
G01X38774Y19323D01*
G01X38726Y19305D01*
G01X38678Y19289D01*
G01X38629Y19276D01*
G01X38580Y19264D01*
G01X38530Y19254D01*
G01X38480Y19247D01*
G01X38429Y19242D01*
G01X38379Y19238D01*
G01X38328Y19237D01*
G01X38278Y19238D01*
G01X38229Y19242D01*
G01X38179Y19247D01*
G01X38129Y19254D01*
G01X38080Y19263D01*
G01X38031Y19275D01*
G01X37984Y19288D01*
G01X37936Y19303D01*
G01X37889Y19320D01*
G01X37843Y19339D01*
G01X37798Y19360D01*
G01X37754Y19383D01*
G01X37710Y19408D01*
G01X37668Y19434D01*
G01X37627Y19462D01*
G01X37586Y19492D01*
G01X37547Y19523D01*
G01X37510Y19556D01*
G01X37474Y19591D01*
G01X37440Y19627D01*
G01X37407Y19664D01*
G01X37375Y19703D01*
G01X37345Y19743D01*
G01X37317Y19784D01*
G01X37290Y19826D01*
G01X37265Y19869D01*
G01X37243Y19914D01*
G01X37222Y19959D01*
G01X37202Y20006D01*
G01X37185Y20052D01*
G01X37170Y20100D01*
G01X37157Y20148D01*
G01X37152Y20162D01*
G01X37145Y20175D01*
G01X37136Y20187D01*
G01X37126Y20198D01*
G01X37114Y20207D01*
G01X37101Y20214D01*
G01X37088Y20220D01*
G01X37073Y20223D01*
G01X37058Y20225D01*
G01X37043Y20223D01*
G01X37029Y20220D01*
G01X37015Y20214D01*
G01X37002Y20207D01*
G01X36990Y20198D01*
G01X36980Y20187D01*
G01X36971Y20175D01*
G01X36965Y20162D01*
G01X36960Y20148D01*
G01X36946Y20100D01*
G01X36931Y20052D01*
G01X36914Y20005D01*
G01X36895Y19959D01*
G01X36874Y19914D01*
G01X36851Y19869D01*
G01X36826Y19826D01*
G01X36800Y19784D01*
G01X36771Y19742D01*
G01X36741Y19703D01*
G01X36710Y19664D01*
G01X36677Y19627D01*
G01X36642Y19591D01*
G01X36606Y19556D01*
G01X36568Y19523D01*
G01X36530Y19491D01*
G01X36490Y19462D01*
G01X36449Y19434D01*
G01X36406Y19407D01*
G01X36363Y19383D01*
G01X36318Y19360D01*
G01X36273Y19339D01*
G01X36260Y19332D01*
G01X36248Y19323D01*
G01X36238Y19313D01*
G01X36229Y19301D01*
G01X36221Y19289D01*
G01X36216Y19275D01*
G01X36213Y19260D01*
G01X36212Y19246D01*
G01X36213Y19234D01*
G01X36215Y19189D01*
G01X36215Y18278D01*
G01X36216Y18263D01*
G01X36219Y18249D01*
G01X36224Y18236D01*
G01X36232Y18222D01*
G01X36240Y18211D01*
G01X36250Y18201D01*
G01X36262Y18192D01*
G01X36275Y18185D01*
G01X36288Y18180D01*
G01X36302Y18177D01*
G01X36317Y18176D01*
G01X36330Y18176D01*
G01X36353Y18175D01*
G01X36377Y18172D01*
G01X36400Y18166D01*
G01X36422Y18158D01*
G01X36444Y18149D01*
G01X36465Y18138D01*
G01X36484Y18124D01*
G01X36502Y18109D01*
G01X36519Y18092D01*
G01X36534Y18074D01*
G01X36548Y18054D01*
G01X36559Y18034D01*
G01X36569Y18012D01*
G01X36576Y17990D01*
G01X36582Y17966D01*
G01X36585Y17943D01*
G01X36586Y17920D01*
G01X36586Y16369D01*
G01X36585Y16344D01*
G01X36581Y16320D01*
G01X36575Y16296D01*
G01X36567Y16272D01*
G01X36561Y16253D01*
G01X36559Y16234D01*
G01X36560Y16219D01*
G01X36563Y16205D01*
G01X36568Y16191D01*
G01X36584Y16167D01*
G01X36594Y16157D01*
G01X36606Y16148D01*
G01X36619Y16141D01*
G01X36632Y16136D01*
G01X36647Y16133D01*
G01X36661Y16132D01*
G01X36948Y16132D01*
G01X36964Y16134D01*
G01X36980Y16137D01*
G01X36995Y16144D01*
G01X37009Y16152D01*
G01X37022Y16164D01*
G01X37058Y16202D01*
G01X37068Y16214D01*
G01X37076Y16228D01*
G01X37081Y16242D01*
G01X37085Y16257D01*
G01X37087Y16272D01*
G01X37082Y16300D01*
G01X37077Y16323D01*
G01X37074Y16346D01*
G01X37073Y16369D01*
G01X37073Y17920D01*
G01X37074Y17943D01*
G01X37077Y17966D01*
G01X37083Y17990D01*
G01X37090Y18012D01*
G01X37100Y18034D01*
G01X37111Y18054D01*
G01X37125Y18074D01*
G01X37140Y18092D01*
G01X37157Y18109D01*
G01X37175Y18124D01*
G01X37194Y18138D01*
G01X37215Y18149D01*
G01X37237Y18158D01*
G01X37259Y18166D01*
G01X37282Y18172D01*
G01X37306Y18175D01*
G01X37329Y18176D01*
G01X38330Y18176D01*
G01X38353Y18175D01*
G01X38377Y18172D01*
G01X38400Y18166D01*
G01X38422Y18158D01*
G01X38444Y18149D01*
G01X38465Y18138D01*
G01X38484Y18124D01*
G01X38502Y18109D01*
G01X38519Y18092D01*
G01X38534Y18074D01*
G01X38548Y18054D01*
G01X38559Y18034D01*
G01X38569Y18012D01*
G01X38576Y17990D01*
G01X38582Y17966D01*
G01X38585Y17943D01*
G01X38586Y17920D01*
G01X38586Y16369D01*
G01X38585Y16345D01*
G01X38582Y16322D01*
G01X38576Y16298D01*
G01X38568Y16275D01*
G01X38558Y16253D01*
G01X38547Y16233D01*
G01X38533Y16213D01*
G01X38517Y16195D01*
G01X38500Y16178D01*
G01X38482Y16163D01*
G01X38461Y16149D01*
G01X38440Y16138D01*
G01X38418Y16129D01*
G01X38395Y16121D01*
G01X38371Y16116D01*
G01X38356Y16112D01*
G01X38340Y16106D01*
G01X38326Y16097D01*
G01X38314Y16086D01*
G01X38304Y16073D01*
G01X38280Y16028D01*
G01X38263Y15998D01*
G01X38244Y15970D01*
G01X38223Y15943D01*
G01X38201Y15918D01*
G01X37581Y15267D01*
G01X37556Y15244D01*
G01X37530Y15221D01*
G01X37502Y15200D01*
G01X37473Y15182D01*
G01X37443Y15165D01*
G01X37412Y15150D01*
G01X37380Y15138D01*
G01X37347Y15127D01*
G01X37313Y15120D01*
G01X37279Y15114D01*
G01X37245Y15110D01*
G01X37211Y15109D01*
G01X33888Y15109D01*
G01X33873Y15108D01*
G01X33859Y15105D01*
G01X33846Y15100D01*
G01X33833Y15093D01*
G01X33821Y15084D01*
G01X33811Y15074D01*
G01X33802Y15062D01*
G01X33795Y15050D01*
G01X33790Y15036D01*
G01X33787Y15022D01*
G01X33786Y15007D01*
G01X33786Y14753D01*
G01X32893Y14753D01*
G01X32893Y15007D01*
G01X32892Y15022D01*
G01X32889Y15036D01*
G01X32884Y15050D01*
G01X32877Y15062D01*
G01X32868Y15074D01*
G01X32858Y15084D01*
G01X32846Y15093D01*
G01X32834Y15100D01*
G01X32820Y15105D01*
G01X32806Y15108D01*
G01X32791Y15109D01*
G01X31468Y15109D01*
G01X31453Y15108D01*
G01X31439Y15105D01*
G01X31425Y15100D01*
G01X31413Y15093D01*
G01X31401Y15084D01*
G01X31391Y15074D01*
G01X31382Y15062D01*
G01X31375Y15050D01*
G01X31370Y15036D01*
G01X31367Y15022D01*
G01X31366Y15007D01*
G01X31366Y14753D01*
G01X30473Y14753D01*
G01X30473Y14899D01*
G01X30472Y14914D01*
G01X30469Y14928D01*
G01X30464Y14941D01*
G01X30457Y14954D01*
G01X30448Y14966D01*
G01X30438Y14976D01*
G01X30426Y14984D01*
G01X30413Y14992D01*
G01X30400Y14997D01*
G01X30386Y15000D01*
G01X30371Y15001D01*
G01X30356Y15000D01*
G01X30340Y14996D01*
G01X30325Y14990D01*
G01X30312Y14981D01*
G01X30300Y14971D01*
G01X29878Y14549D01*
G01X29867Y14537D01*
G01X29859Y14524D01*
G01X29853Y14509D01*
G01X29849Y14493D01*
G01X29848Y14478D01*
G01X29848Y10668D01*
G01X29847Y10634D01*
G01X29843Y10601D01*
G01X29838Y10568D01*
G01X29831Y10535D01*
G01X29821Y10503D01*
G01X29809Y10472D01*
G01X29795Y10441D01*
G01X29779Y10412D01*
G01X29762Y10384D01*
G01X29742Y10356D01*
G01X29721Y10330D01*
G01X29698Y10306D01*
G01X26523Y7131D01*
G01X26499Y7108D01*
G01X26473Y7087D01*
G01X26445Y7067D01*
G01X26417Y7050D01*
G01X26388Y7034D01*
G01X26357Y7020D01*
G01X26326Y7008D01*
G01X26294Y6998D01*
G01X26261Y6991D01*
G01X26228Y6986D01*
G01X26195Y6982D01*
G01X26162Y6981D01*
G01X21590Y6981D01*
G01X21556Y6982D01*
G01X21523Y6986D01*
G01X21490Y6991D01*
G01X21457Y6998D01*
G01X21425Y7008D01*
G01X21394Y7020D01*
G01X21363Y7034D01*
G01X21334Y7050D01*
G01X21306Y7067D01*
G01X21278Y7087D01*
G01X21252Y7108D01*
G01X21228Y7131D01*
G01X20847Y7512D01*
G01X20822Y7538D01*
G01X20800Y7566D01*
G01X20779Y7595D01*
G01X20761Y7626D01*
G01X20745Y7657D01*
G01X20731Y7690D01*
G01X20719Y7724D01*
G01X20710Y7759D01*
G01X20703Y7794D01*
G01X20699Y7808D01*
G01X20694Y7823D01*
G01X20686Y7836D01*
G01X20676Y7848D01*
G01X20664Y7858D01*
G01X20652Y7867D01*
G01X20638Y7873D01*
G01X20615Y7883D01*
G01X20594Y7894D01*
G01X20574Y7907D01*
G01X20555Y7922D01*
G01X20537Y7939D01*
G01X20522Y7957D01*
G01X20508Y7977D01*
G01X20496Y7998D01*
G01X20486Y8020D01*
G01X20478Y8043D01*
G01X20472Y8067D01*
G01X20469Y8090D01*
G01X20468Y8114D01*
G01X20468Y8277D01*
G01X20467Y8292D01*
G01X20464Y8306D01*
G01X20459Y8320D01*
G01X20452Y8332D01*
G01X20443Y8344D01*
G01X20433Y8354D01*
G01X20421Y8363D01*
G01X20408Y8370D01*
G01X20395Y8375D01*
G01X20381Y8378D01*
G01X20366Y8379D01*
G01X18889Y8379D01*
G01X18873Y8378D01*
G01X18858Y8374D01*
G01X18843Y8368D01*
G01X18830Y8360D01*
G01X18818Y8350D01*
G01X18787Y8321D01*
G01X18755Y8295D01*
G01X18721Y8269D01*
G01X18686Y8246D01*
G01X18650Y8225D01*
G01X18612Y8206D01*
G01X18574Y8189D01*
G01X18535Y8174D01*
G01X18495Y8162D01*
G01X18454Y8151D01*
G01X18413Y8143D01*
G01X18371Y8138D01*
G01X18330Y8134D01*
G01X18288Y8133D01*
G01X18248Y8134D01*
G01X18208Y8137D01*
G01X18169Y8142D01*
G01X18130Y8149D01*
G01X18092Y8158D01*
G01X18054Y8170D01*
G01X18016Y8183D01*
G01X17944Y8215D01*
G01X17909Y8234D01*
G01X17876Y8255D01*
G01X17843Y8277D01*
G01X17781Y8327D01*
G01X17725Y8383D01*
G01X17675Y8445D01*
G01X17653Y8478D01*
G01X17632Y8511D01*
G01X17613Y8546D01*
G01X17581Y8618D01*
G01X17568Y8656D01*
G01X17556Y8694D01*
G01X17547Y8732D01*
G01X17540Y8771D01*
G01X17535Y8810D01*
G01X17532Y8850D01*
G01X17531Y8890D01*
G01X17532Y8929D01*
G01X17535Y8969D01*
G01X17540Y9008D01*
G01X17547Y9047D01*
G01X17557Y9086D01*
G01X17568Y9123D01*
G01X17581Y9161D01*
G01X17613Y9233D01*
G01X17632Y9268D01*
G01X17653Y9301D01*
G01X17675Y9335D01*
G01X17700Y9365D01*
G01X17725Y9396D01*
G01X17753Y9424D01*
G01X17782Y9452D01*
G01X17812Y9478D01*
G01X17823Y9488D01*
G01X17832Y9500D01*
G01X17839Y9513D01*
G01X17845Y9527D01*
G01X17848Y9541D01*
G01X17849Y9557D01*
G01X17848Y9571D01*
G01X17845Y9585D01*
G01X17840Y9599D01*
G01X17833Y9611D01*
G01X17824Y9623D01*
G01X17814Y9633D01*
G01X17802Y9642D01*
G01X17790Y9649D01*
G01X17776Y9654D01*
G01X17762Y9657D01*
G01X17747Y9658D01*
G01X17098Y9658D01*
G01X17083Y9657D01*
G01X17069Y9654D01*
G01X17056Y9649D01*
G01X17043Y9642D01*
G01X17031Y9633D01*
G01X17021Y9623D01*
G01X17012Y9611D01*
G01X17005Y9599D01*
G01X17000Y9585D01*
G01X16997Y9571D01*
G01X16996Y9557D01*
G01X16996Y8114D01*
G01X16995Y8091D01*
G01X16992Y8069D01*
G01X16987Y8047D01*
G01X16980Y8025D01*
G01X16971Y8004D01*
G01X16960Y7984D01*
G01X16948Y7965D01*
G01X16934Y7947D01*
G01X16918Y7930D01*
G01X16901Y7915D01*
G01X16882Y7901D01*
G01X16863Y7890D01*
G01X16842Y7880D01*
G01X16807Y7865D01*
G01X16793Y7857D01*
G01X16781Y7847D01*
G01X16771Y7834D01*
G01X16762Y7821D01*
G01X16757Y7806D01*
G01X16753Y7791D01*
G01X16752Y7775D01*
G01X16752Y6829D01*
G01X16753Y6813D01*
G01X16757Y6798D01*
G01X16762Y6783D01*
G01X16771Y6770D01*
G01X16781Y6757D01*
G01X16793Y6747D01*
G01X16807Y6739D01*
G01X16842Y6724D01*
G01X16863Y6714D01*
G01X16882Y6703D01*
G01X16901Y6689D01*
G01X16918Y6674D01*
G01X16934Y6657D01*
G01X16948Y6639D01*
G01X16960Y6620D01*
G01X16971Y6600D01*
G01X16980Y6579D01*
G01X16987Y6557D01*
G01X16992Y6535D01*
G01X16995Y6513D01*
G01X16996Y6490D01*
G01X16996Y6327D01*
G01X16997Y6312D01*
G01X17000Y6298D01*
G01X17005Y6284D01*
G01X17012Y6272D01*
G01X17021Y6260D01*
G01X17031Y6250D01*
G01X17043Y6241D01*
G01X17056Y6234D01*
G01X17069Y6229D01*
G01X17083Y6226D01*
G01X17098Y6225D01*
G01X17686Y6225D01*
G01X17702Y6226D01*
G01X17717Y6230D01*
G01X17732Y6236D01*
G01X17745Y6244D01*
G01X17757Y6254D01*
G01X17788Y6283D01*
G01X17820Y6309D01*
G01X17854Y6335D01*
G01X17889Y6358D01*
G01X17925Y6379D01*
G01X17963Y6398D01*
G01X18001Y6415D01*
G01X18040Y6430D01*
G01X18080Y6442D01*
G01X18121Y6453D01*
G01X18162Y6461D01*
G01X18204Y6466D01*
G01X18245Y6470D01*
G01X18288Y6471D01*
G01X18327Y6470D01*
G01X18367Y6467D01*
G01X18406Y6462D01*
G01X18445Y6455D01*
G01X18483Y6446D01*
G01X18521Y6434D01*
G01X18559Y6421D01*
G01X18631Y6389D01*
G01X18666Y6370D01*
G01X18699Y6349D01*
G01X18732Y6327D01*
G01X18794Y6277D01*
G01X18850Y6221D01*
G01X18900Y6159D01*
G01X18922Y6126D01*
G01X18943Y6093D01*
G01X18962Y6058D01*
G01X18994Y5986D01*
G01X19007Y5948D01*
G01X19019Y5910D01*
G01X19028Y5872D01*
G01X19035Y5833D01*
G01X19040Y5794D01*
G01X19043Y5754D01*
G01X19044Y5715D01*
G01X19043Y5675D01*
G01X19040Y5635D01*
G01X19035Y5596D01*
G01X19028Y5557D01*
G01X19019Y5519D01*
G01X19007Y5481D01*
G01X18994Y5443D01*
G01X18962Y5371D01*
G01X18943Y5336D01*
G01X18922Y5303D01*
G01X18900Y5270D01*
G01X18850Y5208D01*
G01X18794Y5152D01*
G01X18732Y5102D01*
G01X18699Y5080D01*
G01X18666Y5059D01*
G01X18631Y5040D01*
G01X18559Y5008D01*
G01X18521Y4995D01*
G01X18483Y4983D01*
G01X18445Y4974D01*
G01X18406Y4967D01*
G01X18367Y4962D01*
G01X18327Y4959D01*
G01X18288Y4958D01*
G01X18245Y4959D01*
G01X18204Y4963D01*
G01X18162Y4968D01*
G01X18121Y4976D01*
G01X18080Y4987D01*
G01X18040Y4999D01*
G01X18001Y5014D01*
G01X17963Y5031D01*
G01X17925Y5050D01*
G01X17889Y5071D01*
G01X17854Y5094D01*
G01X17820Y5120D01*
G01X17788Y5146D01*
G01X17757Y5175D01*
G01X17745Y5185D01*
G01X17732Y5193D01*
G01X17717Y5199D01*
G01X17702Y5203D01*
G01X17686Y5204D01*
G01X17098Y5204D01*
G01X17083Y5203D01*
G01X17069Y5200D01*
G01X17056Y5195D01*
G01X17043Y5188D01*
G01X17031Y5179D01*
G01X17021Y5169D01*
G01X17012Y5157D01*
G01X17005Y5145D01*
G01X17000Y5131D01*
G01X16997Y5117D01*
G01X16996Y5102D01*
G01X16996Y4939D01*
G01X16995Y4916D01*
G01X16992Y4893D01*
G01X16986Y4869D01*
G01X16979Y4847D01*
G01X16969Y4825D01*
G01X16958Y4805D01*
G01X16944Y4785D01*
G01X16929Y4767D01*
G01X16912Y4750D01*
G01X16894Y4735D01*
G01X16875Y4721D01*
G01X16854Y4710D01*
G01X16832Y4701D01*
G01X16810Y4693D01*
G01X16787Y4687D01*
G01X16763Y4684D01*
G01X16740Y4683D01*
G01X15920Y4683D01*
G01X15905Y4682D01*
G01X15891Y4679D01*
G01X15878Y4674D01*
G01X15865Y4667D01*
G01X15854Y4658D01*
G01X15843Y4648D01*
G01X15834Y4637D01*
G01X15828Y4623D01*
G01X15823Y4610D01*
G01X15820Y4596D01*
G01X15819Y4581D01*
G01X15820Y4565D01*
G01X15823Y4550D01*
G01X15829Y4535D01*
G01X15838Y4522D01*
G01X15848Y4510D01*
G01X16005Y4353D01*
G01X16017Y4342D01*
G01X16030Y4334D01*
G01X16045Y4328D01*
G01X16061Y4324D01*
G01X16077Y4323D01*
G01X20736Y4323D01*
G01X20750Y4324D01*
G01X20764Y4327D01*
G01X20778Y4332D01*
G01X20790Y4339D01*
G01X20802Y4348D01*
G01X20812Y4358D01*
G01X20821Y4370D01*
G01X20828Y4383D01*
G01X20833Y4396D01*
G01X20836Y4410D01*
G01X20837Y4425D01*
G01X20837Y4581D01*
G01X20836Y4596D01*
G01X20833Y4610D01*
G01X20828Y4623D01*
G01X20821Y4637D01*
G01X20812Y4648D01*
G01X20802Y4658D01*
G01X20790Y4667D01*
G01X20778Y4674D01*
G01X20764Y4679D01*
G01X20750Y4682D01*
G01X20736Y4683D01*
G01X20724Y4683D01*
G01X20701Y4684D01*
G01X20677Y4687D01*
G01X20654Y4693D01*
G01X20632Y4701D01*
G01X20610Y4710D01*
G01X20589Y4721D01*
G01X20570Y4735D01*
G01X20552Y4750D01*
G01X20535Y4767D01*
G01X20520Y4785D01*
G01X20506Y4805D01*
G01X20495Y4825D01*
G01X20485Y4847D01*
G01X20478Y4869D01*
G01X20472Y4893D01*
G01X20469Y4916D01*
G01X20468Y4939D01*
G01X20468Y6490D01*
G01X20469Y6513D01*
G01X20472Y6536D01*
G01X20478Y6560D01*
G01X20485Y6582D01*
G01X20495Y6604D01*
G01X20506Y6624D01*
G01X20520Y6644D01*
G01X20535Y6662D01*
G01X20552Y6679D01*
G01X20570Y6694D01*
G01X20589Y6708D01*
G01X20610Y6719D01*
G01X20632Y6728D01*
G01X20654Y6736D01*
G01X20677Y6742D01*
G01X20701Y6745D01*
G01X20724Y6746D01*
G01X21725Y6746D01*
G01X21748Y6745D01*
G01X21772Y6742D01*
G01X21795Y6736D01*
G01X21817Y6728D01*
G01X21839Y6719D01*
G01X21860Y6708D01*
G01X21879Y6694D01*
G01X21897Y6679D01*
G01X21914Y6662D01*
G01X21929Y6644D01*
G01X21943Y6624D01*
G01X21954Y6604D01*
G01X21964Y6582D01*
G01X21971Y6560D01*
G01X21977Y6536D01*
G01X21980Y6513D01*
G01X21981Y6490D01*
G01X21981Y4939D01*
G01X21980Y4916D01*
G01X21977Y4893D01*
G01X21971Y4869D01*
G01X21964Y4847D01*
G01X21954Y4825D01*
G01X21943Y4805D01*
G01X21929Y4785D01*
G01X21914Y4767D01*
G01X21897Y4750D01*
G01X21879Y4735D01*
G01X21860Y4721D01*
G01X21839Y4710D01*
G01X21817Y4701D01*
G01X21795Y4693D01*
G01X21772Y4687D01*
G01X21748Y4684D01*
G01X21725Y4683D01*
G01X21712Y4683D01*
G01X21697Y4682D01*
G01X21683Y4679D01*
G01X21670Y4674D01*
G01X21657Y4667D01*
G01X21645Y4658D01*
G01X21635Y4648D01*
G01X21627Y4637D01*
G01X21619Y4623D01*
G01X21614Y4610D01*
G01X21611Y4596D01*
G01X21610Y4581D01*
G01X21610Y4425D01*
G01X21611Y4410D01*
G01X21614Y4396D01*
G01X21619Y4383D01*
G01X21627Y4370D01*
G01X21635Y4358D01*
G01X21645Y4348D01*
G01X21657Y4339D01*
G01X21670Y4332D01*
G01X21683Y4327D01*
G01X21697Y4324D01*
G01X21712Y4323D01*
G01X21971Y4323D01*
G01X22001Y4322D01*
G01X22031Y4319D01*
G01X22061Y4312D01*
G01X22090Y4304D01*
G01X22118Y4294D01*
G01X22146Y4281D01*
G01X22173Y4266D01*
G01X22198Y4249D01*
G01X22221Y4231D01*
G01X22244Y4210D01*
G01X22498Y3956D01*
G01X22519Y3933D01*
G01X22537Y3910D01*
G01X22554Y3884D01*
G01X22569Y3857D01*
G01X22582Y3829D01*
G01X22592Y3801D01*
G01X22601Y3771D01*
G01X22607Y3741D01*
G01X22610Y3711D01*
G01X22612Y3696D01*
G01X22617Y3681D01*
G01X22623Y3668D01*
G01X22632Y3655D01*
G01X22642Y3644D01*
G01X22654Y3634D01*
G01X22667Y3627D01*
G01X22681Y3621D01*
G01X22696Y3618D01*
G01X22711Y3616D01*
G01X22727Y3618D01*
G01X22743Y3622D01*
G01X22757Y3628D01*
G01X22780Y3638D01*
G01X22803Y3646D01*
G01X22826Y3652D01*
G01X22850Y3655D01*
G01X22875Y3656D01*
G01X23475Y3656D01*
G01X23498Y3655D01*
G01X23521Y3652D01*
G01X23545Y3646D01*
G01X23567Y3639D01*
G01X23589Y3629D01*
G01X23609Y3617D01*
G01X23629Y3604D01*
G01X23647Y3589D01*
G01X23664Y3572D01*
G01X23679Y3554D01*
G01X23693Y3535D01*
G01X23704Y3514D01*
G01X23714Y3492D01*
G01X23721Y3470D01*
G01X23727Y3447D01*
G01X23730Y3423D01*
G01X23731Y3400D01*
G01X23731Y2979D01*
G01X23730Y2951D01*
G01X23725Y2924D01*
G01X23718Y2897D01*
G01X23713Y2881D01*
G01X23712Y2865D01*
G01X23713Y2848D01*
G01X23718Y2832D01*
G01X23725Y2805D01*
G01X23730Y2777D01*
G01X23731Y2749D01*
G01X23731Y2708D01*
G01X23340Y2708D01*
G01X23323Y2716D01*
G01X23305Y2721D01*
G01X23286Y2723D01*
G01X23063Y2723D01*
G01X23044Y2721D01*
G01X23026Y2716D01*
G01X23009Y2708D01*
G01X22713Y2708D01*
G01X22698Y2707D01*
G01X22684Y2704D01*
G01X22671Y2699D01*
G01X22658Y2692D01*
G01X22646Y2683D01*
G01X22636Y2673D01*
G01X22627Y2661D01*
G01X22620Y2649D01*
G01X22615Y2635D01*
G01X22612Y2621D01*
G01X22611Y2607D01*
G01X22611Y2488D01*
G01X22612Y2472D01*
G01X22616Y2456D01*
G01X22622Y2441D01*
G01X22630Y2428D01*
G01X22641Y2416D01*
G01X22656Y2401D01*
G01X22668Y2391D01*
G01X22682Y2382D01*
G01X22696Y2376D01*
G01X22712Y2372D01*
G01X22728Y2371D01*
G01X23009Y2371D01*
G01X23026Y2363D01*
G01X23044Y2358D01*
G01X23063Y2356D01*
G01X23286Y2356D01*
G01X23305Y2358D01*
G01X23323Y2363D01*
G01X23340Y2371D01*
G01X23731Y2371D01*
G01X23731Y2330D01*
G01X23730Y2302D01*
G01X23725Y2274D01*
G01X23718Y2247D01*
G01X23713Y2231D01*
G01X23712Y2214D01*
G01X23713Y2198D01*
G01X23718Y2182D01*
G01X23725Y2155D01*
G01X23730Y2128D01*
G01X23731Y2100D01*
G01X23731Y1882D01*
G01X23732Y1867D01*
G01X23735Y1853D01*
G01X23740Y1839D01*
G01X23747Y1827D01*
G01X23756Y1815D01*
G01X23766Y1805D01*
G01X23778Y1796D01*
G01X23791Y1789D01*
G01X23804Y1784D01*
G01X23818Y1781D01*
G01X23833Y1780D01*
G01X25325Y1780D01*
G01X25342Y1781D01*
G01X25357Y1785D01*
G01X25372Y1791D01*
G01X25385Y1799D01*
G01X25397Y1810D01*
G01X25875Y2288D01*
G01X25886Y2300D01*
G01X25894Y2313D01*
G01X25900Y2328D01*
G01X25904Y2343D01*
G01X25905Y2360D01*
G01X25905Y5007D01*
G01X25903Y5023D01*
G01X25900Y5039D01*
G01X25893Y5054D01*
G01X25885Y5068D01*
G01X25873Y5080D01*
G01X25861Y5091D01*
G01X25828Y5114D01*
G01X25797Y5139D01*
G01X25768Y5166D01*
G01X25740Y5194D01*
G01X25713Y5223D01*
G01X25688Y5254D01*
G01X25665Y5287D01*
G01X25654Y5299D01*
G01X25642Y5311D01*
G01X25628Y5319D01*
G01X25613Y5326D01*
G01X25597Y5329D01*
G01X25581Y5331D01*
G01X24083Y5331D01*
G01X24068Y5330D01*
G01X24054Y5327D01*
G01X24041Y5322D01*
G01X24028Y5315D01*
G01X24016Y5306D01*
G01X24006Y5296D01*
G01X23997Y5284D01*
G01X23990Y5272D01*
G01X23985Y5258D01*
G01X23982Y5244D01*
G01X23981Y5229D01*
G01X23981Y4939D01*
G01X23980Y4916D01*
G01X23977Y4893D01*
G01X23971Y4869D01*
G01X23964Y4847D01*
G01X23954Y4825D01*
G01X23943Y4805D01*
G01X23929Y4785D01*
G01X23914Y4767D01*
G01X23897Y4750D01*
G01X23879Y4735D01*
G01X23860Y4721D01*
G01X23839Y4710D01*
G01X23817Y4701D01*
G01X23795Y4693D01*
G01X23772Y4687D01*
G01X23748Y4684D01*
G01X23725Y4683D01*
G01X22724Y4683D01*
G01X22701Y4684D01*
G01X22677Y4687D01*
G01X22654Y4693D01*
G01X22632Y4701D01*
G01X22610Y4710D01*
G01X22589Y4721D01*
G01X22570Y4735D01*
G01X22552Y4750D01*
G01X22535Y4767D01*
G01X22520Y4785D01*
G01X22506Y4805D01*
G01X22495Y4825D01*
G01X22485Y4847D01*
G01X22478Y4869D01*
G01X22472Y4893D01*
G01X22469Y4916D01*
G01X22468Y4939D01*
G01X22468Y6490D01*
G01X22469Y6513D01*
G01X22472Y6536D01*
G01X22478Y6560D01*
G01X22485Y6582D01*
G01X22495Y6604D01*
G01X22506Y6624D01*
G01X22520Y6644D01*
G01X22535Y6662D01*
G01X22552Y6679D01*
G01X22570Y6694D01*
G01X22589Y6708D01*
G01X22610Y6719D01*
G01X22632Y6728D01*
G01X22654Y6736D01*
G01X22677Y6742D01*
G01X22701Y6745D01*
G01X22724Y6746D01*
G01X23725Y6746D01*
G01X23748Y6745D01*
G01X23772Y6742D01*
G01X23795Y6736D01*
G01X23817Y6728D01*
G01X23839Y6719D01*
G01X23860Y6708D01*
G01X23879Y6694D01*
G01X23897Y6679D01*
G01X23914Y6662D01*
G01X23929Y6644D01*
G01X23943Y6624D01*
G01X23954Y6604D01*
G01X23964Y6582D01*
G01X23971Y6560D01*
G01X23977Y6536D01*
G01X23980Y6513D01*
G01X23981Y6490D01*
G01X23981Y6200D01*
G01X23982Y6185D01*
G01X23985Y6171D01*
G01X23990Y6157D01*
G01X23997Y6145D01*
G01X24006Y6133D01*
G01X24016Y6123D01*
G01X24028Y6114D01*
G01X24041Y6107D01*
G01X24054Y6102D01*
G01X24068Y6099D01*
G01X24083Y6098D01*
G01X25581Y6098D01*
G01X25597Y6100D01*
G01X25613Y6103D01*
G01X25628Y6110D01*
G01X25642Y6118D01*
G01X25654Y6130D01*
G01X25665Y6142D01*
G01X25689Y6175D01*
G01X25714Y6207D01*
G01X25741Y6237D01*
G01X25770Y6266D01*
G01X25801Y6293D01*
G01X25833Y6319D01*
G01X25866Y6342D01*
G01X25900Y6364D01*
G01X25936Y6384D01*
G01X25973Y6402D01*
G01X26010Y6418D01*
G01X26048Y6432D01*
G01X26087Y6444D01*
G01X26126Y6454D01*
G01X26167Y6461D01*
G01X26207Y6467D01*
G01X26248Y6470D01*
G01X26289Y6471D01*
G01X26328Y6470D01*
G01X26368Y6467D01*
G01X26407Y6462D01*
G01X26446Y6455D01*
G01X26484Y6446D01*
G01X26522Y6434D01*
G01X26560Y6421D01*
G01X26632Y6389D01*
G01X26667Y6370D01*
G01X26700Y6349D01*
G01X26733Y6327D01*
G01X26795Y6277D01*
G01X26851Y6221D01*
G01X26901Y6159D01*
G01X26923Y6126D01*
G01X26944Y6093D01*
G01X26963Y6058D01*
G01X26995Y5986D01*
G01X27008Y5948D01*
G01X27020Y5910D01*
G01X27029Y5872D01*
G01X27036Y5833D01*
G01X27041Y5794D01*
G01X27044Y5754D01*
G01X27045Y5715D01*
G01X27044Y5674D01*
G01X27041Y5633D01*
G01X27035Y5593D01*
G01X27028Y5552D01*
G01X27018Y5513D01*
G01X27006Y5474D01*
G01X26992Y5436D01*
G01X26976Y5399D01*
G01X26958Y5362D01*
G01X26938Y5326D01*
G01X26916Y5292D01*
G01X26893Y5259D01*
G01X26867Y5227D01*
G01X26840Y5196D01*
G01X26811Y5167D01*
G01X26781Y5140D01*
G01X26749Y5115D01*
G01X26716Y5091D01*
G01X26704Y5080D01*
G01X26692Y5068D01*
G01X26684Y5054D01*
G01X26677Y5039D01*
G01X26674Y5023D01*
G01X26672Y5007D01*
G01X26672Y2159D01*
G01X26671Y2129D01*
G01X26667Y2099D01*
G01X26661Y2069D01*
G01X26653Y2040D01*
G01X26643Y2012D01*
G01X26630Y1984D01*
G01X26616Y1958D01*
G01X26599Y1933D01*
G01X26580Y1910D01*
G01X26560Y1887D01*
G01X26235Y1563D01*
G01X26225Y1550D01*
G01X26216Y1537D01*
G01X26210Y1522D01*
G01X26207Y1507D01*
G01X26205Y1491D01*
G01X26207Y1476D01*
G01X26210Y1463D01*
G01X26215Y1449D01*
G01X26221Y1436D01*
G01X26230Y1424D01*
G01X26241Y1414D01*
G01X26252Y1406D01*
G01X26265Y1399D01*
G01X26278Y1393D01*
G01X26293Y1390D01*
G01X26307Y1389D01*
G01X28233Y1389D01*
G01X28248Y1390D01*
G01X28264Y1394D01*
G01X28279Y1401D01*
G01X28293Y1409D01*
G01X28304Y1419D01*
G01X29555Y2670D01*
G01X29566Y2682D01*
G01X29574Y2695D01*
G01X29580Y2710D01*
G01X29584Y2726D01*
G01X29585Y2742D01*
G01X29585Y9398D01*
G01X29586Y9428D01*
G01X29589Y9458D01*
G01X29596Y9488D01*
G01X29604Y9517D01*
G01X29614Y9545D01*
G01X29627Y9573D01*
G01X29642Y9600D01*
G01X29659Y9625D01*
G01X29677Y9648D01*
G01X29698Y9671D01*
G01X30079Y10052D01*
G01X30101Y10072D01*
G01X30124Y10090D01*
G01X30149Y10107D01*
G01X30175Y10122D01*
G01X30202Y10135D01*
G01X30230Y10145D01*
G01X30259Y10153D01*
G01X30288Y10160D01*
G01X30318Y10164D01*
G01X30348Y10165D01*
G01X30373Y10165D01*
G01X30387Y10167D01*
G01X30401Y10170D01*
G01X30414Y10175D01*
G01X30427Y10182D01*
G01X30438Y10190D01*
G01X30449Y10201D01*
G01X30457Y10212D01*
G01X30464Y10225D01*
G01X30469Y10239D01*
G01X30472Y10252D01*
G01X30473Y10267D01*
G01X30473Y10564D01*
G01X30474Y10588D01*
G01X30477Y10612D01*
G01X30483Y10634D01*
G01X30490Y10657D01*
G01X30500Y10679D01*
G01X30512Y10700D01*
G01X30525Y10719D01*
G01X30540Y10737D01*
G01X30557Y10754D01*
G01X30575Y10769D01*
G01X30594Y10783D01*
G01X30615Y10794D01*
G01X30637Y10804D01*
G01X30659Y10811D01*
G01X30682Y10817D01*
G01X30706Y10820D01*
G01X30729Y10821D01*
G01X33530Y10821D01*
G01X33553Y10820D01*
G01X33577Y10817D01*
G01X33600Y10811D01*
G01X33622Y10804D01*
G01X33644Y10794D01*
G01X33665Y10783D01*
G01X33684Y10769D01*
G01X33702Y10754D01*
G01X33719Y10737D01*
G01X33734Y10719D01*
G01X33747Y10700D01*
G01X33759Y10679D01*
G01X33769Y10657D01*
G01X33776Y10634D01*
G01X33782Y10612D01*
G01X33785Y10588D01*
G01X33786Y10564D01*
G01X33786Y10302D01*
G01X33787Y10288D01*
G01X33790Y10274D01*
G01X33795Y10260D01*
G01X33802Y10247D01*
G01X33811Y10236D01*
G01X33821Y10226D01*
G01X33833Y10217D01*
G01X33846Y10210D01*
G01X33859Y10205D01*
G01X33873Y10202D01*
G01X33888Y10201D01*
G01X39771Y10201D01*
G01X39786Y10202D01*
G01X39800Y10205D01*
G01X39813Y10210D01*
G01X39826Y10217D01*
G01X39838Y10226D01*
G01X39848Y10236D01*
G01X39857Y10247D01*
G01X39864Y10260D01*
G01X39869Y10274D01*
G01X39872Y10288D01*
G01X39873Y10302D01*
G01X39873Y10564D01*
G01X39874Y10588D01*
G01X39878Y10612D01*
G01X39883Y10634D01*
G01X39890Y10657D01*
G01X39900Y10679D01*
G01X39912Y10700D01*
G01X39925Y10719D01*
G01X39940Y10737D01*
G01X39957Y10754D01*
G01X39975Y10769D01*
G01X39994Y10783D01*
G01X40015Y10794D01*
G01X40037Y10804D01*
G01X40059Y10811D01*
G01X40082Y10817D01*
G01X40106Y10820D01*
G01X40129Y10821D01*
G01X42930Y10821D01*
G01X42953Y10820D01*
G01X42977Y10817D01*
G01X43000Y10811D01*
G01X43022Y10804D01*
G01X43044Y10794D01*
G01X43065Y10783D01*
G01X43084Y10769D01*
G01X43102Y10754D01*
G01X43119Y10737D01*
G01X43134Y10719D01*
G01X43147Y10700D01*
G01X43159Y10679D01*
G01X43169Y10657D01*
G01X43176Y10634D01*
G01X43182Y10612D01*
G01X43185Y10588D01*
G01X43186Y10564D01*
G01X43186Y9064D01*
G01X43185Y9041D01*
G01X43182Y9018D01*
G01X43176Y8994D01*
G01X43169Y8972D01*
G01X43159Y8950D01*
G01X43147Y8930D01*
G01X43134Y8910D01*
G01X43119Y8892D01*
G01X43102Y8875D01*
G01X43084Y8860D01*
G01X43065Y8846D01*
G01X43044Y8835D01*
G01X43022Y8825D01*
G01X43000Y8818D01*
G01X42977Y8812D01*
G01X42953Y8809D01*
G01X42930Y8808D01*
G01X40129Y8808D01*
G01X40106Y8809D01*
G01X40082Y8812D01*
G01X40059Y8818D01*
G01X40037Y8825D01*
G01X40015Y8835D01*
G01X39994Y8846D01*
G01X39975Y8860D01*
G01X39957Y8875D01*
G01X39940Y8892D01*
G01X39925Y8910D01*
G01X39912Y8930D01*
G01X39900Y8950D01*
G01X39890Y8972D01*
G01X39883Y8994D01*
G01X39878Y9018D01*
G01X39874Y9041D01*
G01X39873Y9064D01*
G01X39873Y9326D01*
G01X39872Y9341D01*
G01X39869Y9354D01*
G01X39864Y9368D01*
G01X39857Y9381D01*
G01X39848Y9392D01*
G01X39838Y9403D01*
G01X39826Y9411D01*
G01X39813Y9418D01*
G01X39800Y9423D01*
G01X39786Y9426D01*
G01X39771Y9427D01*
G01X33888Y9427D01*
G01X33873Y9426D01*
G01X33859Y9423D01*
G01X33846Y9418D01*
G01X33833Y9411D01*
G01X33821Y9403D01*
G01X33811Y9392D01*
G01X33802Y9381D01*
G01X33795Y9368D01*
G01X33790Y9354D01*
G01X33787Y9341D01*
G01X33786Y9326D01*
G01X33786Y9064D01*
G01X33785Y9041D01*
G01X33782Y9018D01*
G01X33776Y8994D01*
G01X33769Y8972D01*
G01X33759Y8950D01*
G01X33747Y8930D01*
G01X33734Y8910D01*
G01X33719Y8892D01*
G01X33702Y8875D01*
G01X33684Y8860D01*
G01X33665Y8846D01*
G01X33644Y8835D01*
G01X33622Y8825D01*
G01X33600Y8818D01*
G01X33577Y8812D01*
G01X33553Y8809D01*
G01X33530Y8808D01*
G01X30729Y8808D01*
G01X30705Y8809D01*
G01X30681Y8813D01*
G01X30657Y8818D01*
G01X30634Y8826D01*
G01X30613Y8836D01*
G01X30591Y8848D01*
G01X30571Y8863D01*
G01X30553Y8878D01*
G01X30536Y8896D01*
G01X30526Y8906D01*
G01X30515Y8915D01*
G01X30502Y8922D01*
G01X30488Y8927D01*
G01X30474Y8930D01*
G01X30460Y8931D01*
G01X30445Y8930D01*
G01X30431Y8927D01*
G01X30418Y8922D01*
G01X30405Y8914D01*
G01X30393Y8906D01*
G01X30383Y8896D01*
G01X30374Y8884D01*
G01X30367Y8871D01*
G01X30362Y8857D01*
G01X30359Y8844D01*
G01X30358Y8829D01*
G01X30358Y7680D01*
G01X30359Y7666D01*
G01X30362Y7652D01*
G01X30367Y7638D01*
G01X30374Y7625D01*
G01X30383Y7613D01*
G01X30393Y7603D01*
G01X30405Y7595D01*
G01X30418Y7587D01*
G01X30431Y7582D01*
G01X30445Y7579D01*
G01X30460Y7578D01*
G01X30474Y7579D01*
G01X30488Y7582D01*
G01X30502Y7587D01*
G01X30515Y7595D01*
G01X30526Y7603D01*
G01X30536Y7613D01*
G01X30553Y7631D01*
G01X30571Y7646D01*
G01X30591Y7661D01*
G01X30613Y7673D01*
G01X30634Y7683D01*
G01X30657Y7691D01*
G01X30681Y7696D01*
G01X30705Y7700D01*
G01X30729Y7701D01*
G01X31366Y7701D01*
G01X31366Y7133D01*
G01X30460Y7133D01*
G01X30445Y7132D01*
G01X30431Y7129D01*
G01X30418Y7124D01*
G01X30405Y7117D01*
G01X30393Y7108D01*
G01X30383Y7098D01*
G01X30374Y7086D01*
G01X30367Y7073D01*
G01X30362Y7060D01*
G01X30359Y7046D01*
G01X30358Y7031D01*
G01X30358Y6358D01*
G01X30359Y6343D01*
G01X30362Y6329D01*
G01X30367Y6315D01*
G01X30374Y6303D01*
G01X30383Y6291D01*
G01X30393Y6281D01*
G01X30405Y6272D01*
G01X30418Y6265D01*
G01X30431Y6260D01*
G01X30445Y6257D01*
G01X30460Y6256D01*
G01X31366Y6256D01*
G01X31366Y5688D01*
G01X30729Y5688D01*
G01X30705Y5689D01*
G01X30681Y5693D01*
G01X30657Y5698D01*
G01X30634Y5706D01*
G01X30613Y5717D01*
G01X30591Y5728D01*
G01X30571Y5742D01*
G01X30553Y5758D01*
G01X30536Y5776D01*
G01X30526Y5786D01*
G01X30515Y5795D01*
G01X30502Y5801D01*
G01X30488Y5806D01*
G01X30474Y5809D01*
G01X30460Y5811D01*
G01X30445Y5809D01*
G01X30431Y5806D01*
G01X30418Y5801D01*
G01X30405Y5795D01*
G01X30393Y5786D01*
G01X30383Y5775D01*
G01X30374Y5764D01*
G01X30367Y5751D01*
G01X30362Y5738D01*
G01X30359Y5724D01*
G01X30358Y5709D01*
G01X30358Y3180D01*
G01X30359Y3165D01*
G01X30362Y3151D01*
G01X30367Y3138D01*
G01X30374Y3125D01*
G01X30383Y3114D01*
G01X30393Y3103D01*
G01X30405Y3094D01*
G01X30418Y3088D01*
G01X30431Y3083D01*
G01X30445Y3080D01*
G01X30460Y3078D01*
G01X30474Y3080D01*
G01X30488Y3083D01*
G01X30502Y3088D01*
G01X30515Y3094D01*
G01X30526Y3103D01*
G01X30536Y3113D01*
G01X30553Y3131D01*
G01X30571Y3147D01*
G01X30591Y3161D01*
G01X30613Y3173D01*
G01X30634Y3183D01*
G01X30657Y3191D01*
G01X30681Y3196D01*
G01X30705Y3200D01*
G01X30729Y3201D01*
G01X33530Y3201D01*
G01X33553Y3200D01*
G01X33577Y3197D01*
G01X33600Y3191D01*
G01X33622Y3184D01*
G01X33644Y3174D01*
G01X33665Y3163D01*
G01X33684Y3149D01*
G01X33702Y3134D01*
G01X33719Y3117D01*
G01X33734Y3099D01*
G01X33747Y3080D01*
G01X33759Y3059D01*
G01X33769Y3037D01*
G01X33776Y3014D01*
G01X33782Y2992D01*
G01X33785Y2968D01*
G01X33786Y2944D01*
G01X33786Y2682D01*
G01X33787Y2668D01*
G01X33790Y2654D01*
G01X33795Y2640D01*
G01X33802Y2627D01*
G01X33811Y2616D01*
G01X33821Y2606D01*
G01X33833Y2597D01*
G01X33846Y2590D01*
G01X33859Y2585D01*
G01X33873Y2582D01*
G01X33888Y2581D01*
G01X39771Y2581D01*
G01X39786Y2582D01*
G01X39800Y2585D01*
G01X39813Y2590D01*
G01X39826Y2597D01*
G01X39838Y2606D01*
G01X39848Y2616D01*
G01X39857Y2627D01*
G01X39864Y2640D01*
G01X39869Y2654D01*
G01X39872Y2668D01*
G01X39873Y2682D01*
G01X39873Y2944D01*
G01X39874Y2968D01*
G01X39878Y2992D01*
G01X39883Y3014D01*
G01X39890Y3037D01*
G01X39900Y3059D01*
G01X39912Y3080D01*
G01X39925Y3099D01*
G01X39940Y3117D01*
G01X39957Y3134D01*
G01X39975Y3149D01*
G01X39994Y3163D01*
G01X40015Y3174D01*
G01X40037Y3184D01*
G01X40059Y3191D01*
G01X40082Y3197D01*
G01X40106Y3200D01*
G01X40129Y3201D01*
G01X42930Y3201D01*
G01X42953Y3200D01*
G01X42977Y3197D01*
G01X43000Y3191D01*
G01X43022Y3184D01*
G01X43044Y3174D01*
G01X43065Y3163D01*
G01X43084Y3149D01*
G01X43102Y3134D01*
G01X43119Y3117D01*
G01X43134Y3099D01*
G01X43147Y3080D01*
G01X43159Y3059D01*
G01X43169Y3037D01*
G01X43176Y3014D01*
G01X43182Y2992D01*
G01X43185Y2968D01*
G01X43186Y2944D01*
G01X43186Y1444D01*
G01X43185Y1421D01*
G01X43182Y1398D01*
G01X43176Y1374D01*
G01X43169Y1352D01*
G01X43159Y1330D01*
G01X43147Y1310D01*
G01X43134Y1290D01*
G01X43119Y1272D01*
G01X43102Y1255D01*
G01X43084Y1240D01*
G01X43065Y1226D01*
G01X43044Y1215D01*
G01X43022Y1205D01*
G01X43000Y1198D01*
G01X42977Y1192D01*
G01X42953Y1189D01*
G01X42930Y1188D01*
G01X40129Y1188D01*
G01X40106Y1189D01*
G01X40082Y1192D01*
G01X40059Y1198D01*
G01X40037Y1205D01*
G01X40015Y1215D01*
G01X39994Y1226D01*
G01X39975Y1240D01*
G01X39957Y1255D01*
G01X39940Y1272D01*
G01X39925Y1290D01*
G01X39912Y1310D01*
G01X39900Y1330D01*
G01X39890Y1352D01*
G01X39883Y1374D01*
G01X39878Y1398D01*
G01X39874Y1421D01*
G01X39873Y1444D01*
G01X39873Y1706D01*
G01X39872Y1721D01*
G01X39869Y1734D01*
G01X39864Y1748D01*
G01X39857Y1761D01*
G01X39848Y1772D01*
G01X39838Y1783D01*
G01X39826Y1791D01*
G01X39813Y1798D01*
G01X39800Y1803D01*
G01X39786Y1806D01*
G01X39771Y1807D01*
G01X33888Y1807D01*
G01X33873Y1806D01*
G01X33859Y1803D01*
G01X33846Y1798D01*
G01X33833Y1791D01*
G01X33821Y1783D01*
G01X33811Y1772D01*
G01X33802Y1761D01*
G01X33795Y1748D01*
G01X33790Y1734D01*
G01X33787Y1721D01*
G01X33786Y1706D01*
G01X33786Y1444D01*
G01X33785Y1421D01*
G01X33782Y1398D01*
G01X33776Y1374D01*
G01X33769Y1352D01*
G01X33759Y1330D01*
G01X33747Y1310D01*
G01X33734Y1290D01*
G01X33719Y1272D01*
G01X33702Y1255D01*
G01X33684Y1240D01*
G01X33665Y1226D01*
G01X33644Y1215D01*
G01X33622Y1205D01*
G01X33600Y1198D01*
G01X33577Y1192D01*
G01X33553Y1189D01*
G01X33530Y1188D01*
G01X30729Y1188D01*
G01X30706Y1189D01*
G01X30683Y1192D01*
G01X30659Y1198D01*
G01X30637Y1205D01*
G01X30616Y1215D01*
G01X30595Y1226D01*
G01X30576Y1240D01*
G01X30557Y1255D01*
G01X30540Y1271D01*
G01X30525Y1289D01*
G01X30512Y1309D01*
G01X30500Y1329D01*
G01X30491Y1351D01*
G01X30483Y1374D01*
G01X30477Y1397D01*
G01X30474Y1420D01*
G01X30472Y1435D01*
G01X30467Y1449D01*
G01X30460Y1462D01*
G01X30452Y1474D01*
G01X30441Y1485D01*
G01X30430Y1495D01*
G01X30417Y1502D01*
G01X30403Y1507D01*
G01X30388Y1510D01*
G01X30373Y1512D01*
G01X30357Y1510D01*
G01X30342Y1507D01*
G01X30327Y1501D01*
G01X30313Y1492D01*
G01X30301Y1482D01*
G01X29249Y429D01*
G01X29238Y418D01*
G01X29230Y404D01*
G01X29224Y389D01*
G01X29220Y373D01*
G01X29219Y358D01*
G01X29220Y343D01*
G01X29223Y329D01*
G01X29228Y315D01*
G01X29235Y303D01*
G01X29244Y291D01*
G01X29254Y281D01*
G01X29266Y272D01*
G01X29279Y265D01*
G01X29292Y260D01*
G01X29306Y257D01*
G01X29321Y256D01*
G01X51076Y256D01*
G01X51091Y257D01*
G01X51105Y260D01*
G01X51119Y265D01*
G01X51131Y272D01*
G01X51143Y281D01*
G01X51153Y291D01*
G01X51162Y303D01*
G01X51169Y315D01*
G01X51174Y329D01*
G01X51177Y343D01*
G01X51178Y358D01*
G01X51178Y22501D01*
G01X51177Y22516D01*
G01X51174Y22530D01*
G01X51169Y22544D01*
G01X51162Y22556D01*
G01X51153Y22568D01*
G01X51143Y22578D01*
G01X51131Y22587D01*
G01X51119Y22594D01*
G01X51105Y22599D01*
G01X51091Y22602D01*
G01X51076Y22603D01*
G37*

%LPC*%
G36*
G01X47117Y1397D02*
G01X46479Y1397D01*
G01X46479Y1016D01*
G01X46480Y992D01*
G01X46484Y968D01*
G01X46489Y945D01*
G01X46496Y923D01*
G01X46506Y901D01*
G01X46518Y880D01*
G01X46531Y861D01*
G01X46546Y843D01*
G01X46563Y826D01*
G01X46581Y811D01*
G01X46600Y798D01*
G01X46621Y786D01*
G01X46643Y776D01*
G01X46665Y769D01*
G01X46688Y764D01*
G01X46712Y760D01*
G01X46736Y759D01*
G01X47117Y759D01*
G01X47117Y1397D01*
G37*
G36*
G01X48770Y1397D02*
G01X48133Y1397D01*
G01X48133Y759D01*
G01X48514Y759D01*
G01X48537Y760D01*
G01X48561Y764D01*
G01X48584Y769D01*
G01X48606Y776D01*
G01X48628Y786D01*
G01X48649Y798D01*
G01X48668Y811D01*
G01X48686Y826D01*
G01X48703Y843D01*
G01X48718Y861D01*
G01X48731Y880D01*
G01X48743Y901D01*
G01X48753Y923D01*
G01X48760Y945D01*
G01X48765Y968D01*
G01X48769Y992D01*
G01X48770Y1016D01*
G01X48770Y1397D01*
G37*
G36*
G01X48514Y3050D02*
G01X48133Y3050D01*
G01X48133Y2413D01*
G01X48770Y2413D01*
G01X48770Y2794D01*
G01X48769Y2817D01*
G01X48765Y2841D01*
G01X48760Y2864D01*
G01X48753Y2886D01*
G01X48743Y2908D01*
G01X48731Y2929D01*
G01X48718Y2948D01*
G01X48703Y2966D01*
G01X48686Y2983D01*
G01X48668Y2998D01*
G01X48649Y3011D01*
G01X48628Y3023D01*
G01X48606Y3033D01*
G01X48584Y3040D01*
G01X48561Y3045D01*
G01X48537Y3049D01*
G01X48514Y3050D01*
G37*
G36*
G01X47117Y3050D02*
G01X46736Y3050D01*
G01X46712Y3049D01*
G01X46688Y3045D01*
G01X46665Y3040D01*
G01X46643Y3033D01*
G01X46621Y3023D01*
G01X46600Y3011D01*
G01X46581Y2998D01*
G01X46563Y2983D01*
G01X46546Y2966D01*
G01X46531Y2948D01*
G01X46518Y2929D01*
G01X46506Y2908D01*
G01X46496Y2886D01*
G01X46489Y2864D01*
G01X46484Y2841D01*
G01X46480Y2817D01*
G01X46479Y2794D01*
G01X46479Y2413D01*
G01X47117Y2413D01*
G01X47117Y3050D01*
G37*
G36*
G01X47673Y6859D02*
G01X47625Y6860D01*
G01X47576Y6859D01*
G01X47527Y6856D01*
G01X47479Y6851D01*
G01X47431Y6844D01*
G01X47383Y6834D01*
G01X47336Y6823D01*
G01X47289Y6810D01*
G01X47243Y6795D01*
G01X47197Y6777D01*
G01X47153Y6758D01*
G01X47109Y6738D01*
G01X47066Y6715D01*
G01X47024Y6690D01*
G01X46983Y6663D01*
G01X46943Y6636D01*
G01X46905Y6606D01*
G01X46868Y6575D01*
G01X46832Y6542D01*
G01X46797Y6507D01*
G01X46764Y6471D01*
G01X46733Y6434D01*
G01X46703Y6396D01*
G01X46676Y6356D01*
G01X46649Y6315D01*
G01X46624Y6273D01*
G01X46601Y6230D01*
G01X46581Y6186D01*
G01X46562Y6142D01*
G01X46544Y6096D01*
G01X46529Y6050D01*
G01X46516Y6003D01*
G01X46505Y5956D01*
G01X46495Y5908D01*
G01X46488Y5860D01*
G01X46483Y5812D01*
G01X46480Y5763D01*
G01X46479Y5715D01*
G01X46480Y5666D01*
G01X46483Y5617D01*
G01X46488Y5569D01*
G01X46495Y5521D01*
G01X46505Y5473D01*
G01X46516Y5426D01*
G01X46529Y5379D01*
G01X46544Y5333D01*
G01X46562Y5287D01*
G01X46581Y5243D01*
G01X46601Y5199D01*
G01X46624Y5156D01*
G01X46649Y5114D01*
G01X46676Y5073D01*
G01X46703Y5033D01*
G01X46733Y4995D01*
G01X46764Y4958D01*
G01X46797Y4922D01*
G01X46832Y4887D01*
G01X46868Y4854D01*
G01X46905Y4823D01*
G01X46943Y4793D01*
G01X46983Y4766D01*
G01X47024Y4739D01*
G01X47066Y4714D01*
G01X47109Y4691D01*
G01X47153Y4671D01*
G01X47197Y4652D01*
G01X47243Y4634D01*
G01X47289Y4619D01*
G01X47336Y4606D01*
G01X47383Y4595D01*
G01X47431Y4585D01*
G01X47479Y4578D01*
G01X47527Y4573D01*
G01X47576Y4570D01*
G01X47625Y4569D01*
G01X47673Y4570D01*
G01X47722Y4573D01*
G01X47770Y4578D01*
G01X47818Y4585D01*
G01X47866Y4595D01*
G01X47913Y4606D01*
G01X47960Y4619D01*
G01X48006Y4634D01*
G01X48052Y4652D01*
G01X48096Y4671D01*
G01X48140Y4691D01*
G01X48183Y4714D01*
G01X48225Y4739D01*
G01X48266Y4766D01*
G01X48306Y4793D01*
G01X48344Y4823D01*
G01X48381Y4854D01*
G01X48417Y4887D01*
G01X48452Y4922D01*
G01X48485Y4958D01*
G01X48516Y4995D01*
G01X48546Y5033D01*
G01X48573Y5073D01*
G01X48600Y5114D01*
G01X48625Y5156D01*
G01X48648Y5199D01*
G01X48668Y5243D01*
G01X48687Y5287D01*
G01X48705Y5333D01*
G01X48720Y5379D01*
G01X48733Y5426D01*
G01X48744Y5473D01*
G01X48754Y5521D01*
G01X48761Y5569D01*
G01X48766Y5617D01*
G01X48769Y5666D01*
G01X48770Y5715D01*
G01X48769Y5763D01*
G01X48766Y5812D01*
G01X48761Y5860D01*
G01X48754Y5908D01*
G01X48744Y5956D01*
G01X48733Y6003D01*
G01X48720Y6050D01*
G01X48705Y6096D01*
G01X48687Y6142D01*
G01X48668Y6186D01*
G01X48648Y6230D01*
G01X48625Y6273D01*
G01X48600Y6315D01*
G01X48573Y6356D01*
G01X48546Y6396D01*
G01X48516Y6434D01*
G01X48485Y6471D01*
G01X48452Y6507D01*
G01X48417Y6542D01*
G01X48381Y6575D01*
G01X48344Y6606D01*
G01X48306Y6636D01*
G01X48266Y6663D01*
G01X48225Y6690D01*
G01X48183Y6715D01*
G01X48140Y6738D01*
G01X48096Y6758D01*
G01X48052Y6777D01*
G01X48006Y6795D01*
G01X47960Y6810D01*
G01X47913Y6823D01*
G01X47866Y6834D01*
G01X47818Y6844D01*
G01X47770Y6851D01*
G01X47722Y6856D01*
G01X47673Y6859D01*
G37*
G36*
G01X43186Y6256D02*
G01X42293Y6256D01*
G01X42293Y5688D01*
G01X42930Y5688D01*
G01X42953Y5689D01*
G01X42977Y5692D01*
G01X43000Y5698D01*
G01X43022Y5705D01*
G01X43044Y5715D01*
G01X43065Y5726D01*
G01X43084Y5740D01*
G01X43102Y5755D01*
G01X43119Y5772D01*
G01X43134Y5790D01*
G01X43147Y5809D01*
G01X43159Y5830D01*
G01X43169Y5852D01*
G01X43176Y5875D01*
G01X43182Y5897D01*
G01X43185Y5921D01*
G01X43186Y5945D01*
G01X43186Y6256D01*
G37*
G36*
G01X40766Y6256D02*
G01X39873Y6256D01*
G01X39873Y5945D01*
G01X39874Y5921D01*
G01X39878Y5897D01*
G01X39883Y5875D01*
G01X39890Y5852D01*
G01X39900Y5830D01*
G01X39912Y5809D01*
G01X39925Y5790D01*
G01X39940Y5772D01*
G01X39957Y5755D01*
G01X39975Y5740D01*
G01X39994Y5726D01*
G01X40015Y5715D01*
G01X40037Y5705D01*
G01X40059Y5698D01*
G01X40082Y5692D01*
G01X40106Y5689D01*
G01X40129Y5688D01*
G01X40766Y5688D01*
G01X40766Y6256D01*
G37*
G36*
G01X33786Y6256D02*
G01X32893Y6256D01*
G01X32893Y5688D01*
G01X33530Y5688D01*
G01X33553Y5689D01*
G01X33577Y5692D01*
G01X33600Y5698D01*
G01X33622Y5705D01*
G01X33644Y5715D01*
G01X33665Y5726D01*
G01X33684Y5740D01*
G01X33702Y5755D01*
G01X33719Y5772D01*
G01X33734Y5790D01*
G01X33747Y5809D01*
G01X33759Y5830D01*
G01X33769Y5852D01*
G01X33776Y5875D01*
G01X33782Y5897D01*
G01X33785Y5921D01*
G01X33786Y5945D01*
G01X33786Y6256D01*
G37*
G36*
G01X40766Y7701D02*
G01X40129Y7701D01*
G01X40106Y7700D01*
G01X40082Y7697D01*
G01X40059Y7691D01*
G01X40037Y7684D01*
G01X40015Y7674D01*
G01X39994Y7663D01*
G01X39975Y7649D01*
G01X39957Y7634D01*
G01X39940Y7617D01*
G01X39925Y7599D01*
G01X39912Y7579D01*
G01X39900Y7559D01*
G01X39890Y7537D01*
G01X39883Y7515D01*
G01X39878Y7491D01*
G01X39874Y7468D01*
G01X39873Y7445D01*
G01X39873Y7133D01*
G01X40766Y7133D01*
G01X40766Y7701D01*
G37*
G36*
G01X42930Y7701D02*
G01X42293Y7701D01*
G01X42293Y7133D01*
G01X43186Y7133D01*
G01X43186Y7445D01*
G01X43185Y7468D01*
G01X43182Y7491D01*
G01X43176Y7515D01*
G01X43169Y7537D01*
G01X43159Y7559D01*
G01X43147Y7579D01*
G01X43134Y7599D01*
G01X43119Y7617D01*
G01X43102Y7634D01*
G01X43084Y7649D01*
G01X43065Y7663D01*
G01X43044Y7674D01*
G01X43022Y7684D01*
G01X43000Y7691D01*
G01X42977Y7697D01*
G01X42953Y7700D01*
G01X42930Y7701D01*
G37*
G36*
G01X33530Y7701D02*
G01X32893Y7701D01*
G01X32893Y7133D01*
G01X33786Y7133D01*
G01X33786Y7445D01*
G01X33785Y7468D01*
G01X33782Y7491D01*
G01X33776Y7515D01*
G01X33769Y7537D01*
G01X33759Y7559D01*
G01X33747Y7579D01*
G01X33734Y7599D01*
G01X33719Y7617D01*
G01X33702Y7634D01*
G01X33684Y7649D01*
G01X33665Y7663D01*
G01X33644Y7674D01*
G01X33622Y7684D01*
G01X33600Y7691D01*
G01X33577Y7697D01*
G01X33553Y7700D01*
G01X33530Y7701D01*
G37*
G36*
G01X47673Y10669D02*
G01X47625Y10670D01*
G01X47576Y10669D01*
G01X47527Y10666D01*
G01X47479Y10661D01*
G01X47431Y10654D01*
G01X47383Y10644D01*
G01X47336Y10633D01*
G01X47289Y10620D01*
G01X47243Y10605D01*
G01X47197Y10587D01*
G01X47153Y10568D01*
G01X47109Y10548D01*
G01X47066Y10525D01*
G01X47024Y10500D01*
G01X46983Y10473D01*
G01X46943Y10446D01*
G01X46905Y10416D01*
G01X46868Y10385D01*
G01X46832Y10352D01*
G01X46797Y10317D01*
G01X46764Y10281D01*
G01X46733Y10244D01*
G01X46703Y10206D01*
G01X46676Y10166D01*
G01X46649Y10125D01*
G01X46624Y10083D01*
G01X46601Y10040D01*
G01X46581Y9996D01*
G01X46562Y9952D01*
G01X46544Y9906D01*
G01X46529Y9860D01*
G01X46516Y9813D01*
G01X46505Y9766D01*
G01X46495Y9718D01*
G01X46488Y9670D01*
G01X46483Y9622D01*
G01X46480Y9573D01*
G01X46479Y9525D01*
G01X46480Y9476D01*
G01X46483Y9427D01*
G01X46488Y9379D01*
G01X46495Y9331D01*
G01X46505Y9283D01*
G01X46516Y9236D01*
G01X46529Y9189D01*
G01X46544Y9143D01*
G01X46562Y9097D01*
G01X46581Y9053D01*
G01X46601Y9009D01*
G01X46624Y8966D01*
G01X46649Y8924D01*
G01X46676Y8883D01*
G01X46703Y8843D01*
G01X46733Y8805D01*
G01X46764Y8768D01*
G01X46797Y8732D01*
G01X46832Y8697D01*
G01X46868Y8664D01*
G01X46905Y8633D01*
G01X46943Y8603D01*
G01X46983Y8576D01*
G01X47024Y8549D01*
G01X47066Y8524D01*
G01X47109Y8501D01*
G01X47153Y8481D01*
G01X47197Y8462D01*
G01X47243Y8444D01*
G01X47289Y8429D01*
G01X47336Y8416D01*
G01X47383Y8405D01*
G01X47431Y8395D01*
G01X47479Y8388D01*
G01X47527Y8383D01*
G01X47576Y8380D01*
G01X47625Y8379D01*
G01X47673Y8380D01*
G01X47722Y8383D01*
G01X47770Y8388D01*
G01X47818Y8395D01*
G01X47866Y8405D01*
G01X47913Y8416D01*
G01X47960Y8429D01*
G01X48006Y8444D01*
G01X48052Y8462D01*
G01X48096Y8481D01*
G01X48140Y8501D01*
G01X48183Y8524D01*
G01X48225Y8549D01*
G01X48266Y8576D01*
G01X48306Y8603D01*
G01X48344Y8633D01*
G01X48381Y8664D01*
G01X48417Y8697D01*
G01X48452Y8732D01*
G01X48485Y8768D01*
G01X48516Y8805D01*
G01X48546Y8843D01*
G01X48573Y8883D01*
G01X48600Y8924D01*
G01X48625Y8966D01*
G01X48648Y9009D01*
G01X48668Y9053D01*
G01X48687Y9097D01*
G01X48705Y9143D01*
G01X48720Y9189D01*
G01X48733Y9236D01*
G01X48744Y9283D01*
G01X48754Y9331D01*
G01X48761Y9379D01*
G01X48766Y9427D01*
G01X48769Y9476D01*
G01X48770Y9525D01*
G01X48769Y9573D01*
G01X48766Y9622D01*
G01X48761Y9670D01*
G01X48754Y9718D01*
G01X48744Y9766D01*
G01X48733Y9813D01*
G01X48720Y9860D01*
G01X48705Y9906D01*
G01X48687Y9952D01*
G01X48668Y9996D01*
G01X48648Y10040D01*
G01X48625Y10083D01*
G01X48600Y10125D01*
G01X48573Y10166D01*
G01X48546Y10206D01*
G01X48516Y10244D01*
G01X48485Y10281D01*
G01X48452Y10317D01*
G01X48417Y10352D01*
G01X48381Y10385D01*
G01X48344Y10416D01*
G01X48306Y10446D01*
G01X48266Y10473D01*
G01X48225Y10500D01*
G01X48183Y10525D01*
G01X48140Y10548D01*
G01X48096Y10568D01*
G01X48052Y10587D01*
G01X48006Y10605D01*
G01X47960Y10620D01*
G01X47913Y10633D01*
G01X47866Y10644D01*
G01X47818Y10654D01*
G01X47770Y10661D01*
G01X47722Y10666D01*
G01X47673Y10669D01*
G37*
G36*
G01X47673Y14479D02*
G01X47625Y14480D01*
G01X47576Y14479D01*
G01X47527Y14476D01*
G01X47479Y14471D01*
G01X47431Y14464D01*
G01X47383Y14454D01*
G01X47336Y14443D01*
G01X47289Y14430D01*
G01X47243Y14415D01*
G01X47197Y14397D01*
G01X47153Y14378D01*
G01X47109Y14358D01*
G01X47066Y14335D01*
G01X47024Y14310D01*
G01X46983Y14283D01*
G01X46943Y14256D01*
G01X46905Y14226D01*
G01X46868Y14195D01*
G01X46832Y14162D01*
G01X46797Y14127D01*
G01X46764Y14091D01*
G01X46733Y14054D01*
G01X46703Y14016D01*
G01X46676Y13976D01*
G01X46649Y13935D01*
G01X46624Y13893D01*
G01X46601Y13850D01*
G01X46581Y13806D01*
G01X46562Y13762D01*
G01X46544Y13716D01*
G01X46529Y13670D01*
G01X46516Y13623D01*
G01X46505Y13576D01*
G01X46495Y13528D01*
G01X46488Y13480D01*
G01X46483Y13432D01*
G01X46480Y13383D01*
G01X46479Y13335D01*
G01X46480Y13286D01*
G01X46483Y13237D01*
G01X46488Y13189D01*
G01X46495Y13141D01*
G01X46505Y13093D01*
G01X46516Y13046D01*
G01X46529Y12999D01*
G01X46544Y12953D01*
G01X46562Y12907D01*
G01X46581Y12863D01*
G01X46601Y12819D01*
G01X46624Y12776D01*
G01X46649Y12734D01*
G01X46676Y12693D01*
G01X46703Y12653D01*
G01X46733Y12615D01*
G01X46764Y12578D01*
G01X46797Y12542D01*
G01X46832Y12507D01*
G01X46868Y12474D01*
G01X46905Y12443D01*
G01X46943Y12413D01*
G01X46983Y12386D01*
G01X47024Y12359D01*
G01X47066Y12334D01*
G01X47109Y12311D01*
G01X47153Y12291D01*
G01X47197Y12272D01*
G01X47243Y12254D01*
G01X47289Y12239D01*
G01X47336Y12226D01*
G01X47383Y12215D01*
G01X47431Y12205D01*
G01X47479Y12198D01*
G01X47527Y12193D01*
G01X47576Y12190D01*
G01X47625Y12189D01*
G01X47673Y12190D01*
G01X47722Y12193D01*
G01X47770Y12198D01*
G01X47818Y12205D01*
G01X47866Y12215D01*
G01X47913Y12226D01*
G01X47960Y12239D01*
G01X48006Y12254D01*
G01X48052Y12272D01*
G01X48096Y12291D01*
G01X48140Y12311D01*
G01X48183Y12334D01*
G01X48225Y12359D01*
G01X48266Y12386D01*
G01X48306Y12413D01*
G01X48344Y12443D01*
G01X48381Y12474D01*
G01X48417Y12507D01*
G01X48452Y12542D01*
G01X48485Y12578D01*
G01X48516Y12615D01*
G01X48546Y12653D01*
G01X48573Y12693D01*
G01X48600Y12734D01*
G01X48625Y12776D01*
G01X48648Y12819D01*
G01X48668Y12863D01*
G01X48687Y12907D01*
G01X48705Y12953D01*
G01X48720Y12999D01*
G01X48733Y13046D01*
G01X48744Y13093D01*
G01X48754Y13141D01*
G01X48761Y13189D01*
G01X48766Y13237D01*
G01X48769Y13286D01*
G01X48770Y13335D01*
G01X48769Y13383D01*
G01X48766Y13432D01*
G01X48761Y13480D01*
G01X48754Y13528D01*
G01X48744Y13576D01*
G01X48733Y13623D01*
G01X48720Y13670D01*
G01X48705Y13716D01*
G01X48687Y13762D01*
G01X48668Y13806D01*
G01X48648Y13850D01*
G01X48625Y13893D01*
G01X48600Y13935D01*
G01X48573Y13976D01*
G01X48546Y14016D01*
G01X48516Y14054D01*
G01X48485Y14091D01*
G01X48452Y14127D01*
G01X48417Y14162D01*
G01X48381Y14195D01*
G01X48344Y14226D01*
G01X48306Y14256D01*
G01X48266Y14283D01*
G01X48225Y14310D01*
G01X48183Y14335D01*
G01X48140Y14358D01*
G01X48096Y14378D01*
G01X48052Y14397D01*
G01X48006Y14415D01*
G01X47960Y14430D01*
G01X47913Y14443D01*
G01X47866Y14454D01*
G01X47818Y14464D01*
G01X47770Y14471D01*
G01X47722Y14476D01*
G01X47673Y14479D01*
G37*
G36*
G01X43186Y13876D02*
G01X42293Y13876D01*
G01X42293Y13308D01*
G01X42930Y13308D01*
G01X42953Y13309D01*
G01X42977Y13312D01*
G01X43000Y13318D01*
G01X43022Y13325D01*
G01X43044Y13335D01*
G01X43065Y13346D01*
G01X43084Y13360D01*
G01X43102Y13375D01*
G01X43119Y13392D01*
G01X43134Y13410D01*
G01X43147Y13429D01*
G01X43159Y13450D01*
G01X43169Y13472D01*
G01X43176Y13495D01*
G01X43182Y13517D01*
G01X43185Y13541D01*
G01X43186Y13565D01*
G01X43186Y13876D01*
G37*
G36*
G01X40766Y13876D02*
G01X39873Y13876D01*
G01X39873Y13565D01*
G01X39874Y13541D01*
G01X39878Y13517D01*
G01X39883Y13495D01*
G01X39890Y13472D01*
G01X39900Y13450D01*
G01X39912Y13429D01*
G01X39925Y13410D01*
G01X39940Y13392D01*
G01X39957Y13375D01*
G01X39975Y13360D01*
G01X39994Y13346D01*
G01X40015Y13335D01*
G01X40037Y13325D01*
G01X40059Y13318D01*
G01X40082Y13312D01*
G01X40106Y13309D01*
G01X40129Y13308D01*
G01X40766Y13308D01*
G01X40766Y13876D01*
G37*
G36*
G01X33786Y13876D02*
G01X32893Y13876D01*
G01X32893Y13308D01*
G01X33530Y13308D01*
G01X33553Y13309D01*
G01X33577Y13312D01*
G01X33600Y13318D01*
G01X33622Y13325D01*
G01X33644Y13335D01*
G01X33665Y13346D01*
G01X33684Y13360D01*
G01X33702Y13375D01*
G01X33719Y13392D01*
G01X33734Y13410D01*
G01X33747Y13429D01*
G01X33759Y13450D01*
G01X33769Y13472D01*
G01X33776Y13495D01*
G01X33782Y13517D01*
G01X33785Y13541D01*
G01X33786Y13565D01*
G01X33786Y13876D01*
G37*
G36*
G01X31366Y13876D02*
G01X30473Y13876D01*
G01X30473Y13565D01*
G01X30474Y13541D01*
G01X30477Y13517D01*
G01X30483Y13495D01*
G01X30490Y13472D01*
G01X30500Y13450D01*
G01X30512Y13429D01*
G01X30525Y13410D01*
G01X30540Y13392D01*
G01X30557Y13375D01*
G01X30575Y13360D01*
G01X30594Y13346D01*
G01X30615Y13335D01*
G01X30637Y13325D01*
G01X30659Y13318D01*
G01X30682Y13312D01*
G01X30706Y13309D01*
G01X30729Y13308D01*
G01X31366Y13308D01*
G01X31366Y13876D01*
G37*
G36*
G01X40766Y15321D02*
G01X40129Y15321D01*
G01X40106Y15320D01*
G01X40082Y15317D01*
G01X40059Y15311D01*
G01X40037Y15304D01*
G01X40015Y15294D01*
G01X39994Y15283D01*
G01X39975Y15269D01*
G01X39957Y15254D01*
G01X39940Y15237D01*
G01X39925Y15219D01*
G01X39912Y15199D01*
G01X39900Y15179D01*
G01X39890Y15157D01*
G01X39883Y15135D01*
G01X39878Y15111D01*
G01X39874Y15088D01*
G01X39873Y15065D01*
G01X39873Y14753D01*
G01X40766Y14753D01*
G01X40766Y15321D01*
G37*
G36*
G01X42930Y15321D02*
G01X42293Y15321D01*
G01X42293Y14753D01*
G01X43186Y14753D01*
G01X43186Y15065D01*
G01X43185Y15088D01*
G01X43182Y15111D01*
G01X43176Y15135D01*
G01X43169Y15157D01*
G01X43159Y15179D01*
G01X43147Y15199D01*
G01X43134Y15219D01*
G01X43119Y15237D01*
G01X43102Y15254D01*
G01X43084Y15269D01*
G01X43065Y15283D01*
G01X43044Y15294D01*
G01X43022Y15304D01*
G01X43000Y15311D01*
G01X42977Y15317D01*
G01X42953Y15320D01*
G01X42930Y15321D01*
G37*
G36*
G01X47673Y18289D02*
G01X47625Y18290D01*
G01X47576Y18289D01*
G01X47527Y18286D01*
G01X47479Y18281D01*
G01X47431Y18274D01*
G01X47383Y18264D01*
G01X47336Y18253D01*
G01X47289Y18240D01*
G01X47243Y18225D01*
G01X47197Y18207D01*
G01X47153Y18188D01*
G01X47109Y18168D01*
G01X47066Y18145D01*
G01X47024Y18120D01*
G01X46983Y18093D01*
G01X46943Y18066D01*
G01X46905Y18036D01*
G01X46868Y18005D01*
G01X46832Y17972D01*
G01X46797Y17937D01*
G01X46764Y17901D01*
G01X46733Y17864D01*
G01X46703Y17826D01*
G01X46676Y17786D01*
G01X46649Y17745D01*
G01X46624Y17703D01*
G01X46601Y17660D01*
G01X46581Y17616D01*
G01X46562Y17572D01*
G01X46544Y17526D01*
G01X46529Y17480D01*
G01X46516Y17433D01*
G01X46505Y17386D01*
G01X46495Y17338D01*
G01X46488Y17290D01*
G01X46483Y17242D01*
G01X46480Y17193D01*
G01X46479Y17145D01*
G01X46480Y17096D01*
G01X46483Y17047D01*
G01X46488Y16999D01*
G01X46495Y16951D01*
G01X46505Y16903D01*
G01X46516Y16856D01*
G01X46529Y16809D01*
G01X46544Y16763D01*
G01X46562Y16717D01*
G01X46581Y16673D01*
G01X46601Y16629D01*
G01X46624Y16586D01*
G01X46649Y16544D01*
G01X46676Y16503D01*
G01X46703Y16463D01*
G01X46733Y16425D01*
G01X46764Y16388D01*
G01X46797Y16352D01*
G01X46832Y16317D01*
G01X46868Y16284D01*
G01X46905Y16253D01*
G01X46943Y16223D01*
G01X46983Y16196D01*
G01X47024Y16169D01*
G01X47066Y16144D01*
G01X47109Y16121D01*
G01X47153Y16101D01*
G01X47197Y16082D01*
G01X47243Y16064D01*
G01X47289Y16049D01*
G01X47336Y16036D01*
G01X47383Y16025D01*
G01X47431Y16015D01*
G01X47479Y16008D01*
G01X47527Y16003D01*
G01X47576Y16000D01*
G01X47625Y15999D01*
G01X47673Y16000D01*
G01X47722Y16003D01*
G01X47770Y16008D01*
G01X47818Y16015D01*
G01X47866Y16025D01*
G01X47913Y16036D01*
G01X47960Y16049D01*
G01X48006Y16064D01*
G01X48052Y16082D01*
G01X48096Y16101D01*
G01X48140Y16121D01*
G01X48183Y16144D01*
G01X48225Y16169D01*
G01X48266Y16196D01*
G01X48306Y16223D01*
G01X48344Y16253D01*
G01X48381Y16284D01*
G01X48417Y16317D01*
G01X48452Y16352D01*
G01X48485Y16388D01*
G01X48516Y16425D01*
G01X48546Y16463D01*
G01X48573Y16503D01*
G01X48600Y16544D01*
G01X48625Y16586D01*
G01X48648Y16629D01*
G01X48668Y16673D01*
G01X48687Y16717D01*
G01X48705Y16763D01*
G01X48720Y16809D01*
G01X48733Y16856D01*
G01X48744Y16903D01*
G01X48754Y16951D01*
G01X48761Y16999D01*
G01X48766Y17047D01*
G01X48769Y17096D01*
G01X48770Y17145D01*
G01X48769Y17193D01*
G01X48766Y17242D01*
G01X48761Y17290D01*
G01X48754Y17338D01*
G01X48744Y17386D01*
G01X48733Y17433D01*
G01X48720Y17480D01*
G01X48705Y17526D01*
G01X48687Y17572D01*
G01X48668Y17616D01*
G01X48648Y17660D01*
G01X48625Y17703D01*
G01X48600Y17745D01*
G01X48573Y17786D01*
G01X48546Y17826D01*
G01X48516Y17864D01*
G01X48485Y17901D01*
G01X48452Y17937D01*
G01X48417Y17972D01*
G01X48381Y18005D01*
G01X48344Y18036D01*
G01X48306Y18066D01*
G01X48266Y18093D01*
G01X48225Y18120D01*
G01X48183Y18145D01*
G01X48140Y18168D01*
G01X48096Y18188D01*
G01X48052Y18207D01*
G01X48006Y18225D01*
G01X47960Y18240D01*
G01X47913Y18253D01*
G01X47866Y18264D01*
G01X47818Y18274D01*
G01X47770Y18281D01*
G01X47722Y18286D01*
G01X47673Y18289D01*
G37*
G36*
G01X40329Y19906D02*
G01X39659Y19906D01*
G01X39659Y19494D01*
G01X39660Y19470D01*
G01X39664Y19447D01*
G01X39669Y19424D01*
G01X39676Y19402D01*
G01X39686Y19380D01*
G01X39698Y19359D01*
G01X39711Y19340D01*
G01X39726Y19321D01*
G01X39743Y19305D01*
G01X39761Y19289D01*
G01X39780Y19276D01*
G01X39801Y19264D01*
G01X39823Y19255D01*
G01X39845Y19247D01*
G01X39868Y19242D01*
G01X39892Y19238D01*
G01X39916Y19237D01*
G01X40329Y19237D01*
G01X40329Y19906D01*
G37*
G36*
G01X42077Y19906D02*
G01X41408Y19906D01*
G01X41408Y19237D01*
G01X41821Y19237D01*
G01X41844Y19238D01*
G01X41868Y19242D01*
G01X41891Y19247D01*
G01X41913Y19255D01*
G01X41935Y19264D01*
G01X41956Y19276D01*
G01X41975Y19289D01*
G01X41993Y19305D01*
G01X42010Y19321D01*
G01X42025Y19340D01*
G01X42039Y19359D01*
G01X42050Y19380D01*
G01X42060Y19402D01*
G01X42067Y19424D01*
G01X42073Y19447D01*
G01X42076Y19470D01*
G01X42077Y19494D01*
G01X42077Y19906D01*
G37*

%LPD*%
G36*
G01X8172Y22603D02*
G01X358Y22603D01*
G01X343Y22602D01*
G01X329Y22599D01*
G01X315Y22594D01*
G01X303Y22587D01*
G01X291Y22578D01*
G01X281Y22568D01*
G01X272Y22556D01*
G01X265Y22544D01*
G01X260Y22530D01*
G01X257Y22516D01*
G01X256Y22501D01*
G01X256Y358D01*
G01X257Y343D01*
G01X260Y329D01*
G01X265Y315D01*
G01X272Y303D01*
G01X281Y291D01*
G01X291Y281D01*
G01X303Y272D01*
G01X315Y265D01*
G01X329Y260D01*
G01X343Y257D01*
G01X358Y256D01*
G01X13810Y256D01*
G01X13825Y257D01*
G01X13838Y260D01*
G01X13852Y265D01*
G01X13865Y272D01*
G01X13877Y281D01*
G01X13887Y291D01*
G01X13895Y303D01*
G01X13902Y315D01*
G01X13908Y329D01*
G01X13911Y343D01*
G01X13912Y358D01*
G01X13911Y373D01*
G01X13907Y389D01*
G01X13900Y404D01*
G01X13892Y418D01*
G01X13882Y429D01*
G01X9329Y4982D01*
G01X9317Y4993D01*
G01X9304Y5001D01*
G01X9289Y5007D01*
G01X9273Y5011D01*
G01X9257Y5012D01*
G01X9241Y5010D01*
G01X9224Y5006D01*
G01X9178Y4992D01*
G01X9130Y4979D01*
G01X9083Y4969D01*
G01X9035Y4961D01*
G01X8987Y4955D01*
G01X8938Y4951D01*
G01X8890Y4950D01*
G01X8844Y4951D01*
G01X8798Y4954D01*
G01X8753Y4959D01*
G01X8708Y4966D01*
G01X8663Y4975D01*
G01X8619Y4987D01*
G01X8575Y5000D01*
G01X8531Y5015D01*
G01X8489Y5032D01*
G01X8448Y5051D01*
G01X8407Y5071D01*
G01X8367Y5094D01*
G01X8328Y5119D01*
G01X8291Y5145D01*
G01X8255Y5172D01*
G01X8219Y5201D01*
G01X8185Y5232D01*
G01X8153Y5264D01*
G01X8122Y5298D01*
G01X8093Y5334D01*
G01X8066Y5370D01*
G01X8040Y5407D01*
G01X8015Y5446D01*
G01X7992Y5486D01*
G01X7972Y5527D01*
G01X7953Y5568D01*
G01X7936Y5610D01*
G01X7921Y5654D01*
G01X7908Y5698D01*
G01X7896Y5742D01*
G01X7887Y5787D01*
G01X7880Y5832D01*
G01X7875Y5877D01*
G01X7872Y5923D01*
G01X7871Y5969D01*
G01X7872Y6015D01*
G01X7875Y6061D01*
G01X7881Y6107D01*
G01X7888Y6153D01*
G01X7897Y6199D01*
G01X7909Y6243D01*
G01X7922Y6288D01*
G01X7938Y6332D01*
G01X7955Y6374D01*
G01X7975Y6417D01*
G01X7996Y6458D01*
G01X8003Y6473D01*
G01X8007Y6490D01*
G01X8009Y6506D01*
G01X8008Y6521D01*
G01X8005Y6535D01*
G01X7999Y6549D01*
G01X7992Y6561D01*
G01X7984Y6573D01*
G01X7974Y6583D01*
G01X7962Y6592D01*
G01X7949Y6599D01*
G01X7935Y6604D01*
G01X7921Y6607D01*
G01X7907Y6608D01*
G01X7578Y6608D01*
G01X7562Y6607D01*
G01X7546Y6603D01*
G01X7532Y6597D01*
G01X7518Y6589D01*
G01X7506Y6579D01*
G01X7336Y6408D01*
G01X7325Y6396D01*
G01X7317Y6383D01*
G01X7311Y6368D01*
G01X7307Y6352D01*
G01X7306Y6336D01*
G01X7308Y6320D01*
G01X7312Y6303D01*
G01X7326Y6257D01*
G01X7339Y6209D01*
G01X7349Y6162D01*
G01X7357Y6114D01*
G01X7363Y6066D01*
G01X7367Y6017D01*
G01X7368Y5969D01*
G01X7367Y5923D01*
G01X7364Y5877D01*
G01X7359Y5832D01*
G01X7352Y5787D01*
G01X7343Y5742D01*
G01X7331Y5698D01*
G01X7318Y5654D01*
G01X7303Y5610D01*
G01X7286Y5568D01*
G01X7267Y5527D01*
G01X7247Y5486D01*
G01X7224Y5446D01*
G01X7199Y5407D01*
G01X7173Y5370D01*
G01X7146Y5334D01*
G01X7117Y5298D01*
G01X7086Y5264D01*
G01X7054Y5232D01*
G01X7020Y5201D01*
G01X6985Y5172D01*
G01X6948Y5145D01*
G01X6911Y5119D01*
G01X6872Y5094D01*
G01X6832Y5071D01*
G01X6791Y5051D01*
G01X6750Y5032D01*
G01X6708Y5015D01*
G01X6664Y5000D01*
G01X6620Y4987D01*
G01X6576Y4975D01*
G01X6531Y4966D01*
G01X6486Y4959D01*
G01X6441Y4954D01*
G01X6395Y4951D01*
G01X6350Y4950D01*
G01X6304Y4951D01*
G01X6258Y4954D01*
G01X6213Y4959D01*
G01X6168Y4966D01*
G01X6123Y4975D01*
G01X6079Y4987D01*
G01X6035Y5000D01*
G01X5991Y5015D01*
G01X5949Y5032D01*
G01X5908Y5051D01*
G01X5867Y5071D01*
G01X5827Y5094D01*
G01X5788Y5119D01*
G01X5751Y5145D01*
G01X5715Y5172D01*
G01X5679Y5201D01*
G01X5645Y5232D01*
G01X5613Y5264D01*
G01X5582Y5298D01*
G01X5553Y5334D01*
G01X5526Y5370D01*
G01X5500Y5407D01*
G01X5475Y5446D01*
G01X5452Y5486D01*
G01X5432Y5527D01*
G01X5413Y5568D01*
G01X5396Y5610D01*
G01X5381Y5654D01*
G01X5368Y5698D01*
G01X5356Y5742D01*
G01X5347Y5787D01*
G01X5340Y5832D01*
G01X5335Y5877D01*
G01X5332Y5923D01*
G01X5331Y5969D01*
G01X5332Y6014D01*
G01X5335Y6060D01*
G01X5340Y6105D01*
G01X5347Y6150D01*
G01X5356Y6195D01*
G01X5368Y6239D01*
G01X5381Y6283D01*
G01X5396Y6327D01*
G01X5413Y6369D01*
G01X5432Y6410D01*
G01X5452Y6451D01*
G01X5475Y6491D01*
G01X5500Y6530D01*
G01X5526Y6567D01*
G01X5553Y6604D01*
G01X5582Y6639D01*
G01X5613Y6673D01*
G01X5645Y6705D01*
G01X5679Y6736D01*
G01X5715Y6765D01*
G01X5751Y6792D01*
G01X5788Y6818D01*
G01X5827Y6843D01*
G01X5867Y6866D01*
G01X5908Y6886D01*
G01X5949Y6905D01*
G01X5991Y6922D01*
G01X6035Y6937D01*
G01X6079Y6950D01*
G01X6123Y6962D01*
G01X6168Y6971D01*
G01X6213Y6978D01*
G01X6258Y6983D01*
G01X6304Y6986D01*
G01X6350Y6987D01*
G01X6398Y6986D01*
G01X6447Y6982D01*
G01X6495Y6976D01*
G01X6543Y6968D01*
G01X6590Y6958D01*
G01X6638Y6945D01*
G01X6684Y6931D01*
G01X6701Y6927D01*
G01X6717Y6925D01*
G01X6733Y6926D01*
G01X6749Y6930D01*
G01X6764Y6936D01*
G01X6777Y6944D01*
G01X6789Y6955D01*
G01X7102Y7268D01*
G01X7125Y7289D01*
G01X7149Y7308D01*
G01X7173Y7324D01*
G01X7200Y7339D01*
G01X7228Y7352D01*
G01X7256Y7362D01*
G01X7285Y7371D01*
G01X7315Y7377D01*
G01X7345Y7380D01*
G01X7376Y7381D01*
G01X8439Y7381D01*
G01X8454Y7382D01*
G01X8468Y7385D01*
G01X8482Y7390D01*
G01X8506Y7406D01*
G01X8516Y7416D01*
G01X8525Y7428D01*
G01X8532Y7441D01*
G01X8537Y7454D01*
G01X8540Y7468D01*
G01X8541Y7483D01*
G01X8540Y7498D01*
G01X8537Y7512D01*
G01X8531Y7526D01*
G01X8524Y7538D01*
G01X8516Y7550D01*
G01X8505Y7560D01*
G01X8493Y7569D01*
G01X8480Y7576D01*
G01X8437Y7596D01*
G01X8396Y7617D01*
G01X8355Y7641D01*
G01X8315Y7667D01*
G01X8277Y7695D01*
G01X8240Y7724D01*
G01X8205Y7755D01*
G01X8170Y7787D01*
G01X8138Y7821D01*
G01X8107Y7857D01*
G01X8077Y7894D01*
G01X8050Y7932D01*
G01X8024Y7972D01*
G01X8000Y8012D01*
G01X7978Y8054D01*
G01X7958Y8097D01*
G01X7940Y8140D01*
G01X7924Y8184D01*
G01X7910Y8229D01*
G01X7898Y8275D01*
G01X7888Y8321D01*
G01X7881Y8367D01*
G01X7876Y8415D01*
G01X7872Y8461D01*
G01X7871Y8509D01*
G01X7872Y8554D01*
G01X7875Y8600D01*
G01X7880Y8645D01*
G01X7887Y8690D01*
G01X7896Y8735D01*
G01X7908Y8779D01*
G01X7921Y8823D01*
G01X7936Y8867D01*
G01X7953Y8909D01*
G01X7972Y8950D01*
G01X7992Y8991D01*
G01X8015Y9031D01*
G01X8040Y9070D01*
G01X8066Y9107D01*
G01X8093Y9144D01*
G01X8122Y9179D01*
G01X8153Y9213D01*
G01X8185Y9245D01*
G01X8219Y9276D01*
G01X8255Y9305D01*
G01X8291Y9332D01*
G01X8328Y9358D01*
G01X8367Y9383D01*
G01X8407Y9406D01*
G01X8448Y9426D01*
G01X8489Y9445D01*
G01X8531Y9462D01*
G01X8575Y9477D01*
G01X8619Y9490D01*
G01X8663Y9502D01*
G01X8708Y9511D01*
G01X8753Y9518D01*
G01X8798Y9523D01*
G01X8844Y9526D01*
G01X8890Y9527D01*
G01X8936Y9526D01*
G01X8982Y9523D01*
G01X9029Y9517D01*
G01X9075Y9510D01*
G01X9121Y9501D01*
G01X9166Y9489D01*
G01X9211Y9475D01*
G01X9254Y9459D01*
G01X9297Y9442D01*
G01X9340Y9422D01*
G01X9381Y9401D01*
G01X9421Y9377D01*
G01X9460Y9352D01*
G01X9499Y9325D01*
G01X9535Y9296D01*
G01X9550Y9286D01*
G01X9566Y9279D01*
G01X9582Y9275D01*
G01X9600Y9273D01*
G01X13381Y9273D01*
G01X13396Y9274D01*
G01X13410Y9277D01*
G01X13423Y9282D01*
G01X13436Y9289D01*
G01X13448Y9298D01*
G01X13458Y9308D01*
G01X13467Y9320D01*
G01X13474Y9332D01*
G01X13479Y9346D01*
G01X13482Y9360D01*
G01X13483Y9375D01*
G01X13483Y9557D01*
G01X13482Y9571D01*
G01X13479Y9585D01*
G01X13474Y9599D01*
G01X13467Y9611D01*
G01X13458Y9623D01*
G01X13448Y9633D01*
G01X13436Y9642D01*
G01X13423Y9649D01*
G01X13410Y9654D01*
G01X13396Y9657D01*
G01X13381Y9658D01*
G01X12618Y9658D01*
G01X12585Y9659D01*
G01X12552Y9662D01*
G01X12520Y9668D01*
G01X12487Y9675D01*
G01X12456Y9685D01*
G01X12425Y9696D01*
G01X12395Y9709D01*
G01X12365Y9725D01*
G01X12337Y9742D01*
G01X12310Y9761D01*
G01X12284Y9782D01*
G01X12270Y9793D01*
G01X12253Y9800D01*
G01X12236Y9805D01*
G01X12218Y9807D01*
G01X12179Y9808D01*
G01X12140Y9812D01*
G01X12101Y9817D01*
G01X12062Y9824D01*
G01X12024Y9834D01*
G01X11986Y9846D01*
G01X11949Y9859D01*
G01X11913Y9874D01*
G01X11878Y9891D01*
G01X11843Y9910D01*
G01X11809Y9931D01*
G01X11777Y9953D01*
G01X11746Y9978D01*
G01X11716Y10003D01*
G01X11688Y10030D01*
G01X11661Y10059D01*
G01X11635Y10089D01*
G01X11611Y10120D01*
G01X11589Y10153D01*
G01X11568Y10187D01*
G01X11550Y10221D01*
G01X11533Y10257D01*
G01X11518Y10294D01*
G01X11505Y10331D01*
G01X11494Y10368D01*
G01X11484Y10407D01*
G01X11477Y10446D01*
G01X11472Y10485D01*
G01X11469Y10524D01*
G01X11468Y10563D01*
G01X11469Y10603D01*
G01X11472Y10643D01*
G01X11477Y10682D01*
G01X11484Y10721D01*
G01X11494Y10759D01*
G01X11505Y10797D01*
G01X11518Y10835D01*
G01X11550Y10907D01*
G01X11569Y10942D01*
G01X11590Y10975D01*
G01X11612Y11008D01*
G01X11662Y11070D01*
G01X11718Y11126D01*
G01X11780Y11176D01*
G01X11813Y11198D01*
G01X11846Y11219D01*
G01X11881Y11237D01*
G01X11917Y11254D01*
G01X11953Y11269D01*
G01X11991Y11283D01*
G01X12029Y11294D01*
G01X12067Y11304D01*
G01X12106Y11311D01*
G01X12145Y11316D01*
G01X12185Y11319D01*
G01X12225Y11320D01*
G01X12264Y11319D01*
G01X12304Y11316D01*
G01X12343Y11311D01*
G01X12382Y11304D01*
G01X12421Y11294D01*
G01X12459Y11283D01*
G01X12496Y11269D01*
G01X12533Y11254D01*
G01X12569Y11237D01*
G01X12603Y11218D01*
G01X12638Y11197D01*
G01X12702Y11151D01*
G01X12732Y11125D01*
G01X12760Y11097D01*
G01X12788Y11068D01*
G01X12813Y11038D01*
G01X12838Y11007D01*
G01X12860Y10974D01*
G01X12881Y10940D01*
G01X12900Y10905D01*
G01X12932Y10833D01*
G01X12945Y10795D01*
G01X12956Y10757D01*
G01X12961Y10743D01*
G01X12968Y10729D01*
G01X12976Y10718D01*
G01X12987Y10707D01*
G01X12998Y10698D01*
G01X13011Y10691D01*
G01X13025Y10685D01*
G01X13039Y10682D01*
G01X13054Y10681D01*
G01X13951Y10681D01*
G01X13965Y10682D01*
G01X13980Y10685D01*
G01X13993Y10690D01*
G01X14006Y10697D01*
G01X14018Y10706D01*
G01X14028Y10716D01*
G01X14037Y10728D01*
G01X14043Y10741D01*
G01X14048Y10754D01*
G01X14052Y10769D01*
G01X14053Y10783D01*
G01X14051Y10798D01*
G01X14048Y10813D01*
G01X14043Y10827D01*
G01X14035Y10840D01*
G01X14026Y10852D01*
G01X13955Y10929D01*
G01X13932Y10956D01*
G01X13911Y10986D01*
G01X13902Y10997D01*
G01X13892Y11008D01*
G01X13881Y11016D01*
G01X13868Y11024D01*
G01X13854Y11029D01*
G01X13840Y11032D01*
G01X13825Y11033D01*
G01X13739Y11033D01*
G01X13716Y11034D01*
G01X13692Y11037D01*
G01X13669Y11043D01*
G01X13647Y11051D01*
G01X13625Y11060D01*
G01X13604Y11071D01*
G01X13585Y11085D01*
G01X13567Y11100D01*
G01X13550Y11117D01*
G01X13535Y11135D01*
G01X13521Y11155D01*
G01X13510Y11175D01*
G01X13500Y11197D01*
G01X13493Y11219D01*
G01X13487Y11243D01*
G01X13484Y11266D01*
G01X13483Y11289D01*
G01X13483Y12849D01*
G01X13482Y12864D01*
G01X13479Y12878D01*
G01X13474Y12892D01*
G01X13467Y12904D01*
G01X13458Y12916D01*
G01X13448Y12926D01*
G01X13437Y12935D01*
G01X13424Y12942D01*
G01X13410Y12947D01*
G01X13396Y12950D01*
G01X13382Y12951D01*
G01X11150Y12951D01*
G01X11134Y12950D01*
G01X11118Y12946D01*
G01X11103Y12940D01*
G01X11090Y12932D01*
G01X11078Y12921D01*
G01X11003Y12846D01*
G01X10979Y12823D01*
G01X10953Y12803D01*
G01X10926Y12783D01*
G01X10897Y12766D01*
G01X10868Y12750D01*
G01X10838Y12736D01*
G01X10806Y12724D01*
G01X10774Y12714D01*
G01X10742Y12707D01*
G01X10709Y12702D01*
G01X10676Y12698D01*
G01X10642Y12697D01*
G01X8762Y12697D01*
G01X8746Y12696D01*
G01X8730Y12692D01*
G01X8716Y12686D01*
G01X8703Y12678D01*
G01X8690Y12667D01*
G01X8264Y12240D01*
G01X8253Y12229D01*
G01X8245Y12215D01*
G01X8239Y12200D01*
G01X8235Y12184D01*
G01X8234Y12169D01*
G01X8235Y12154D01*
G01X8238Y12140D01*
G01X8243Y12126D01*
G01X8250Y12114D01*
G01X8259Y12102D01*
G01X8269Y12092D01*
G01X8280Y12083D01*
G01X8293Y12076D01*
G01X8307Y12071D01*
G01X8321Y12068D01*
G01X8335Y12067D01*
G01X8445Y12067D01*
G01X8445Y11493D01*
G01X7871Y11493D01*
G01X7871Y11603D01*
G01X7870Y11617D01*
G01X7867Y11631D01*
G01X7862Y11645D01*
G01X7855Y11658D01*
G01X7846Y11669D01*
G01X7836Y11679D01*
G01X7824Y11688D01*
G01X7812Y11695D01*
G01X7798Y11700D01*
G01X7784Y11703D01*
G01X7769Y11704D01*
G01X7754Y11703D01*
G01X7738Y11699D01*
G01X7723Y11693D01*
G01X7709Y11685D01*
G01X7698Y11674D01*
G01X7374Y11351D01*
G01X7363Y11339D01*
G01X7355Y11325D01*
G01X7349Y11310D01*
G01X7345Y11295D01*
G01X7344Y11279D01*
G01X7346Y11258D01*
G01X7356Y11206D01*
G01X7362Y11154D01*
G01X7367Y11101D01*
G01X7368Y11049D01*
G01X7367Y11003D01*
G01X7364Y10957D01*
G01X7359Y10912D01*
G01X7352Y10867D01*
G01X7343Y10822D01*
G01X7331Y10778D01*
G01X7318Y10734D01*
G01X7303Y10690D01*
G01X7286Y10648D01*
G01X7267Y10607D01*
G01X7247Y10566D01*
G01X7224Y10526D01*
G01X7199Y10487D01*
G01X7173Y10450D01*
G01X7146Y10414D01*
G01X7117Y10378D01*
G01X7086Y10344D01*
G01X7054Y10312D01*
G01X7020Y10281D01*
G01X6985Y10252D01*
G01X6948Y10225D01*
G01X6911Y10199D01*
G01X6872Y10174D01*
G01X6832Y10151D01*
G01X6791Y10131D01*
G01X6750Y10112D01*
G01X6708Y10095D01*
G01X6664Y10080D01*
G01X6620Y10067D01*
G01X6576Y10055D01*
G01X6531Y10046D01*
G01X6486Y10039D01*
G01X6441Y10034D01*
G01X6395Y10031D01*
G01X6350Y10030D01*
G01X6303Y10031D01*
G01X6257Y10034D01*
G01X6211Y10040D01*
G01X6165Y10047D01*
G01X6119Y10056D01*
G01X6074Y10068D01*
G01X6030Y10081D01*
G01X5986Y10097D01*
G01X5943Y10114D01*
G01X5901Y10134D01*
G01X5860Y10155D01*
G01X5820Y10179D01*
G01X5781Y10204D01*
G01X5743Y10231D01*
G01X5706Y10259D01*
G01X5671Y10289D01*
G01X5637Y10321D01*
G01X5604Y10354D01*
G01X5574Y10389D01*
G01X5544Y10425D01*
G01X5517Y10462D01*
G01X5491Y10500D01*
G01X5467Y10541D01*
G01X5445Y10581D01*
G01X5424Y10623D01*
G01X5406Y10665D01*
G01X5399Y10679D01*
G01X5390Y10691D01*
G01X5380Y10702D01*
G01X5369Y10711D01*
G01X5355Y10719D01*
G01X5341Y10724D01*
G01X5326Y10727D01*
G01X5312Y10728D01*
G01X5312Y10729D01*
G01X5297Y10727D01*
G01X5283Y10724D01*
G01X5269Y10719D01*
G01X5257Y10713D01*
G01X5245Y10704D01*
G01X5235Y10693D01*
G01X5226Y10682D01*
G01X5219Y10670D01*
G01X5214Y10656D01*
G01X5211Y10642D01*
G01X5210Y10627D01*
G01X5210Y10414D01*
G01X5211Y10398D01*
G01X5215Y10382D01*
G01X5221Y10367D01*
G01X5229Y10354D01*
G01X5240Y10342D01*
G01X6048Y9533D01*
G01X6060Y9523D01*
G01X6074Y9514D01*
G01X6089Y9508D01*
G01X6104Y9505D01*
G01X6120Y9503D01*
G01X6141Y9506D01*
G01X6193Y9515D01*
G01X6245Y9521D01*
G01X6297Y9526D01*
G01X6350Y9527D01*
G01X6395Y9526D01*
G01X6441Y9523D01*
G01X6486Y9518D01*
G01X6531Y9511D01*
G01X6576Y9502D01*
G01X6620Y9490D01*
G01X6664Y9477D01*
G01X6708Y9462D01*
G01X6750Y9445D01*
G01X6791Y9426D01*
G01X6832Y9406D01*
G01X6872Y9383D01*
G01X6911Y9358D01*
G01X6948Y9332D01*
G01X6985Y9305D01*
G01X7020Y9276D01*
G01X7054Y9245D01*
G01X7086Y9213D01*
G01X7117Y9179D01*
G01X7146Y9144D01*
G01X7173Y9107D01*
G01X7199Y9070D01*
G01X7224Y9031D01*
G01X7247Y8991D01*
G01X7267Y8950D01*
G01X7286Y8909D01*
G01X7303Y8867D01*
G01X7318Y8823D01*
G01X7331Y8779D01*
G01X7343Y8735D01*
G01X7352Y8690D01*
G01X7359Y8645D01*
G01X7364Y8600D01*
G01X7367Y8554D01*
G01X7368Y8509D01*
G01X7367Y8463D01*
G01X7364Y8417D01*
G01X7359Y8372D01*
G01X7352Y8327D01*
G01X7343Y8282D01*
G01X7331Y8238D01*
G01X7318Y8194D01*
G01X7303Y8150D01*
G01X7286Y8108D01*
G01X7267Y8067D01*
G01X7247Y8026D01*
G01X7224Y7986D01*
G01X7199Y7947D01*
G01X7173Y7910D01*
G01X7146Y7874D01*
G01X7117Y7838D01*
G01X7086Y7804D01*
G01X7054Y7772D01*
G01X7020Y7741D01*
G01X6985Y7712D01*
G01X6948Y7685D01*
G01X6911Y7659D01*
G01X6872Y7634D01*
G01X6832Y7611D01*
G01X6791Y7591D01*
G01X6750Y7572D01*
G01X6708Y7555D01*
G01X6664Y7540D01*
G01X6620Y7527D01*
G01X6576Y7515D01*
G01X6531Y7506D01*
G01X6486Y7499D01*
G01X6441Y7494D01*
G01X6395Y7491D01*
G01X6350Y7490D01*
G01X6297Y7491D01*
G01X6244Y7496D01*
G01X6192Y7502D01*
G01X6140Y7512D01*
G01X6119Y7514D01*
G01X6103Y7513D01*
G01X6088Y7509D01*
G01X6073Y7503D01*
G01X6059Y7495D01*
G01X6047Y7484D01*
G01X4731Y6168D01*
G01X4720Y6155D01*
G01X4712Y6142D01*
G01X4706Y6128D01*
G01X4702Y6112D01*
G01X4701Y6096D01*
G01X4701Y4190D01*
G01X4702Y4174D01*
G01X4706Y4158D01*
G01X4712Y4144D01*
G01X4720Y4131D01*
G01X4731Y4118D01*
G01X4880Y3969D01*
G01X4893Y3958D01*
G01X4906Y3950D01*
G01X4920Y3944D01*
G01X4936Y3940D01*
G01X4952Y3939D01*
G01X5411Y3939D01*
G01X5426Y3940D01*
G01X5440Y3943D01*
G01X5453Y3948D01*
G01X5466Y3955D01*
G01X5478Y3963D01*
G01X5488Y3974D01*
G01X5497Y3985D01*
G01X5522Y4023D01*
G01X5550Y4060D01*
G01X5579Y4095D01*
G01X5610Y4129D01*
G01X5643Y4162D01*
G01X5676Y4193D01*
G01X5711Y4223D01*
G01X5748Y4250D01*
G01X5786Y4277D01*
G01X5825Y4301D01*
G01X5864Y4324D01*
G01X5906Y4345D01*
G01X5947Y4364D01*
G01X5990Y4382D01*
G01X6033Y4397D01*
G01X6077Y4410D01*
G01X6122Y4421D01*
G01X6167Y4430D01*
G01X6212Y4438D01*
G01X6258Y4443D01*
G01X6304Y4446D01*
G01X6350Y4447D01*
G01X6395Y4446D01*
G01X6441Y4443D01*
G01X6486Y4438D01*
G01X6531Y4431D01*
G01X6576Y4422D01*
G01X6620Y4410D01*
G01X6664Y4397D01*
G01X6708Y4382D01*
G01X6750Y4365D01*
G01X6791Y4346D01*
G01X6832Y4326D01*
G01X6872Y4303D01*
G01X6911Y4278D01*
G01X6948Y4252D01*
G01X6985Y4225D01*
G01X7020Y4196D01*
G01X7054Y4165D01*
G01X7086Y4133D01*
G01X7117Y4099D01*
G01X7146Y4064D01*
G01X7173Y4027D01*
G01X7199Y3990D01*
G01X7224Y3951D01*
G01X7247Y3911D01*
G01X7267Y3870D01*
G01X7286Y3829D01*
G01X7303Y3787D01*
G01X7318Y3743D01*
G01X7331Y3699D01*
G01X7343Y3655D01*
G01X7352Y3610D01*
G01X7359Y3565D01*
G01X7364Y3520D01*
G01X7367Y3474D01*
G01X7368Y3429D01*
G01X7367Y3383D01*
G01X7364Y3337D01*
G01X7359Y3292D01*
G01X7352Y3247D01*
G01X7343Y3202D01*
G01X7331Y3158D01*
G01X7318Y3114D01*
G01X7303Y3070D01*
G01X7286Y3028D01*
G01X7267Y2987D01*
G01X7247Y2946D01*
G01X7224Y2906D01*
G01X7199Y2867D01*
G01X7173Y2830D01*
G01X7146Y2794D01*
G01X7117Y2758D01*
G01X7086Y2724D01*
G01X7054Y2692D01*
G01X7020Y2661D01*
G01X6985Y2632D01*
G01X6948Y2605D01*
G01X6911Y2579D01*
G01X6872Y2554D01*
G01X6832Y2531D01*
G01X6791Y2511D01*
G01X6750Y2492D01*
G01X6708Y2475D01*
G01X6664Y2460D01*
G01X6620Y2447D01*
G01X6576Y2435D01*
G01X6531Y2426D01*
G01X6486Y2419D01*
G01X6441Y2414D01*
G01X6395Y2411D01*
G01X6350Y2410D01*
G01X6304Y2411D01*
G01X6258Y2414D01*
G01X6212Y2419D01*
G01X6167Y2427D01*
G01X6122Y2436D01*
G01X6077Y2447D01*
G01X6033Y2460D01*
G01X5990Y2475D01*
G01X5947Y2493D01*
G01X5906Y2512D01*
G01X5864Y2533D01*
G01X5825Y2556D01*
G01X5786Y2580D01*
G01X5748Y2607D01*
G01X5711Y2634D01*
G01X5676Y2664D01*
G01X5643Y2695D01*
G01X5610Y2728D01*
G01X5579Y2762D01*
G01X5550Y2797D01*
G01X5522Y2834D01*
G01X5497Y2872D01*
G01X5488Y2883D01*
G01X5478Y2894D01*
G01X5466Y2902D01*
G01X5453Y2909D01*
G01X5440Y2914D01*
G01X5426Y2917D01*
G01X5411Y2918D01*
G01X2946Y2918D01*
G01X2931Y2917D01*
G01X2916Y2913D01*
G01X2902Y2908D01*
G01X2889Y2901D01*
G01X2877Y2891D01*
G01X2867Y2880D01*
G01X2859Y2868D01*
G01X2833Y2827D01*
G01X2806Y2787D01*
G01X2778Y2749D01*
G01X2748Y2712D01*
G01X2716Y2676D01*
G01X2682Y2642D01*
G01X2648Y2609D01*
G01X2612Y2577D01*
G01X2574Y2548D01*
G01X2535Y2519D01*
G01X2495Y2493D01*
G01X2454Y2468D01*
G01X2412Y2445D01*
G01X2369Y2424D01*
G01X2325Y2405D01*
G01X2280Y2388D01*
G01X2235Y2372D01*
G01X2189Y2359D01*
G01X2142Y2348D01*
G01X2095Y2338D01*
G01X2048Y2331D01*
G01X2000Y2326D01*
G01X1952Y2323D01*
G01X1905Y2322D01*
G01X1856Y2323D01*
G01X1808Y2326D01*
G01X1760Y2331D01*
G01X1712Y2339D01*
G01X1665Y2348D01*
G01X1618Y2360D01*
G01X1572Y2373D01*
G01X1526Y2389D01*
G01X1481Y2406D01*
G01X1437Y2426D01*
G01X1393Y2447D01*
G01X1351Y2470D01*
G01X1310Y2495D01*
G01X1270Y2522D01*
G01X1231Y2551D01*
G01X1193Y2581D01*
G01X1157Y2613D01*
G01X1122Y2646D01*
G01X1089Y2681D01*
G01X1057Y2717D01*
G01X1027Y2755D01*
G01X998Y2794D01*
G01X971Y2834D01*
G01X946Y2875D01*
G01X923Y2917D01*
G01X902Y2961D01*
G01X882Y3005D01*
G01X865Y3050D01*
G01X849Y3096D01*
G01X836Y3142D01*
G01X824Y3189D01*
G01X815Y3236D01*
G01X807Y3284D01*
G01X802Y3332D01*
G01X799Y3380D01*
G01X798Y3429D01*
G01X799Y3477D01*
G01X802Y3525D01*
G01X807Y3573D01*
G01X815Y3621D01*
G01X824Y3668D01*
G01X836Y3715D01*
G01X849Y3761D01*
G01X865Y3807D01*
G01X882Y3852D01*
G01X902Y3896D01*
G01X923Y3940D01*
G01X946Y3982D01*
G01X971Y4023D01*
G01X998Y4063D01*
G01X1027Y4102D01*
G01X1057Y4140D01*
G01X1089Y4176D01*
G01X1122Y4211D01*
G01X1157Y4244D01*
G01X1193Y4276D01*
G01X1231Y4306D01*
G01X1270Y4335D01*
G01X1310Y4362D01*
G01X1351Y4387D01*
G01X1393Y4410D01*
G01X1437Y4431D01*
G01X1481Y4451D01*
G01X1526Y4468D01*
G01X1572Y4484D01*
G01X1618Y4497D01*
G01X1665Y4509D01*
G01X1712Y4518D01*
G01X1760Y4526D01*
G01X1808Y4531D01*
G01X1856Y4534D01*
G01X1905Y4535D01*
G01X1952Y4534D01*
G01X2000Y4531D01*
G01X2048Y4526D01*
G01X2095Y4519D01*
G01X2142Y4509D01*
G01X2189Y4498D01*
G01X2235Y4485D01*
G01X2280Y4469D01*
G01X2325Y4452D01*
G01X2369Y4433D01*
G01X2412Y4412D01*
G01X2454Y4389D01*
G01X2495Y4364D01*
G01X2535Y4338D01*
G01X2574Y4309D01*
G01X2612Y4280D01*
G01X2648Y4248D01*
G01X2682Y4215D01*
G01X2716Y4181D01*
G01X2748Y4145D01*
G01X2778Y4108D01*
G01X2806Y4070D01*
G01X2833Y4030D01*
G01X2859Y3989D01*
G01X2867Y3977D01*
G01X2877Y3966D01*
G01X2889Y3956D01*
G01X2902Y3949D01*
G01X2916Y3944D01*
G01X2931Y3940D01*
G01X2946Y3939D01*
G01X3429Y3939D01*
G01X3445Y3940D01*
G01X3461Y3944D01*
G01X3475Y3950D01*
G01X3488Y3958D01*
G01X3501Y3969D01*
G01X3650Y4118D01*
G01X3661Y4131D01*
G01X3669Y4144D01*
G01X3675Y4158D01*
G01X3679Y4174D01*
G01X3680Y4190D01*
G01X3680Y6350D01*
G01X3681Y6383D01*
G01X3685Y6416D01*
G01X3690Y6449D01*
G01X3697Y6482D01*
G01X3707Y6514D01*
G01X3719Y6545D01*
G01X3733Y6575D01*
G01X3749Y6605D01*
G01X3766Y6633D01*
G01X3786Y6660D01*
G01X3806Y6686D01*
G01X3829Y6711D01*
G01X5325Y8206D01*
G01X5336Y8218D01*
G01X5344Y8232D01*
G01X5350Y8247D01*
G01X5354Y8262D01*
G01X5355Y8278D01*
G01X5353Y8299D01*
G01X5343Y8351D01*
G01X5337Y8403D01*
G01X5332Y8456D01*
G01X5331Y8509D01*
G01X5332Y8561D01*
G01X5337Y8613D01*
G01X5343Y8665D01*
G01X5352Y8717D01*
G01X5355Y8738D01*
G01X5353Y8754D01*
G01X5350Y8769D01*
G01X5344Y8784D01*
G01X5335Y8798D01*
G01X5325Y8810D01*
G01X4337Y9798D01*
G01X4314Y9822D01*
G01X4293Y9848D01*
G01X4273Y9876D01*
G01X4256Y9904D01*
G01X4240Y9933D01*
G01X4226Y9964D01*
G01X4214Y9995D01*
G01X4204Y10027D01*
G01X4197Y10060D01*
G01X4192Y10093D01*
G01X4188Y10126D01*
G01X4187Y10160D01*
G01X4187Y15367D01*
G01X4188Y15400D01*
G01X4192Y15433D01*
G01X4197Y15466D01*
G01X4204Y15499D01*
G01X4214Y15531D01*
G01X4226Y15562D01*
G01X4240Y15593D01*
G01X4256Y15622D01*
G01X4273Y15650D01*
G01X4293Y15678D01*
G01X4314Y15704D01*
G01X4337Y15728D01*
G01X5689Y17080D01*
G01X5699Y17092D01*
G01X5707Y17106D01*
G01X5713Y17121D01*
G01X5717Y17136D01*
G01X5719Y17152D01*
G01X5718Y17166D01*
G01X5715Y17181D01*
G01X5709Y17194D01*
G01X5702Y17207D01*
G01X5694Y17219D01*
G01X5684Y17229D01*
G01X5672Y17237D01*
G01X5659Y17245D01*
G01X5645Y17250D01*
G01X5631Y17253D01*
G01X5617Y17254D01*
G01X5589Y17250D01*
G01X5566Y17245D01*
G01X5543Y17241D01*
G01X5519Y17240D01*
G01X5133Y17240D01*
G01X5133Y18433D01*
G01X5776Y18433D01*
G01X5776Y17497D01*
G01X5775Y17473D01*
G01X5771Y17450D01*
G01X5766Y17426D01*
G01X5762Y17399D01*
G01X5763Y17384D01*
G01X5766Y17371D01*
G01X5771Y17357D01*
G01X5779Y17344D01*
G01X5787Y17332D01*
G01X5797Y17322D01*
G01X5809Y17314D01*
G01X5822Y17307D01*
G01X5835Y17301D01*
G01X5850Y17298D01*
G01X5864Y17297D01*
G01X5880Y17298D01*
G01X5895Y17302D01*
G01X5910Y17309D01*
G01X5924Y17317D01*
G01X5935Y17327D01*
G01X6443Y17835D01*
G01X6454Y17847D01*
G01X6462Y17860D01*
G01X6468Y17875D01*
G01X6472Y17891D01*
G01X6473Y17907D01*
G01X6473Y20447D01*
G01X6474Y20480D01*
G01X6478Y20513D01*
G01X6483Y20546D01*
G01X6490Y20579D01*
G01X6500Y20611D01*
G01X6512Y20642D01*
G01X6526Y20673D01*
G01X6542Y20702D01*
G01X6559Y20730D01*
G01X6579Y20758D01*
G01X6600Y20784D01*
G01X6623Y20808D01*
G01X8244Y22430D01*
G01X8255Y22441D01*
G01X8263Y22455D01*
G01X8269Y22470D01*
G01X8273Y22486D01*
G01X8274Y22501D01*
G01X8273Y22516D01*
G01X8270Y22530D01*
G01X8265Y22544D01*
G01X8258Y22556D01*
G01X8249Y22568D01*
G01X8239Y22578D01*
G01X8227Y22587D01*
G01X8214Y22594D01*
G01X8201Y22599D01*
G01X8187Y22602D01*
G01X8172Y22603D01*
G37*

%LPC*%
G36*
G01X8935Y4446D02*
G01X8890Y4447D01*
G01X8844Y4446D01*
G01X8798Y4443D01*
G01X8753Y4438D01*
G01X8708Y4431D01*
G01X8663Y4422D01*
G01X8619Y4410D01*
G01X8575Y4397D01*
G01X8531Y4382D01*
G01X8489Y4365D01*
G01X8448Y4346D01*
G01X8407Y4326D01*
G01X8367Y4303D01*
G01X8328Y4278D01*
G01X8291Y4252D01*
G01X8255Y4225D01*
G01X8219Y4196D01*
G01X8185Y4165D01*
G01X8153Y4133D01*
G01X8122Y4099D01*
G01X8093Y4064D01*
G01X8066Y4027D01*
G01X8040Y3990D01*
G01X8015Y3951D01*
G01X7992Y3911D01*
G01X7972Y3870D01*
G01X7953Y3829D01*
G01X7936Y3787D01*
G01X7921Y3743D01*
G01X7908Y3699D01*
G01X7896Y3655D01*
G01X7887Y3610D01*
G01X7880Y3565D01*
G01X7875Y3520D01*
G01X7872Y3474D01*
G01X7871Y3429D01*
G01X7872Y3383D01*
G01X7875Y3337D01*
G01X7880Y3292D01*
G01X7887Y3247D01*
G01X7896Y3202D01*
G01X7908Y3158D01*
G01X7921Y3114D01*
G01X7936Y3070D01*
G01X7953Y3028D01*
G01X7972Y2987D01*
G01X7992Y2946D01*
G01X8015Y2906D01*
G01X8040Y2867D01*
G01X8066Y2830D01*
G01X8093Y2794D01*
G01X8122Y2758D01*
G01X8153Y2724D01*
G01X8185Y2692D01*
G01X8219Y2661D01*
G01X8255Y2632D01*
G01X8291Y2605D01*
G01X8328Y2579D01*
G01X8367Y2554D01*
G01X8407Y2531D01*
G01X8448Y2511D01*
G01X8489Y2492D01*
G01X8531Y2475D01*
G01X8575Y2460D01*
G01X8619Y2447D01*
G01X8663Y2435D01*
G01X8708Y2426D01*
G01X8753Y2419D01*
G01X8798Y2414D01*
G01X8844Y2411D01*
G01X8890Y2410D01*
G01X8935Y2411D01*
G01X8981Y2414D01*
G01X9026Y2419D01*
G01X9071Y2426D01*
G01X9116Y2435D01*
G01X9160Y2447D01*
G01X9204Y2460D01*
G01X9248Y2475D01*
G01X9290Y2492D01*
G01X9331Y2511D01*
G01X9372Y2531D01*
G01X9412Y2554D01*
G01X9451Y2579D01*
G01X9488Y2605D01*
G01X9525Y2632D01*
G01X9560Y2661D01*
G01X9594Y2692D01*
G01X9626Y2724D01*
G01X9657Y2758D01*
G01X9686Y2794D01*
G01X9713Y2830D01*
G01X9739Y2867D01*
G01X9764Y2906D01*
G01X9787Y2946D01*
G01X9807Y2987D01*
G01X9826Y3028D01*
G01X9843Y3070D01*
G01X9858Y3114D01*
G01X9871Y3158D01*
G01X9883Y3202D01*
G01X9892Y3247D01*
G01X9899Y3292D01*
G01X9904Y3337D01*
G01X9907Y3383D01*
G01X9908Y3429D01*
G01X9907Y3474D01*
G01X9904Y3520D01*
G01X9899Y3565D01*
G01X9892Y3610D01*
G01X9883Y3655D01*
G01X9871Y3699D01*
G01X9858Y3743D01*
G01X9843Y3787D01*
G01X9826Y3829D01*
G01X9807Y3870D01*
G01X9787Y3911D01*
G01X9764Y3951D01*
G01X9739Y3990D01*
G01X9713Y4027D01*
G01X9686Y4064D01*
G01X9657Y4099D01*
G01X9626Y4133D01*
G01X9594Y4165D01*
G01X9560Y4196D01*
G01X9525Y4225D01*
G01X9488Y4252D01*
G01X9451Y4278D01*
G01X9412Y4303D01*
G01X9372Y4326D01*
G01X9331Y4346D01*
G01X9290Y4365D01*
G01X9248Y4382D01*
G01X9204Y4397D01*
G01X9160Y4410D01*
G01X9116Y4422D01*
G01X9071Y4431D01*
G01X9026Y4438D01*
G01X8981Y4443D01*
G01X8935Y4446D01*
G37*
G36*
G01X1953Y7074D02*
G01X1905Y7075D01*
G01X1856Y7074D01*
G01X1808Y7071D01*
G01X1760Y7066D01*
G01X1712Y7058D01*
G01X1665Y7049D01*
G01X1618Y7037D01*
G01X1572Y7024D01*
G01X1526Y7008D01*
G01X1481Y6991D01*
G01X1437Y6971D01*
G01X1393Y6950D01*
G01X1351Y6927D01*
G01X1310Y6902D01*
G01X1270Y6875D01*
G01X1231Y6846D01*
G01X1193Y6816D01*
G01X1157Y6784D01*
G01X1122Y6751D01*
G01X1089Y6716D01*
G01X1057Y6680D01*
G01X1027Y6642D01*
G01X998Y6603D01*
G01X971Y6563D01*
G01X946Y6522D01*
G01X923Y6480D01*
G01X902Y6436D01*
G01X882Y6392D01*
G01X865Y6347D01*
G01X849Y6301D01*
G01X836Y6255D01*
G01X824Y6208D01*
G01X815Y6161D01*
G01X807Y6113D01*
G01X802Y6065D01*
G01X799Y6017D01*
G01X798Y5969D01*
G01X799Y5920D01*
G01X802Y5872D01*
G01X807Y5824D01*
G01X815Y5776D01*
G01X824Y5729D01*
G01X836Y5682D01*
G01X849Y5636D01*
G01X865Y5590D01*
G01X882Y5545D01*
G01X902Y5501D01*
G01X923Y5457D01*
G01X946Y5415D01*
G01X971Y5374D01*
G01X998Y5334D01*
G01X1027Y5295D01*
G01X1057Y5257D01*
G01X1089Y5221D01*
G01X1122Y5186D01*
G01X1157Y5153D01*
G01X1193Y5121D01*
G01X1231Y5091D01*
G01X1270Y5062D01*
G01X1310Y5035D01*
G01X1351Y5010D01*
G01X1393Y4987D01*
G01X1437Y4966D01*
G01X1481Y4946D01*
G01X1526Y4929D01*
G01X1572Y4913D01*
G01X1618Y4900D01*
G01X1665Y4888D01*
G01X1712Y4879D01*
G01X1760Y4871D01*
G01X1808Y4866D01*
G01X1856Y4863D01*
G01X1905Y4862D01*
G01X1953Y4863D01*
G01X2001Y4866D01*
G01X2049Y4871D01*
G01X2097Y4879D01*
G01X2144Y4888D01*
G01X2191Y4900D01*
G01X2237Y4913D01*
G01X2283Y4929D01*
G01X2328Y4946D01*
G01X2372Y4966D01*
G01X2416Y4987D01*
G01X2458Y5010D01*
G01X2499Y5035D01*
G01X2539Y5062D01*
G01X2578Y5091D01*
G01X2616Y5121D01*
G01X2652Y5153D01*
G01X2687Y5186D01*
G01X2720Y5221D01*
G01X2752Y5257D01*
G01X2782Y5295D01*
G01X2811Y5334D01*
G01X2838Y5374D01*
G01X2863Y5415D01*
G01X2886Y5457D01*
G01X2907Y5501D01*
G01X2927Y5545D01*
G01X2944Y5590D01*
G01X2960Y5636D01*
G01X2973Y5682D01*
G01X2985Y5729D01*
G01X2994Y5776D01*
G01X3002Y5824D01*
G01X3007Y5872D01*
G01X3010Y5920D01*
G01X3011Y5969D01*
G01X3010Y6017D01*
G01X3007Y6065D01*
G01X3002Y6113D01*
G01X2994Y6161D01*
G01X2985Y6208D01*
G01X2973Y6255D01*
G01X2960Y6301D01*
G01X2944Y6347D01*
G01X2927Y6392D01*
G01X2907Y6436D01*
G01X2886Y6480D01*
G01X2863Y6522D01*
G01X2838Y6563D01*
G01X2811Y6603D01*
G01X2782Y6642D01*
G01X2752Y6680D01*
G01X2720Y6716D01*
G01X2687Y6751D01*
G01X2652Y6784D01*
G01X2616Y6816D01*
G01X2578Y6846D01*
G01X2539Y6875D01*
G01X2499Y6902D01*
G01X2458Y6927D01*
G01X2416Y6950D01*
G01X2372Y6971D01*
G01X2328Y6991D01*
G01X2283Y7008D01*
G01X2237Y7024D01*
G01X2191Y7037D01*
G01X2144Y7049D01*
G01X2097Y7058D01*
G01X2049Y7066D01*
G01X2001Y7071D01*
G01X1953Y7074D01*
G37*
G36*
G01X1953Y9614D02*
G01X1905Y9615D01*
G01X1856Y9614D01*
G01X1808Y9611D01*
G01X1760Y9606D01*
G01X1712Y9598D01*
G01X1665Y9589D01*
G01X1618Y9577D01*
G01X1572Y9564D01*
G01X1526Y9548D01*
G01X1481Y9531D01*
G01X1437Y9511D01*
G01X1393Y9490D01*
G01X1351Y9467D01*
G01X1310Y9442D01*
G01X1270Y9415D01*
G01X1231Y9386D01*
G01X1193Y9356D01*
G01X1157Y9324D01*
G01X1122Y9291D01*
G01X1089Y9256D01*
G01X1057Y9220D01*
G01X1027Y9182D01*
G01X998Y9143D01*
G01X971Y9103D01*
G01X946Y9062D01*
G01X923Y9020D01*
G01X902Y8976D01*
G01X882Y8932D01*
G01X865Y8887D01*
G01X849Y8841D01*
G01X836Y8795D01*
G01X824Y8748D01*
G01X815Y8701D01*
G01X807Y8653D01*
G01X802Y8605D01*
G01X799Y8557D01*
G01X798Y8509D01*
G01X799Y8460D01*
G01X802Y8412D01*
G01X807Y8364D01*
G01X815Y8316D01*
G01X824Y8269D01*
G01X836Y8222D01*
G01X849Y8176D01*
G01X865Y8130D01*
G01X882Y8085D01*
G01X902Y8041D01*
G01X923Y7997D01*
G01X946Y7955D01*
G01X971Y7914D01*
G01X998Y7874D01*
G01X1027Y7835D01*
G01X1057Y7797D01*
G01X1089Y7761D01*
G01X1122Y7726D01*
G01X1157Y7693D01*
G01X1193Y7661D01*
G01X1231Y7631D01*
G01X1270Y7602D01*
G01X1310Y7575D01*
G01X1351Y7550D01*
G01X1393Y7527D01*
G01X1437Y7506D01*
G01X1481Y7486D01*
G01X1526Y7469D01*
G01X1572Y7453D01*
G01X1618Y7440D01*
G01X1665Y7428D01*
G01X1712Y7419D01*
G01X1760Y7411D01*
G01X1808Y7406D01*
G01X1856Y7403D01*
G01X1905Y7402D01*
G01X1953Y7403D01*
G01X2001Y7406D01*
G01X2049Y7411D01*
G01X2097Y7419D01*
G01X2144Y7428D01*
G01X2191Y7440D01*
G01X2237Y7453D01*
G01X2283Y7469D01*
G01X2328Y7486D01*
G01X2372Y7506D01*
G01X2416Y7527D01*
G01X2458Y7550D01*
G01X2499Y7575D01*
G01X2539Y7602D01*
G01X2578Y7631D01*
G01X2616Y7661D01*
G01X2652Y7693D01*
G01X2687Y7726D01*
G01X2720Y7761D01*
G01X2752Y7797D01*
G01X2782Y7835D01*
G01X2811Y7874D01*
G01X2838Y7914D01*
G01X2863Y7955D01*
G01X2886Y7997D01*
G01X2907Y8041D01*
G01X2927Y8085D01*
G01X2944Y8130D01*
G01X2960Y8176D01*
G01X2973Y8222D01*
G01X2985Y8269D01*
G01X2994Y8316D01*
G01X3002Y8364D01*
G01X3007Y8412D01*
G01X3010Y8460D01*
G01X3011Y8509D01*
G01X3010Y8557D01*
G01X3007Y8605D01*
G01X3002Y8653D01*
G01X2994Y8701D01*
G01X2985Y8748D01*
G01X2973Y8795D01*
G01X2960Y8841D01*
G01X2944Y8887D01*
G01X2927Y8932D01*
G01X2907Y8976D01*
G01X2886Y9020D01*
G01X2863Y9062D01*
G01X2838Y9103D01*
G01X2811Y9143D01*
G01X2782Y9182D01*
G01X2752Y9220D01*
G01X2720Y9256D01*
G01X2687Y9291D01*
G01X2652Y9324D01*
G01X2616Y9356D01*
G01X2578Y9386D01*
G01X2539Y9415D01*
G01X2499Y9442D01*
G01X2458Y9467D01*
G01X2416Y9490D01*
G01X2372Y9511D01*
G01X2328Y9531D01*
G01X2283Y9548D01*
G01X2237Y9564D01*
G01X2191Y9577D01*
G01X2144Y9589D01*
G01X2097Y9598D01*
G01X2049Y9606D01*
G01X2001Y9611D01*
G01X1953Y9614D01*
G37*
G36*
G01X3011Y10560D02*
G01X2393Y10560D01*
G01X2393Y9942D01*
G01X2754Y9942D01*
G01X2778Y9943D01*
G01X2802Y9946D01*
G01X2824Y9952D01*
G01X2847Y9959D01*
G01X2869Y9969D01*
G01X2890Y9980D01*
G01X2909Y9994D01*
G01X2927Y10009D01*
G01X2944Y10026D01*
G01X2959Y10044D01*
G01X2973Y10063D01*
G01X2984Y10084D01*
G01X2994Y10106D01*
G01X3001Y10129D01*
G01X3007Y10151D01*
G01X3010Y10175D01*
G01X3011Y10199D01*
G01X3011Y10560D01*
G37*
G36*
G01X1416Y10560D02*
G01X798Y10560D01*
G01X798Y10199D01*
G01X799Y10175D01*
G01X802Y10151D01*
G01X808Y10129D01*
G01X815Y10106D01*
G01X825Y10084D01*
G01X836Y10063D01*
G01X850Y10044D01*
G01X865Y10026D01*
G01X882Y10009D01*
G01X900Y9994D01*
G01X919Y9980D01*
G01X940Y9969D01*
G01X962Y9959D01*
G01X985Y9952D01*
G01X1007Y9946D01*
G01X1031Y9943D01*
G01X1055Y9942D01*
G01X1416Y9942D01*
G01X1416Y10560D01*
G37*
G36*
G01X8445Y10604D02*
G01X7871Y10604D01*
G01X7871Y10287D01*
G01X7872Y10263D01*
G01X7876Y10239D01*
G01X7881Y10216D01*
G01X7888Y10194D01*
G01X7898Y10172D01*
G01X7910Y10151D01*
G01X7923Y10132D01*
G01X7938Y10114D01*
G01X7955Y10097D01*
G01X7973Y10082D01*
G01X7992Y10069D01*
G01X8013Y10057D01*
G01X8035Y10047D01*
G01X8057Y10040D01*
G01X8080Y10035D01*
G01X8104Y10031D01*
G01X8128Y10030D01*
G01X8445Y10030D01*
G01X8445Y10604D01*
G37*
G36*
G01X9908Y10604D02*
G01X9334Y10604D01*
G01X9334Y10030D01*
G01X9652Y10030D01*
G01X9675Y10031D01*
G01X9699Y10035D01*
G01X9722Y10040D01*
G01X9744Y10047D01*
G01X9766Y10057D01*
G01X9787Y10069D01*
G01X9806Y10082D01*
G01X9824Y10097D01*
G01X9841Y10114D01*
G01X9856Y10132D01*
G01X9869Y10151D01*
G01X9881Y10172D01*
G01X9891Y10194D01*
G01X9898Y10216D01*
G01X9903Y10239D01*
G01X9907Y10263D01*
G01X9908Y10287D01*
G01X9908Y10604D01*
G37*
G36*
G01X9652Y12067D02*
G01X9334Y12067D01*
G01X9334Y11493D01*
G01X9908Y11493D01*
G01X9908Y11811D01*
G01X9907Y11834D01*
G01X9903Y11858D01*
G01X9898Y11881D01*
G01X9891Y11903D01*
G01X9881Y11925D01*
G01X9869Y11946D01*
G01X9856Y11965D01*
G01X9841Y11983D01*
G01X9824Y12000D01*
G01X9806Y12015D01*
G01X9787Y12028D01*
G01X9766Y12040D01*
G01X9744Y12050D01*
G01X9722Y12057D01*
G01X9699Y12062D01*
G01X9675Y12066D01*
G01X9652Y12067D01*
G37*
G36*
G01X1416Y12155D02*
G01X1055Y12155D01*
G01X1031Y12154D01*
G01X1007Y12151D01*
G01X985Y12145D01*
G01X962Y12138D01*
G01X940Y12128D01*
G01X919Y12117D01*
G01X900Y12103D01*
G01X882Y12088D01*
G01X865Y12071D01*
G01X850Y12053D01*
G01X836Y12034D01*
G01X825Y12013D01*
G01X815Y11991D01*
G01X808Y11968D01*
G01X802Y11946D01*
G01X799Y11922D01*
G01X798Y11898D01*
G01X798Y11537D01*
G01X1416Y11537D01*
G01X1416Y12155D01*
G37*
G36*
G01X2754Y12155D02*
G01X2393Y12155D01*
G01X2393Y11537D01*
G01X3011Y11537D01*
G01X3011Y11898D01*
G01X3010Y11922D01*
G01X3007Y11946D01*
G01X3001Y11968D01*
G01X2994Y11991D01*
G01X2984Y12013D01*
G01X2973Y12034D01*
G01X2959Y12053D01*
G01X2944Y12071D01*
G01X2927Y12088D01*
G01X2909Y12103D01*
G01X2890Y12117D01*
G01X2869Y12128D01*
G01X2847Y12138D01*
G01X2824Y12145D01*
G01X2802Y12151D01*
G01X2778Y12154D01*
G01X2754Y12155D01*
G37*
G36*
G01X4106Y18433D02*
G01X3463Y18433D01*
G01X3463Y17497D01*
G01X3464Y17473D01*
G01X3467Y17449D01*
G01X3473Y17426D01*
G01X3480Y17404D01*
G01X3489Y17382D01*
G01X3501Y17361D01*
G01X3514Y17342D01*
G01X3530Y17324D01*
G01X3546Y17307D01*
G01X3565Y17292D01*
G01X3584Y17279D01*
G01X3605Y17267D01*
G01X3627Y17257D01*
G01X3649Y17250D01*
G01X3672Y17245D01*
G01X3696Y17241D01*
G01X3719Y17240D01*
G01X4106Y17240D01*
G01X4106Y18433D01*
G37*
G36*
G01X4106Y21753D02*
G01X3719Y21753D01*
G01X3696Y21752D01*
G01X3672Y21749D01*
G01X3649Y21743D01*
G01X3627Y21736D01*
G01X3605Y21726D01*
G01X3584Y21714D01*
G01X3565Y21701D01*
G01X3546Y21686D01*
G01X3530Y21669D01*
G01X3514Y21651D01*
G01X3501Y21632D01*
G01X3489Y21611D01*
G01X3480Y21589D01*
G01X3473Y21567D01*
G01X3467Y21544D01*
G01X3464Y21520D01*
G01X3463Y21497D01*
G01X3463Y20560D01*
G01X4106Y20560D01*
G01X4106Y21753D01*
G37*
G36*
G01X5519Y21753D02*
G01X5133Y21753D01*
G01X5133Y20560D01*
G01X5776Y20560D01*
G01X5776Y21497D01*
G01X5774Y21520D01*
G01X5771Y21544D01*
G01X5766Y21567D01*
G01X5759Y21589D01*
G01X5749Y21611D01*
G01X5737Y21632D01*
G01X5724Y21651D01*
G01X5709Y21669D01*
G01X5692Y21686D01*
G01X5674Y21701D01*
G01X5654Y21714D01*
G01X5634Y21726D01*
G01X5612Y21736D01*
G01X5590Y21743D01*
G01X5566Y21749D01*
G01X5543Y21752D01*
G01X5519Y21753D01*
G37*

%LPD*%
G54D11*
G01X20680Y13462D02*
G01X21844Y13462D01*
G01X21325Y12816D02*
G01X20680Y13462D01*
G01X10896Y13462D01*
G01X10642Y13208D01*
G01X8509Y13208D01*
G01X6350Y11049D01*
G54D12*
G01X47625Y20955D02*
G01X46532Y22047D01*
G01X28651Y22047D01*
G01X27533Y20929D01*
G01X27533Y20447D01*
G54D13*
G01X6350Y8509D02*
G01X4699Y10160D01*
G01X4699Y15367D01*
G01X6985Y17653D01*
G01X6985Y20447D01*
G01X8732Y22194D01*
G01X15778Y22194D01*
G01X16738Y21234D01*
G01X16738Y20447D01*
G54D14*
G01X20955Y3937D02*
G01X21463Y3937D01*
G01X14239Y7853D02*
G01X15303Y6789D01*
G01X15303Y4508D01*
G01X15875Y3937D01*
G01X20955Y3937D01*
G01X21224Y4206D01*
G01X21224Y5715D01*
G01X21224Y4460D02*
G01X21224Y4175D01*
G01X21463Y3937D01*
G01X21971Y3937D01*
G01X22225Y3683D01*
G01X22225Y2286D01*
G01X22621Y1889D01*
G01X23174Y1889D01*
G54D11*
G01X13604Y17145D02*
G01X13604Y15986D01*
G01X14224Y15367D01*
G01X17399Y15367D01*
G01X18049Y16017D01*
G01X18049Y17145D01*
G01X27035Y17145D02*
G01X27035Y15986D01*
G01X24511Y13462D01*
G01X21844Y13462D01*
G01X21224Y12842D01*
G01X21224Y12065D01*
G54D13*
G01X21224Y8890D02*
G01X21209Y7874D01*
G01X21590Y7493D01*
G01X26162Y7493D01*
G01X29337Y10668D01*
G01X29337Y14732D01*
G01X30226Y15621D01*
G01X37211Y15621D01*
G01X37830Y16271D01*
G01X37830Y17145D01*
G54D11*
G01X18288Y8890D02*
G01X21225Y8890D01*
G01X1905Y3429D02*
G01X6350Y3429D01*
G01X6350Y8509D02*
G01X4191Y6350D01*
G01X4191Y3937D01*
G01X4699Y3429D01*
G01X6350Y3429D01*
G01X4191Y4699D02*
G01X4191Y3937D01*
G01X3683Y3429D01*
G01X1905Y3429D01*
G01X16239Y5715D02*
G01X18288Y5715D01*
G54D12*
G01X30073Y20447D02*
G01X30073Y17119D01*
G01X25019Y12065D01*
G01X23225Y12065D01*
G01X43561Y6695D02*
G01X43977Y6695D01*
G01X47625Y3048D01*
G01X47625Y1905D01*
G01X42545Y6695D02*
G01X43906Y6695D01*
G01X44704Y7493D01*
G01X44704Y13716D01*
G01X44104Y14315D01*
G01X43561Y14315D01*
G54D10*
G01X21274Y1889D02*
G01X21768Y1397D01*
G01X25527Y1397D01*
G01X26289Y2159D01*
G01X26289Y5715D01*
G54D14*
G01X18288Y11303D02*
G01X17780Y10795D01*
G01X14605Y10795D01*
G01X14239Y11191D01*
G01X14239Y12065D01*
G54D12*
G01X20050Y17145D02*
G01X21844Y17145D01*
G01X24003Y14986D01*
G54D13*
G01X16738Y20447D02*
G01X16738Y19558D01*
G01X15605Y18425D01*
G54D12*
G01X13604Y17208D02*
G01X13604Y18549D01*
G01X14198Y19143D01*
G01X14198Y20447D01*
G54D13*
G01X12225Y10563D02*
G01X12618Y10170D01*
G01X16240Y10170D01*
G01X16240Y8890D02*
G01X16240Y5715D01*
G01X16240Y12065D02*
G01X16497Y12321D01*
G01X19047Y12321D01*
G01X19558Y11811D01*
G01X19558Y10668D01*
G01X19060Y10170D01*
G01X16240Y10170D01*
G54D10*
G01X8890Y8509D02*
G01X9271Y8890D01*
G01X14240Y8890D01*
G54D14*
G01X14239Y8509D02*
G01X14239Y7853D01*
G54D10*
G01X23174Y2540D02*
G01X24765Y2540D01*
G54D12*
G01X23225Y8890D02*
G01X24765Y8890D01*
G54D10*
G01X26289Y5715D02*
G01X23224Y5715D01*
G54D14*
G01X33213Y9814D02*
G01X30353Y9779D01*
G01X29972Y9398D01*
G01X29972Y2540D01*
G01X28435Y1003D01*
G01X17914Y1003D01*
G01X14239Y4678D01*
G54D10*
G01X21274Y2540D02*
G01X18288Y2540D01*
G54D12*
G01X19278Y20447D02*
G01X20050Y19674D01*
G01X20050Y17145D01*
G54D14*
G01X35829Y17145D02*
G01X35829Y19189D01*
G01X35788Y19232D01*
G01X35788Y20447D02*
G01X35788Y19232D01*
G01X25034Y17145D02*
G01X25034Y19189D01*
G01X24993Y19232D01*
G01X24993Y20447D02*
G01X24993Y19232D01*
G54D12*
G01X40868Y14315D02*
G01X40868Y20447D01*
G01X41529Y14315D02*
G01X40868Y14315D01*
G01X40868Y14315D02*
G01X32131Y14315D01*
G01X23225Y8890D02*
G01X23225Y12065D01*
G01X13604Y17208D02*
G01X13604Y17145D01*
G01X41529Y6695D02*
G01X42545Y6695D01*
G01X42545Y6695D02*
G01X43561Y6695D01*
G01X41529Y14315D02*
G01X43561Y14315D01*
G01X41529Y6695D02*
G01X32131Y6695D01*
G54D14*
G01X14239Y8890D02*
G01X14239Y7853D01*
G01X41529Y2194D02*
G01X32131Y2194D01*
G01X32131Y2194D02*
G01X30467Y2194D01*
G01X30467Y2194D02*
G01X28884Y612D01*
G01X14246Y612D01*
G01X8890Y5969D01*
G01X14239Y5715D02*
G01X14239Y6751D01*
G01X6350Y5969D02*
G01X7376Y6995D01*
G01X13997Y6995D01*
G01X14239Y6751D01*
G01X14239Y5715D02*
G01X14239Y4678D01*
G01X41529Y9814D02*
G01X33213Y9814D01*
G01X33213Y9814D02*
G01X32131Y9814D01*
G54D13*
G01X21224Y8890D02*
G01X21224Y8341D01*
G01X16240Y8890D02*
G01X16240Y10170D01*
G01X15605Y17145D02*
G01X15605Y18425D01*
G54D16*
G01X13605Y17145D03*
G01X15604Y17145D03*
G01X20049Y17145D03*
G01X18050Y17145D03*
G54D17*
G01X21275Y1890D03*
G01X21275Y2540D03*
G01X21275Y3189D03*
G01X23174Y3189D03*
G01X23174Y2540D03*
G01X23174Y1890D03*
G54D16*
G01X35830Y17145D03*
G01X37829Y17145D03*
G01X25035Y17145D03*
G01X27034Y17145D03*
G01X16239Y12065D03*
G01X14240Y12065D03*
G01X23224Y12065D03*
G01X21225Y12065D03*
G01X16239Y8890D03*
G01X14240Y8890D03*
G01X23224Y8890D03*
G01X21225Y8890D03*
G01X16239Y5715D03*
G01X14240Y5715D03*
G54D18*
G01X32129Y6694D03*
G01X41530Y6694D03*
G01X32129Y2195D03*
G01X41530Y2195D03*
G01X32129Y14314D03*
G01X41530Y14314D03*
G01X32129Y9815D03*
G01X41530Y9815D03*
G54D16*
G01X23224Y5715D03*
G01X21225Y5715D03*
G54D19*
G01X4619Y19497D03*
G54D20*
G01X8890Y11049D03*
G54D21*
G01X6350Y11049D03*
G01X8890Y8509D03*
G01X6350Y8509D03*
G01X8890Y5969D03*
G01X6350Y5969D03*
G01X8890Y3429D03*
G01X6350Y3429D03*
G54D22*
G01X47625Y1905D03*
G54D23*
G01X47625Y5715D03*
G01X47625Y9525D03*
G01X47625Y13335D03*
G01X47625Y17145D03*
G01X47625Y20955D03*
G54D24*
G01X1905Y3429D03*
G01X1905Y5969D03*
G01X1905Y8509D03*
G54D25*
G01X1905Y11049D03*
G54D26*
G01X30073Y20447D03*
G54D27*
G01X27533Y20447D03*
G01X24993Y20447D03*
G01X19278Y20447D03*
G01X16738Y20447D03*
G36*
G01X13246Y19494D02*
G01X15151Y19494D01*
G01X15151Y21399D01*
G01X13246Y21399D01*
G01X13246Y19494D01*
G37*
G54D26*
G01X40868Y20447D03*
G54D27*
G01X38328Y20447D03*
G01X35788Y20447D03*
G54D15*
G01X24003Y14986D03*
G01X26289Y5715D03*
G01X18288Y11303D03*
G01X18288Y8890D03*
G01X12225Y10563D03*
G01X18288Y2540D03*
G01X18288Y5715D03*
G01X24765Y8890D03*
G01X24765Y2540D03*
G54D28*
G01X10619Y18297D02*
G01X10619Y20697D01*
G01X6519Y14793D02*
G01X8719Y14793D01*
M00*
M02*
