;Layer: Drill PTH
;EasyEDA v6.3.53, 2020-07-05T11:12:03+02:00
;cde15f3eeb0949078ea0d990088cac7f,f7dd187871414131b8e6a9aac608ee48,10
;Gerber Generator version 0.2
M48
METRIC,LZ,000.000
;Holesize 1 = 0.600 METRIC
T01C0.600
;Holesize 2 = 0.915 METRIC
T02C0.915
;Holesize 3 = 1.000 METRIC
T03C1.000
;Holesize 4 = 1.101 METRIC
T04C1.101
;Holesize 5 = 1.118 METRIC
T05C1.118
;Holesize 6 = 1.143 METRIC
T06C1.143
%
G05
G90
T01
X+024003Y+014986
X+026289Y+005715
X+018288Y+011303
X+018288Y+008890
X+012225Y+010563
X+018288Y+002540
X+018288Y+005715
X+024765Y+008890
X+024765Y+002540
T02
X+008890Y+011049
X+006350Y+011049
X+008890Y+008509
X+006350Y+008509
X+008890Y+005969
X+006350Y+005969
X+008890Y+003429
X+006350Y+003429
T03
X+010619Y+018247G85X+010619Y+020747
X+004619Y+020647G85X+004619Y+018347
X+006469Y+014793G85X+008769Y+014793
T04
X+001905Y+003429
X+001905Y+005969
X+001905Y+008509
X+001905Y+011049
T05
X+030073Y+020447
X+027533Y+020447
X+024993Y+020447
X+019278Y+020447
X+016738Y+020447
X+014198Y+020447
X+040868Y+020447
X+038328Y+020447
X+035788Y+020447
T06
X+047625Y+001905
X+047625Y+005715
X+047625Y+009525
X+047625Y+013335
X+047625Y+017145
X+047625Y+020955
M30
