G04 Layer: BottomSolderMaskLayer*
G04 EasyEDA v6.3.53, 2020-07-05T11:12:03+02:00*
G04 cde15f3eeb0949078ea0d990088cac7f,f7dd187871414131b8e6a9aac608ee48,10*
G04 Gerber Generator version 0.2*
G04 Scale: 100 percent, Rotated: No, Reflected: No *
G04 Dimensions in millimeters *
G04 leading zeros omitted , absolute positions ,3 integer and 3 decimal *
%FSLAX33Y33*%
%MOMM*%
G90*
G71D02*

%ADD36C,2.003196*%
%ADD41C,1.727200*%
%ADD43C,1.981200*%
%ADD45C,1.903197*%
%ADD48C,2.108200*%

%LPD*%
G54D36*
G01X10619Y18297D02*
G01X10619Y20697D01*
G01X6519Y14793D02*
G01X8719Y14793D01*
G36*
G01X3616Y17396D02*
G01X3616Y21597D01*
G01X5621Y21597D01*
G01X5621Y17396D01*
G01X3616Y17396D01*
G37*
G36*
G01X8026Y10185D02*
G01X8026Y11912D01*
G01X9753Y11912D01*
G01X9753Y10185D01*
G01X8026Y10185D01*
G37*
G54D41*
G01X6350Y11049D03*
G01X8890Y8509D03*
G01X6350Y8509D03*
G01X8890Y5969D03*
G01X6350Y5969D03*
G01X8890Y3429D03*
G01X6350Y3429D03*
G36*
G01X46634Y914D02*
G01X46634Y2895D01*
G01X48615Y2895D01*
G01X48615Y914D01*
G01X46634Y914D01*
G37*
G54D43*
G01X47625Y5715D03*
G01X47625Y9525D03*
G01X47625Y13335D03*
G01X47625Y17145D03*
G01X47625Y20955D03*
G54D45*
G01X1905Y3429D03*
G01X1905Y5969D03*
G01X1905Y8509D03*
G36*
G01X952Y10096D02*
G01X952Y12001D01*
G01X2857Y12001D01*
G01X2857Y10096D01*
G01X952Y10096D01*
G37*
G36*
G01X29019Y19392D02*
G01X29019Y21501D01*
G01X31127Y21501D01*
G01X31127Y19392D01*
G01X29019Y19392D01*
G37*
G54D48*
G01X27533Y20447D03*
G01X24993Y20447D03*
G01X19278Y20447D03*
G01X16738Y20447D03*
G36*
G01X13144Y19392D02*
G01X13144Y21501D01*
G01X15252Y21501D01*
G01X15252Y19392D01*
G01X13144Y19392D01*
G37*
G36*
G01X39814Y19392D02*
G01X39814Y21501D01*
G01X41922Y21501D01*
G01X41922Y19392D01*
G01X39814Y19392D01*
G37*
G01X38328Y20447D03*
G01X35788Y20447D03*
M00*
M02*
