G04 Layer: TopSilkLayer*
G04 EasyEDA v6.3.53, 2020-07-05T11:12:03+02:00*
G04 cde15f3eeb0949078ea0d990088cac7f,f7dd187871414131b8e6a9aac608ee48,10*
G04 Gerber Generator version 0.2*
G04 Scale: 100 percent, Rotated: No, Reflected: No *
G04 Dimensions in millimeters *
G04 leading zeros omitted , absolute positions ,3 integer and 3 decimal *
%FSLAX33Y33*%
%MOMM*%
G90*
G71D02*

%ADD10C,0.254000*%
%ADD30C,0.200000*%
%ADD31C,0.127000*%
%ADD32C,0.203200*%
%ADD33C,0.202999*%
%ADD34C,0.076200*%
%ADD35C,0.152400*%

%LPD*%
G54D10*
G01X-3408Y23942D02*
G01X10999Y23942D01*
G01X-3408Y23950D02*
G01X-3408Y14950D01*
G01X-127Y23942D02*
G01X-127Y14942D01*
G01X10999Y23942D02*
G01X10999Y21762D01*
G01X10999Y17231D02*
G01X10999Y14950D01*
G01X-3408Y14950D02*
G01X5399Y14950D01*
G01X9839Y14950D02*
G01X10999Y14950D01*
G01X16355Y17945D02*
G01X16355Y16345D01*
G01X12854Y17945D02*
G01X12854Y16344D01*
G01X15104Y16104D02*
G01X16154Y16104D01*
G01X15104Y18185D02*
G01X16154Y18185D01*
G01X14105Y16104D02*
G01X13055Y16104D01*
G01X14105Y18185D02*
G01X13055Y18185D01*
G01X12854Y17964D02*
G01X12854Y17945D01*
G01X12854Y17984D02*
G01X12854Y17945D01*
G01X12854Y16305D02*
G01X12854Y16344D01*
G01X16355Y17984D02*
G01X16355Y17945D01*
G01X16355Y16305D02*
G01X16355Y16345D01*
G01X17299Y16344D02*
G01X17299Y17944D01*
G01X20800Y16344D02*
G01X20800Y17945D01*
G01X18550Y18185D02*
G01X17500Y18185D01*
G01X18550Y16104D02*
G01X17500Y16104D01*
G01X19549Y18185D02*
G01X20599Y18185D01*
G01X19549Y16104D02*
G01X20599Y16104D01*
G01X20800Y16325D02*
G01X20800Y16344D01*
G01X20800Y16305D02*
G01X20800Y16344D01*
G01X20800Y17984D02*
G01X20800Y17945D01*
G01X17299Y16305D02*
G01X17299Y16344D01*
G01X17299Y17984D02*
G01X17299Y17944D01*
G54D30*
G01X21525Y1440D02*
G01X22924Y1440D01*
G01X21525Y3639D02*
G01X22924Y3639D01*
G54D10*
G01X37329Y16125D02*
G01X38580Y16125D01*
G01X37329Y18164D02*
G01X38580Y18164D01*
G01X36330Y16125D02*
G01X35079Y16125D01*
G01X36330Y18164D02*
G01X35079Y18164D01*
G01X38580Y16125D02*
G01X38580Y18164D01*
G01X35079Y16125D02*
G01X35079Y18164D01*
G01X26534Y16125D02*
G01X27785Y16125D01*
G01X26534Y18164D02*
G01X27785Y18164D01*
G01X25535Y16125D02*
G01X24284Y16125D01*
G01X25535Y18164D02*
G01X24284Y18164D01*
G01X27785Y16125D02*
G01X27785Y18164D01*
G01X24284Y16125D02*
G01X24284Y18164D01*
G01X14740Y13084D02*
G01X13489Y13084D01*
G01X14740Y11045D02*
G01X13489Y11045D01*
G01X15739Y13084D02*
G01X16990Y13084D01*
G01X15739Y11045D02*
G01X16990Y11045D01*
G01X13489Y13084D02*
G01X13489Y11045D01*
G01X16990Y13084D02*
G01X16990Y11045D01*
G01X21725Y13084D02*
G01X20474Y13084D01*
G01X21725Y11045D02*
G01X20474Y11045D01*
G01X22724Y13084D02*
G01X23975Y13084D01*
G01X22724Y11045D02*
G01X23975Y11045D01*
G01X20474Y13084D02*
G01X20474Y11045D01*
G01X23975Y13084D02*
G01X23975Y11045D01*
G01X14740Y9909D02*
G01X13489Y9909D01*
G01X14740Y7870D02*
G01X13489Y7870D01*
G01X15739Y9909D02*
G01X16990Y9909D01*
G01X15739Y7870D02*
G01X16990Y7870D01*
G01X13489Y9909D02*
G01X13489Y7870D01*
G01X16990Y9909D02*
G01X16990Y7870D01*
G01X21725Y9909D02*
G01X20474Y9909D01*
G01X21725Y7870D02*
G01X20474Y7870D01*
G01X22724Y9909D02*
G01X23975Y9909D01*
G01X22724Y7870D02*
G01X23975Y7870D01*
G01X20474Y9909D02*
G01X20474Y7870D01*
G01X23975Y9909D02*
G01X23975Y7870D01*
G01X14740Y6734D02*
G01X13489Y6734D01*
G01X14740Y4695D02*
G01X13489Y4695D01*
G01X15739Y6734D02*
G01X16990Y6734D01*
G01X15739Y4695D02*
G01X16990Y4695D01*
G01X13489Y6734D02*
G01X13489Y4695D01*
G01X16990Y6734D02*
G01X16990Y4695D01*
G54D31*
G01X5080Y14478D02*
G01X5080Y0D01*
G01X5080Y14478D02*
G01X29845Y14478D01*
G01X5080Y0D02*
G01X29845Y0D01*
G01X29845Y14478D01*
G01X8128Y12319D02*
G01X9652Y12319D01*
G01X10160Y12319D01*
G01X10160Y11811D01*
G01X10160Y10287D01*
G01X10160Y9271D01*
G01X10160Y7747D01*
G01X10160Y6731D01*
G01X10160Y5207D01*
G01X10160Y4191D01*
G01X10160Y2667D01*
G01X10160Y2159D01*
G01X9652Y2159D01*
G01X8128Y2159D01*
G01X7112Y2159D01*
G01X5588Y2159D01*
G01X5080Y2159D01*
G01X5080Y2667D01*
G01X5080Y4191D01*
G01X5080Y5207D01*
G01X5080Y6731D01*
G01X5080Y7747D01*
G01X5080Y9271D01*
G01X5080Y10287D01*
G01X5080Y11811D01*
G01X5080Y12319D01*
G01X5588Y12319D01*
G01X7112Y12319D01*
G01X8128Y12319D01*
G01X8382Y12319D01*
G54D10*
G01X43815Y11430D02*
G01X43815Y0D01*
G01X51435Y0D01*
G01X51435Y11430D01*
G01X43815Y11430D01*
G01X43815Y22860D02*
G01X43815Y11430D01*
G01X51435Y11430D01*
G01X51435Y22860D01*
G01X43815Y22860D01*
G01X33830Y7444D02*
G01X39829Y7444D01*
G01X33830Y1445D02*
G01X39829Y1445D01*
G01X33830Y7444D02*
G01X33830Y1445D01*
G01X39829Y7444D02*
G01X39829Y1445D01*
G01X33830Y15064D02*
G01X39829Y15064D01*
G01X33830Y9065D02*
G01X39829Y9065D01*
G01X33830Y15064D02*
G01X33830Y9065D01*
G01X39829Y15064D02*
G01X39829Y9065D01*
G01X20474Y4914D02*
G01X20474Y6514D01*
G01X23975Y4914D02*
G01X23975Y6515D01*
G01X21725Y6755D02*
G01X20675Y6755D01*
G01X21725Y4674D02*
G01X20675Y4674D01*
G01X22724Y6755D02*
G01X23774Y6755D01*
G01X22724Y4674D02*
G01X23774Y4674D01*
G01X23975Y4895D02*
G01X23975Y4914D01*
G01X23975Y4875D02*
G01X23975Y4914D01*
G01X23975Y6554D02*
G01X23975Y6515D01*
G01X20474Y4875D02*
G01X20474Y4914D01*
G01X20474Y6554D02*
G01X20474Y6514D01*
G54D32*
G01X635Y12319D02*
G01X3175Y12319D01*
G01X3175Y2159D01*
G01X635Y2159D01*
G01X635Y4064D01*
G54D33*
G01X635Y12319D02*
G01X635Y4064D01*
G54D34*
G01X17780Y19067D02*
G01X17837Y19096D01*
G01X17924Y19182D01*
G01X17924Y18576D01*
G01X18288Y19182D02*
G01X18201Y19153D01*
G01X18143Y19067D01*
G01X18114Y18923D01*
G01X18114Y18836D01*
G01X18143Y18692D01*
G01X18201Y18605D01*
G01X18288Y18576D01*
G01X18345Y18576D01*
G01X18432Y18605D01*
G01X18490Y18692D01*
G01X18518Y18836D01*
G01X18518Y18923D01*
G01X18490Y19067D01*
G01X18432Y19153D01*
G01X18345Y19182D01*
G01X18288Y19182D01*
G01X18882Y19182D02*
G01X18796Y19153D01*
G01X18738Y19067D01*
G01X18709Y18923D01*
G01X18709Y18836D01*
G01X18738Y18692D01*
G01X18796Y18605D01*
G01X18882Y18576D01*
G01X18940Y18576D01*
G01X19026Y18605D01*
G01X19084Y18692D01*
G01X19113Y18836D01*
G01X19113Y18923D01*
G01X19084Y19067D01*
G01X19026Y19153D01*
G01X18940Y19182D01*
G01X18882Y19182D01*
G01X19304Y18980D02*
G01X19304Y18576D01*
G01X19304Y18865D02*
G01X19390Y18951D01*
G01X19448Y18980D01*
G01X19534Y18980D01*
G01X19592Y18951D01*
G01X19621Y18865D01*
G01X19621Y18576D01*
G01X19812Y19182D02*
G01X19812Y18576D01*
G01X19812Y19182D02*
G01X20187Y19182D01*
G01X19812Y18894D02*
G01X20042Y18894D01*
G01X13604Y19075D02*
G01X13662Y19103D01*
G01X13749Y19189D01*
G01X13749Y18585D01*
G01X14112Y19189D02*
G01X14025Y19161D01*
G01X13967Y19075D01*
G01X13939Y18930D01*
G01X13939Y18844D01*
G01X13967Y18699D01*
G01X14025Y18613D01*
G01X14112Y18585D01*
G01X14170Y18585D01*
G01X14257Y18613D01*
G01X14315Y18699D01*
G01X14343Y18844D01*
G01X14343Y18930D01*
G01X14315Y19075D01*
G01X14257Y19161D01*
G01X14170Y19189D01*
G01X14112Y19189D01*
G01X14533Y18989D02*
G01X14533Y18699D01*
G01X14561Y18613D01*
G01X14620Y18585D01*
G01X14706Y18585D01*
G01X14765Y18613D01*
G01X14851Y18699D01*
G01X14851Y18989D02*
G01X14851Y18585D01*
G01X15041Y19189D02*
G01X15041Y18585D01*
G01X15041Y19189D02*
G01X15417Y19189D01*
G01X15041Y18902D02*
G01X15273Y18902D01*
G01X17780Y10939D02*
G01X17838Y10967D01*
G01X17924Y11054D01*
G01X17924Y10449D01*
G01X18288Y11054D02*
G01X18201Y11026D01*
G01X18143Y10939D01*
G01X18115Y10795D01*
G01X18115Y10708D01*
G01X18143Y10563D01*
G01X18201Y10477D01*
G01X18288Y10449D01*
G01X18346Y10449D01*
G01X18432Y10477D01*
G01X18491Y10563D01*
G01X18519Y10708D01*
G01X18519Y10795D01*
G01X18491Y10939D01*
G01X18432Y11026D01*
G01X18346Y11054D01*
G01X18288Y11054D01*
G01X18709Y11054D02*
G01X18709Y10449D01*
G01X18999Y10853D02*
G01X18709Y10563D01*
G01X18823Y10680D02*
G01X19027Y10449D01*
G01X17780Y7891D02*
G01X17838Y7919D01*
G01X17924Y8006D01*
G01X17924Y7401D01*
G01X18288Y8006D02*
G01X18201Y7978D01*
G01X18143Y7891D01*
G01X18115Y7747D01*
G01X18115Y7660D01*
G01X18143Y7515D01*
G01X18201Y7429D01*
G01X18288Y7401D01*
G01X18346Y7401D01*
G01X18432Y7429D01*
G01X18491Y7515D01*
G01X18519Y7660D01*
G01X18519Y7747D01*
G01X18491Y7891D01*
G01X18432Y7978D01*
G01X18346Y8006D01*
G01X18288Y8006D01*
G01X18709Y8006D02*
G01X18709Y7401D01*
G01X18999Y7805D02*
G01X18709Y7515D01*
G01X18823Y7632D02*
G01X19027Y7401D01*
G01X17780Y4716D02*
G01X17838Y4744D01*
G01X17924Y4831D01*
G01X17924Y4226D01*
G01X18288Y4831D02*
G01X18201Y4803D01*
G01X18143Y4716D01*
G01X18115Y4572D01*
G01X18115Y4485D01*
G01X18143Y4340D01*
G01X18201Y4254D01*
G01X18288Y4226D01*
G01X18346Y4226D01*
G01X18432Y4254D01*
G01X18491Y4340D01*
G01X18519Y4485D01*
G01X18519Y4572D01*
G01X18491Y4716D01*
G01X18432Y4803D01*
G01X18346Y4831D01*
G01X18288Y4831D01*
G01X18709Y4831D02*
G01X18709Y4226D01*
G01X18999Y4630D02*
G01X18709Y4340D01*
G01X18823Y4457D02*
G01X19027Y4226D01*
G01X24765Y11066D02*
G01X24823Y11094D01*
G01X24909Y11181D01*
G01X24909Y10576D01*
G01X25273Y11181D02*
G01X25186Y11153D01*
G01X25128Y11066D01*
G01X25100Y10922D01*
G01X25100Y10835D01*
G01X25128Y10690D01*
G01X25186Y10604D01*
G01X25273Y10576D01*
G01X25331Y10576D01*
G01X25417Y10604D01*
G01X25476Y10690D01*
G01X25504Y10835D01*
G01X25504Y10922D01*
G01X25476Y11066D01*
G01X25417Y11153D01*
G01X25331Y11181D01*
G01X25273Y11181D01*
G01X25694Y11181D02*
G01X25694Y10576D01*
G01X25984Y10980D02*
G01X25694Y10690D01*
G01X25808Y10807D02*
G01X26012Y10576D01*
G01X24765Y7891D02*
G01X24823Y7919D01*
G01X24909Y8006D01*
G01X24909Y7401D01*
G01X25273Y8006D02*
G01X25186Y7978D01*
G01X25128Y7891D01*
G01X25100Y7747D01*
G01X25100Y7660D01*
G01X25128Y7515D01*
G01X25186Y7429D01*
G01X25273Y7401D01*
G01X25331Y7401D01*
G01X25417Y7429D01*
G01X25476Y7515D01*
G01X25504Y7660D01*
G01X25504Y7747D01*
G01X25476Y7891D01*
G01X25417Y7978D01*
G01X25331Y8006D01*
G01X25273Y8006D01*
G01X25694Y8006D02*
G01X25694Y7401D01*
G01X25984Y7805D02*
G01X25694Y7515D01*
G01X25808Y7632D02*
G01X26012Y7401D01*
G01X18690Y934D02*
G01X18634Y993D01*
G01X18548Y1021D01*
G01X18431Y1021D01*
G01X18345Y993D01*
G01X18286Y934D01*
G01X18286Y876D01*
G01X18317Y820D01*
G01X18345Y789D01*
G01X18403Y762D01*
G01X18576Y703D01*
G01X18634Y675D01*
G01X18662Y647D01*
G01X18690Y589D01*
G01X18690Y502D01*
G01X18634Y444D01*
G01X18548Y416D01*
G01X18431Y416D01*
G01X18345Y444D01*
G01X18286Y502D01*
G01X18881Y1021D02*
G01X18881Y416D01*
G01X18881Y1021D02*
G01X19287Y416D01*
G01X19287Y1021D02*
G01X19287Y416D01*
G01X19882Y1021D02*
G01X19592Y416D01*
G01X19478Y1021D02*
G01X19882Y1021D01*
G01X20359Y1021D02*
G01X20072Y617D01*
G01X20504Y617D01*
G01X20359Y1021D02*
G01X20359Y416D01*
G01X20926Y1021D02*
G01X20694Y416D01*
G01X20926Y1021D02*
G01X21157Y416D01*
G01X20781Y617D02*
G01X21070Y617D01*
G01X21347Y1021D02*
G01X21347Y589D01*
G01X21375Y502D01*
G01X21434Y444D01*
G01X21520Y416D01*
G01X21578Y416D01*
G01X21665Y444D01*
G01X21723Y502D01*
G01X21751Y589D01*
G01X21751Y1021D01*
G01X21942Y1021D02*
G01X21942Y416D01*
G01X21942Y1021D02*
G01X22201Y1021D01*
G01X22287Y993D01*
G01X22317Y965D01*
G01X22345Y906D01*
G01X22345Y820D01*
G01X22317Y762D01*
G01X22287Y734D01*
G01X22201Y703D01*
G01X21942Y703D01*
G01X22564Y876D02*
G01X22564Y906D01*
G01X22594Y965D01*
G01X22622Y993D01*
G01X22681Y1021D01*
G01X22795Y1021D01*
G01X22853Y993D01*
G01X22881Y965D01*
G01X22912Y906D01*
G01X22912Y848D01*
G01X22881Y789D01*
G01X22825Y703D01*
G01X22536Y416D01*
G01X22940Y416D01*
G01X23565Y876D02*
G01X23534Y934D01*
G01X23478Y993D01*
G01X23420Y1021D01*
G01X23303Y1021D01*
G01X23247Y993D01*
G01X23189Y934D01*
G01X23161Y876D01*
G01X23130Y789D01*
G01X23130Y647D01*
G01X23161Y558D01*
G01X23189Y502D01*
G01X23247Y444D01*
G01X23303Y416D01*
G01X23420Y416D01*
G01X23478Y444D01*
G01X23534Y502D01*
G01X23565Y558D01*
G01X23565Y647D01*
G01X23420Y647D02*
G01X23565Y647D01*
G01X23755Y906D02*
G01X23811Y934D01*
G01X23897Y1021D01*
G01X23897Y416D01*
G01X24377Y1021D02*
G01X24088Y617D01*
G01X24522Y617D01*
G01X24377Y1021D02*
G01X24377Y416D01*
G01X24713Y1021D02*
G01X24713Y416D01*
G01X24713Y1021D02*
G01X24913Y1021D01*
G01X25002Y993D01*
G01X25058Y934D01*
G01X25089Y876D01*
G01X25117Y789D01*
G01X25117Y647D01*
G01X25089Y558D01*
G01X25058Y502D01*
G01X25002Y444D01*
G01X24913Y416D01*
G01X24713Y416D01*
G01X25739Y876D02*
G01X25711Y934D01*
G01X25652Y993D01*
G01X25597Y1021D01*
G01X25480Y1021D01*
G01X25421Y993D01*
G01X25365Y934D01*
G01X25335Y876D01*
G01X25307Y789D01*
G01X25307Y647D01*
G01X25335Y558D01*
G01X25365Y502D01*
G01X25421Y444D01*
G01X25480Y416D01*
G01X25597Y416D01*
G01X25652Y444D01*
G01X25711Y502D01*
G01X25739Y558D01*
G01X25929Y1021D02*
G01X25929Y416D01*
G01X26336Y1021D02*
G01X25929Y617D01*
G01X26074Y762D02*
G01X26336Y416D01*
G01X26526Y1021D02*
G01X26526Y416D01*
G01X26526Y1021D02*
G01X26785Y1021D01*
G01X26872Y993D01*
G01X26900Y965D01*
G01X26930Y906D01*
G01X26930Y848D01*
G01X26900Y789D01*
G01X26872Y762D01*
G01X26785Y734D01*
G01X26526Y734D01*
G01X26727Y734D02*
G01X26930Y416D01*
G01X7366Y894D02*
G01X7366Y289D01*
G01X7366Y894D02*
G01X7741Y894D01*
G01X7366Y607D02*
G01X7597Y607D01*
G01X7366Y289D02*
G01X7741Y289D01*
G01X8336Y807D02*
G01X8277Y866D01*
G01X8191Y894D01*
G01X8077Y894D01*
G01X7988Y866D01*
G01X7932Y807D01*
G01X7932Y749D01*
G01X7960Y693D01*
G01X7988Y662D01*
G01X8046Y635D01*
G01X8219Y576D01*
G01X8277Y548D01*
G01X8305Y520D01*
G01X8336Y462D01*
G01X8336Y375D01*
G01X8277Y317D01*
G01X8191Y289D01*
G01X8077Y289D01*
G01X7988Y317D01*
G01X7932Y375D01*
G01X8526Y894D02*
G01X8526Y289D01*
G01X8526Y894D02*
G01X8785Y894D01*
G01X8872Y866D01*
G01X8902Y838D01*
G01X8930Y779D01*
G01X8930Y693D01*
G01X8902Y635D01*
G01X8872Y607D01*
G01X8785Y576D01*
G01X8526Y576D01*
G01X9265Y894D02*
G01X9179Y866D01*
G01X9149Y807D01*
G01X9149Y749D01*
G01X9179Y693D01*
G01X9235Y662D01*
G01X9352Y635D01*
G01X9438Y607D01*
G01X9497Y548D01*
G01X9525Y490D01*
G01X9525Y403D01*
G01X9497Y345D01*
G01X9466Y317D01*
G01X9380Y289D01*
G01X9265Y289D01*
G01X9179Y317D01*
G01X9149Y345D01*
G01X9121Y403D01*
G01X9121Y490D01*
G01X9149Y548D01*
G01X9207Y607D01*
G01X9293Y635D01*
G01X9410Y662D01*
G01X9466Y693D01*
G01X9497Y749D01*
G01X9497Y807D01*
G01X9466Y866D01*
G01X9380Y894D01*
G01X9265Y894D01*
G01X9743Y749D02*
G01X9743Y779D01*
G01X9773Y838D01*
G01X9801Y866D01*
G01X9860Y894D01*
G01X9974Y894D01*
G01X10033Y866D01*
G01X10060Y838D01*
G01X10091Y779D01*
G01X10091Y721D01*
G01X10060Y662D01*
G01X10005Y576D01*
G01X9715Y289D01*
G01X10119Y289D01*
G01X10655Y807D02*
G01X10627Y866D01*
G01X10541Y894D01*
G01X10482Y894D01*
G01X10396Y866D01*
G01X10337Y779D01*
G01X10309Y635D01*
G01X10309Y490D01*
G01X10337Y375D01*
G01X10396Y317D01*
G01X10482Y289D01*
G01X10513Y289D01*
G01X10599Y317D01*
G01X10655Y375D01*
G01X10685Y462D01*
G01X10685Y490D01*
G01X10655Y576D01*
G01X10599Y635D01*
G01X10513Y662D01*
G01X10482Y662D01*
G01X10396Y635D01*
G01X10337Y576D01*
G01X10309Y490D01*
G01X11221Y807D02*
G01X11193Y866D01*
G01X11107Y894D01*
G01X11049Y894D01*
G01X10962Y866D01*
G01X10904Y779D01*
G01X10876Y635D01*
G01X10876Y490D01*
G01X10904Y375D01*
G01X10962Y317D01*
G01X11049Y289D01*
G01X11076Y289D01*
G01X11163Y317D01*
G01X11221Y375D01*
G01X11252Y462D01*
G01X11252Y490D01*
G01X11221Y576D01*
G01X11163Y635D01*
G01X11076Y662D01*
G01X11049Y662D01*
G01X10962Y635D01*
G01X10904Y576D01*
G01X10876Y490D01*
G01X11442Y548D02*
G01X11960Y548D01*
G01X12324Y894D02*
G01X12237Y866D01*
G01X12179Y779D01*
G01X12151Y635D01*
G01X12151Y548D01*
G01X12179Y403D01*
G01X12237Y317D01*
G01X12324Y289D01*
G01X12382Y289D01*
G01X12468Y317D01*
G01X12527Y403D01*
G01X12555Y548D01*
G01X12555Y635D01*
G01X12527Y779D01*
G01X12468Y866D01*
G01X12382Y894D01*
G01X12324Y894D01*
G01X12745Y779D02*
G01X12804Y807D01*
G01X12890Y894D01*
G01X12890Y289D01*
G01X39301Y16769D02*
G01X39618Y16769D01*
G01X39446Y16537D01*
G01X39532Y16537D01*
G01X39588Y16510D01*
G01X39618Y16482D01*
G01X39646Y16395D01*
G01X39646Y16337D01*
G01X39618Y16250D01*
G01X39560Y16192D01*
G01X39474Y16164D01*
G01X39387Y16164D01*
G01X39301Y16192D01*
G01X39270Y16220D01*
G01X39243Y16278D01*
G01X40010Y16769D02*
G01X39923Y16741D01*
G01X39865Y16654D01*
G01X39837Y16510D01*
G01X39837Y16423D01*
G01X39865Y16278D01*
G01X39923Y16192D01*
G01X40010Y16164D01*
G01X40068Y16164D01*
G01X40154Y16192D01*
G01X40213Y16278D01*
G01X40241Y16423D01*
G01X40241Y16510D01*
G01X40213Y16654D01*
G01X40154Y16741D01*
G01X40068Y16769D01*
G01X40010Y16769D01*
G01X40604Y16769D02*
G01X40518Y16741D01*
G01X40462Y16654D01*
G01X40431Y16510D01*
G01X40431Y16423D01*
G01X40462Y16278D01*
G01X40518Y16192D01*
G01X40604Y16164D01*
G01X40662Y16164D01*
G01X40749Y16192D01*
G01X40807Y16278D01*
G01X40835Y16423D01*
G01X40835Y16510D01*
G01X40807Y16654D01*
G01X40749Y16741D01*
G01X40662Y16769D01*
G01X40604Y16769D01*
G01X28506Y16769D02*
G01X28823Y16769D01*
G01X28651Y16537D01*
G01X28737Y16537D01*
G01X28793Y16510D01*
G01X28823Y16482D01*
G01X28851Y16395D01*
G01X28851Y16337D01*
G01X28823Y16250D01*
G01X28765Y16192D01*
G01X28679Y16164D01*
G01X28592Y16164D01*
G01X28506Y16192D01*
G01X28475Y16220D01*
G01X28448Y16278D01*
G01X29215Y16769D02*
G01X29128Y16741D01*
G01X29070Y16654D01*
G01X29042Y16510D01*
G01X29042Y16423D01*
G01X29070Y16278D01*
G01X29128Y16192D01*
G01X29215Y16164D01*
G01X29273Y16164D01*
G01X29359Y16192D01*
G01X29418Y16278D01*
G01X29446Y16423D01*
G01X29446Y16510D01*
G01X29418Y16654D01*
G01X29359Y16741D01*
G01X29273Y16769D01*
G01X29215Y16769D01*
G01X29809Y16769D02*
G01X29723Y16741D01*
G01X29667Y16654D01*
G01X29636Y16510D01*
G01X29636Y16423D01*
G01X29667Y16278D01*
G01X29723Y16192D01*
G01X29809Y16164D01*
G01X29867Y16164D01*
G01X29954Y16192D01*
G01X30012Y16278D01*
G01X30040Y16423D01*
G01X30040Y16510D01*
G01X30012Y16654D01*
G01X29954Y16741D01*
G01X29867Y16769D01*
G01X29809Y16769D01*
G01X35560Y1021D02*
G01X35560Y416D01*
G01X35560Y1021D02*
G01X35819Y1021D01*
G01X35905Y993D01*
G01X35935Y965D01*
G01X35963Y906D01*
G01X35963Y848D01*
G01X35935Y789D01*
G01X35905Y762D01*
G01X35819Y734D01*
G01X35560Y734D01*
G01X35763Y734D02*
G01X35963Y416D01*
G01X36154Y1021D02*
G01X36154Y416D01*
G01X36154Y1021D02*
G01X36530Y1021D01*
G01X36154Y734D02*
G01X36385Y734D01*
G01X36154Y416D02*
G01X36530Y416D01*
G01X37124Y934D02*
G01X37066Y993D01*
G01X36979Y1021D01*
G01X36865Y1021D01*
G01X36779Y993D01*
G01X36720Y934D01*
G01X36720Y876D01*
G01X36748Y820D01*
G01X36779Y789D01*
G01X36835Y762D01*
G01X37007Y703D01*
G01X37066Y675D01*
G01X37096Y647D01*
G01X37124Y589D01*
G01X37124Y502D01*
G01X37066Y444D01*
G01X36979Y416D01*
G01X36865Y416D01*
G01X36779Y444D01*
G01X36720Y502D01*
G01X37315Y1021D02*
G01X37315Y416D01*
G01X37315Y1021D02*
G01X37691Y1021D01*
G01X37315Y734D02*
G01X37546Y734D01*
G01X37315Y416D02*
G01X37691Y416D01*
G01X38082Y1021D02*
G01X38082Y416D01*
G01X37881Y1021D02*
G01X38285Y1021D01*
G01X32893Y8768D02*
G01X32893Y8163D01*
G01X32893Y8768D02*
G01X33152Y8768D01*
G01X33238Y8740D01*
G01X33268Y8712D01*
G01X33296Y8653D01*
G01X33296Y8567D01*
G01X33268Y8509D01*
G01X33238Y8481D01*
G01X33152Y8450D01*
G01X32893Y8450D01*
G01X33487Y8567D02*
G01X33487Y8163D01*
G01X33487Y8394D02*
G01X33515Y8481D01*
G01X33573Y8536D01*
G01X33632Y8567D01*
G01X33718Y8567D01*
G01X34053Y8567D02*
G01X33995Y8536D01*
G01X33936Y8481D01*
G01X33909Y8394D01*
G01X33909Y8336D01*
G01X33936Y8249D01*
G01X33995Y8191D01*
G01X34053Y8163D01*
G01X34140Y8163D01*
G01X34198Y8191D01*
G01X34254Y8249D01*
G01X34284Y8336D01*
G01X34284Y8394D01*
G01X34254Y8481D01*
G01X34198Y8536D01*
G01X34140Y8567D01*
G01X34053Y8567D01*
G01X34820Y8567D02*
G01X34820Y8105D01*
G01X34792Y8018D01*
G01X34762Y7988D01*
G01X34706Y7960D01*
G01X34620Y7960D01*
G01X34561Y7988D01*
G01X34820Y8481D02*
G01X34762Y8536D01*
G01X34706Y8567D01*
G01X34620Y8567D01*
G01X34561Y8536D01*
G01X34503Y8481D01*
G01X34475Y8394D01*
G01X34475Y8336D01*
G01X34503Y8249D01*
G01X34561Y8191D01*
G01X34620Y8163D01*
G01X34706Y8163D01*
G01X34762Y8191D01*
G01X34820Y8249D01*
G01X35011Y8567D02*
G01X35011Y8163D01*
G01X35011Y8394D02*
G01X35039Y8481D01*
G01X35097Y8536D01*
G01X35156Y8567D01*
G01X35242Y8567D01*
G01X35778Y8567D02*
G01X35778Y8163D01*
G01X35778Y8481D02*
G01X35722Y8536D01*
G01X35664Y8567D01*
G01X35577Y8567D01*
G01X35519Y8536D01*
G01X35460Y8481D01*
G01X35433Y8394D01*
G01X35433Y8336D01*
G01X35460Y8249D01*
G01X35519Y8191D01*
G01X35577Y8163D01*
G01X35664Y8163D01*
G01X35722Y8191D01*
G01X35778Y8249D01*
G01X35968Y8567D02*
G01X35968Y8163D01*
G01X35968Y8450D02*
G01X36055Y8536D01*
G01X36113Y8567D01*
G01X36200Y8567D01*
G01X36258Y8536D01*
G01X36286Y8450D01*
G01X36286Y8163D01*
G01X36286Y8450D02*
G01X36372Y8536D01*
G01X36431Y8567D01*
G01X36517Y8567D01*
G01X36576Y8536D01*
G01X36603Y8450D01*
G01X36603Y8163D01*
G01X36794Y8567D02*
G01X36794Y8163D01*
G01X36794Y8450D02*
G01X36880Y8536D01*
G01X36939Y8567D01*
G01X37025Y8567D01*
G01X37084Y8536D01*
G01X37111Y8450D01*
G01X37111Y8163D01*
G01X37111Y8450D02*
G01X37198Y8536D01*
G01X37256Y8567D01*
G01X37343Y8567D01*
G01X37401Y8536D01*
G01X37429Y8450D01*
G01X37429Y8163D01*
G01X37619Y8768D02*
G01X37650Y8740D01*
G01X37678Y8768D01*
G01X37650Y8798D01*
G01X37619Y8768D01*
G01X37650Y8567D02*
G01X37650Y8163D01*
G01X37868Y8567D02*
G01X37868Y8163D01*
G01X37868Y8450D02*
G01X37955Y8536D01*
G01X38013Y8567D01*
G01X38100Y8567D01*
G01X38158Y8536D01*
G01X38186Y8450D01*
G01X38186Y8163D01*
G01X38722Y8567D02*
G01X38722Y8105D01*
G01X38694Y8018D01*
G01X38666Y7988D01*
G01X38608Y7960D01*
G01X38521Y7960D01*
G01X38463Y7988D01*
G01X38722Y8481D02*
G01X38666Y8536D01*
G01X38608Y8567D01*
G01X38521Y8567D01*
G01X38463Y8536D01*
G01X38404Y8481D01*
G01X38376Y8394D01*
G01X38376Y8336D01*
G01X38404Y8249D01*
G01X38463Y8191D01*
G01X38521Y8163D01*
G01X38608Y8163D01*
G01X38666Y8191D01*
G01X38722Y8249D01*
G01X39357Y8768D02*
G01X39357Y8163D01*
G01X39357Y8768D02*
G01X39588Y8163D01*
G01X39819Y8768D02*
G01X39588Y8163D01*
G01X39819Y8768D02*
G01X39819Y8163D01*
G01X40154Y8567D02*
G01X40096Y8536D01*
G01X40040Y8481D01*
G01X40010Y8394D01*
G01X40010Y8336D01*
G01X40040Y8249D01*
G01X40096Y8191D01*
G01X40154Y8163D01*
G01X40241Y8163D01*
G01X40299Y8191D01*
G01X40358Y8249D01*
G01X40386Y8336D01*
G01X40386Y8394D01*
G01X40358Y8481D01*
G01X40299Y8536D01*
G01X40241Y8567D01*
G01X40154Y8567D01*
G01X40921Y8768D02*
G01X40921Y8163D01*
G01X40921Y8481D02*
G01X40866Y8536D01*
G01X40807Y8567D01*
G01X40721Y8567D01*
G01X40662Y8536D01*
G01X40604Y8481D01*
G01X40576Y8394D01*
G01X40576Y8336D01*
G01X40604Y8249D01*
G01X40662Y8191D01*
G01X40721Y8163D01*
G01X40807Y8163D01*
G01X40866Y8191D01*
G01X40921Y8249D01*
G01X41112Y8394D02*
G01X41460Y8394D01*
G01X41460Y8450D01*
G01X41429Y8509D01*
G01X41402Y8536D01*
G01X41343Y8567D01*
G01X41257Y8567D01*
G01X41198Y8536D01*
G01X41142Y8481D01*
G01X41112Y8394D01*
G01X41112Y8336D01*
G01X41142Y8249D01*
G01X41198Y8191D01*
G01X41257Y8163D01*
G01X41343Y8163D01*
G01X41402Y8191D01*
G01X41460Y8249D01*
G01X24660Y4871D02*
G01X24602Y4930D01*
G01X24516Y4958D01*
G01X24401Y4958D01*
G01X24315Y4930D01*
G01X24257Y4871D01*
G01X24257Y4813D01*
G01X24284Y4757D01*
G01X24315Y4726D01*
G01X24371Y4699D01*
G01X24546Y4640D01*
G01X24602Y4612D01*
G01X24632Y4584D01*
G01X24660Y4526D01*
G01X24660Y4439D01*
G01X24602Y4381D01*
G01X24516Y4353D01*
G01X24401Y4353D01*
G01X24315Y4381D01*
G01X24257Y4439D01*
G01X24851Y4958D02*
G01X24851Y4353D01*
G01X25140Y4757D02*
G01X24851Y4467D01*
G01X24968Y4584D02*
G01X25168Y4353D01*
G01X25359Y4958D02*
G01X25387Y4930D01*
G01X25417Y4958D01*
G01X25387Y4988D01*
G01X25359Y4958D01*
G01X25387Y4757D02*
G01X25387Y4353D01*
G01X25608Y4757D02*
G01X25608Y4150D01*
G01X25608Y4671D02*
G01X25666Y4726D01*
G01X25722Y4757D01*
G01X25808Y4757D01*
G01X25867Y4726D01*
G01X25925Y4671D01*
G01X25953Y4584D01*
G01X25953Y4526D01*
G01X25925Y4439D01*
G01X25867Y4381D01*
G01X25808Y4353D01*
G01X25722Y4353D01*
G01X25666Y4381D01*
G01X25608Y4439D01*
G01X26461Y4671D02*
G01X26433Y4726D01*
G01X26347Y4757D01*
G01X26261Y4757D01*
G01X26174Y4726D01*
G01X26144Y4671D01*
G01X26174Y4612D01*
G01X26230Y4584D01*
G01X26375Y4554D01*
G01X26433Y4526D01*
G01X26461Y4467D01*
G01X26461Y4439D01*
G01X26433Y4381D01*
G01X26347Y4353D01*
G01X26261Y4353D01*
G01X26174Y4381D01*
G01X26144Y4439D01*
G01X27096Y4958D02*
G01X27096Y4526D01*
G01X27127Y4439D01*
G01X27183Y4381D01*
G01X27269Y4353D01*
G01X27327Y4353D01*
G01X27414Y4381D01*
G01X27472Y4439D01*
G01X27500Y4526D01*
G01X27500Y4958D01*
G01X27749Y4958D02*
G01X28067Y4958D01*
G01X27894Y4726D01*
G01X27980Y4726D01*
G01X28039Y4699D01*
G01X28067Y4671D01*
G01X28094Y4584D01*
G01X28094Y4526D01*
G01X28067Y4439D01*
G01X28008Y4381D01*
G01X27922Y4353D01*
G01X27835Y4353D01*
G01X27749Y4381D01*
G01X27721Y4409D01*
G01X27691Y4467D01*
G01X3924Y11379D02*
G01X3982Y11407D01*
G01X4041Y11465D01*
G01X4069Y11521D01*
G01X4069Y11638D01*
G01X4041Y11696D01*
G01X3982Y11752D01*
G01X3924Y11783D01*
G01X3837Y11811D01*
G01X3695Y11811D01*
G01X3606Y11783D01*
G01X3550Y11752D01*
G01X3492Y11696D01*
G01X3464Y11638D01*
G01X3464Y11521D01*
G01X3492Y11465D01*
G01X3550Y11407D01*
G01X3606Y11379D01*
G01X3695Y11379D01*
G01X3695Y11521D02*
G01X3695Y11379D01*
G01X4069Y11188D02*
G01X3464Y11188D01*
G01X4069Y11188D02*
G01X3464Y10782D01*
G01X4069Y10782D02*
G01X3464Y10782D01*
G01X4069Y10591D02*
G01X3464Y10591D01*
G01X4069Y10591D02*
G01X4069Y10391D01*
G01X4041Y10304D01*
G01X3982Y10246D01*
G01X3924Y10218D01*
G01X3837Y10187D01*
G01X3695Y10187D01*
G01X3606Y10218D01*
G01X3550Y10246D01*
G01X3492Y10304D01*
G01X3464Y10391D01*
G01X3464Y10591D01*
G01X4069Y4132D02*
G01X4069Y3815D01*
G01X3837Y3987D01*
G01X3837Y3901D01*
G01X3810Y3845D01*
G01X3782Y3815D01*
G01X3695Y3787D01*
G01X3637Y3787D01*
G01X3550Y3815D01*
G01X3492Y3873D01*
G01X3464Y3959D01*
G01X3464Y4046D01*
G01X3492Y4132D01*
G01X3520Y4163D01*
G01X3578Y4191D01*
G01X4069Y3596D02*
G01X3464Y3365D01*
G01X4069Y3134D02*
G01X3464Y3365D01*
G01X4069Y2885D02*
G01X4069Y2567D01*
G01X3837Y2743D01*
G01X3837Y2654D01*
G01X3810Y2598D01*
G01X3782Y2567D01*
G01X3695Y2540D01*
G01X3637Y2540D01*
G01X3550Y2567D01*
G01X3492Y2626D01*
G01X3464Y2712D01*
G01X3464Y2799D01*
G01X3492Y2885D01*
G01X3520Y2915D01*
G01X3578Y2943D01*
G01X4069Y8813D02*
G01X3464Y8813D01*
G01X4069Y9017D02*
G01X4069Y8613D01*
G01X4069Y8422D02*
G01X3464Y8018D01*
G01X4069Y8018D02*
G01X3464Y8422D01*
G01X4069Y6350D02*
G01X3464Y6350D01*
G01X4069Y6350D02*
G01X4069Y6090D01*
G01X4041Y6004D01*
G01X4013Y5974D01*
G01X3954Y5946D01*
G01X3896Y5946D01*
G01X3837Y5974D01*
G01X3810Y6004D01*
G01X3782Y6090D01*
G01X3782Y6350D01*
G01X3782Y6146D02*
G01X3464Y5946D01*
G01X4069Y5755D02*
G01X3464Y5351D01*
G01X4069Y5351D02*
G01X3464Y5755D01*
G54D35*
G01X6349Y19949D02*
G01X6349Y18857D01*
G01X6349Y19949D02*
G01X6712Y19949D01*
G01X6870Y19896D01*
G01X6974Y19794D01*
G01X7025Y19690D01*
G01X7076Y19533D01*
G01X7076Y19274D01*
G01X7025Y19119D01*
G01X6974Y19014D01*
G01X6870Y18910D01*
G01X6712Y18857D01*
G01X6349Y18857D01*
G01X8198Y19690D02*
G01X8148Y19794D01*
G01X8043Y19896D01*
G01X7939Y19949D01*
G01X7731Y19949D01*
G01X7627Y19896D01*
G01X7523Y19794D01*
G01X7472Y19690D01*
G01X7419Y19533D01*
G01X7419Y19274D01*
G01X7472Y19119D01*
G01X7523Y19014D01*
G01X7627Y18910D01*
G01X7731Y18857D01*
G01X7939Y18857D01*
G01X8043Y18910D01*
G01X8148Y19014D01*
G01X8198Y19119D01*
G01X8541Y19741D02*
G01X8645Y19794D01*
G01X8803Y19949D01*
G01X8803Y18857D01*
G01X14114Y15499D02*
G01X14063Y15603D01*
G01X13959Y15707D01*
G01X13854Y15758D01*
G01X13646Y15758D01*
G01X13542Y15707D01*
G01X13438Y15603D01*
G01X13387Y15499D01*
G01X13334Y15341D01*
G01X13334Y15082D01*
G01X13387Y14927D01*
G01X13438Y14823D01*
G01X13542Y14719D01*
G01X13646Y14668D01*
G01X13854Y14668D01*
G01X13959Y14719D01*
G01X14063Y14823D01*
G01X14114Y14927D01*
G01X14510Y15499D02*
G01X14510Y15549D01*
G01X14561Y15654D01*
G01X14611Y15707D01*
G01X14715Y15758D01*
G01X14924Y15758D01*
G01X15028Y15707D01*
G01X15081Y15654D01*
G01X15132Y15549D01*
G01X15132Y15445D01*
G01X15081Y15341D01*
G01X14977Y15186D01*
G01X14456Y14668D01*
G01X15183Y14668D01*
G01X19194Y15499D02*
G01X19143Y15603D01*
G01X19039Y15707D01*
G01X18934Y15758D01*
G01X18726Y15758D01*
G01X18622Y15707D01*
G01X18518Y15603D01*
G01X18467Y15499D01*
G01X18414Y15341D01*
G01X18414Y15082D01*
G01X18467Y14927D01*
G01X18518Y14823D01*
G01X18622Y14719D01*
G01X18726Y14668D01*
G01X18934Y14668D01*
G01X19039Y14719D01*
G01X19143Y14823D01*
G01X19194Y14927D01*
G01X19536Y15549D02*
G01X19641Y15603D01*
G01X19795Y15758D01*
G01X19795Y14668D01*
G01X18415Y3058D02*
G01X18415Y2278D01*
G01X18466Y2123D01*
G01X18570Y2019D01*
G01X18727Y1968D01*
G01X18831Y1968D01*
G01X18986Y2019D01*
G01X19090Y2123D01*
G01X19141Y2278D01*
G01X19141Y3058D01*
G01X19588Y3058D02*
G01X20160Y3058D01*
G01X19847Y2641D01*
G01X20005Y2641D01*
G01X20109Y2590D01*
G01X20160Y2540D01*
G01X20213Y2382D01*
G01X20213Y2278D01*
G01X20160Y2123D01*
G01X20056Y2019D01*
G01X19901Y1968D01*
G01X19746Y1968D01*
G01X19588Y2019D01*
G01X19537Y2070D01*
G01X19484Y2174D01*
G01X39242Y18171D02*
G01X39242Y17081D01*
G01X39242Y18171D02*
G01X39709Y18171D01*
G01X39867Y18120D01*
G01X39917Y18067D01*
G01X39971Y17962D01*
G01X39971Y17858D01*
G01X39917Y17754D01*
G01X39867Y17703D01*
G01X39709Y17653D01*
G01X39242Y17653D01*
G01X39605Y17653D02*
G01X39971Y17081D01*
G01X40936Y18016D02*
G01X40885Y18120D01*
G01X40728Y18171D01*
G01X40623Y18171D01*
G01X40469Y18120D01*
G01X40364Y17962D01*
G01X40314Y17703D01*
G01X40314Y17444D01*
G01X40364Y17236D01*
G01X40469Y17132D01*
G01X40623Y17081D01*
G01X40677Y17081D01*
G01X40832Y17132D01*
G01X40936Y17236D01*
G01X40989Y17391D01*
G01X40989Y17444D01*
G01X40936Y17599D01*
G01X40832Y17703D01*
G01X40677Y17754D01*
G01X40623Y17754D01*
G01X40469Y17703D01*
G01X40364Y17599D01*
G01X40314Y17444D01*
G01X28447Y18171D02*
G01X28447Y17081D01*
G01X28447Y18171D02*
G01X28914Y18171D01*
G01X29072Y18120D01*
G01X29122Y18067D01*
G01X29176Y17962D01*
G01X29176Y17858D01*
G01X29122Y17754D01*
G01X29072Y17703D01*
G01X28914Y17653D01*
G01X28447Y17653D01*
G01X28810Y17653D02*
G01X29176Y17081D01*
G01X30245Y18171D02*
G01X29724Y17081D01*
G01X29519Y18171D02*
G01X30245Y18171D01*
G01X17779Y12583D02*
G01X17779Y11493D01*
G01X17779Y12583D02*
G01X18246Y12583D01*
G01X18404Y12532D01*
G01X18454Y12479D01*
G01X18508Y12374D01*
G01X18508Y12270D01*
G01X18454Y12166D01*
G01X18404Y12115D01*
G01X18246Y12065D01*
G01X17779Y12065D01*
G01X18142Y12065D02*
G01X18508Y11493D01*
G01X18851Y12374D02*
G01X18955Y12428D01*
G01X19110Y12583D01*
G01X19110Y11493D01*
G01X24764Y12583D02*
G01X24764Y11493D01*
G01X24764Y12583D02*
G01X25231Y12583D01*
G01X25389Y12532D01*
G01X25439Y12479D01*
G01X25493Y12374D01*
G01X25493Y12270D01*
G01X25439Y12166D01*
G01X25389Y12115D01*
G01X25231Y12065D01*
G01X24764Y12065D01*
G01X25127Y12065D02*
G01X25493Y11493D01*
G01X25886Y12324D02*
G01X25886Y12374D01*
G01X25940Y12479D01*
G01X25991Y12532D01*
G01X26095Y12583D01*
G01X26303Y12583D01*
G01X26407Y12532D01*
G01X26458Y12479D01*
G01X26511Y12374D01*
G01X26511Y12270D01*
G01X26458Y12166D01*
G01X26354Y12011D01*
G01X25836Y11493D01*
G01X26562Y11493D01*
G01X17779Y9408D02*
G01X17779Y8318D01*
G01X17779Y9408D02*
G01X18246Y9408D01*
G01X18404Y9357D01*
G01X18454Y9304D01*
G01X18508Y9199D01*
G01X18508Y9095D01*
G01X18454Y8991D01*
G01X18404Y8940D01*
G01X18246Y8890D01*
G01X17779Y8890D01*
G01X18142Y8890D02*
G01X18508Y8318D01*
G01X18955Y9408D02*
G01X19526Y9408D01*
G01X19214Y8991D01*
G01X19369Y8991D01*
G01X19473Y8940D01*
G01X19526Y8890D01*
G01X19577Y8732D01*
G01X19577Y8628D01*
G01X19526Y8473D01*
G01X19422Y8369D01*
G01X19265Y8318D01*
G01X19110Y8318D01*
G01X18955Y8369D01*
G01X18901Y8420D01*
G01X18851Y8524D01*
G01X24764Y9408D02*
G01X24764Y8318D01*
G01X24764Y9408D02*
G01X25231Y9408D01*
G01X25389Y9357D01*
G01X25439Y9304D01*
G01X25493Y9199D01*
G01X25493Y9095D01*
G01X25439Y8991D01*
G01X25389Y8940D01*
G01X25231Y8890D01*
G01X24764Y8890D01*
G01X25127Y8890D02*
G01X25493Y8318D01*
G01X26354Y9408D02*
G01X25836Y8681D01*
G01X26613Y8681D01*
G01X26354Y9408D02*
G01X26354Y8318D01*
G01X17779Y6233D02*
G01X17779Y5143D01*
G01X17779Y6233D02*
G01X18246Y6233D01*
G01X18404Y6182D01*
G01X18454Y6129D01*
G01X18508Y6024D01*
G01X18508Y5920D01*
G01X18454Y5816D01*
G01X18404Y5765D01*
G01X18246Y5715D01*
G01X17779Y5715D01*
G01X18142Y5715D02*
G01X18508Y5143D01*
G01X19473Y6233D02*
G01X18955Y6233D01*
G01X18901Y5765D01*
G01X18955Y5816D01*
G01X19110Y5869D01*
G01X19265Y5869D01*
G01X19422Y5816D01*
G01X19526Y5715D01*
G01X19577Y5557D01*
G01X19577Y5453D01*
G01X19526Y5298D01*
G01X19422Y5194D01*
G01X19265Y5143D01*
G01X19110Y5143D01*
G01X18955Y5194D01*
G01X18901Y5245D01*
G01X18851Y5349D01*
G01X5588Y1534D02*
G01X5588Y754D01*
G01X5638Y599D01*
G01X5742Y495D01*
G01X5900Y444D01*
G01X6004Y444D01*
G01X6159Y495D01*
G01X6263Y599D01*
G01X6314Y754D01*
G01X6314Y1534D01*
G01X6657Y1325D02*
G01X6761Y1379D01*
G01X6918Y1534D01*
G01X6918Y444D01*
G54D34*
G01X10848Y11264D02*
G01X10904Y11292D01*
G01X10962Y11351D01*
G01X10990Y11409D01*
G01X10990Y11523D01*
G01X10962Y11582D01*
G01X10904Y11640D01*
G01X10848Y11668D01*
G01X10759Y11696D01*
G01X10617Y11696D01*
G01X10530Y11668D01*
G01X10472Y11640D01*
G01X10414Y11582D01*
G01X10386Y11523D01*
G01X10386Y11409D01*
G01X10414Y11351D01*
G01X10472Y11292D01*
G01X10530Y11264D01*
G01X10617Y11264D01*
G01X10617Y11409D02*
G01X10617Y11264D01*
G01X10990Y11074D02*
G01X10386Y11074D01*
G01X10990Y11074D02*
G01X10386Y10670D01*
G01X10990Y10670D02*
G01X10386Y10670D01*
G01X10990Y10480D02*
G01X10386Y10480D01*
G01X10990Y10480D02*
G01X10990Y10276D01*
G01X10962Y10190D01*
G01X10904Y10134D01*
G01X10848Y10104D01*
G01X10759Y10076D01*
G01X10617Y10076D01*
G01X10530Y10104D01*
G01X10472Y10134D01*
G01X10414Y10190D01*
G01X10386Y10276D01*
G01X10386Y10480D01*
G01X11013Y9006D02*
G01X10408Y9006D01*
G01X11013Y8643D02*
G01X10985Y8702D01*
G01X10927Y8760D01*
G01X10871Y8788D01*
G01X10782Y8816D01*
G01X10640Y8816D01*
G01X10553Y8788D01*
G01X10495Y8760D01*
G01X10436Y8702D01*
G01X10408Y8643D01*
G01X10408Y8529D01*
G01X10436Y8470D01*
G01X10495Y8412D01*
G01X10553Y8384D01*
G01X10640Y8356D01*
G01X10782Y8356D01*
G01X10871Y8384D01*
G01X10927Y8412D01*
G01X10985Y8470D01*
G01X11013Y8529D01*
G01X11013Y8643D01*
G01X10871Y8135D02*
G01X10899Y8135D01*
G01X10957Y8107D01*
G01X10985Y8079D01*
G01X11013Y8021D01*
G01X11013Y7904D01*
G01X10985Y7848D01*
G01X10957Y7818D01*
G01X10899Y7790D01*
G01X10840Y7790D01*
G01X10782Y7818D01*
G01X10695Y7876D01*
G01X10408Y8166D01*
G01X10408Y7762D01*
G01X11013Y6466D02*
G01X10408Y6466D01*
G01X11013Y6103D02*
G01X10985Y6162D01*
G01X10927Y6220D01*
G01X10871Y6248D01*
G01X10782Y6276D01*
G01X10640Y6276D01*
G01X10553Y6248D01*
G01X10495Y6220D01*
G01X10436Y6162D01*
G01X10408Y6103D01*
G01X10408Y5989D01*
G01X10436Y5930D01*
G01X10495Y5872D01*
G01X10553Y5844D01*
G01X10640Y5816D01*
G01X10782Y5816D01*
G01X10871Y5844D01*
G01X10927Y5872D01*
G01X10985Y5930D01*
G01X11013Y5989D01*
G01X11013Y6103D01*
G01X11013Y5450D02*
G01X10985Y5539D01*
G01X10899Y5595D01*
G01X10754Y5626D01*
G01X10668Y5626D01*
G01X10523Y5595D01*
G01X10436Y5539D01*
G01X10408Y5450D01*
G01X10408Y5394D01*
G01X10436Y5308D01*
G01X10523Y5250D01*
G01X10668Y5222D01*
G01X10754Y5222D01*
G01X10899Y5250D01*
G01X10985Y5308D01*
G01X11013Y5394D01*
G01X11013Y5450D01*
G01X11013Y4191D02*
G01X10408Y4191D01*
G01X11013Y3827D02*
G01X10985Y3886D01*
G01X10927Y3942D01*
G01X10871Y3972D01*
G01X10782Y4000D01*
G01X10640Y4000D01*
G01X10553Y3972D01*
G01X10495Y3942D01*
G01X10436Y3886D01*
G01X10408Y3827D01*
G01X10408Y3710D01*
G01X10436Y3655D01*
G01X10495Y3596D01*
G01X10553Y3568D01*
G01X10640Y3538D01*
G01X10782Y3538D01*
G01X10871Y3568D01*
G01X10927Y3596D01*
G01X10985Y3655D01*
G01X11013Y3710D01*
G01X11013Y3827D01*
G01X11013Y3289D02*
G01X11013Y2971D01*
G01X10782Y3147D01*
G01X10782Y3060D01*
G01X10754Y3002D01*
G01X10726Y2971D01*
G01X10640Y2943D01*
G01X10581Y2943D01*
G01X10495Y2971D01*
G01X10436Y3030D01*
G01X10408Y3116D01*
G01X10408Y3202D01*
G01X10436Y3289D01*
G01X10464Y3319D01*
G01X10523Y3347D01*
G01X11130Y2235D02*
G01X10205Y2753D01*
G01X11013Y2044D02*
G01X10408Y2044D01*
G01X11013Y2044D02*
G01X11013Y1783D01*
G01X10985Y1696D01*
G01X10957Y1668D01*
G01X10899Y1638D01*
G01X10840Y1638D01*
G01X10782Y1668D01*
G01X10754Y1696D01*
G01X10726Y1783D01*
G01X10726Y2044D01*
G01X10726Y1841D02*
G01X10408Y1638D01*
G01X11013Y1447D02*
G01X10408Y1043D01*
G01X11013Y1043D02*
G01X10408Y1447D01*
G01X4917Y13335D02*
G01X4312Y13335D01*
G01X4917Y12971D02*
G01X4889Y13030D01*
G01X4831Y13086D01*
G01X4775Y13116D01*
G01X4686Y13144D01*
G01X4544Y13144D01*
G01X4457Y13116D01*
G01X4399Y13086D01*
G01X4340Y13030D01*
G01X4312Y12971D01*
G01X4312Y12854D01*
G01X4340Y12799D01*
G01X4399Y12740D01*
G01X4457Y12712D01*
G01X4544Y12682D01*
G01X4686Y12682D01*
G01X4775Y12712D01*
G01X4831Y12740D01*
G01X4889Y12799D01*
G01X4917Y12854D01*
G01X4917Y12971D01*
G01X4803Y12491D02*
G01X4831Y12433D01*
G01X4917Y12346D01*
G01X4312Y12346D01*
G01X5034Y11638D02*
G01X4109Y12156D01*
G01X4917Y11244D02*
G01X4312Y11244D01*
G01X4917Y11447D02*
G01X4917Y11043D01*
G01X4917Y10853D02*
G01X4312Y10449D01*
G01X4917Y10449D02*
G01X4312Y10853D01*
G01X4884Y6606D02*
G01X4277Y6606D01*
G01X4884Y6606D02*
G01X4884Y6347D01*
G01X4853Y6261D01*
G01X4826Y6230D01*
G01X4767Y6202D01*
G01X4711Y6202D01*
G01X4653Y6230D01*
G01X4625Y6261D01*
G01X4594Y6347D01*
G01X4594Y6606D01*
G01X4594Y6403D02*
G01X4277Y6202D01*
G01X4798Y5608D02*
G01X4853Y5666D01*
G01X4884Y5753D01*
G01X4884Y5867D01*
G01X4853Y5953D01*
G01X4798Y6012D01*
G01X4739Y6012D01*
G01X4681Y5984D01*
G01X4653Y5953D01*
G01X4625Y5895D01*
G01X4566Y5722D01*
G01X4536Y5666D01*
G01X4508Y5636D01*
G01X4450Y5608D01*
G01X4363Y5608D01*
G01X4307Y5666D01*
G01X4277Y5753D01*
G01X4277Y5867D01*
G01X4307Y5953D01*
G01X4363Y6012D01*
G01X4884Y5214D02*
G01X4277Y5214D01*
G01X4884Y5417D02*
G01X4884Y5013D01*
G01X4775Y9474D02*
G01X4831Y9502D01*
G01X4889Y9560D01*
G01X4917Y9616D01*
G01X4917Y9733D01*
G01X4889Y9791D01*
G01X4831Y9847D01*
G01X4775Y9878D01*
G01X4686Y9906D01*
G01X4544Y9906D01*
G01X4457Y9878D01*
G01X4399Y9847D01*
G01X4340Y9791D01*
G01X4312Y9733D01*
G01X4312Y9616D01*
G01X4340Y9560D01*
G01X4399Y9502D01*
G01X4457Y9474D01*
G01X4917Y9283D02*
G01X4312Y9283D01*
G01X4917Y8877D02*
G01X4312Y8877D01*
G01X4630Y9283D02*
G01X4630Y8877D01*
G01X4109Y8686D02*
G01X4109Y8168D01*
G01X4917Y7978D02*
G01X4312Y7978D01*
G01X4917Y7978D02*
G01X4917Y7719D01*
G01X4889Y7632D01*
G01X4861Y7602D01*
G01X4803Y7574D01*
G01X4716Y7574D01*
G01X4658Y7602D01*
G01X4630Y7632D01*
G01X4599Y7719D01*
G01X4599Y7978D01*
G01X4917Y7383D02*
G01X4312Y7383D01*
G01X4917Y7383D02*
G01X4917Y7180D01*
G01X4889Y7094D01*
G01X4831Y7035D01*
G01X4775Y7007D01*
G01X4686Y6979D01*
G01X4544Y6979D01*
G01X4457Y7007D01*
G01X4399Y7035D01*
G01X4340Y7094D01*
G01X4312Y7180D01*
G01X4312Y7383D01*
G01X4894Y4132D02*
G01X4894Y3815D01*
G01X4663Y3987D01*
G01X4663Y3901D01*
G01X4635Y3845D01*
G01X4607Y3815D01*
G01X4521Y3787D01*
G01X4462Y3787D01*
G01X4376Y3815D01*
G01X4318Y3873D01*
G01X4290Y3959D01*
G01X4290Y4046D01*
G01X4318Y4132D01*
G01X4345Y4163D01*
G01X4404Y4191D01*
G01X4894Y3596D02*
G01X4290Y3365D01*
G01X4894Y3134D02*
G01X4290Y3365D01*
G01X4894Y2885D02*
G01X4894Y2567D01*
G01X4663Y2743D01*
G01X4663Y2654D01*
G01X4635Y2598D01*
G01X4607Y2567D01*
G01X4521Y2540D01*
G01X4462Y2540D01*
G01X4376Y2567D01*
G01X4318Y2626D01*
G01X4290Y2712D01*
G01X4290Y2799D01*
G01X4318Y2885D01*
G01X4345Y2915D01*
G01X4404Y2943D01*
G54D35*
G01X44450Y10678D02*
G01X44450Y9588D01*
G01X44450Y10678D02*
G01X44917Y10678D01*
G01X45072Y10627D01*
G01X45125Y10574D01*
G01X45176Y10469D01*
G01X45176Y10314D01*
G01X45125Y10210D01*
G01X45072Y10160D01*
G01X44917Y10106D01*
G01X44450Y10106D01*
G01X45519Y10469D02*
G01X45623Y10523D01*
G01X45780Y10678D01*
G01X45780Y9588D01*
G01X44450Y22108D02*
G01X44450Y21018D01*
G01X44450Y22108D02*
G01X44917Y22108D01*
G01X45072Y22057D01*
G01X45125Y22004D01*
G01X45176Y21899D01*
G01X45176Y21744D01*
G01X45125Y21640D01*
G01X45072Y21590D01*
G01X44917Y21536D01*
G01X44450Y21536D01*
G01X45572Y21849D02*
G01X45572Y21899D01*
G01X45623Y22004D01*
G01X45676Y22057D01*
G01X45780Y22108D01*
G01X45986Y22108D01*
G01X46090Y22057D01*
G01X46144Y22004D01*
G01X46194Y21899D01*
G01X46194Y21795D01*
G01X46144Y21691D01*
G01X46040Y21536D01*
G01X45519Y21018D01*
G01X46248Y21018D01*
G01X39461Y4808D02*
G01X39357Y4912D01*
G01X39202Y4963D01*
G01X38994Y4963D01*
G01X38839Y4912D01*
G01X38735Y4808D01*
G01X38735Y4704D01*
G01X38785Y4599D01*
G01X38839Y4546D01*
G01X38943Y4495D01*
G01X39255Y4391D01*
G01X39357Y4340D01*
G01X39410Y4287D01*
G01X39461Y4183D01*
G01X39461Y4028D01*
G01X39357Y3924D01*
G01X39202Y3873D01*
G01X38994Y3873D01*
G01X38839Y3924D01*
G01X38735Y4028D01*
G01X39804Y4963D02*
G01X40065Y3873D01*
G01X40325Y4963D02*
G01X40065Y3873D01*
G01X40325Y4963D02*
G01X40584Y3873D01*
G01X40843Y4963D02*
G01X40584Y3873D01*
G01X41186Y4754D02*
G01X41290Y4808D01*
G01X41447Y4963D01*
G01X41447Y3873D01*
G01X39461Y12428D02*
G01X39357Y12532D01*
G01X39202Y12583D01*
G01X38994Y12583D01*
G01X38839Y12532D01*
G01X38735Y12428D01*
G01X38735Y12324D01*
G01X38785Y12219D01*
G01X38839Y12166D01*
G01X38943Y12115D01*
G01X39255Y12011D01*
G01X39357Y11960D01*
G01X39410Y11907D01*
G01X39461Y11803D01*
G01X39461Y11648D01*
G01X39357Y11544D01*
G01X39202Y11493D01*
G01X38994Y11493D01*
G01X38839Y11544D01*
G01X38735Y11648D01*
G01X39804Y12583D02*
G01X40065Y11493D01*
G01X40325Y12583D02*
G01X40065Y11493D01*
G01X40325Y12583D02*
G01X40584Y11493D01*
G01X40843Y12583D02*
G01X40584Y11493D01*
G01X41239Y12324D02*
G01X41239Y12374D01*
G01X41290Y12479D01*
G01X41343Y12532D01*
G01X41447Y12583D01*
G01X41656Y12583D01*
G01X41757Y12532D01*
G01X41810Y12479D01*
G01X41861Y12374D01*
G01X41861Y12270D01*
G01X41810Y12166D01*
G01X41706Y12011D01*
G01X41186Y11493D01*
G01X41915Y11493D01*
G01X24904Y6233D02*
G01X24904Y5402D01*
G01X24851Y5245D01*
G01X24800Y5194D01*
G01X24696Y5143D01*
G01X24592Y5143D01*
G01X24488Y5194D01*
G01X24434Y5245D01*
G01X24384Y5402D01*
G01X24384Y5506D01*
G01X25247Y6233D02*
G01X25247Y5143D01*
G01X25247Y6233D02*
G01X25714Y6233D01*
G01X25869Y6182D01*
G01X25920Y6129D01*
G01X25974Y6024D01*
G01X25974Y5869D01*
G01X25920Y5765D01*
G01X25869Y5715D01*
G01X25714Y5661D01*
G01X25247Y5661D01*
G01X26316Y6024D02*
G01X26421Y6078D01*
G01X26576Y6233D01*
G01X26576Y5143D01*
G01X1270Y13980D02*
G01X1270Y12890D01*
G01X1996Y13980D02*
G01X1996Y12890D01*
G01X1270Y13462D02*
G01X1996Y13462D01*
G01X2339Y13771D02*
G01X2443Y13825D01*
G01X2600Y13980D01*
G01X2600Y12890D01*
G54D10*
G75*
G01X13055Y18185D02*
G03X12855Y17985I0J-200D01*
G01*
G75*
G01X13055Y16105D02*
G02X12855Y16305I0J200D01*
G01*
G75*
G01X16155Y18185D02*
G02X16355Y17985I0J-200D01*
G01*
G75*
G01X16155Y16105D02*
G03X16355Y16305I0J200D01*
G01*
G75*
G01X20600Y16105D02*
G03X20800Y16305I0J200D01*
G01*
G75*
G01X20600Y18185D02*
G02X20800Y17985I0J-200D01*
G01*
G75*
G01X17500Y16105D02*
G02X17300Y16305I0J200D01*
G01*
G75*
G01X17500Y18185D02*
G03X17300Y17985I0J-200D01*
G01*
G54D30*
G75*
G01X23316Y1446D02*
G03X23318Y1446I1J-125D01*
G01*
G54D10*
G75*
G01X23775Y4675D02*
G03X23975Y4875I0J200D01*
G01*
G75*
G01X23775Y6755D02*
G02X23975Y6555I0J-200D01*
G01*
G75*
G01X20675Y4675D02*
G02X20475Y4875I0J200D01*
G01*
G75*
G01X20675Y6755D02*
G03X20475Y6555I0J-200D01*
G01*
G75*
G01X38557Y4445D02*
G03X38557Y4445I-1727J0D01*
G01*
G75*
G01X38001Y4445D02*
G03X38001Y4445I-1171J0D01*
G01*
G75*
G01X38557Y12065D02*
G03X38557Y12065I-1727J0D01*
G01*
G75*
G01X38001Y12065D02*
G03X38001Y12065I-1171J0D01*
G01*
M00*
M02*
