G04 Layer: BottomSolderMaskLayer*
G04 EasyEDA v6.2.46, 2019-12-24T13:35:47+01:00*
G04 9af07930541e41a2aa19a6838659558f,f7dd187871414131b8e6a9aac608ee48,10*
G04 Gerber Generator version 0.2*
G04 Scale: 100 percent, Rotated: No, Reflected: No *
G04 Dimensions in millimeters *
G04 leading zeros omitted , absolute positions ,3 integer and 3 decimal *
%FSLAX33Y33*%
%MOMM*%
G90*
G71D02*

%ADD37C,1.503197*%
%ADD38C,1.727200*%
%ADD39R,1.727200X1.727200*%
%ADD41C,2.108200*%
%ADD42C,2.082800*%
%ADD45R,1.778000X1.778000*%
%ADD46C,1.778000*%
%ADD48C,1.803197*%
%ADD49C,2.203196*%
%ADD51R,2.082800X2.082800*%

%LPD*%
G54D37*
G01X43423Y88583D02*
G01X44323Y88583D01*
G01X43423Y81342D02*
G01X44323Y81342D01*
G01X33680Y74005D02*
G01X33680Y71305D01*
G01X39979Y71305D02*
G01X39979Y74005D01*
G01X35630Y77204D02*
G01X38330Y77204D01*
G54D38*
G01X34290Y92583D03*
G54D39*
G01X34290Y95123D03*
G36*
G01X35966Y94259D02*
G01X35966Y95986D01*
G01X37693Y95986D01*
G01X37693Y94259D01*
G01X35966Y94259D01*
G37*
G54D38*
G01X36830Y92583D03*
G36*
G01X13677Y39839D02*
G01X13677Y41948D01*
G01X15786Y41948D01*
G01X15786Y39839D01*
G01X13677Y39839D01*
G37*
G54D41*
G01X12192Y40894D03*
G01X9652Y40894D03*
G36*
G01X24320Y39839D02*
G01X24320Y41948D01*
G01X26428Y41948D01*
G01X26428Y39839D01*
G01X24320Y39839D01*
G37*
G01X22834Y40894D03*
G01X20294Y40894D03*
G36*
G01X35140Y39839D02*
G01X35140Y41948D01*
G01X37249Y41948D01*
G01X37249Y39839D01*
G01X35140Y39839D01*
G37*
G01X33655Y40894D03*
G01X31115Y40894D03*
G54D42*
G01X16510Y78613D03*
G01X24130Y78613D03*
G36*
G01X10566Y87909D02*
G01X10566Y89636D01*
G01X12293Y89636D01*
G01X12293Y87909D01*
G01X10566Y87909D01*
G37*
G54D38*
G01X8890Y88773D03*
G01X11430Y86233D03*
G01X8890Y86233D03*
G01X11430Y83693D03*
G01X8890Y83693D03*
G01X11430Y81153D03*
G01X8890Y81153D03*
G36*
G01X15328Y70319D02*
G01X15328Y72428D01*
G01X17437Y72428D01*
G01X17437Y70319D01*
G01X15328Y70319D01*
G37*
G54D41*
G01X16383Y75692D03*
G01X9017Y75692D03*
G36*
G01X7962Y70319D02*
G01X7962Y72428D01*
G01X10071Y72428D01*
G01X10071Y70319D01*
G01X7962Y70319D01*
G37*
G36*
G01X26758Y70319D02*
G01X26758Y72428D01*
G01X28867Y72428D01*
G01X28867Y70319D01*
G01X26758Y70319D01*
G37*
G01X27813Y75692D03*
G01X20447Y75692D03*
G36*
G01X19392Y70319D02*
G01X19392Y72428D01*
G01X21501Y72428D01*
G01X21501Y70319D01*
G01X19392Y70319D01*
G37*
G54D37*
G01X41173Y82462D03*
G01X41173Y87462D03*
G54D38*
G01X16510Y81146D03*
G36*
G01X15646Y82829D02*
G01X15646Y84556D01*
G01X17373Y84556D01*
G01X17373Y82829D01*
G01X15646Y82829D01*
G37*
G01X16510Y86233D03*
G01X16510Y88773D03*
G36*
G01X32451Y81460D02*
G01X32451Y83464D01*
G01X37652Y83464D01*
G01X37652Y81460D01*
G01X32451Y81460D01*
G37*
G36*
G01X32451Y84000D02*
G01X32451Y86004D01*
G01X37652Y86004D01*
G01X37652Y84000D01*
G01X32451Y84000D01*
G37*
G36*
G01X32451Y86540D02*
G01X32451Y88544D01*
G01X37652Y88544D01*
G01X37652Y86540D01*
G01X32451Y86540D01*
G37*
G36*
G01X40513Y23114D02*
G01X40513Y24892D01*
G01X42291Y24892D01*
G01X42291Y23114D01*
G01X40513Y23114D01*
G37*
G54D46*
G01X41402Y26543D03*
G01X41402Y29083D03*
G01X41402Y31623D03*
G01X41402Y34163D03*
G36*
G01X25768Y33261D02*
G01X25768Y35064D01*
G01X27571Y35064D01*
G01X27571Y33261D01*
G01X25768Y33261D01*
G37*
G01X24130Y34163D03*
G36*
G01X20688Y33261D02*
G01X20688Y35064D01*
G01X22491Y35064D01*
G01X22491Y33261D01*
G01X20688Y33261D01*
G37*
G36*
G01X2908Y28181D02*
G01X2908Y29984D01*
G01X4711Y29984D01*
G01X4711Y28181D01*
G01X2908Y28181D01*
G37*
G01X3810Y31623D03*
G54D48*
G01X3810Y34163D03*
G54D42*
G01X15494Y44450D03*
G01X7874Y44450D03*
G01X26670Y44450D03*
G01X19050Y44450D03*
G01X38100Y44450D03*
G01X30480Y44450D03*
G54D38*
G01X3810Y95123D03*
G01X3810Y92583D03*
G01X3810Y90043D03*
G36*
G01X20726Y94259D02*
G01X20726Y95986D01*
G01X22453Y95986D01*
G01X22453Y94259D01*
G01X20726Y94259D01*
G37*
G01X24130Y95123D03*
G36*
G01X25806Y94259D02*
G01X25806Y95986D01*
G01X27533Y95986D01*
G01X27533Y94259D01*
G01X25806Y94259D01*
G37*
G54D45*
G01X3810Y52070D03*
G54D46*
G01X3810Y49530D03*
G01X3810Y46990D03*
G01X3810Y44450D03*
G01X3810Y41910D03*
G36*
G01X40513Y53594D02*
G01X40513Y55372D01*
G01X42291Y55372D01*
G01X42291Y53594D01*
G01X40513Y53594D01*
G37*
G01X41402Y57023D03*
G01X41402Y59563D03*
G01X41402Y62103D03*
G01X41402Y64643D03*
G54D45*
G01X3810Y21463D03*
G54D46*
G01X3810Y18923D03*
G01X3810Y16383D03*
G01X3810Y13843D03*
G01X3810Y11303D03*
G54D38*
G01X8890Y95123D03*
G01X11430Y95123D03*
G01X13970Y95123D03*
G36*
G01X15646Y94259D02*
G01X15646Y95986D01*
G01X17373Y95986D01*
G01X17373Y94259D01*
G01X15646Y94259D01*
G37*
G36*
G01X25768Y63741D02*
G01X25768Y65544D01*
G01X27571Y65544D01*
G01X27571Y63741D01*
G01X25768Y63741D01*
G37*
G54D46*
G01X24130Y64643D03*
G36*
G01X20688Y63741D02*
G01X20688Y65544D01*
G01X22491Y65544D01*
G01X22491Y63741D01*
G01X20688Y63741D01*
G37*
G54D49*
G01X3810Y72263D03*
G01X3810Y74803D03*
G01X3810Y77343D03*
G01X3810Y79883D03*
G36*
G01X2707Y81320D02*
G01X2707Y83525D01*
G01X4912Y83525D01*
G01X4912Y81320D01*
G01X2707Y81320D01*
G37*
G54D38*
G01X11430Y11176D03*
G01X8890Y11176D03*
G01X13970Y11176D03*
G01X16510Y11176D03*
G01X19050Y11176D03*
G01X21590Y11176D03*
G01X24130Y11176D03*
G01X26670Y11176D03*
G01X11430Y13716D03*
G01X8890Y13716D03*
G01X13970Y13716D03*
G01X16510Y13716D03*
G01X19050Y13716D03*
G01X21590Y13716D03*
G01X24130Y13716D03*
G01X26670Y13716D03*
G01X11430Y16256D03*
G01X8890Y16256D03*
G01X13970Y16256D03*
G01X16510Y16256D03*
G01X19050Y16256D03*
G01X21590Y16256D03*
G01X24130Y16256D03*
G01X26670Y16256D03*
G01X11430Y18796D03*
G01X8890Y18796D03*
G01X13970Y18796D03*
G01X16510Y18796D03*
G01X19050Y18796D03*
G01X21590Y18796D03*
G01X24130Y18796D03*
G01X26670Y18796D03*
G01X11430Y21336D03*
G01X8890Y21336D03*
G01X13970Y21336D03*
G01X16510Y21336D03*
G01X19050Y21336D03*
G01X21590Y21336D03*
G01X24130Y21336D03*
G01X26670Y21336D03*
G01X11430Y23876D03*
G01X8890Y23876D03*
G01X13970Y23876D03*
G01X16510Y23876D03*
G01X19050Y23876D03*
G01X21590Y23876D03*
G01X24130Y23876D03*
G01X26670Y23876D03*
G01X11430Y26416D03*
G01X8890Y26416D03*
G01X13970Y26416D03*
G01X16510Y26416D03*
G01X19050Y26416D03*
G01X21590Y26416D03*
G01X24130Y26416D03*
G01X26670Y26416D03*
G01X11430Y28956D03*
G01X8890Y28956D03*
G01X13970Y28956D03*
G01X16510Y28956D03*
G01X19050Y28956D03*
G01X21590Y28956D03*
G01X24130Y28956D03*
G01X26670Y28956D03*
G01X29210Y11176D03*
G01X29210Y13716D03*
G01X29210Y16256D03*
G01X29210Y18796D03*
G01X29210Y21336D03*
G01X29210Y23876D03*
G01X29210Y26416D03*
G01X29210Y28956D03*
G01X31750Y11176D03*
G01X31750Y13716D03*
G01X31750Y16256D03*
G01X31750Y18796D03*
G01X31750Y21336D03*
G01X31750Y23876D03*
G01X31750Y26416D03*
G01X31750Y28956D03*
G01X34290Y11176D03*
G01X34290Y13716D03*
G01X34290Y16256D03*
G01X34290Y18796D03*
G01X34290Y21336D03*
G01X34290Y23876D03*
G01X34290Y26416D03*
G01X34290Y28956D03*
G01X36830Y11176D03*
G01X36830Y13716D03*
G01X36830Y16256D03*
G01X36830Y18796D03*
G01X36830Y21336D03*
G01X36830Y23876D03*
G01X36830Y26416D03*
G01X36830Y28956D03*
G36*
G01X3149Y63855D02*
G01X3149Y65938D01*
G01X5232Y65938D01*
G01X5232Y63855D01*
G01X3149Y63855D01*
G37*
G54D42*
G01X11811Y64897D03*
G54D51*
G01X5334Y54864D03*
G54D42*
G01X5334Y62484D03*
G54D51*
G01X2921Y54864D03*
G54D42*
G01X2921Y62484D03*
M00*
M02*
