G04 Layer: TopSilkLayer*
G04 EasyEDA v6.2.46, 2019-12-24T13:35:47+01:00*
G04 9af07930541e41a2aa19a6838659558f,f7dd187871414131b8e6a9aac608ee48,10*
G04 Gerber Generator version 0.2*
G04 Scale: 100 percent, Rotated: No, Reflected: No *
G04 Dimensions in millimeters *
G04 leading zeros omitted , absolute positions ,3 integer and 3 decimal *
%FSLAX33Y33*%
%MOMM*%
G90*
G71D02*

%ADD10C,0.254000*%
%ADD31C,0.200660*%
%ADD32C,0.127000*%
%ADD33C,0.203200*%
%ADD34C,0.202999*%
%ADD35C,0.152400*%
%ADD36C,0.076200*%

%LPD*%
G54D31*
G01X33022Y96390D02*
G01X33022Y91310D01*
G01X35562Y91310D01*
G01X35562Y96390D01*
G01X33022Y96390D01*
G01X38097Y91315D02*
G01X38097Y96395D01*
G01X35557Y96395D01*
G01X35557Y91315D01*
G01X38097Y91315D01*
G54D10*
G01X17188Y46393D02*
G01X17188Y61394D01*
G01X7188Y46393D02*
G01X17188Y46393D01*
G01X7188Y46393D02*
G01X7188Y61394D01*
G01X9677Y46228D02*
G01X9677Y42164D01*
G01X12217Y46228D02*
G01X12217Y42164D01*
G01X14757Y46228D02*
G01X14757Y42164D01*
G01X27830Y46393D02*
G01X27830Y61394D01*
G01X17830Y46393D02*
G01X27830Y46393D01*
G01X17830Y46393D02*
G01X17830Y61394D01*
G01X20320Y46228D02*
G01X20320Y42164D01*
G01X22860Y46228D02*
G01X22860Y42164D01*
G01X25400Y46228D02*
G01X25400Y42164D01*
G01X38651Y46393D02*
G01X38651Y61394D01*
G01X28651Y46393D02*
G01X38651Y46393D01*
G01X28651Y46393D02*
G01X28651Y61394D01*
G01X31140Y46228D02*
G01X31140Y42164D01*
G01X33680Y46228D02*
G01X33680Y42164D01*
G01X36220Y46228D02*
G01X36220Y42164D01*
G01X17780Y79375D02*
G01X22860Y79375D01*
G01X22860Y79375D02*
G01X22860Y78613D01*
G01X22860Y78613D02*
G01X22860Y77851D01*
G01X22860Y77851D02*
G01X17780Y77851D01*
G01X17780Y77851D02*
G01X17780Y78613D01*
G01X17780Y78613D02*
G01X17780Y79375D01*
G01X22860Y78613D02*
G01X23114Y78613D01*
G01X17780Y78613D02*
G01X17526Y78613D01*
G54D32*
G01X7620Y92202D02*
G01X7620Y77724D01*
G01X7620Y92202D02*
G01X32385Y92202D01*
G01X7620Y77724D02*
G01X32385Y77724D01*
G01X32385Y92202D01*
G01X10668Y90043D02*
G01X12192Y90043D01*
G01X12700Y90043D01*
G01X12700Y89535D01*
G01X12700Y88011D01*
G01X12700Y86995D01*
G01X12700Y85471D01*
G01X12700Y84455D01*
G01X12700Y82931D01*
G01X12700Y81915D01*
G01X12700Y80391D01*
G01X12700Y79883D01*
G01X12192Y79883D01*
G01X10668Y79883D01*
G01X9652Y79883D01*
G01X8128Y79883D01*
G01X7620Y79883D01*
G01X7620Y80391D01*
G01X7620Y81915D01*
G01X7620Y82931D01*
G01X7620Y84455D01*
G01X7620Y85471D01*
G01X7620Y86995D01*
G01X7620Y88011D01*
G01X7620Y89535D01*
G01X7620Y90043D01*
G01X8128Y90043D01*
G01X9652Y90043D01*
G01X10668Y90043D01*
G01X10922Y90043D01*
G54D10*
G01X15798Y70434D02*
G01X9601Y70434D01*
G01X9601Y76631D01*
G01X15798Y76631D01*
G01X15798Y70434D01*
G01X27228Y70434D02*
G01X21031Y70434D01*
G01X21031Y76631D01*
G01X27228Y76631D01*
G01X27228Y70434D01*
G01X40193Y88962D02*
G01X45933Y88962D01*
G01X40183Y88962D02*
G01X40183Y80963D01*
G01X40183Y80963D02*
G01X45923Y80963D01*
G01X45943Y88962D02*
G01X45943Y80963D01*
G01X45233Y88352D02*
G01X45233Y81583D01*
G01X45943Y88942D02*
G01X45823Y88942D01*
G01X45233Y88352D01*
G01X45923Y80992D02*
G01X45823Y80992D01*
G01X45233Y81583D01*
G54D32*
G01X13970Y79883D02*
G01X13970Y90043D01*
G01X29210Y90043D01*
G01X29210Y79883D01*
G01X13970Y79883D01*
G54D10*
G01X25051Y79962D02*
G01X30051Y79962D01*
G01X30051Y89963D01*
G01X25051Y89963D01*
G01X47579Y68255D02*
G01X47579Y77205D01*
G01X33979Y77205D01*
G01X33979Y68255D01*
G01X47579Y68255D01*
G01X45229Y77205D02*
G01X45229Y68255D01*
G54D33*
G01X42672Y33528D02*
G01X42672Y35433D01*
G01X40132Y35433D01*
G01X40132Y22733D01*
G01X42672Y22733D01*
G54D34*
G01X42672Y22733D02*
G01X42672Y33528D01*
G01X20320Y35433D02*
G01X20320Y32893D01*
G01X27940Y32893D01*
G01X27940Y35433D01*
G01X20320Y35433D01*
G01X5080Y35433D02*
G01X2540Y35433D01*
G01X2540Y27813D01*
G01X5080Y27813D01*
G01X5080Y35433D01*
G54D10*
G01X14224Y43688D02*
G01X9144Y43688D01*
G01X9144Y43688D02*
G01X9144Y44450D01*
G01X9144Y44450D02*
G01X9144Y45212D01*
G01X9144Y45212D02*
G01X14224Y45212D01*
G01X14224Y45212D02*
G01X14224Y44450D01*
G01X14224Y44450D02*
G01X14224Y43688D01*
G01X9144Y44450D02*
G01X8890Y44450D01*
G01X14224Y44450D02*
G01X14478Y44450D01*
G01X25400Y43688D02*
G01X20320Y43688D01*
G01X20320Y43688D02*
G01X20320Y44450D01*
G01X20320Y44450D02*
G01X20320Y45212D01*
G01X20320Y45212D02*
G01X25400Y45212D01*
G01X25400Y45212D02*
G01X25400Y44450D01*
G01X25400Y44450D02*
G01X25400Y43688D01*
G01X20320Y44450D02*
G01X20066Y44450D01*
G01X25400Y44450D02*
G01X25654Y44450D01*
G01X36830Y43688D02*
G01X31750Y43688D01*
G01X31750Y43688D02*
G01X31750Y44450D01*
G01X31750Y44450D02*
G01X31750Y45212D01*
G01X31750Y45212D02*
G01X36830Y45212D01*
G01X36830Y45212D02*
G01X36830Y44450D01*
G01X36830Y44450D02*
G01X36830Y43688D01*
G01X31750Y44450D02*
G01X31496Y44450D01*
G01X36830Y44450D02*
G01X37084Y44450D01*
G01X5080Y89281D02*
G01X4572Y88773D01*
G01X3048Y88773D01*
G01X2540Y89281D01*
G01X2540Y90805D01*
G01X3048Y91313D01*
G01X2540Y91821D01*
G01X2540Y93345D01*
G01X3048Y93853D01*
G01X2540Y94361D01*
G01X2540Y95885D01*
G01X3048Y96393D01*
G01X4572Y96393D01*
G01X5080Y95885D01*
G01X5080Y94361D01*
G01X4572Y93853D01*
G01X5080Y93345D01*
G01X5080Y91821D01*
G01X4572Y91313D01*
G01X5080Y90805D01*
G01X5080Y89281D01*
G01X27432Y96393D02*
G01X27940Y95885D01*
G01X27940Y94361D01*
G01X27432Y93853D01*
G01X25908Y93853D01*
G01X25400Y94361D01*
G01X24892Y93853D01*
G01X23368Y93853D01*
G01X22860Y94361D01*
G01X22352Y93853D01*
G01X20828Y93853D01*
G01X20320Y94361D01*
G01X20320Y95885D01*
G01X20828Y96393D01*
G01X22352Y96393D01*
G01X22860Y95885D01*
G01X23368Y96393D01*
G01X24892Y96393D01*
G01X25400Y95885D01*
G01X25908Y96393D01*
G01X27432Y96393D01*
G54D33*
G01X2540Y42545D02*
G01X2540Y40640D01*
G01X5080Y40640D01*
G01X5080Y53340D01*
G01X2540Y53340D01*
G54D34*
G01X2540Y53340D02*
G01X2540Y42545D01*
G54D33*
G01X42672Y64008D02*
G01X42672Y65913D01*
G01X40132Y65913D01*
G01X40132Y53213D01*
G01X42672Y53213D01*
G54D34*
G01X42672Y53213D02*
G01X42672Y64008D01*
G54D33*
G01X2540Y11938D02*
G01X2540Y10033D01*
G01X5080Y10033D01*
G01X5080Y22733D01*
G01X2540Y22733D01*
G54D34*
G01X2540Y22733D02*
G01X2540Y11938D01*
G54D10*
G01X15240Y94488D02*
G01X14605Y93853D01*
G01X13335Y93853D01*
G01X12700Y94488D01*
G01X12700Y95758D02*
G01X12065Y96393D01*
G01X10795Y96393D01*
G01X10160Y95758D01*
G01X12700Y94488D02*
G01X12065Y93853D01*
G01X10795Y93853D01*
G01X10160Y94488D01*
G01X17780Y95758D02*
G01X17780Y94488D01*
G01X10160Y95758D02*
G01X9525Y96393D01*
G01X8255Y96393D01*
G01X7620Y95758D01*
G01X10160Y94488D02*
G01X9525Y93853D01*
G01X8255Y93853D01*
G01X7620Y94488D01*
G01X7620Y95758D02*
G01X7620Y94488D01*
G01X17780Y95758D02*
G01X17145Y96393D01*
G01X15875Y96393D01*
G01X15240Y95758D01*
G01X17780Y94488D02*
G01X17145Y93853D01*
G01X15875Y93853D01*
G01X15240Y94488D01*
G01X15240Y95758D02*
G01X14605Y96393D01*
G01X13335Y96393D01*
G01X12700Y95758D01*
G54D34*
G01X20320Y65913D02*
G01X20320Y63373D01*
G01X27940Y63373D01*
G01X27940Y65913D01*
G01X20320Y65913D01*
G54D10*
G01X3175Y83693D02*
G01X4445Y83693D01*
G01X4445Y73533D02*
G01X5080Y72898D01*
G01X5080Y71628D01*
G01X4445Y70993D01*
G01X3175Y70993D02*
G01X4445Y70993D01*
G01X3175Y83693D02*
G01X2540Y83058D01*
G01X2540Y81788D01*
G01X3175Y81153D01*
G01X4445Y83693D02*
G01X5080Y83058D01*
G01X5080Y81788D01*
G01X4445Y81153D01*
G01X3175Y81153D02*
G01X2540Y80518D01*
G01X2540Y79248D01*
G01X3175Y78613D01*
G01X4445Y81153D02*
G01X5080Y80518D01*
G01X5080Y79248D01*
G01X4445Y78613D01*
G01X3175Y78613D02*
G01X2540Y77978D01*
G01X2540Y76708D01*
G01X3175Y76073D01*
G01X4445Y78613D02*
G01X5080Y77978D01*
G01X5080Y76708D01*
G01X4445Y76073D01*
G01X3175Y76073D02*
G01X2540Y75438D01*
G01X2540Y74168D01*
G01X3175Y73533D01*
G01X4445Y76073D02*
G01X5080Y75438D01*
G01X5080Y74168D01*
G01X4445Y73533D01*
G01X3175Y73533D02*
G01X2540Y72898D01*
G01X2540Y71628D01*
G01X3175Y70993D01*
G01X7874Y10160D02*
G01X7874Y29972D01*
G01X37846Y29972D01*
G01X37846Y10160D01*
G01X7874Y10160D01*
G01X5461Y65659D02*
G01X10541Y65659D01*
G01X10541Y65659D02*
G01X10541Y64897D01*
G01X10541Y64897D02*
G01X10541Y64135D01*
G01X10541Y64135D02*
G01X5461Y64135D01*
G01X5461Y64135D02*
G01X5461Y64897D01*
G01X5461Y64897D02*
G01X5461Y65659D01*
G01X10541Y64897D02*
G01X10795Y64897D01*
G01X5461Y64897D02*
G01X5207Y64897D01*
G01X4572Y56134D02*
G01X4572Y61214D01*
G01X4572Y61214D02*
G01X5334Y61214D01*
G01X5334Y61214D02*
G01X6096Y61214D01*
G01X6096Y61214D02*
G01X6096Y56134D01*
G01X6096Y56134D02*
G01X5334Y56134D01*
G01X5334Y56134D02*
G01X4572Y56134D01*
G01X5334Y61214D02*
G01X5334Y61468D01*
G01X5334Y56134D02*
G01X5334Y55880D01*
G01X2159Y56134D02*
G01X2159Y61214D01*
G01X2159Y61214D02*
G01X2921Y61214D01*
G01X2921Y61214D02*
G01X3683Y61214D01*
G01X3683Y61214D02*
G01X3683Y56134D01*
G01X3683Y56134D02*
G01X2921Y56134D01*
G01X2921Y56134D02*
G01X2159Y56134D01*
G01X2921Y61214D02*
G01X2921Y61468D01*
G01X2921Y56134D02*
G01X2921Y55880D01*
G54D35*
G01X31910Y93377D02*
G01X31963Y93273D01*
G01X32067Y93169D01*
G01X32169Y93118D01*
G01X32377Y93118D01*
G01X32481Y93169D01*
G01X32585Y93273D01*
G01X32639Y93377D01*
G01X32689Y93532D01*
G01X32689Y93791D01*
G01X32639Y93949D01*
G01X32585Y94053D01*
G01X32481Y94157D01*
G01X32377Y94208D01*
G01X32169Y94208D01*
G01X32067Y94157D01*
G01X31963Y94053D01*
G01X31910Y93949D01*
G01X31567Y93324D02*
G01X31463Y93273D01*
G01X31308Y93118D01*
G01X31308Y94208D01*
G01X39486Y93339D02*
G01X39540Y93235D01*
G01X39644Y93131D01*
G01X39745Y93080D01*
G01X39954Y93080D01*
G01X40058Y93131D01*
G01X40162Y93235D01*
G01X40215Y93339D01*
G01X40266Y93494D01*
G01X40266Y93753D01*
G01X40215Y93911D01*
G01X40162Y94015D01*
G01X40058Y94119D01*
G01X39954Y94170D01*
G01X39745Y94170D01*
G01X39644Y94119D01*
G01X39540Y94015D01*
G01X39486Y93911D01*
G01X39093Y93339D02*
G01X39093Y93286D01*
G01X39039Y93182D01*
G01X38988Y93131D01*
G01X38884Y93080D01*
G01X38676Y93080D01*
G01X38572Y93131D01*
G01X38521Y93182D01*
G01X38468Y93286D01*
G01X38468Y93390D01*
G01X38521Y93494D01*
G01X38625Y93652D01*
G01X39143Y94170D01*
G01X38417Y94170D01*
G01X16441Y41402D02*
G01X16337Y41351D01*
G01X16233Y41247D01*
G01X16179Y41142D01*
G01X16128Y40987D01*
G01X16128Y40728D01*
G01X16179Y40571D01*
G01X16233Y40467D01*
G01X16337Y40363D01*
G01X16441Y40312D01*
G01X16649Y40312D01*
G01X16751Y40363D01*
G01X16855Y40467D01*
G01X16908Y40571D01*
G01X16959Y40728D01*
G01X16959Y40987D01*
G01X16908Y41142D01*
G01X16855Y41247D01*
G01X16751Y41351D01*
G01X16649Y41402D01*
G01X16441Y41402D01*
G01X16596Y40520D02*
G01X16908Y40208D01*
G01X17302Y41196D02*
G01X17406Y41247D01*
G01X17564Y41402D01*
G01X17564Y40312D01*
G01X27084Y41389D02*
G01X26979Y41338D01*
G01X26875Y41234D01*
G01X26822Y41130D01*
G01X26771Y40975D01*
G01X26771Y40716D01*
G01X26822Y40558D01*
G01X26875Y40454D01*
G01X26979Y40350D01*
G01X27084Y40299D01*
G01X27292Y40299D01*
G01X27393Y40350D01*
G01X27498Y40454D01*
G01X27551Y40558D01*
G01X27602Y40716D01*
G01X27602Y40975D01*
G01X27551Y41130D01*
G01X27498Y41234D01*
G01X27393Y41338D01*
G01X27292Y41389D01*
G01X27084Y41389D01*
G01X27238Y40507D02*
G01X27551Y40195D01*
G01X27998Y41130D02*
G01X27998Y41183D01*
G01X28049Y41287D01*
G01X28102Y41338D01*
G01X28206Y41389D01*
G01X28412Y41389D01*
G01X28516Y41338D01*
G01X28569Y41287D01*
G01X28620Y41183D01*
G01X28620Y41079D01*
G01X28569Y40975D01*
G01X28465Y40817D01*
G01X27945Y40299D01*
G01X28674Y40299D01*
G01X38031Y41402D02*
G01X37927Y41351D01*
G01X37823Y41247D01*
G01X37769Y41142D01*
G01X37718Y40987D01*
G01X37718Y40728D01*
G01X37769Y40571D01*
G01X37823Y40467D01*
G01X37927Y40363D01*
G01X38031Y40312D01*
G01X38239Y40312D01*
G01X38341Y40363D01*
G01X38445Y40467D01*
G01X38498Y40571D01*
G01X38549Y40728D01*
G01X38549Y40987D01*
G01X38498Y41142D01*
G01X38445Y41247D01*
G01X38341Y41351D01*
G01X38239Y41402D01*
G01X38031Y41402D01*
G01X38186Y40520D02*
G01X38498Y40208D01*
G01X38996Y41402D02*
G01X39568Y41402D01*
G01X39255Y40987D01*
G01X39413Y40987D01*
G01X39517Y40934D01*
G01X39568Y40883D01*
G01X39621Y40728D01*
G01X39621Y40624D01*
G01X39568Y40467D01*
G01X39463Y40363D01*
G01X39309Y40312D01*
G01X39154Y40312D01*
G01X38996Y40363D01*
G01X38945Y40416D01*
G01X38892Y40520D01*
G01X8255Y91300D02*
G01X8255Y90523D01*
G01X8305Y90365D01*
G01X8409Y90261D01*
G01X8567Y90210D01*
G01X8671Y90210D01*
G01X8826Y90261D01*
G01X8930Y90365D01*
G01X8981Y90523D01*
G01X8981Y91300D01*
G01X9324Y91094D02*
G01X9428Y91145D01*
G01X9585Y91300D01*
G01X9585Y90210D01*
G54D36*
G01X13388Y88988D02*
G01X13444Y89016D01*
G01X13502Y89075D01*
G01X13530Y89133D01*
G01X13530Y89247D01*
G01X13502Y89306D01*
G01X13444Y89364D01*
G01X13388Y89392D01*
G01X13299Y89420D01*
G01X13157Y89420D01*
G01X13070Y89392D01*
G01X13012Y89364D01*
G01X12954Y89306D01*
G01X12926Y89247D01*
G01X12926Y89133D01*
G01X12954Y89075D01*
G01X13012Y89016D01*
G01X13070Y88988D01*
G01X13157Y88988D01*
G01X13157Y89133D02*
G01X13157Y88988D01*
G01X13530Y88798D02*
G01X12926Y88798D01*
G01X13530Y88798D02*
G01X12926Y88394D01*
G01X13530Y88394D02*
G01X12926Y88394D01*
G01X13530Y88204D02*
G01X12926Y88204D01*
G01X13530Y88204D02*
G01X13530Y88000D01*
G01X13502Y87914D01*
G01X13444Y87858D01*
G01X13388Y87828D01*
G01X13299Y87800D01*
G01X13157Y87800D01*
G01X13070Y87828D01*
G01X13012Y87858D01*
G01X12954Y87914D01*
G01X12926Y88000D01*
G01X12926Y88204D01*
G01X13553Y86730D02*
G01X12948Y86730D01*
G01X13553Y86367D02*
G01X13525Y86426D01*
G01X13467Y86484D01*
G01X13411Y86512D01*
G01X13322Y86540D01*
G01X13180Y86540D01*
G01X13093Y86512D01*
G01X13035Y86484D01*
G01X12976Y86426D01*
G01X12948Y86367D01*
G01X12948Y86253D01*
G01X12976Y86194D01*
G01X13035Y86136D01*
G01X13093Y86108D01*
G01X13180Y86080D01*
G01X13322Y86080D01*
G01X13411Y86108D01*
G01X13467Y86136D01*
G01X13525Y86194D01*
G01X13553Y86253D01*
G01X13553Y86367D01*
G01X13411Y85859D02*
G01X13439Y85859D01*
G01X13497Y85831D01*
G01X13525Y85803D01*
G01X13553Y85745D01*
G01X13553Y85628D01*
G01X13525Y85572D01*
G01X13497Y85542D01*
G01X13439Y85514D01*
G01X13380Y85514D01*
G01X13322Y85542D01*
G01X13235Y85600D01*
G01X12948Y85890D01*
G01X12948Y85486D01*
G01X13553Y84190D02*
G01X12948Y84190D01*
G01X13553Y83827D02*
G01X13525Y83886D01*
G01X13467Y83944D01*
G01X13411Y83972D01*
G01X13322Y84000D01*
G01X13180Y84000D01*
G01X13093Y83972D01*
G01X13035Y83944D01*
G01X12976Y83886D01*
G01X12948Y83827D01*
G01X12948Y83713D01*
G01X12976Y83654D01*
G01X13035Y83596D01*
G01X13093Y83568D01*
G01X13180Y83540D01*
G01X13322Y83540D01*
G01X13411Y83568D01*
G01X13467Y83596D01*
G01X13525Y83654D01*
G01X13553Y83713D01*
G01X13553Y83827D01*
G01X13553Y83174D02*
G01X13525Y83263D01*
G01X13439Y83319D01*
G01X13294Y83350D01*
G01X13208Y83350D01*
G01X13063Y83319D01*
G01X12976Y83263D01*
G01X12948Y83174D01*
G01X12948Y83118D01*
G01X12976Y83032D01*
G01X13063Y82974D01*
G01X13208Y82946D01*
G01X13294Y82946D01*
G01X13439Y82974D01*
G01X13525Y83032D01*
G01X13553Y83118D01*
G01X13553Y83174D01*
G01X13553Y81915D02*
G01X12948Y81915D01*
G01X13553Y81551D02*
G01X13525Y81610D01*
G01X13467Y81666D01*
G01X13411Y81696D01*
G01X13322Y81724D01*
G01X13180Y81724D01*
G01X13093Y81696D01*
G01X13035Y81666D01*
G01X12976Y81610D01*
G01X12948Y81551D01*
G01X12948Y81434D01*
G01X12976Y81379D01*
G01X13035Y81320D01*
G01X13093Y81292D01*
G01X13180Y81262D01*
G01X13322Y81262D01*
G01X13411Y81292D01*
G01X13467Y81320D01*
G01X13525Y81379D01*
G01X13553Y81434D01*
G01X13553Y81551D01*
G01X13553Y81013D02*
G01X13553Y80695D01*
G01X13322Y80871D01*
G01X13322Y80784D01*
G01X13294Y80726D01*
G01X13266Y80695D01*
G01X13180Y80667D01*
G01X13121Y80667D01*
G01X13035Y80695D01*
G01X12976Y80754D01*
G01X12948Y80840D01*
G01X12948Y80926D01*
G01X12976Y81013D01*
G01X13004Y81043D01*
G01X13063Y81071D01*
G01X13670Y79959D02*
G01X12745Y80477D01*
G01X13553Y79768D02*
G01X12948Y79768D01*
G01X13553Y79768D02*
G01X13553Y79507D01*
G01X13525Y79420D01*
G01X13497Y79392D01*
G01X13439Y79362D01*
G01X13380Y79362D01*
G01X13322Y79392D01*
G01X13294Y79420D01*
G01X13266Y79507D01*
G01X13266Y79768D01*
G01X13266Y79565D02*
G01X12948Y79362D01*
G01X13553Y79171D02*
G01X12948Y78767D01*
G01X13553Y78767D02*
G01X12948Y79171D01*
G01X7457Y91059D02*
G01X6852Y91059D01*
G01X7457Y90695D02*
G01X7429Y90754D01*
G01X7371Y90810D01*
G01X7315Y90840D01*
G01X7226Y90868D01*
G01X7084Y90868D01*
G01X6997Y90840D01*
G01X6939Y90810D01*
G01X6880Y90754D01*
G01X6852Y90695D01*
G01X6852Y90578D01*
G01X6880Y90523D01*
G01X6939Y90464D01*
G01X6997Y90436D01*
G01X7084Y90406D01*
G01X7226Y90406D01*
G01X7315Y90436D01*
G01X7371Y90464D01*
G01X7429Y90523D01*
G01X7457Y90578D01*
G01X7457Y90695D01*
G01X7343Y90215D02*
G01X7371Y90157D01*
G01X7457Y90070D01*
G01X6852Y90070D01*
G01X7574Y89362D02*
G01X6649Y89880D01*
G01X7457Y88968D02*
G01X6852Y88968D01*
G01X7457Y89171D02*
G01X7457Y88767D01*
G01X7457Y88577D02*
G01X6852Y88173D01*
G01X7457Y88173D02*
G01X6852Y88577D01*
G01X7424Y84330D02*
G01X6817Y84330D01*
G01X7424Y84330D02*
G01X7424Y84071D01*
G01X7393Y83985D01*
G01X7366Y83954D01*
G01X7307Y83926D01*
G01X7251Y83926D01*
G01X7193Y83954D01*
G01X7165Y83985D01*
G01X7134Y84071D01*
G01X7134Y84330D01*
G01X7134Y84127D02*
G01X6817Y83926D01*
G01X7338Y83332D02*
G01X7393Y83390D01*
G01X7424Y83477D01*
G01X7424Y83591D01*
G01X7393Y83677D01*
G01X7338Y83736D01*
G01X7279Y83736D01*
G01X7221Y83708D01*
G01X7193Y83677D01*
G01X7165Y83619D01*
G01X7106Y83446D01*
G01X7076Y83390D01*
G01X7048Y83360D01*
G01X6990Y83332D01*
G01X6903Y83332D01*
G01X6847Y83390D01*
G01X6817Y83477D01*
G01X6817Y83591D01*
G01X6847Y83677D01*
G01X6903Y83736D01*
G01X7424Y82938D02*
G01X6817Y82938D01*
G01X7424Y83141D02*
G01X7424Y82737D01*
G01X7315Y87198D02*
G01X7371Y87226D01*
G01X7429Y87284D01*
G01X7457Y87340D01*
G01X7457Y87457D01*
G01X7429Y87515D01*
G01X7371Y87571D01*
G01X7315Y87602D01*
G01X7226Y87630D01*
G01X7084Y87630D01*
G01X6997Y87602D01*
G01X6939Y87571D01*
G01X6880Y87515D01*
G01X6852Y87457D01*
G01X6852Y87340D01*
G01X6880Y87284D01*
G01X6939Y87226D01*
G01X6997Y87198D01*
G01X7457Y87007D02*
G01X6852Y87007D01*
G01X7457Y86601D02*
G01X6852Y86601D01*
G01X7170Y87007D02*
G01X7170Y86601D01*
G01X6649Y86410D02*
G01X6649Y85892D01*
G01X7457Y85702D02*
G01X6852Y85702D01*
G01X7457Y85702D02*
G01X7457Y85443D01*
G01X7429Y85356D01*
G01X7401Y85326D01*
G01X7343Y85298D01*
G01X7256Y85298D01*
G01X7198Y85326D01*
G01X7170Y85356D01*
G01X7139Y85443D01*
G01X7139Y85702D01*
G01X7457Y85107D02*
G01X6852Y85107D01*
G01X7457Y85107D02*
G01X7457Y84904D01*
G01X7429Y84818D01*
G01X7371Y84759D01*
G01X7315Y84731D01*
G01X7226Y84703D01*
G01X7084Y84703D01*
G01X6997Y84731D01*
G01X6939Y84759D01*
G01X6880Y84818D01*
G01X6852Y84904D01*
G01X6852Y85107D01*
G01X7434Y81856D02*
G01X7434Y81539D01*
G01X7203Y81711D01*
G01X7203Y81625D01*
G01X7175Y81569D01*
G01X7147Y81539D01*
G01X7061Y81511D01*
G01X7002Y81511D01*
G01X6916Y81539D01*
G01X6858Y81597D01*
G01X6830Y81683D01*
G01X6830Y81770D01*
G01X6858Y81856D01*
G01X6885Y81887D01*
G01X6944Y81915D01*
G01X7434Y81320D02*
G01X6830Y81089D01*
G01X7434Y80858D02*
G01X6830Y81089D01*
G01X7434Y80609D02*
G01X7434Y80291D01*
G01X7203Y80467D01*
G01X7203Y80378D01*
G01X7175Y80322D01*
G01X7147Y80291D01*
G01X7061Y80264D01*
G01X7002Y80264D01*
G01X6916Y80291D01*
G01X6858Y80350D01*
G01X6830Y80436D01*
G01X6830Y80523D01*
G01X6858Y80609D01*
G01X6885Y80639D01*
G01X6944Y80667D01*
G54D35*
G01X12156Y74000D02*
G01X12052Y74104D01*
G01X11897Y74155D01*
G01X11689Y74155D01*
G01X11534Y74104D01*
G01X11430Y74000D01*
G01X11430Y73896D01*
G01X11480Y73792D01*
G01X11534Y73741D01*
G01X11638Y73687D01*
G01X11950Y73583D01*
G01X12052Y73533D01*
G01X12105Y73482D01*
G01X12156Y73378D01*
G01X12156Y73220D01*
G01X12052Y73116D01*
G01X11897Y73065D01*
G01X11689Y73065D01*
G01X11534Y73116D01*
G01X11430Y73220D01*
G01X12552Y73896D02*
G01X12552Y73949D01*
G01X12603Y74053D01*
G01X12656Y74104D01*
G01X12760Y74155D01*
G01X12966Y74155D01*
G01X13070Y74104D01*
G01X13124Y74053D01*
G01X13174Y73949D01*
G01X13174Y73845D01*
G01X13124Y73741D01*
G01X13020Y73583D01*
G01X12499Y73065D01*
G01X13228Y73065D01*
G01X24221Y74000D02*
G01X24117Y74104D01*
G01X23962Y74155D01*
G01X23754Y74155D01*
G01X23599Y74104D01*
G01X23495Y74000D01*
G01X23495Y73896D01*
G01X23545Y73792D01*
G01X23599Y73741D01*
G01X23703Y73687D01*
G01X24015Y73583D01*
G01X24117Y73533D01*
G01X24170Y73482D01*
G01X24221Y73378D01*
G01X24221Y73220D01*
G01X24117Y73116D01*
G01X23962Y73065D01*
G01X23754Y73065D01*
G01X23599Y73116D01*
G01X23495Y73220D01*
G01X24564Y73949D02*
G01X24668Y74000D01*
G01X24825Y74155D01*
G01X24825Y73065D01*
G01X42557Y83070D02*
G01X43336Y83070D01*
G01X43491Y83120D01*
G01X43596Y83225D01*
G01X43646Y83382D01*
G01X43646Y83486D01*
G01X43596Y83641D01*
G01X43491Y83745D01*
G01X43336Y83796D01*
G01X42557Y83796D01*
G01X42712Y84868D02*
G01X42607Y84764D01*
G01X42557Y84606D01*
G01X42557Y84401D01*
G01X42607Y84243D01*
G01X42712Y84139D01*
G01X42816Y84139D01*
G01X42920Y84192D01*
G01X42971Y84243D01*
G01X43024Y84347D01*
G01X43128Y84660D01*
G01X43179Y84764D01*
G01X43232Y84815D01*
G01X43336Y84868D01*
G01X43491Y84868D01*
G01X43596Y84764D01*
G01X43646Y84606D01*
G01X43646Y84401D01*
G01X43596Y84243D01*
G01X43491Y84139D01*
G01X42557Y85211D02*
G01X43646Y85211D01*
G01X42557Y85211D02*
G01X42557Y85678D01*
G01X42607Y85833D01*
G01X42661Y85887D01*
G01X42765Y85937D01*
G01X42867Y85937D01*
G01X42971Y85887D01*
G01X43024Y85833D01*
G01X43075Y85678D01*
G01X43075Y85211D02*
G01X43075Y85678D01*
G01X43128Y85833D01*
G01X43179Y85887D01*
G01X43283Y85937D01*
G01X43438Y85937D01*
G01X43542Y85887D01*
G01X43596Y85833D01*
G01X43646Y85678D01*
G01X43646Y85211D01*
G01X42765Y86280D02*
G01X42712Y86384D01*
G01X42557Y86539D01*
G01X43646Y86539D01*
G01X19037Y85915D02*
G01X18260Y85915D01*
G01X18102Y85864D01*
G01X17998Y85760D01*
G01X17947Y85603D01*
G01X17947Y85498D01*
G01X17998Y85344D01*
G01X18102Y85239D01*
G01X18260Y85189D01*
G01X19037Y85189D01*
G01X18778Y84792D02*
G01X18831Y84792D01*
G01X18935Y84742D01*
G01X18986Y84688D01*
G01X19037Y84584D01*
G01X19037Y84378D01*
G01X18986Y84274D01*
G01X18935Y84221D01*
G01X18831Y84170D01*
G01X18727Y84170D01*
G01X18623Y84221D01*
G01X18465Y84325D01*
G01X17947Y84846D01*
G01X17947Y84117D01*
G54D36*
G01X15008Y81775D02*
G01X14986Y81823D01*
G01X14940Y81869D01*
G01X14894Y81892D01*
G01X14823Y81915D01*
G01X14709Y81915D01*
G01X14640Y81892D01*
G01X14592Y81869D01*
G01X14546Y81823D01*
G01X14523Y81775D01*
G01X14523Y81683D01*
G01X14546Y81638D01*
G01X14592Y81592D01*
G01X14640Y81569D01*
G01X14709Y81546D01*
G01X14823Y81546D01*
G01X14894Y81569D01*
G01X14940Y81592D01*
G01X14986Y81638D01*
G01X15008Y81683D01*
G01X15008Y81775D01*
G01X15008Y81394D02*
G01X14663Y81394D01*
G01X14592Y81368D01*
G01X14546Y81323D01*
G01X14523Y81254D01*
G01X14523Y81208D01*
G01X14546Y81140D01*
G01X14592Y81092D01*
G01X14663Y81069D01*
G01X15008Y81069D01*
G01X15008Y80756D02*
G01X14523Y80756D01*
G01X15008Y80916D02*
G01X15008Y80594D01*
G01X14894Y84104D02*
G01X14940Y84127D01*
G01X14986Y84173D01*
G01X15008Y84218D01*
G01X15008Y84310D01*
G01X14986Y84358D01*
G01X14940Y84404D01*
G01X14894Y84427D01*
G01X14823Y84450D01*
G01X14709Y84450D01*
G01X14640Y84427D01*
G01X14592Y84404D01*
G01X14546Y84358D01*
G01X14523Y84310D01*
G01X14523Y84218D01*
G01X14546Y84173D01*
G01X14592Y84127D01*
G01X14640Y84104D01*
G01X14709Y84104D01*
G01X14709Y84218D02*
G01X14709Y84104D01*
G01X15008Y83952D02*
G01X14523Y83952D01*
G01X15008Y83952D02*
G01X14523Y83627D01*
G01X15008Y83627D02*
G01X14523Y83627D01*
G01X15008Y83474D02*
G01X14523Y83474D01*
G01X15008Y83474D02*
G01X15008Y83314D01*
G01X14986Y83243D01*
G01X14940Y83197D01*
G01X14894Y83174D01*
G01X14823Y83152D01*
G01X14709Y83152D01*
G01X14640Y83174D01*
G01X14592Y83197D01*
G01X14546Y83243D01*
G01X14523Y83314D01*
G01X14523Y83474D01*
G01X15008Y86578D02*
G01X14523Y86578D01*
G01X15008Y86426D02*
G01X14523Y86426D01*
G01X15008Y86426D02*
G01X14523Y86103D01*
G01X15008Y86103D02*
G01X14523Y86103D01*
G01X15008Y89268D02*
G01X14523Y89268D01*
G01X15008Y89268D02*
G01X15008Y88968D01*
G01X14777Y89268D02*
G01X14777Y89083D01*
G01X14523Y89268D02*
G01X14523Y88968D01*
G01X15008Y88816D02*
G01X14523Y88816D01*
G01X15008Y88816D02*
G01X14523Y88493D01*
G01X15008Y88493D02*
G01X14523Y88493D01*
G54D35*
G01X28384Y84117D02*
G01X29164Y84117D01*
G01X29321Y84167D01*
G01X29423Y84272D01*
G01X29476Y84429D01*
G01X29476Y84533D01*
G01X29423Y84688D01*
G01X29321Y84792D01*
G01X29164Y84843D01*
G01X28384Y84843D01*
G01X28384Y85290D02*
G01X28384Y85862D01*
G01X28801Y85552D01*
G01X28801Y85707D01*
G01X28851Y85811D01*
G01X28905Y85862D01*
G01X29060Y85915D01*
G01X29164Y85915D01*
G01X29321Y85862D01*
G01X29423Y85757D01*
G01X29476Y85603D01*
G01X29476Y85448D01*
G01X29423Y85290D01*
G01X29372Y85239D01*
G01X29268Y85186D01*
G54D36*
G01X30850Y82147D02*
G01X30792Y82116D01*
G01X30733Y82058D01*
G01X30705Y82002D01*
G01X30705Y81885D01*
G01X30733Y81829D01*
G01X30792Y81771D01*
G01X30850Y81740D01*
G01X30936Y81712D01*
G01X31081Y81712D01*
G01X31168Y81740D01*
G01X31224Y81771D01*
G01X31282Y81829D01*
G01X31310Y81885D01*
G01X31310Y82002D01*
G01X31282Y82058D01*
G01X31224Y82116D01*
G01X31168Y82147D01*
G01X31081Y82147D01*
G01X31081Y82002D02*
G01X31081Y82147D01*
G01X30705Y82337D02*
G01X31310Y82337D01*
G01X30705Y82337D02*
G01X31310Y82741D01*
G01X30705Y82741D02*
G01X31310Y82741D01*
G01X30705Y82931D02*
G01X31310Y82931D01*
G01X30705Y82931D02*
G01X30705Y83132D01*
G01X30733Y83218D01*
G01X30792Y83277D01*
G01X30850Y83305D01*
G01X30936Y83335D01*
G01X31081Y83335D01*
G01X31168Y83305D01*
G01X31224Y83277D01*
G01X31282Y83218D01*
G01X31310Y83132D01*
G01X31310Y82931D01*
G01X30705Y84297D02*
G01X30705Y84614D01*
G01X30936Y84441D01*
G01X30936Y84528D01*
G01X30964Y84586D01*
G01X30992Y84614D01*
G01X31081Y84642D01*
G01X31137Y84642D01*
G01X31224Y84614D01*
G01X31282Y84556D01*
G01X31310Y84469D01*
G01X31310Y84383D01*
G01X31282Y84297D01*
G01X31254Y84269D01*
G01X31196Y84238D01*
G01X30705Y84833D02*
G01X31310Y85064D01*
G01X30705Y85295D02*
G01X31310Y85064D01*
G01X30705Y85544D02*
G01X30705Y85861D01*
G01X30936Y85689D01*
G01X30936Y85775D01*
G01X30964Y85833D01*
G01X30992Y85861D01*
G01X31081Y85889D01*
G01X31137Y85889D01*
G01X31224Y85861D01*
G01X31282Y85803D01*
G01X31310Y85717D01*
G01X31310Y85630D01*
G01X31282Y85544D01*
G01X31254Y85516D01*
G01X31196Y85485D01*
G01X30705Y86980D02*
G01X31310Y87211D01*
G01X30705Y87442D02*
G01X31310Y87211D01*
G01X30705Y87633D02*
G01X31310Y87633D01*
G01X30705Y87823D02*
G01X31310Y87823D01*
G01X30705Y87823D02*
G01X31310Y88227D01*
G01X30705Y88227D02*
G01X31310Y88227D01*
G54D35*
G01X36195Y71208D02*
G01X37284Y71208D01*
G01X36195Y71208D02*
G01X36195Y71572D01*
G01X36245Y71727D01*
G01X36349Y71831D01*
G01X36454Y71884D01*
G01X36609Y71935D01*
G01X36868Y71935D01*
G01X37025Y71884D01*
G01X37129Y71831D01*
G01X37233Y71727D01*
G01X37284Y71572D01*
G01X37284Y71208D01*
G01X36454Y73058D02*
G01X36349Y73004D01*
G01X36245Y72903D01*
G01X36195Y72798D01*
G01X36195Y72590D01*
G01X36245Y72486D01*
G01X36349Y72382D01*
G01X36454Y72331D01*
G01X36609Y72278D01*
G01X36868Y72278D01*
G01X37025Y72331D01*
G01X37129Y72382D01*
G01X37233Y72486D01*
G01X37284Y72590D01*
G01X37284Y72798D01*
G01X37233Y72903D01*
G01X37129Y73004D01*
G01X37025Y73058D01*
G01X36400Y73400D02*
G01X36349Y73505D01*
G01X36195Y73660D01*
G01X37284Y73660D01*
G01X40767Y22136D02*
G01X40767Y21046D01*
G01X40767Y22136D02*
G01X41442Y22136D01*
G01X40767Y21617D02*
G01X41183Y21617D01*
G01X42407Y22136D02*
G01X41889Y22136D01*
G01X41836Y21668D01*
G01X41889Y21722D01*
G01X42044Y21772D01*
G01X42202Y21772D01*
G01X42357Y21722D01*
G01X42461Y21617D01*
G01X42511Y21463D01*
G01X42511Y21358D01*
G01X42461Y21201D01*
G01X42357Y21097D01*
G01X42202Y21046D01*
G01X42044Y21046D01*
G01X41889Y21097D01*
G01X41836Y21150D01*
G01X41785Y21254D01*
G01X17691Y34792D02*
G01X17691Y33703D01*
G01X17691Y34792D02*
G01X18366Y34792D01*
G01X17691Y34274D02*
G01X18107Y34274D01*
G01X19331Y34638D02*
G01X19281Y34742D01*
G01X19126Y34792D01*
G01X19022Y34792D01*
G01X18864Y34742D01*
G01X18760Y34587D01*
G01X18709Y34325D01*
G01X18709Y34066D01*
G01X18760Y33858D01*
G01X18864Y33754D01*
G01X19022Y33703D01*
G01X19072Y33703D01*
G01X19227Y33754D01*
G01X19331Y33858D01*
G01X19385Y34015D01*
G01X19385Y34066D01*
G01X19331Y34221D01*
G01X19227Y34325D01*
G01X19072Y34378D01*
G01X19022Y34378D01*
G01X18864Y34325D01*
G01X18760Y34221D01*
G01X18709Y34066D01*
G54D36*
G01X26339Y36560D02*
G01X26311Y36616D01*
G01X26253Y36675D01*
G01X26197Y36703D01*
G01X26080Y36703D01*
G01X26022Y36675D01*
G01X25966Y36616D01*
G01X25935Y36560D01*
G01X25908Y36471D01*
G01X25908Y36329D01*
G01X25935Y36243D01*
G01X25966Y36184D01*
G01X26022Y36126D01*
G01X26080Y36098D01*
G01X26197Y36098D01*
G01X26253Y36126D01*
G01X26311Y36184D01*
G01X26339Y36243D01*
G01X26339Y36329D01*
G01X26197Y36329D02*
G01X26339Y36329D01*
G01X26530Y36703D02*
G01X26530Y36098D01*
G01X26530Y36703D02*
G01X26936Y36098D01*
G01X26936Y36703D02*
G01X26936Y36098D01*
G01X27127Y36703D02*
G01X27127Y36098D01*
G01X27127Y36703D02*
G01X27327Y36703D01*
G01X27414Y36675D01*
G01X27472Y36616D01*
G01X27500Y36560D01*
G01X27531Y36471D01*
G01X27531Y36329D01*
G01X27500Y36243D01*
G01X27472Y36184D01*
G01X27414Y36126D01*
G01X27327Y36098D01*
G01X27127Y36098D01*
G01X23495Y36703D02*
G01X23726Y36098D01*
G01X23957Y36703D02*
G01X23726Y36098D01*
G01X24147Y36703D02*
G01X24147Y36098D01*
G01X24338Y36703D02*
G01X24338Y36098D01*
G01X24338Y36703D02*
G01X24742Y36098D01*
G01X24742Y36703D02*
G01X24742Y36098D01*
G01X21259Y36525D02*
G01X21231Y36581D01*
G01X21173Y36639D01*
G01X21117Y36667D01*
G01X21000Y36667D01*
G01X20942Y36639D01*
G01X20886Y36581D01*
G01X20855Y36525D01*
G01X20828Y36436D01*
G01X20828Y36294D01*
G01X20855Y36207D01*
G01X20886Y36149D01*
G01X20942Y36090D01*
G01X21000Y36062D01*
G01X21117Y36062D01*
G01X21173Y36090D01*
G01X21231Y36149D01*
G01X21259Y36207D01*
G01X21259Y36294D01*
G01X21117Y36294D02*
G01X21259Y36294D01*
G01X21450Y36667D02*
G01X21450Y36062D01*
G01X21450Y36667D02*
G01X21856Y36062D01*
G01X21856Y36667D02*
G01X21856Y36062D01*
G01X22047Y36667D02*
G01X22047Y36062D01*
G01X22047Y36667D02*
G01X22247Y36667D01*
G01X22334Y36639D01*
G01X22392Y36581D01*
G01X22420Y36525D01*
G01X22451Y36436D01*
G01X22451Y36294D01*
G01X22420Y36207D01*
G01X22392Y36149D01*
G01X22334Y36090D01*
G01X22247Y36062D01*
G01X22047Y36062D01*
G54D35*
G01X3048Y37211D02*
G01X3048Y36121D01*
G01X3048Y37211D02*
G01X3723Y37211D01*
G01X3048Y36692D02*
G01X3464Y36692D01*
G01X4792Y37211D02*
G01X4274Y36121D01*
G01X4066Y37211D02*
G01X4792Y37211D01*
G54D36*
G01X6291Y34792D02*
G01X5687Y34561D01*
G01X6291Y34330D02*
G01X5687Y34561D01*
G01X6291Y34140D02*
G01X5687Y34140D01*
G01X6291Y33949D02*
G01X5687Y33949D01*
G01X6291Y33949D02*
G01X5687Y33545D01*
G01X6291Y33545D02*
G01X5687Y33545D01*
G01X6418Y32252D02*
G01X5814Y32252D01*
G01X6418Y31889D02*
G01X6390Y31948D01*
G01X6332Y32003D01*
G01X6276Y32034D01*
G01X6187Y32062D01*
G01X6045Y32062D01*
G01X5958Y32034D01*
G01X5900Y32003D01*
G01X5842Y31948D01*
G01X5814Y31889D01*
G01X5814Y31772D01*
G01X5842Y31716D01*
G01X5900Y31658D01*
G01X5958Y31630D01*
G01X6045Y31600D01*
G01X6187Y31600D01*
G01X6276Y31630D01*
G01X6332Y31658D01*
G01X6390Y31716D01*
G01X6418Y31772D01*
G01X6418Y31889D01*
G01X6276Y31381D02*
G01X6304Y31381D01*
G01X6362Y31351D01*
G01X6390Y31323D01*
G01X6418Y31264D01*
G01X6418Y31150D01*
G01X6390Y31092D01*
G01X6362Y31064D01*
G01X6304Y31033D01*
G01X6245Y31033D01*
G01X6187Y31064D01*
G01X6101Y31122D01*
G01X5814Y31409D01*
G01X5814Y31005D01*
G01X6271Y29408D02*
G01X6327Y29436D01*
G01X6385Y29494D01*
G01X6413Y29550D01*
G01X6413Y29667D01*
G01X6385Y29725D01*
G01X6327Y29781D01*
G01X6271Y29811D01*
G01X6182Y29839D01*
G01X6040Y29839D01*
G01X5953Y29811D01*
G01X5895Y29781D01*
G01X5836Y29725D01*
G01X5809Y29667D01*
G01X5809Y29550D01*
G01X5836Y29494D01*
G01X5895Y29436D01*
G01X5953Y29408D01*
G01X6040Y29408D01*
G01X6040Y29550D02*
G01X6040Y29408D01*
G01X6413Y29217D02*
G01X5809Y29217D01*
G01X6413Y29217D02*
G01X5809Y28811D01*
G01X6413Y28811D02*
G01X5809Y28811D01*
G01X6413Y28620D02*
G01X5809Y28620D01*
G01X6413Y28620D02*
G01X6413Y28420D01*
G01X6385Y28333D01*
G01X6327Y28275D01*
G01X6271Y28247D01*
G01X6182Y28216D01*
G01X6040Y28216D01*
G01X5953Y28247D01*
G01X5895Y28275D01*
G01X5836Y28333D01*
G01X5809Y28420D01*
G01X5809Y28620D01*
G01X11198Y44673D02*
G01X11198Y44069D01*
G01X11198Y44673D02*
G01X11457Y44673D01*
G01X11544Y44645D01*
G01X11574Y44617D01*
G01X11602Y44559D01*
G01X11602Y44500D01*
G01X11574Y44442D01*
G01X11544Y44414D01*
G01X11457Y44386D01*
G01X11198Y44386D01*
G01X11402Y44386D02*
G01X11602Y44069D01*
G01X11793Y44559D02*
G01X11851Y44587D01*
G01X11938Y44673D01*
G01X11938Y44069D01*
G01X22369Y44673D02*
G01X22369Y44068D01*
G01X22369Y44673D02*
G01X22628Y44673D01*
G01X22715Y44645D01*
G01X22745Y44617D01*
G01X22773Y44559D01*
G01X22773Y44500D01*
G01X22745Y44442D01*
G01X22715Y44414D01*
G01X22628Y44386D01*
G01X22369Y44386D01*
G01X22573Y44386D02*
G01X22773Y44068D01*
G01X22992Y44531D02*
G01X22992Y44559D01*
G01X23022Y44617D01*
G01X23050Y44645D01*
G01X23108Y44673D01*
G01X23223Y44673D01*
G01X23281Y44645D01*
G01X23309Y44617D01*
G01X23340Y44559D01*
G01X23340Y44500D01*
G01X23309Y44442D01*
G01X23253Y44355D01*
G01X22964Y44068D01*
G01X23368Y44068D01*
G01X33799Y44800D02*
G01X33799Y44196D01*
G01X33799Y44800D02*
G01X34058Y44800D01*
G01X34145Y44772D01*
G01X34175Y44744D01*
G01X34203Y44686D01*
G01X34203Y44627D01*
G01X34175Y44569D01*
G01X34145Y44541D01*
G01X34058Y44513D01*
G01X33799Y44513D01*
G01X34002Y44513D02*
G01X34203Y44196D01*
G01X34452Y44800D02*
G01X34770Y44800D01*
G01X34597Y44569D01*
G01X34683Y44569D01*
G01X34739Y44541D01*
G01X34770Y44513D01*
G01X34797Y44427D01*
G01X34797Y44368D01*
G01X34770Y44282D01*
G01X34711Y44223D01*
G01X34625Y44196D01*
G01X34538Y44196D01*
G01X34452Y44223D01*
G01X34422Y44251D01*
G01X34394Y44310D01*
G54D35*
G01X2921Y88138D02*
G01X2921Y87048D01*
G01X2921Y88138D02*
G01X3337Y87048D01*
G01X3751Y88138D02*
G01X3337Y87048D01*
G01X3751Y88138D02*
G01X3751Y87048D01*
G01X4147Y87878D02*
G01X4147Y87932D01*
G01X4198Y88036D01*
G01X4251Y88087D01*
G01X4356Y88138D01*
G01X4561Y88138D01*
G01X4665Y88087D01*
G01X4719Y88036D01*
G01X4770Y87932D01*
G01X4770Y87828D01*
G01X4719Y87724D01*
G01X4615Y87566D01*
G01X4094Y87048D01*
G01X4823Y87048D01*
G01X29845Y97053D02*
G01X29845Y98143D01*
G01X29845Y97053D02*
G01X29428Y98143D01*
G01X29014Y97053D02*
G01X29428Y98143D01*
G01X29014Y97053D02*
G01X29014Y98143D01*
G01X28567Y97053D02*
G01X27995Y97053D01*
G01X28308Y97467D01*
G01X28150Y97467D01*
G01X28046Y97520D01*
G01X27995Y97571D01*
G01X27942Y97726D01*
G01X27942Y97830D01*
G01X27995Y97988D01*
G01X28100Y98092D01*
G01X28254Y98143D01*
G01X28409Y98143D01*
G01X28567Y98092D01*
G01X28618Y98038D01*
G01X28671Y97934D01*
G01X3223Y38737D02*
G01X4312Y38737D01*
G01X3223Y38737D02*
G01X3223Y39413D01*
G01X3741Y38737D02*
G01X3741Y39154D01*
G01X3429Y39756D02*
G01X3378Y39860D01*
G01X3223Y40015D01*
G01X4312Y40015D01*
G01X40640Y52705D02*
G01X40640Y51615D01*
G01X40640Y52705D02*
G01X41315Y52705D01*
G01X40640Y52186D02*
G01X41056Y52186D01*
G01X41709Y52445D02*
G01X41709Y52499D01*
G01X41762Y52603D01*
G01X41813Y52654D01*
G01X41917Y52705D01*
G01X42125Y52705D01*
G01X42230Y52654D01*
G01X42280Y52603D01*
G01X42334Y52499D01*
G01X42334Y52395D01*
G01X42280Y52291D01*
G01X42176Y52133D01*
G01X41658Y51615D01*
G01X42384Y51615D01*
G01X3035Y24350D02*
G01X3035Y23261D01*
G01X3035Y24350D02*
G01X3710Y24350D01*
G01X3035Y23832D02*
G01X3451Y23832D01*
G01X4571Y24350D02*
G01X4053Y23624D01*
G01X4833Y23624D01*
G01X4571Y24350D02*
G01X4571Y23261D01*
G01X7239Y97078D02*
G01X7239Y98168D01*
G01X7239Y97078D02*
G01X6822Y98168D01*
G01X6408Y97078D02*
G01X6822Y98168D01*
G01X6408Y97078D02*
G01X6408Y98168D01*
G01X5544Y97078D02*
G01X6065Y97805D01*
G01X5285Y97805D01*
G01X5544Y97078D02*
G01X5544Y98168D01*
G01X18034Y65062D02*
G01X18034Y63972D01*
G01X18034Y65062D02*
G01X18709Y65062D01*
G01X18034Y64543D02*
G01X18450Y64543D01*
G01X19156Y65062D02*
G01X19728Y65062D01*
G01X19415Y64648D01*
G01X19570Y64648D01*
G01X19674Y64594D01*
G01X19728Y64543D01*
G01X19778Y64389D01*
G01X19778Y64284D01*
G01X19728Y64127D01*
G01X19624Y64023D01*
G01X19469Y63972D01*
G01X19311Y63972D01*
G01X19156Y64023D01*
G01X19103Y64076D01*
G01X19052Y64180D01*
G54D36*
G01X21259Y66929D02*
G01X21231Y66984D01*
G01X21173Y67043D01*
G01X21117Y67071D01*
G01X21000Y67071D01*
G01X20942Y67043D01*
G01X20886Y66984D01*
G01X20855Y66929D01*
G01X20828Y66840D01*
G01X20828Y66697D01*
G01X20855Y66611D01*
G01X20886Y66553D01*
G01X20942Y66494D01*
G01X21000Y66466D01*
G01X21117Y66466D01*
G01X21173Y66494D01*
G01X21231Y66553D01*
G01X21259Y66611D01*
G01X21259Y66697D01*
G01X21117Y66697D02*
G01X21259Y66697D01*
G01X21450Y67071D02*
G01X21450Y66466D01*
G01X21450Y67071D02*
G01X21856Y66466D01*
G01X21856Y67071D02*
G01X21856Y66466D01*
G01X22047Y67071D02*
G01X22047Y66466D01*
G01X22047Y67071D02*
G01X22247Y67071D01*
G01X22334Y67043D01*
G01X22392Y66984D01*
G01X22420Y66929D01*
G01X22451Y66840D01*
G01X22451Y66697D01*
G01X22420Y66611D01*
G01X22392Y66553D01*
G01X22334Y66494D01*
G01X22247Y66466D01*
G01X22047Y66466D01*
G01X23367Y67055D02*
G01X23599Y66451D01*
G01X23830Y67055D02*
G01X23599Y66451D01*
G01X24020Y67055D02*
G01X24020Y66451D01*
G01X24211Y67055D02*
G01X24211Y66451D01*
G01X24211Y67055D02*
G01X24615Y66451D01*
G01X24615Y67055D02*
G01X24615Y66451D01*
G01X26339Y66929D02*
G01X26311Y66984D01*
G01X26253Y67043D01*
G01X26197Y67071D01*
G01X26080Y67071D01*
G01X26022Y67043D01*
G01X25966Y66984D01*
G01X25935Y66929D01*
G01X25907Y66840D01*
G01X25907Y66697D01*
G01X25935Y66611D01*
G01X25966Y66553D01*
G01X26022Y66494D01*
G01X26080Y66466D01*
G01X26197Y66466D01*
G01X26253Y66494D01*
G01X26311Y66553D01*
G01X26339Y66611D01*
G01X26339Y66697D01*
G01X26197Y66697D02*
G01X26339Y66697D01*
G01X26530Y67071D02*
G01X26530Y66466D01*
G01X26530Y67071D02*
G01X26936Y66466D01*
G01X26936Y67071D02*
G01X26936Y66466D01*
G01X27127Y67071D02*
G01X27127Y66466D01*
G01X27127Y67071D02*
G01X27327Y67071D01*
G01X27414Y67043D01*
G01X27472Y66984D01*
G01X27500Y66929D01*
G01X27531Y66840D01*
G01X27531Y66697D01*
G01X27500Y66611D01*
G01X27472Y66553D01*
G01X27414Y66494D01*
G01X27327Y66466D01*
G01X27127Y66466D01*
G54D35*
G01X3035Y85293D02*
G01X3035Y84203D01*
G01X3035Y85293D02*
G01X3451Y84203D01*
G01X3865Y85293D02*
G01X3451Y84203D01*
G01X3865Y85293D02*
G01X3865Y84203D01*
G01X4208Y85087D02*
G01X4312Y85138D01*
G01X4470Y85293D01*
G01X4470Y84203D01*
G54D36*
G01X7487Y65278D02*
G01X7487Y64673D01*
G01X7487Y65278D02*
G01X7746Y65278D01*
G01X7833Y65250D01*
G01X7863Y65222D01*
G01X7891Y65163D01*
G01X7891Y65105D01*
G01X7863Y65046D01*
G01X7833Y65018D01*
G01X7746Y64991D01*
G01X7487Y64991D01*
G01X7691Y64991D02*
G01X7891Y64673D01*
G01X8427Y65278D02*
G01X8140Y65278D01*
G01X8110Y65018D01*
G01X8140Y65046D01*
G01X8227Y65077D01*
G01X8313Y65077D01*
G01X8399Y65046D01*
G01X8458Y64991D01*
G01X8486Y64904D01*
G01X8486Y64846D01*
G01X8458Y64759D01*
G01X8399Y64701D01*
G01X8313Y64673D01*
G01X8227Y64673D01*
G01X8140Y64701D01*
G01X8110Y64729D01*
G01X8082Y64787D01*
G01X4952Y58193D02*
G01X5557Y58193D01*
G01X4952Y58193D02*
G01X4952Y58453D01*
G01X4980Y58539D01*
G01X5008Y58569D01*
G01X5067Y58597D01*
G01X5125Y58597D01*
G01X5184Y58569D01*
G01X5212Y58539D01*
G01X5239Y58453D01*
G01X5239Y58193D01*
G01X5239Y58397D02*
G01X5557Y58597D01*
G01X5039Y59133D02*
G01X4980Y59105D01*
G01X4952Y59019D01*
G01X4952Y58961D01*
G01X4980Y58874D01*
G01X5067Y58816D01*
G01X5212Y58788D01*
G01X5356Y58788D01*
G01X5471Y58816D01*
G01X5529Y58874D01*
G01X5557Y58961D01*
G01X5557Y58991D01*
G01X5529Y59077D01*
G01X5471Y59133D01*
G01X5384Y59164D01*
G01X5356Y59164D01*
G01X5270Y59133D01*
G01X5212Y59077D01*
G01X5184Y58991D01*
G01X5184Y58961D01*
G01X5212Y58874D01*
G01X5270Y58816D01*
G01X5356Y58788D01*
G01X2651Y58166D02*
G01X3256Y58166D01*
G01X2651Y58166D02*
G01X2651Y58425D01*
G01X2679Y58511D01*
G01X2707Y58541D01*
G01X2766Y58569D01*
G01X2824Y58569D01*
G01X2882Y58541D01*
G01X2910Y58511D01*
G01X2938Y58425D01*
G01X2938Y58166D01*
G01X2938Y58369D02*
G01X3256Y58569D01*
G01X2651Y59164D02*
G01X3256Y58877D01*
G01X2651Y58760D02*
G01X2651Y59164D01*
G01X9530Y92613D02*
G01X9212Y92613D01*
G01X9385Y92844D01*
G01X9298Y92844D01*
G01X9243Y92872D01*
G01X9212Y92900D01*
G01X9184Y92986D01*
G01X9184Y93045D01*
G01X9212Y93131D01*
G01X9271Y93190D01*
G01X9357Y93218D01*
G01X9443Y93218D01*
G01X9530Y93190D01*
G01X9560Y93162D01*
G01X9588Y93103D01*
G01X8994Y92613D02*
G01X8763Y93218D01*
G01X8531Y92613D02*
G01X8763Y93218D01*
G01X8282Y92613D02*
G01X7965Y92613D01*
G01X8140Y92844D01*
G01X8051Y92844D01*
G01X7995Y92872D01*
G01X7965Y92900D01*
G01X7937Y92986D01*
G01X7937Y93045D01*
G01X7965Y93131D01*
G01X8023Y93190D01*
G01X8110Y93218D01*
G01X8196Y93218D01*
G01X8282Y93190D01*
G01X8313Y93162D01*
G01X8341Y93103D01*
G01X17094Y92633D02*
G01X17122Y92577D01*
G01X17180Y92519D01*
G01X17236Y92491D01*
G01X17353Y92491D01*
G01X17411Y92519D01*
G01X17467Y92577D01*
G01X17498Y92633D01*
G01X17526Y92722D01*
G01X17526Y92864D01*
G01X17498Y92951D01*
G01X17467Y93009D01*
G01X17411Y93068D01*
G01X17353Y93096D01*
G01X17236Y93096D01*
G01X17180Y93068D01*
G01X17122Y93009D01*
G01X17094Y92951D01*
G01X17094Y92864D01*
G01X17236Y92864D02*
G01X17094Y92864D01*
G01X16903Y92491D02*
G01X16903Y93096D01*
G01X16903Y92491D02*
G01X16497Y93096D01*
G01X16497Y92491D02*
G01X16497Y93096D01*
G01X16306Y92491D02*
G01X16306Y93096D01*
G01X16306Y92491D02*
G01X16106Y92491D01*
G01X16019Y92519D01*
G01X15961Y92577D01*
G01X15933Y92633D01*
G01X15902Y92722D01*
G01X15902Y92864D01*
G01X15933Y92951D01*
G01X15961Y93009D01*
G01X16019Y93068D01*
G01X16106Y93096D01*
G01X16306Y93096D01*
G01X14447Y92613D02*
G01X14447Y93218D01*
G01X14650Y92613D02*
G01X14246Y92613D01*
G01X14056Y92613D02*
G01X13652Y93218D01*
G01X13652Y92613D02*
G01X14056Y93218D01*
G01X11793Y92613D02*
G01X11793Y93218D01*
G01X11793Y92613D02*
G01X11534Y92613D01*
G01X11447Y92641D01*
G01X11417Y92669D01*
G01X11389Y92727D01*
G01X11389Y92786D01*
G01X11417Y92844D01*
G01X11447Y92872D01*
G01X11534Y92900D01*
G01X11793Y92900D01*
G01X11590Y92900D02*
G01X11389Y93218D01*
G01X11198Y92613D02*
G01X10795Y93218D01*
G01X10795Y92613D02*
G01X11198Y93218D01*
G01X14640Y91343D02*
G01X14640Y91948D01*
G01X14277Y91343D02*
G01X14335Y91371D01*
G01X14391Y91429D01*
G01X14422Y91485D01*
G01X14450Y91574D01*
G01X14450Y91716D01*
G01X14422Y91803D01*
G01X14391Y91861D01*
G01X14335Y91920D01*
G01X14277Y91948D01*
G01X14160Y91948D01*
G01X14104Y91920D01*
G01X14046Y91861D01*
G01X14018Y91803D01*
G01X13987Y91716D01*
G01X13987Y91574D01*
G01X14018Y91485D01*
G01X14046Y91429D01*
G01X14104Y91371D01*
G01X14160Y91343D01*
G01X14277Y91343D01*
G01X13797Y91457D02*
G01X13738Y91429D01*
G01X13652Y91343D01*
G01X13652Y91948D01*
G01X11724Y91343D02*
G01X11724Y91947D01*
G01X11361Y91343D02*
G01X11419Y91371D01*
G01X11475Y91429D01*
G01X11506Y91485D01*
G01X11534Y91574D01*
G01X11534Y91716D01*
G01X11506Y91803D01*
G01X11475Y91861D01*
G01X11419Y91920D01*
G01X11361Y91947D01*
G01X11244Y91947D01*
G01X11188Y91920D01*
G01X11130Y91861D01*
G01X11102Y91803D01*
G01X11071Y91716D01*
G01X11071Y91574D01*
G01X11102Y91485D01*
G01X11130Y91429D01*
G01X11188Y91371D01*
G01X11244Y91343D01*
G01X11361Y91343D01*
G01X10822Y91343D02*
G01X10505Y91343D01*
G01X10680Y91574D01*
G01X10594Y91574D01*
G01X10535Y91602D01*
G01X10505Y91630D01*
G01X10477Y91716D01*
G01X10477Y91775D01*
G01X10505Y91861D01*
G01X10563Y91920D01*
G01X10650Y91947D01*
G01X10736Y91947D01*
G01X10822Y91920D01*
G01X10853Y91892D01*
G01X10881Y91833D01*
G01X6060Y95758D02*
G01X5455Y95526D01*
G01X6060Y95295D02*
G01X5455Y95526D01*
G01X6060Y95105D02*
G01X5455Y95105D01*
G01X6060Y94914D02*
G01X5455Y94914D01*
G01X6060Y94914D02*
G01X5455Y94510D01*
G01X6060Y94510D02*
G01X5455Y94510D01*
G01X5976Y90246D02*
G01X6032Y90274D01*
G01X6090Y90332D01*
G01X6118Y90388D01*
G01X6118Y90505D01*
G01X6090Y90563D01*
G01X6032Y90619D01*
G01X5976Y90650D01*
G01X5887Y90678D01*
G01X5745Y90678D01*
G01X5659Y90650D01*
G01X5600Y90619D01*
G01X5542Y90563D01*
G01X5514Y90505D01*
G01X5514Y90388D01*
G01X5542Y90332D01*
G01X5600Y90274D01*
G01X5659Y90246D01*
G01X5745Y90246D01*
G01X5745Y90388D02*
G01X5745Y90246D01*
G01X6118Y90055D02*
G01X5514Y90055D01*
G01X6118Y90055D02*
G01X5514Y89649D01*
G01X6118Y89649D02*
G01X5514Y89649D01*
G01X6118Y89458D02*
G01X5514Y89458D01*
G01X6118Y89458D02*
G01X6118Y89258D01*
G01X6090Y89171D01*
G01X6032Y89113D01*
G01X5976Y89085D01*
G01X5887Y89054D01*
G01X5745Y89054D01*
G01X5659Y89085D01*
G01X5600Y89113D01*
G01X5542Y89171D01*
G01X5514Y89258D01*
G01X5514Y89458D01*
G01X6118Y93218D02*
G01X5514Y93218D01*
G01X6118Y92854D02*
G01X6090Y92913D01*
G01X6032Y92969D01*
G01X5976Y92999D01*
G01X5887Y93027D01*
G01X5745Y93027D01*
G01X5659Y92999D01*
G01X5600Y92969D01*
G01X5542Y92913D01*
G01X5514Y92854D01*
G01X5514Y92737D01*
G01X5542Y92682D01*
G01X5600Y92623D01*
G01X5659Y92595D01*
G01X5745Y92565D01*
G01X5887Y92565D01*
G01X5976Y92595D01*
G01X6032Y92623D01*
G01X6090Y92682D01*
G01X6118Y92737D01*
G01X6118Y92854D01*
G01X5976Y92346D02*
G01X6004Y92346D01*
G01X6062Y92316D01*
G01X6090Y92288D01*
G01X6118Y92229D01*
G01X6118Y92115D01*
G01X6090Y92057D01*
G01X6062Y92029D01*
G01X6004Y91998D01*
G01X5946Y91998D01*
G01X5887Y92029D01*
G01X5801Y92087D01*
G01X5514Y92374D01*
G01X5514Y91970D01*
G01X6060Y72898D02*
G01X5455Y72666D01*
G01X6060Y72435D02*
G01X5455Y72666D01*
G01X6060Y72245D02*
G01X5455Y72245D01*
G01X6060Y72054D02*
G01X5455Y72054D01*
G01X6060Y72054D02*
G01X5455Y71650D01*
G01X6060Y71650D02*
G01X5455Y71650D01*
G01X5918Y82943D02*
G01X5974Y82971D01*
G01X6032Y83030D01*
G01X6060Y83085D01*
G01X6060Y83202D01*
G01X6032Y83261D01*
G01X5974Y83317D01*
G01X5918Y83347D01*
G01X5829Y83375D01*
G01X5687Y83375D01*
G01X5600Y83347D01*
G01X5542Y83317D01*
G01X5483Y83261D01*
G01X5455Y83202D01*
G01X5455Y83085D01*
G01X5483Y83030D01*
G01X5542Y82971D01*
G01X5600Y82943D01*
G01X5687Y82943D01*
G01X5687Y83085D02*
G01X5687Y82943D01*
G01X6060Y82753D02*
G01X5455Y82753D01*
G01X6060Y82753D02*
G01X5455Y82346D01*
G01X6060Y82346D02*
G01X5455Y82346D01*
G01X6060Y82156D02*
G01X5455Y82156D01*
G01X6060Y82156D02*
G01X6060Y81955D01*
G01X6032Y81869D01*
G01X5974Y81810D01*
G01X5918Y81782D01*
G01X5829Y81752D01*
G01X5687Y81752D01*
G01X5600Y81782D01*
G01X5542Y81810D01*
G01X5483Y81869D01*
G01X5455Y81955D01*
G01X5455Y82156D01*
G01X6002Y77978D02*
G01X5397Y77978D01*
G01X6002Y77614D02*
G01X5974Y77673D01*
G01X5915Y77729D01*
G01X5859Y77759D01*
G01X5770Y77787D01*
G01X5628Y77787D01*
G01X5542Y77759D01*
G01X5483Y77729D01*
G01X5425Y77673D01*
G01X5397Y77614D01*
G01X5397Y77497D01*
G01X5425Y77442D01*
G01X5483Y77383D01*
G01X5542Y77355D01*
G01X5628Y77325D01*
G01X5770Y77325D01*
G01X5859Y77355D01*
G01X5915Y77383D01*
G01X5974Y77442D01*
G01X6002Y77497D01*
G01X6002Y77614D01*
G01X5859Y77106D02*
G01X5887Y77106D01*
G01X5946Y77076D01*
G01X5974Y77048D01*
G01X6002Y76989D01*
G01X6002Y76875D01*
G01X5974Y76817D01*
G01X5946Y76789D01*
G01X5887Y76758D01*
G01X5829Y76758D01*
G01X5770Y76789D01*
G01X5684Y76847D01*
G01X5397Y77134D01*
G01X5397Y76730D01*
G01X6060Y80518D02*
G01X5455Y80518D01*
G01X6060Y80154D02*
G01X6032Y80213D01*
G01X5974Y80269D01*
G01X5918Y80299D01*
G01X5829Y80327D01*
G01X5687Y80327D01*
G01X5600Y80299D01*
G01X5542Y80269D01*
G01X5483Y80213D01*
G01X5455Y80154D01*
G01X5455Y80037D01*
G01X5483Y79982D01*
G01X5542Y79923D01*
G01X5600Y79895D01*
G01X5687Y79865D01*
G01X5829Y79865D01*
G01X5918Y79895D01*
G01X5974Y79923D01*
G01X6032Y79982D01*
G01X6060Y80037D01*
G01X6060Y80154D01*
G01X6060Y79616D02*
G01X6060Y79298D01*
G01X5829Y79474D01*
G01X5829Y79387D01*
G01X5801Y79329D01*
G01X5773Y79298D01*
G01X5687Y79270D01*
G01X5628Y79270D01*
G01X5542Y79298D01*
G01X5483Y79357D01*
G01X5455Y79443D01*
G01X5455Y79529D01*
G01X5483Y79616D01*
G01X5511Y79646D01*
G01X5570Y79674D01*
G01X6060Y75438D02*
G01X5455Y75438D01*
G01X6060Y75074D02*
G01X6032Y75133D01*
G01X5974Y75189D01*
G01X5918Y75219D01*
G01X5829Y75247D01*
G01X5687Y75247D01*
G01X5600Y75219D01*
G01X5542Y75189D01*
G01X5483Y75133D01*
G01X5455Y75074D01*
G01X5455Y74957D01*
G01X5483Y74902D01*
G01X5542Y74843D01*
G01X5600Y74815D01*
G01X5687Y74785D01*
G01X5829Y74785D01*
G01X5918Y74815D01*
G01X5974Y74843D01*
G01X6032Y74902D01*
G01X6060Y74957D01*
G01X6060Y75074D01*
G01X5946Y74594D02*
G01X5974Y74536D01*
G01X6060Y74449D01*
G01X5455Y74449D01*
G01X21793Y92697D02*
G01X21821Y92641D01*
G01X21879Y92583D01*
G01X21935Y92555D01*
G01X22052Y92555D01*
G01X22110Y92583D01*
G01X22166Y92641D01*
G01X22197Y92697D01*
G01X22225Y92786D01*
G01X22225Y92928D01*
G01X22197Y93014D01*
G01X22166Y93073D01*
G01X22110Y93131D01*
G01X22052Y93159D01*
G01X21935Y93159D01*
G01X21879Y93131D01*
G01X21821Y93073D01*
G01X21793Y93014D01*
G01X21793Y92928D01*
G01X21935Y92928D02*
G01X21793Y92928D01*
G01X21602Y92555D02*
G01X21602Y93159D01*
G01X21602Y92555D02*
G01X21196Y93159D01*
G01X21196Y92555D02*
G01X21196Y93159D01*
G01X21005Y92555D02*
G01X21005Y93159D01*
G01X21005Y92555D02*
G01X20805Y92555D01*
G01X20718Y92583D01*
G01X20660Y92641D01*
G01X20632Y92697D01*
G01X20601Y92786D01*
G01X20601Y92928D01*
G01X20632Y93014D01*
G01X20660Y93073D01*
G01X20718Y93131D01*
G01X20805Y93159D01*
G01X21005Y93159D01*
G01X26873Y92697D02*
G01X26901Y92641D01*
G01X26959Y92583D01*
G01X27015Y92555D01*
G01X27132Y92555D01*
G01X27190Y92583D01*
G01X27246Y92641D01*
G01X27277Y92697D01*
G01X27305Y92786D01*
G01X27305Y92928D01*
G01X27277Y93014D01*
G01X27246Y93073D01*
G01X27190Y93131D01*
G01X27132Y93159D01*
G01X27015Y93159D01*
G01X26959Y93131D01*
G01X26901Y93073D01*
G01X26873Y93014D01*
G01X26873Y92928D01*
G01X27015Y92928D02*
G01X26873Y92928D01*
G01X26682Y92555D02*
G01X26682Y93159D01*
G01X26682Y92555D02*
G01X26276Y93159D01*
G01X26276Y92555D02*
G01X26276Y93159D01*
G01X26085Y92555D02*
G01X26085Y93159D01*
G01X26085Y92555D02*
G01X25885Y92555D01*
G01X25798Y92583D01*
G01X25740Y92641D01*
G01X25712Y92697D01*
G01X25681Y92786D01*
G01X25681Y92928D01*
G01X25712Y93014D01*
G01X25740Y93073D01*
G01X25798Y93131D01*
G01X25885Y93159D01*
G01X26085Y93159D01*
G01X24765Y92555D02*
G01X24533Y93159D01*
G01X24302Y92555D02*
G01X24533Y93159D01*
G01X24112Y92555D02*
G01X24112Y93159D01*
G01X23921Y92555D02*
G01X23921Y93159D01*
G01X23921Y92555D02*
G01X23517Y93159D01*
G01X23517Y92555D02*
G01X23517Y93159D01*
G01X37350Y96824D02*
G01X37378Y96768D01*
G01X37437Y96710D01*
G01X37492Y96682D01*
G01X37609Y96682D01*
G01X37668Y96710D01*
G01X37724Y96768D01*
G01X37754Y96824D01*
G01X37782Y96913D01*
G01X37782Y97055D01*
G01X37754Y97142D01*
G01X37724Y97200D01*
G01X37668Y97259D01*
G01X37609Y97287D01*
G01X37492Y97287D01*
G01X37437Y97259D01*
G01X37378Y97200D01*
G01X37350Y97142D01*
G01X37350Y97055D01*
G01X37492Y97055D02*
G01X37350Y97055D01*
G01X37160Y96682D02*
G01X37160Y97287D01*
G01X37160Y96682D02*
G01X36753Y97287D01*
G01X36753Y96682D02*
G01X36753Y97287D01*
G01X36563Y96682D02*
G01X36563Y97287D01*
G01X36563Y96682D02*
G01X36362Y96682D01*
G01X36276Y96710D01*
G01X36217Y96768D01*
G01X36189Y96824D01*
G01X36159Y96913D01*
G01X36159Y97055D01*
G01X36189Y97142D01*
G01X36217Y97200D01*
G01X36276Y97259D01*
G01X36362Y97287D01*
G01X36563Y97287D01*
G01X34810Y96824D02*
G01X34838Y96768D01*
G01X34897Y96710D01*
G01X34952Y96682D01*
G01X35069Y96682D01*
G01X35128Y96710D01*
G01X35184Y96768D01*
G01X35214Y96824D01*
G01X35242Y96913D01*
G01X35242Y97055D01*
G01X35214Y97142D01*
G01X35184Y97200D01*
G01X35128Y97259D01*
G01X35069Y97287D01*
G01X34952Y97287D01*
G01X34897Y97259D01*
G01X34838Y97200D01*
G01X34810Y97142D01*
G01X34810Y97055D01*
G01X34952Y97055D02*
G01X34810Y97055D01*
G01X34620Y96682D02*
G01X34620Y97287D01*
G01X34620Y96682D02*
G01X34213Y97287D01*
G01X34213Y96682D02*
G01X34213Y97287D01*
G01X34023Y96682D02*
G01X34023Y97287D01*
G01X34023Y96682D02*
G01X33822Y96682D01*
G01X33736Y96710D01*
G01X33677Y96768D01*
G01X33649Y96824D01*
G01X33619Y96913D01*
G01X33619Y97055D01*
G01X33649Y97142D01*
G01X33677Y97200D01*
G01X33736Y97259D01*
G01X33822Y97287D01*
G01X34023Y97287D01*
G01X34925Y90332D02*
G01X34693Y90937D01*
G01X34462Y90332D02*
G01X34693Y90937D01*
G01X34272Y90332D02*
G01X34272Y90937D01*
G01X34081Y90332D02*
G01X34081Y90937D01*
G01X34081Y90332D02*
G01X33677Y90937D01*
G01X33677Y90332D02*
G01X33677Y90937D01*
G01X37724Y90332D02*
G01X37406Y90332D01*
G01X37579Y90563D01*
G01X37492Y90563D01*
G01X37437Y90591D01*
G01X37406Y90619D01*
G01X37378Y90705D01*
G01X37378Y90764D01*
G01X37406Y90850D01*
G01X37465Y90909D01*
G01X37551Y90937D01*
G01X37637Y90937D01*
G01X37724Y90909D01*
G01X37754Y90881D01*
G01X37782Y90822D01*
G01X37188Y90332D02*
G01X36957Y90937D01*
G01X36725Y90332D02*
G01X36957Y90937D01*
G01X36476Y90332D02*
G01X36159Y90332D01*
G01X36334Y90563D01*
G01X36245Y90563D01*
G01X36189Y90591D01*
G01X36159Y90619D01*
G01X36131Y90705D01*
G01X36131Y90764D01*
G01X36159Y90850D01*
G01X36217Y90909D01*
G01X36304Y90937D01*
G01X36390Y90937D01*
G01X36476Y90909D01*
G01X36507Y90881D01*
G01X36535Y90822D01*
G01X34897Y71945D02*
G01X35501Y72176D01*
G01X34897Y72407D02*
G01X35501Y72176D01*
G01X34897Y72598D02*
G01X35501Y72598D01*
G01X34897Y72788D02*
G01X35501Y72788D01*
G01X34897Y72788D02*
G01X35501Y73192D01*
G01X34897Y73192D02*
G01X35501Y73192D01*
G01X41389Y72059D02*
G01X41333Y72031D01*
G01X41275Y71973D01*
G01X41247Y71917D01*
G01X41247Y71800D01*
G01X41275Y71742D01*
G01X41333Y71686D01*
G01X41389Y71655D01*
G01X41478Y71628D01*
G01X41620Y71628D01*
G01X41706Y71655D01*
G01X41765Y71686D01*
G01X41823Y71742D01*
G01X41851Y71800D01*
G01X41851Y71917D01*
G01X41823Y71973D01*
G01X41765Y72031D01*
G01X41706Y72059D01*
G01X41620Y72059D01*
G01X41620Y71917D02*
G01X41620Y72059D01*
G01X41247Y72250D02*
G01X41851Y72250D01*
G01X41247Y72250D02*
G01X41851Y72656D01*
G01X41247Y72656D02*
G01X41851Y72656D01*
G01X41247Y72847D02*
G01X41851Y72847D01*
G01X41247Y72847D02*
G01X41247Y73047D01*
G01X41275Y73134D01*
G01X41333Y73192D01*
G01X41389Y73220D01*
G01X41478Y73251D01*
G01X41620Y73251D01*
G01X41706Y73220D01*
G01X41765Y73192D01*
G01X41823Y73134D01*
G01X41851Y73047D01*
G01X41851Y72847D01*
G01X16510Y73878D02*
G01X16510Y73273D01*
G01X16510Y73878D02*
G01X16769Y73878D01*
G01X16855Y73850D01*
G01X16885Y73822D01*
G01X16913Y73764D01*
G01X16913Y73705D01*
G01X16885Y73647D01*
G01X16855Y73619D01*
G01X16769Y73591D01*
G01X16510Y73591D01*
G01X16713Y73591D02*
G01X16913Y73273D01*
G01X17508Y73792D02*
G01X17449Y73850D01*
G01X17363Y73878D01*
G01X17249Y73878D01*
G01X17162Y73850D01*
G01X17104Y73792D01*
G01X17104Y73736D01*
G01X17132Y73677D01*
G01X17162Y73647D01*
G01X17221Y73619D01*
G01X17393Y73560D01*
G01X17449Y73533D01*
G01X17480Y73505D01*
G01X17508Y73446D01*
G01X17508Y73360D01*
G01X17449Y73301D01*
G01X17363Y73273D01*
G01X17249Y73273D01*
G01X17162Y73301D01*
G01X17104Y73360D01*
G01X17901Y73878D02*
G01X17901Y73273D01*
G01X17698Y73878D02*
G01X18102Y73878D01*
G01X27940Y73878D02*
G01X27940Y73273D01*
G01X27940Y73878D02*
G01X28315Y73878D01*
G01X27940Y73591D02*
G01X28171Y73591D01*
G01X28506Y73878D02*
G01X28506Y73273D01*
G01X28506Y73273D02*
G01X28851Y73273D01*
G01X29273Y73878D02*
G01X29042Y73273D01*
G01X29273Y73878D02*
G01X29504Y73273D01*
G01X29128Y73474D02*
G01X29418Y73474D01*
G01X30099Y73792D02*
G01X30040Y73850D01*
G01X29954Y73878D01*
G01X29839Y73878D01*
G01X29753Y73850D01*
G01X29695Y73792D01*
G01X29695Y73736D01*
G01X29723Y73677D01*
G01X29753Y73647D01*
G01X29809Y73619D01*
G01X29984Y73560D01*
G01X30040Y73533D01*
G01X30071Y73505D01*
G01X30099Y73446D01*
G01X30099Y73360D01*
G01X30040Y73301D01*
G01X29954Y73273D01*
G01X29839Y73273D01*
G01X29753Y73301D01*
G01X29695Y73360D01*
G01X30289Y73878D02*
G01X30289Y73273D01*
G01X30693Y73878D02*
G01X30693Y73273D01*
G01X30289Y73591D02*
G01X30693Y73591D01*
G01X19812Y78752D02*
G01X19870Y78780D01*
G01X19956Y78867D01*
G01X19956Y78262D01*
G01X20320Y78867D02*
G01X20233Y78839D01*
G01X20175Y78752D01*
G01X20147Y78607D01*
G01X20147Y78521D01*
G01X20175Y78376D01*
G01X20233Y78290D01*
G01X20320Y78262D01*
G01X20378Y78262D01*
G01X20464Y78290D01*
G01X20523Y78376D01*
G01X20551Y78521D01*
G01X20551Y78607D01*
G01X20523Y78752D01*
G01X20464Y78839D01*
G01X20378Y78867D01*
G01X20320Y78867D01*
G01X20741Y78867D02*
G01X20741Y78262D01*
G01X21031Y78666D02*
G01X20741Y78376D01*
G01X20855Y78493D02*
G01X21059Y78262D01*
G01X39052Y95498D02*
G01X38994Y95470D01*
G01X38907Y95384D01*
G01X38907Y95989D01*
G01X38717Y95585D02*
G01X38717Y95874D01*
G01X38689Y95961D01*
G01X38630Y95989D01*
G01X38544Y95989D01*
G01X38486Y95961D01*
G01X38399Y95874D01*
G01X38399Y95585D02*
G01X38399Y95989D01*
G01X32702Y95526D02*
G01X32644Y95498D01*
G01X32557Y95412D01*
G01X32557Y96017D01*
G01X32367Y95613D02*
G01X32367Y95902D01*
G01X32339Y95989D01*
G01X32280Y96017D01*
G01X32194Y96017D01*
G01X32136Y95989D01*
G01X32049Y95902D01*
G01X32049Y95613D02*
G01X32049Y96017D01*
G01X39100Y61767D02*
G01X39128Y61709D01*
G01X39187Y61653D01*
G01X39243Y61622D01*
G01X39331Y61595D01*
G01X39474Y61595D01*
G01X39560Y61622D01*
G01X39618Y61653D01*
G01X39677Y61709D01*
G01X39705Y61767D01*
G01X39705Y61884D01*
G01X39677Y61940D01*
G01X39618Y61998D01*
G01X39560Y62026D01*
G01X39474Y62057D01*
G01X39331Y62057D01*
G01X39243Y62026D01*
G01X39187Y61998D01*
G01X39128Y61940D01*
G01X39100Y61884D01*
G01X39100Y61767D01*
G01X39215Y62247D02*
G01X39187Y62306D01*
G01X39100Y62392D01*
G01X39705Y62392D01*
G01X39116Y63903D02*
G01X39720Y64135D01*
G01X39116Y64366D02*
G01X39720Y64135D01*
G01X39116Y64556D02*
G01X39720Y64556D01*
G01X39116Y64747D02*
G01X39720Y64747D01*
G01X39116Y64747D02*
G01X39720Y65151D01*
G01X39116Y65151D02*
G01X39720Y65151D01*
G01X39258Y54053D02*
G01X39202Y54025D01*
G01X39143Y53967D01*
G01X39116Y53911D01*
G01X39116Y53794D01*
G01X39143Y53736D01*
G01X39202Y53680D01*
G01X39258Y53649D01*
G01X39347Y53621D01*
G01X39489Y53621D01*
G01X39575Y53649D01*
G01X39634Y53680D01*
G01X39692Y53736D01*
G01X39720Y53794D01*
G01X39720Y53911D01*
G01X39692Y53967D01*
G01X39634Y54025D01*
G01X39575Y54053D01*
G01X39489Y54053D01*
G01X39489Y53911D02*
G01X39489Y54053D01*
G01X39116Y54244D02*
G01X39720Y54244D01*
G01X39116Y54244D02*
G01X39720Y54650D01*
G01X39116Y54650D02*
G01X39720Y54650D01*
G01X39116Y54841D02*
G01X39720Y54841D01*
G01X39116Y54841D02*
G01X39116Y55041D01*
G01X39143Y55128D01*
G01X39202Y55186D01*
G01X39258Y55214D01*
G01X39347Y55245D01*
G01X39489Y55245D01*
G01X39575Y55214D01*
G01X39634Y55186D01*
G01X39692Y55128D01*
G01X39720Y55041D01*
G01X39720Y54841D01*
G01X39115Y56705D02*
G01X39143Y56619D01*
G01X39230Y56560D01*
G01X39375Y56532D01*
G01X39461Y56532D01*
G01X39606Y56560D01*
G01X39692Y56619D01*
G01X39720Y56705D01*
G01X39720Y56763D01*
G01X39692Y56850D01*
G01X39606Y56908D01*
G01X39461Y56936D01*
G01X39375Y56936D01*
G01X39230Y56908D01*
G01X39143Y56850D01*
G01X39115Y56763D01*
G01X39115Y56705D01*
G01X39115Y57185D02*
G01X39115Y57503D01*
G01X39347Y57330D01*
G01X39347Y57416D01*
G01X39375Y57472D01*
G01X39402Y57503D01*
G01X39489Y57531D01*
G01X39547Y57531D01*
G01X39634Y57503D01*
G01X39692Y57444D01*
G01X39720Y57358D01*
G01X39720Y57271D01*
G01X39692Y57185D01*
G01X39664Y57155D01*
G01X39606Y57127D01*
G01X39100Y59227D02*
G01X39128Y59169D01*
G01X39187Y59113D01*
G01X39243Y59082D01*
G01X39331Y59055D01*
G01X39474Y59055D01*
G01X39560Y59082D01*
G01X39618Y59113D01*
G01X39677Y59169D01*
G01X39705Y59227D01*
G01X39705Y59344D01*
G01X39677Y59400D01*
G01X39618Y59458D01*
G01X39560Y59486D01*
G01X39474Y59517D01*
G01X39331Y59517D01*
G01X39243Y59486D01*
G01X39187Y59458D01*
G01X39128Y59400D01*
G01X39100Y59344D01*
G01X39100Y59227D01*
G01X39243Y59735D02*
G01X39215Y59735D01*
G01X39156Y59766D01*
G01X39128Y59794D01*
G01X39100Y59852D01*
G01X39100Y59966D01*
G01X39128Y60025D01*
G01X39156Y60053D01*
G01X39215Y60083D01*
G01X39273Y60083D01*
G01X39331Y60053D01*
G01X39418Y59994D01*
G01X39705Y59707D01*
G01X39705Y60111D01*
G01X22542Y77370D02*
G01X22542Y76766D01*
G01X22542Y77370D02*
G01X22918Y77370D01*
G01X22542Y77083D02*
G01X22773Y77083D01*
G01X23108Y77370D02*
G01X23108Y76766D01*
G01X23108Y76766D02*
G01X23454Y76766D01*
G01X23876Y77370D02*
G01X23644Y76766D01*
G01X23876Y77370D02*
G01X24107Y76766D01*
G01X23731Y76967D02*
G01X24020Y76967D01*
G01X24701Y77284D02*
G01X24643Y77343D01*
G01X24556Y77370D01*
G01X24442Y77370D01*
G01X24356Y77343D01*
G01X24297Y77284D01*
G01X24297Y77228D01*
G01X24325Y77170D01*
G01X24356Y77139D01*
G01X24411Y77111D01*
G01X24587Y77053D01*
G01X24643Y77025D01*
G01X24673Y76997D01*
G01X24701Y76939D01*
G01X24701Y76852D01*
G01X24643Y76794D01*
G01X24556Y76766D01*
G01X24442Y76766D01*
G01X24356Y76794D01*
G01X24297Y76852D01*
G01X24892Y77370D02*
G01X24892Y76766D01*
G01X25295Y77370D02*
G01X25295Y76766D01*
G01X24892Y77083D02*
G01X25295Y77083D01*
G01X12065Y77370D02*
G01X12065Y76766D01*
G01X12065Y77370D02*
G01X12324Y77370D01*
G01X12410Y77343D01*
G01X12440Y77315D01*
G01X12468Y77256D01*
G01X12468Y77198D01*
G01X12440Y77139D01*
G01X12410Y77111D01*
G01X12324Y77083D01*
G01X12065Y77083D01*
G01X12268Y77083D02*
G01X12468Y76766D01*
G01X13063Y77284D02*
G01X13004Y77343D01*
G01X12918Y77370D01*
G01X12804Y77370D01*
G01X12717Y77343D01*
G01X12659Y77284D01*
G01X12659Y77228D01*
G01X12687Y77170D01*
G01X12717Y77139D01*
G01X12776Y77111D01*
G01X12948Y77053D01*
G01X13004Y77025D01*
G01X13035Y76997D01*
G01X13063Y76939D01*
G01X13063Y76852D01*
G01X13004Y76794D01*
G01X12918Y76766D01*
G01X12804Y76766D01*
G01X12717Y76794D01*
G01X12659Y76852D01*
G01X13456Y77370D02*
G01X13456Y76766D01*
G01X13253Y77370D02*
G01X13657Y77370D01*
G01X38417Y83085D02*
G01X38648Y82481D01*
G01X38879Y83085D02*
G01X38648Y82481D01*
G01X39070Y83085D02*
G01X39070Y82481D01*
G01X39260Y83085D02*
G01X39260Y82481D01*
G01X39260Y83085D02*
G01X39664Y82481D01*
G01X39664Y83085D02*
G01X39664Y82481D01*
G01X38534Y87386D02*
G01X38503Y87445D01*
G01X38445Y87503D01*
G01X38389Y87531D01*
G01X38272Y87531D01*
G01X38216Y87503D01*
G01X38158Y87445D01*
G01X38127Y87386D01*
G01X38099Y87300D01*
G01X38099Y87155D01*
G01X38127Y87069D01*
G01X38158Y87013D01*
G01X38216Y86954D01*
G01X38272Y86926D01*
G01X38389Y86926D01*
G01X38445Y86954D01*
G01X38503Y87013D01*
G01X38534Y87069D01*
G01X38534Y87155D01*
G01X38389Y87155D02*
G01X38534Y87155D01*
G01X38724Y87531D02*
G01X38724Y86926D01*
G01X38724Y87531D02*
G01X39128Y86926D01*
G01X39128Y87531D02*
G01X39128Y86926D01*
G01X39319Y87531D02*
G01X39319Y86926D01*
G01X39319Y87531D02*
G01X39519Y87531D01*
G01X39606Y87503D01*
G01X39664Y87445D01*
G01X39692Y87386D01*
G01X39722Y87300D01*
G01X39722Y87155D01*
G01X39692Y87069D01*
G01X39664Y87013D01*
G01X39606Y86954D01*
G01X39519Y86926D01*
G01X39319Y86926D01*
G01X14401Y39354D02*
G01X14373Y39410D01*
G01X14315Y39469D01*
G01X14259Y39497D01*
G01X14142Y39497D01*
G01X14084Y39469D01*
G01X14028Y39410D01*
G01X13997Y39354D01*
G01X13970Y39265D01*
G01X13970Y39123D01*
G01X13997Y39037D01*
G01X14028Y38978D01*
G01X14084Y38920D01*
G01X14142Y38892D01*
G01X14259Y38892D01*
G01X14315Y38920D01*
G01X14373Y38978D01*
G01X14401Y39037D01*
G01X14401Y39123D01*
G01X14259Y39123D02*
G01X14401Y39123D01*
G01X14592Y39497D02*
G01X14592Y38892D01*
G01X14592Y39497D02*
G01X14998Y38892D01*
G01X14998Y39497D02*
G01X14998Y38892D01*
G01X15189Y39497D02*
G01X15189Y38892D01*
G01X15189Y39497D02*
G01X15389Y39497D01*
G01X15476Y39469D01*
G01X15534Y39410D01*
G01X15562Y39354D01*
G01X15593Y39265D01*
G01X15593Y39123D01*
G01X15562Y39037D01*
G01X15534Y38978D01*
G01X15476Y38920D01*
G01X15389Y38892D01*
G01X15189Y38892D01*
G01X25196Y39354D02*
G01X25168Y39410D01*
G01X25110Y39469D01*
G01X25054Y39497D01*
G01X24937Y39497D01*
G01X24879Y39469D01*
G01X24823Y39410D01*
G01X24792Y39354D01*
G01X24765Y39265D01*
G01X24765Y39123D01*
G01X24792Y39037D01*
G01X24823Y38978D01*
G01X24879Y38920D01*
G01X24937Y38892D01*
G01X25054Y38892D01*
G01X25110Y38920D01*
G01X25168Y38978D01*
G01X25196Y39037D01*
G01X25196Y39123D01*
G01X25054Y39123D02*
G01X25196Y39123D01*
G01X25387Y39497D02*
G01X25387Y38892D01*
G01X25387Y39497D02*
G01X25793Y38892D01*
G01X25793Y39497D02*
G01X25793Y38892D01*
G01X25984Y39497D02*
G01X25984Y38892D01*
G01X25984Y39497D02*
G01X26184Y39497D01*
G01X26271Y39469D01*
G01X26329Y39410D01*
G01X26357Y39354D01*
G01X26388Y39265D01*
G01X26388Y39123D01*
G01X26357Y39037D01*
G01X26329Y38978D01*
G01X26271Y38920D01*
G01X26184Y38892D01*
G01X25984Y38892D01*
G01X35991Y39481D02*
G01X35963Y39537D01*
G01X35905Y39596D01*
G01X35849Y39624D01*
G01X35732Y39624D01*
G01X35674Y39596D01*
G01X35618Y39537D01*
G01X35587Y39481D01*
G01X35560Y39392D01*
G01X35560Y39250D01*
G01X35587Y39164D01*
G01X35618Y39105D01*
G01X35674Y39047D01*
G01X35732Y39019D01*
G01X35849Y39019D01*
G01X35905Y39047D01*
G01X35963Y39105D01*
G01X35991Y39164D01*
G01X35991Y39250D01*
G01X35849Y39250D02*
G01X35991Y39250D01*
G01X36182Y39624D02*
G01X36182Y39019D01*
G01X36182Y39624D02*
G01X36588Y39019D01*
G01X36588Y39624D02*
G01X36588Y39019D01*
G01X36779Y39624D02*
G01X36779Y39019D01*
G01X36779Y39624D02*
G01X36979Y39624D01*
G01X37066Y39596D01*
G01X37124Y39537D01*
G01X37152Y39481D01*
G01X37183Y39392D01*
G01X37183Y39250D01*
G01X37152Y39164D01*
G01X37124Y39105D01*
G01X37066Y39047D01*
G01X36979Y39019D01*
G01X36779Y39019D01*
G01X9271Y39497D02*
G01X9271Y38892D01*
G01X9634Y39497D02*
G01X9575Y39469D01*
G01X9519Y39410D01*
G01X9489Y39354D01*
G01X9461Y39265D01*
G01X9461Y39123D01*
G01X9489Y39037D01*
G01X9519Y38978D01*
G01X9575Y38920D01*
G01X9634Y38892D01*
G01X9751Y38892D01*
G01X9806Y38920D01*
G01X9865Y38978D01*
G01X9893Y39037D01*
G01X9923Y39123D01*
G01X9923Y39265D01*
G01X9893Y39354D01*
G01X9865Y39410D01*
G01X9806Y39469D01*
G01X9751Y39497D01*
G01X9634Y39497D01*
G01X10114Y39382D02*
G01X10172Y39410D01*
G01X10259Y39497D01*
G01X10259Y38892D01*
G01X19812Y39497D02*
G01X19812Y38892D01*
G01X20175Y39497D02*
G01X20116Y39469D01*
G01X20060Y39410D01*
G01X20030Y39354D01*
G01X20002Y39265D01*
G01X20002Y39123D01*
G01X20030Y39037D01*
G01X20060Y38978D01*
G01X20116Y38920D01*
G01X20175Y38892D01*
G01X20292Y38892D01*
G01X20347Y38920D01*
G01X20406Y38978D01*
G01X20434Y39037D01*
G01X20464Y39123D01*
G01X20464Y39265D01*
G01X20434Y39354D01*
G01X20406Y39410D01*
G01X20347Y39469D01*
G01X20292Y39497D01*
G01X20175Y39497D01*
G01X20683Y39354D02*
G01X20683Y39382D01*
G01X20713Y39441D01*
G01X20741Y39469D01*
G01X20800Y39497D01*
G01X20914Y39497D01*
G01X20972Y39469D01*
G01X21000Y39441D01*
G01X21031Y39382D01*
G01X21031Y39324D01*
G01X21000Y39265D01*
G01X20942Y39179D01*
G01X20655Y38892D01*
G01X21059Y38892D01*
G01X30607Y39624D02*
G01X30607Y39019D01*
G01X30970Y39624D02*
G01X30911Y39596D01*
G01X30855Y39537D01*
G01X30825Y39481D01*
G01X30797Y39392D01*
G01X30797Y39250D01*
G01X30825Y39164D01*
G01X30855Y39105D01*
G01X30911Y39047D01*
G01X30970Y39019D01*
G01X31087Y39019D01*
G01X31142Y39047D01*
G01X31201Y39105D01*
G01X31229Y39164D01*
G01X31259Y39250D01*
G01X31259Y39392D01*
G01X31229Y39481D01*
G01X31201Y39537D01*
G01X31142Y39596D01*
G01X31087Y39624D01*
G01X30970Y39624D01*
G01X31508Y39624D02*
G01X31826Y39624D01*
G01X31650Y39392D01*
G01X31737Y39392D01*
G01X31795Y39364D01*
G01X31826Y39337D01*
G01X31854Y39250D01*
G01X31854Y39192D01*
G01X31826Y39105D01*
G01X31767Y39047D01*
G01X31681Y39019D01*
G01X31595Y39019D01*
G01X31508Y39047D01*
G01X31478Y39075D01*
G01X31450Y39133D01*
G01X26339Y62738D02*
G01X26311Y62793D01*
G01X26253Y62852D01*
G01X26197Y62880D01*
G01X26080Y62880D01*
G01X26022Y62852D01*
G01X25966Y62793D01*
G01X25935Y62738D01*
G01X25907Y62649D01*
G01X25907Y62506D01*
G01X25935Y62420D01*
G01X25966Y62362D01*
G01X26022Y62303D01*
G01X26080Y62275D01*
G01X26197Y62275D01*
G01X26253Y62303D01*
G01X26311Y62362D01*
G01X26339Y62420D01*
G01X26339Y62506D01*
G01X26197Y62506D02*
G01X26339Y62506D01*
G01X26530Y62880D02*
G01X26530Y62275D01*
G01X26530Y62880D02*
G01X26936Y62275D01*
G01X26936Y62880D02*
G01X26936Y62275D01*
G01X27127Y62880D02*
G01X27127Y62275D01*
G01X27127Y62880D02*
G01X27327Y62880D01*
G01X27414Y62852D01*
G01X27472Y62793D01*
G01X27500Y62738D01*
G01X27531Y62649D01*
G01X27531Y62506D01*
G01X27500Y62420D01*
G01X27472Y62362D01*
G01X27414Y62303D01*
G01X27327Y62275D01*
G01X27127Y62275D01*
G01X23367Y62864D02*
G01X23599Y62260D01*
G01X23830Y62864D02*
G01X23599Y62260D01*
G01X24020Y62864D02*
G01X24020Y62260D01*
G01X24211Y62864D02*
G01X24211Y62260D01*
G01X24211Y62864D02*
G01X24615Y62260D01*
G01X24615Y62864D02*
G01X24615Y62260D01*
G01X21259Y62738D02*
G01X21231Y62793D01*
G01X21173Y62852D01*
G01X21117Y62880D01*
G01X21000Y62880D01*
G01X20942Y62852D01*
G01X20886Y62793D01*
G01X20855Y62738D01*
G01X20828Y62649D01*
G01X20828Y62506D01*
G01X20855Y62420D01*
G01X20886Y62362D01*
G01X20942Y62303D01*
G01X21000Y62275D01*
G01X21117Y62275D01*
G01X21173Y62303D01*
G01X21231Y62362D01*
G01X21259Y62420D01*
G01X21259Y62506D01*
G01X21117Y62506D02*
G01X21259Y62506D01*
G01X21450Y62880D02*
G01X21450Y62275D01*
G01X21450Y62880D02*
G01X21856Y62275D01*
G01X21856Y62880D02*
G01X21856Y62275D01*
G01X22047Y62880D02*
G01X22047Y62275D01*
G01X22047Y62880D02*
G01X22247Y62880D01*
G01X22334Y62852D01*
G01X22392Y62793D01*
G01X22420Y62738D01*
G01X22451Y62649D01*
G01X22451Y62506D01*
G01X22420Y62420D01*
G01X22392Y62362D01*
G01X22334Y62303D01*
G01X22247Y62275D01*
G01X22047Y62275D01*
G01X1869Y95885D02*
G01X1264Y95653D01*
G01X1869Y95422D02*
G01X1264Y95653D01*
G01X1869Y95232D02*
G01X1264Y95232D01*
G01X1869Y95041D02*
G01X1264Y95041D01*
G01X1869Y95041D02*
G01X1264Y94637D01*
G01X1869Y94637D02*
G01X1264Y94637D01*
G01X1927Y93345D02*
G01X1323Y93345D01*
G01X1927Y92981D02*
G01X1899Y93040D01*
G01X1841Y93096D01*
G01X1785Y93126D01*
G01X1696Y93154D01*
G01X1554Y93154D01*
G01X1468Y93126D01*
G01X1409Y93096D01*
G01X1351Y93040D01*
G01X1323Y92981D01*
G01X1323Y92864D01*
G01X1351Y92809D01*
G01X1409Y92750D01*
G01X1468Y92722D01*
G01X1554Y92692D01*
G01X1696Y92692D01*
G01X1785Y92722D01*
G01X1841Y92750D01*
G01X1899Y92809D01*
G01X1927Y92864D01*
G01X1927Y92981D01*
G01X1785Y92473D02*
G01X1813Y92473D01*
G01X1871Y92443D01*
G01X1899Y92415D01*
G01X1927Y92356D01*
G01X1927Y92242D01*
G01X1899Y92184D01*
G01X1871Y92156D01*
G01X1813Y92125D01*
G01X1755Y92125D01*
G01X1696Y92156D01*
G01X1610Y92214D01*
G01X1323Y92501D01*
G01X1323Y92097D01*
G01X1785Y90373D02*
G01X1841Y90401D01*
G01X1899Y90459D01*
G01X1927Y90515D01*
G01X1927Y90632D01*
G01X1899Y90690D01*
G01X1841Y90746D01*
G01X1785Y90777D01*
G01X1696Y90805D01*
G01X1554Y90805D01*
G01X1468Y90777D01*
G01X1409Y90746D01*
G01X1351Y90690D01*
G01X1323Y90632D01*
G01X1323Y90515D01*
G01X1351Y90459D01*
G01X1409Y90401D01*
G01X1468Y90373D01*
G01X1554Y90373D01*
G01X1554Y90515D02*
G01X1554Y90373D01*
G01X1927Y90182D02*
G01X1323Y90182D01*
G01X1927Y90182D02*
G01X1323Y89776D01*
G01X1927Y89776D02*
G01X1323Y89776D01*
G01X1927Y89585D02*
G01X1323Y89585D01*
G01X1927Y89585D02*
G01X1927Y89385D01*
G01X1899Y89298D01*
G01X1841Y89240D01*
G01X1785Y89212D01*
G01X1696Y89181D01*
G01X1554Y89181D01*
G01X1468Y89212D01*
G01X1409Y89240D01*
G01X1351Y89298D01*
G01X1323Y89385D01*
G01X1323Y89585D01*
G01X9339Y97063D02*
G01X9022Y97063D01*
G01X9194Y97294D01*
G01X9108Y97294D01*
G01X9052Y97322D01*
G01X9022Y97350D01*
G01X8994Y97436D01*
G01X8994Y97495D01*
G01X9022Y97581D01*
G01X9080Y97640D01*
G01X9166Y97668D01*
G01X9253Y97668D01*
G01X9339Y97640D01*
G01X9370Y97612D01*
G01X9398Y97553D01*
G01X8803Y97063D02*
G01X8572Y97668D01*
G01X8341Y97063D02*
G01X8572Y97668D01*
G01X8092Y97063D02*
G01X7774Y97063D01*
G01X7950Y97294D01*
G01X7861Y97294D01*
G01X7805Y97322D01*
G01X7774Y97350D01*
G01X7747Y97436D01*
G01X7747Y97495D01*
G01X7774Y97581D01*
G01X7833Y97640D01*
G01X7919Y97668D01*
G01X8006Y97668D01*
G01X8092Y97640D01*
G01X8122Y97612D01*
G01X8150Y97553D01*
G01X11602Y97063D02*
G01X11602Y97668D01*
G01X11602Y97063D02*
G01X11343Y97063D01*
G01X11257Y97091D01*
G01X11226Y97119D01*
G01X11198Y97177D01*
G01X11198Y97236D01*
G01X11226Y97294D01*
G01X11257Y97322D01*
G01X11343Y97350D01*
G01X11602Y97350D01*
G01X11399Y97350D02*
G01X11198Y97668D01*
G01X11008Y97063D02*
G01X10604Y97668D01*
G01X10604Y97063D02*
G01X11008Y97668D01*
G01X14257Y97063D02*
G01X14257Y97668D01*
G01X14460Y97063D02*
G01X14056Y97063D01*
G01X13865Y97063D02*
G01X13462Y97668D01*
G01X13462Y97063D02*
G01X13865Y97668D01*
G01X17094Y97205D02*
G01X17122Y97149D01*
G01X17180Y97091D01*
G01X17236Y97063D01*
G01X17353Y97063D01*
G01X17411Y97091D01*
G01X17467Y97149D01*
G01X17498Y97205D01*
G01X17526Y97294D01*
G01X17526Y97436D01*
G01X17498Y97523D01*
G01X17467Y97581D01*
G01X17411Y97640D01*
G01X17353Y97668D01*
G01X17236Y97668D01*
G01X17180Y97640D01*
G01X17122Y97581D01*
G01X17094Y97523D01*
G01X17094Y97436D01*
G01X17236Y97436D02*
G01X17094Y97436D01*
G01X16903Y97063D02*
G01X16903Y97668D01*
G01X16903Y97063D02*
G01X16497Y97668D01*
G01X16497Y97063D02*
G01X16497Y97668D01*
G01X16306Y97063D02*
G01X16306Y97668D01*
G01X16306Y97063D02*
G01X16106Y97063D01*
G01X16019Y97091D01*
G01X15961Y97149D01*
G01X15933Y97205D01*
G01X15902Y97294D01*
G01X15902Y97436D01*
G01X15933Y97523D01*
G01X15961Y97581D01*
G01X16019Y97640D01*
G01X16106Y97668D01*
G01X16306Y97668D01*
G01X26873Y97205D02*
G01X26901Y97149D01*
G01X26959Y97091D01*
G01X27015Y97063D01*
G01X27132Y97063D01*
G01X27190Y97091D01*
G01X27246Y97149D01*
G01X27277Y97205D01*
G01X27305Y97294D01*
G01X27305Y97436D01*
G01X27277Y97523D01*
G01X27246Y97581D01*
G01X27190Y97640D01*
G01X27132Y97668D01*
G01X27015Y97668D01*
G01X26959Y97640D01*
G01X26901Y97581D01*
G01X26873Y97523D01*
G01X26873Y97436D01*
G01X27015Y97436D02*
G01X26873Y97436D01*
G01X26682Y97063D02*
G01X26682Y97668D01*
G01X26682Y97063D02*
G01X26276Y97668D01*
G01X26276Y97063D02*
G01X26276Y97668D01*
G01X26085Y97063D02*
G01X26085Y97668D01*
G01X26085Y97063D02*
G01X25885Y97063D01*
G01X25798Y97091D01*
G01X25740Y97149D01*
G01X25712Y97205D01*
G01X25681Y97294D01*
G01X25681Y97436D01*
G01X25712Y97523D01*
G01X25740Y97581D01*
G01X25798Y97640D01*
G01X25885Y97668D01*
G01X26085Y97668D01*
G01X24765Y97063D02*
G01X24533Y97668D01*
G01X24302Y97063D02*
G01X24533Y97668D01*
G01X24112Y97063D02*
G01X24112Y97668D01*
G01X23921Y97063D02*
G01X23921Y97668D01*
G01X23921Y97063D02*
G01X23517Y97668D01*
G01X23517Y97063D02*
G01X23517Y97668D01*
G01X21793Y97205D02*
G01X21821Y97149D01*
G01X21879Y97091D01*
G01X21935Y97063D01*
G01X22052Y97063D01*
G01X22110Y97091D01*
G01X22166Y97149D01*
G01X22197Y97205D01*
G01X22225Y97294D01*
G01X22225Y97436D01*
G01X22197Y97523D01*
G01X22166Y97581D01*
G01X22110Y97640D01*
G01X22052Y97668D01*
G01X21935Y97668D01*
G01X21879Y97640D01*
G01X21821Y97581D01*
G01X21793Y97523D01*
G01X21793Y97436D01*
G01X21935Y97436D02*
G01X21793Y97436D01*
G01X21602Y97063D02*
G01X21602Y97668D01*
G01X21602Y97063D02*
G01X21196Y97668D01*
G01X21196Y97063D02*
G01X21196Y97668D01*
G01X21005Y97063D02*
G01X21005Y97668D01*
G01X21005Y97063D02*
G01X20805Y97063D01*
G01X20718Y97091D01*
G01X20660Y97149D01*
G01X20632Y97205D01*
G01X20601Y97294D01*
G01X20601Y97436D01*
G01X20632Y97523D01*
G01X20660Y97581D01*
G01X20718Y97640D01*
G01X20805Y97668D01*
G01X21005Y97668D01*
G01X1727Y83007D02*
G01X1783Y83035D01*
G01X1841Y83093D01*
G01X1869Y83149D01*
G01X1869Y83266D01*
G01X1841Y83324D01*
G01X1783Y83380D01*
G01X1727Y83411D01*
G01X1638Y83439D01*
G01X1496Y83439D01*
G01X1409Y83411D01*
G01X1351Y83380D01*
G01X1292Y83324D01*
G01X1264Y83266D01*
G01X1264Y83149D01*
G01X1292Y83093D01*
G01X1351Y83035D01*
G01X1409Y83007D01*
G01X1496Y83007D01*
G01X1496Y83149D02*
G01X1496Y83007D01*
G01X1869Y82816D02*
G01X1264Y82816D01*
G01X1869Y82816D02*
G01X1264Y82410D01*
G01X1869Y82410D02*
G01X1264Y82410D01*
G01X1869Y82219D02*
G01X1264Y82219D01*
G01X1869Y82219D02*
G01X1869Y82019D01*
G01X1841Y81932D01*
G01X1783Y81874D01*
G01X1727Y81846D01*
G01X1638Y81815D01*
G01X1496Y81815D01*
G01X1409Y81846D01*
G01X1351Y81874D01*
G01X1292Y81932D01*
G01X1264Y82019D01*
G01X1264Y82219D01*
G01X1869Y80581D02*
G01X1264Y80581D01*
G01X1869Y80218D02*
G01X1841Y80276D01*
G01X1783Y80332D01*
G01X1727Y80363D01*
G01X1638Y80391D01*
G01X1496Y80391D01*
G01X1409Y80363D01*
G01X1351Y80332D01*
G01X1292Y80276D01*
G01X1264Y80218D01*
G01X1264Y80101D01*
G01X1292Y80045D01*
G01X1351Y79987D01*
G01X1409Y79959D01*
G01X1496Y79928D01*
G01X1638Y79928D01*
G01X1727Y79959D01*
G01X1783Y79987D01*
G01X1841Y80045D01*
G01X1869Y80101D01*
G01X1869Y80218D01*
G01X1869Y79679D02*
G01X1869Y79362D01*
G01X1638Y79537D01*
G01X1638Y79451D01*
G01X1610Y79392D01*
G01X1582Y79362D01*
G01X1496Y79334D01*
G01X1437Y79334D01*
G01X1351Y79362D01*
G01X1292Y79420D01*
G01X1264Y79507D01*
G01X1264Y79593D01*
G01X1292Y79679D01*
G01X1320Y79710D01*
G01X1379Y79738D01*
G01X1811Y78041D02*
G01X1206Y78041D01*
G01X1811Y77678D02*
G01X1783Y77736D01*
G01X1724Y77792D01*
G01X1668Y77823D01*
G01X1579Y77851D01*
G01X1437Y77851D01*
G01X1351Y77823D01*
G01X1292Y77792D01*
G01X1234Y77736D01*
G01X1206Y77678D01*
G01X1206Y77561D01*
G01X1234Y77505D01*
G01X1292Y77447D01*
G01X1351Y77419D01*
G01X1437Y77388D01*
G01X1579Y77388D01*
G01X1668Y77419D01*
G01X1724Y77447D01*
G01X1783Y77505D01*
G01X1811Y77561D01*
G01X1811Y77678D01*
G01X1668Y77170D02*
G01X1696Y77170D01*
G01X1755Y77139D01*
G01X1783Y77111D01*
G01X1811Y77053D01*
G01X1811Y76939D01*
G01X1783Y76880D01*
G01X1755Y76852D01*
G01X1696Y76822D01*
G01X1638Y76822D01*
G01X1579Y76852D01*
G01X1493Y76911D01*
G01X1206Y77198D01*
G01X1206Y76794D01*
G01X1869Y75501D02*
G01X1264Y75501D01*
G01X1869Y75138D02*
G01X1841Y75196D01*
G01X1783Y75252D01*
G01X1727Y75283D01*
G01X1638Y75311D01*
G01X1496Y75311D01*
G01X1409Y75283D01*
G01X1351Y75252D01*
G01X1292Y75196D01*
G01X1264Y75138D01*
G01X1264Y75021D01*
G01X1292Y74965D01*
G01X1351Y74907D01*
G01X1409Y74879D01*
G01X1496Y74848D01*
G01X1638Y74848D01*
G01X1727Y74879D01*
G01X1783Y74907D01*
G01X1841Y74965D01*
G01X1869Y75021D01*
G01X1869Y75138D01*
G01X1755Y74658D02*
G01X1783Y74599D01*
G01X1869Y74513D01*
G01X1264Y74513D01*
G01X1869Y72961D02*
G01X1264Y72730D01*
G01X1869Y72499D02*
G01X1264Y72730D01*
G01X1869Y72308D02*
G01X1264Y72308D01*
G01X1869Y72118D02*
G01X1264Y72118D01*
G01X1869Y72118D02*
G01X1264Y71714D01*
G01X1869Y71714D02*
G01X1264Y71714D01*
G01X1600Y52527D02*
G01X1656Y52555D01*
G01X1714Y52613D01*
G01X1742Y52669D01*
G01X1742Y52786D01*
G01X1714Y52844D01*
G01X1656Y52900D01*
G01X1600Y52931D01*
G01X1511Y52959D01*
G01X1369Y52959D01*
G01X1282Y52931D01*
G01X1224Y52900D01*
G01X1165Y52844D01*
G01X1137Y52786D01*
G01X1137Y52669D01*
G01X1165Y52613D01*
G01X1224Y52555D01*
G01X1282Y52527D01*
G01X1369Y52527D01*
G01X1369Y52669D02*
G01X1369Y52527D01*
G01X1742Y52336D02*
G01X1137Y52336D01*
G01X1742Y52336D02*
G01X1137Y51930D01*
G01X1742Y51930D02*
G01X1137Y51930D01*
G01X1742Y51739D02*
G01X1137Y51739D01*
G01X1742Y51739D02*
G01X1742Y51539D01*
G01X1714Y51452D01*
G01X1656Y51394D01*
G01X1600Y51366D01*
G01X1511Y51335D01*
G01X1369Y51335D01*
G01X1282Y51366D01*
G01X1224Y51394D01*
G01X1165Y51452D01*
G01X1137Y51539D01*
G01X1137Y51739D01*
G01X1742Y50101D02*
G01X1137Y50101D01*
G01X1742Y49738D02*
G01X1714Y49796D01*
G01X1656Y49852D01*
G01X1600Y49883D01*
G01X1511Y49911D01*
G01X1369Y49911D01*
G01X1282Y49883D01*
G01X1224Y49852D01*
G01X1165Y49796D01*
G01X1137Y49738D01*
G01X1137Y49621D01*
G01X1165Y49565D01*
G01X1224Y49507D01*
G01X1282Y49479D01*
G01X1369Y49448D01*
G01X1511Y49448D01*
G01X1600Y49479D01*
G01X1656Y49507D01*
G01X1714Y49565D01*
G01X1742Y49621D01*
G01X1742Y49738D01*
G01X1742Y49199D02*
G01X1742Y48882D01*
G01X1511Y49057D01*
G01X1511Y48971D01*
G01X1483Y48912D01*
G01X1455Y48882D01*
G01X1369Y48854D01*
G01X1310Y48854D01*
G01X1224Y48882D01*
G01X1165Y48940D01*
G01X1137Y49027D01*
G01X1137Y49113D01*
G01X1165Y49199D01*
G01X1193Y49230D01*
G01X1252Y49258D01*
G01X1684Y47561D02*
G01X1079Y47561D01*
G01X1684Y47198D02*
G01X1656Y47256D01*
G01X1597Y47312D01*
G01X1541Y47343D01*
G01X1452Y47371D01*
G01X1310Y47371D01*
G01X1224Y47343D01*
G01X1165Y47312D01*
G01X1107Y47256D01*
G01X1079Y47198D01*
G01X1079Y47081D01*
G01X1107Y47025D01*
G01X1165Y46967D01*
G01X1224Y46939D01*
G01X1310Y46908D01*
G01X1452Y46908D01*
G01X1541Y46939D01*
G01X1597Y46967D01*
G01X1656Y47025D01*
G01X1684Y47081D01*
G01X1684Y47198D01*
G01X1541Y46690D02*
G01X1569Y46690D01*
G01X1628Y46659D01*
G01X1656Y46631D01*
G01X1684Y46573D01*
G01X1684Y46459D01*
G01X1656Y46400D01*
G01X1628Y46372D01*
G01X1569Y46342D01*
G01X1511Y46342D01*
G01X1452Y46372D01*
G01X1366Y46431D01*
G01X1079Y46718D01*
G01X1079Y46314D01*
G01X1742Y45021D02*
G01X1137Y45021D01*
G01X1742Y44658D02*
G01X1714Y44716D01*
G01X1656Y44772D01*
G01X1600Y44803D01*
G01X1511Y44831D01*
G01X1369Y44831D01*
G01X1282Y44803D01*
G01X1224Y44772D01*
G01X1165Y44716D01*
G01X1137Y44658D01*
G01X1137Y44541D01*
G01X1165Y44485D01*
G01X1224Y44427D01*
G01X1282Y44399D01*
G01X1369Y44368D01*
G01X1511Y44368D01*
G01X1600Y44399D01*
G01X1656Y44427D01*
G01X1714Y44485D01*
G01X1742Y44541D01*
G01X1742Y44658D01*
G01X1628Y44178D02*
G01X1656Y44119D01*
G01X1742Y44033D01*
G01X1137Y44033D01*
G01X1742Y42481D02*
G01X1137Y42250D01*
G01X1742Y42019D02*
G01X1137Y42250D01*
G01X1742Y41828D02*
G01X1137Y41828D01*
G01X1742Y41638D02*
G01X1137Y41638D01*
G01X1742Y41638D02*
G01X1137Y41234D01*
G01X1742Y41234D02*
G01X1137Y41234D01*
G01X1727Y21793D02*
G01X1783Y21821D01*
G01X1841Y21879D01*
G01X1869Y21935D01*
G01X1869Y22052D01*
G01X1841Y22110D01*
G01X1783Y22166D01*
G01X1727Y22197D01*
G01X1638Y22225D01*
G01X1496Y22225D01*
G01X1409Y22197D01*
G01X1351Y22166D01*
G01X1292Y22110D01*
G01X1264Y22052D01*
G01X1264Y21935D01*
G01X1292Y21879D01*
G01X1351Y21821D01*
G01X1409Y21793D01*
G01X1496Y21793D01*
G01X1496Y21935D02*
G01X1496Y21793D01*
G01X1869Y21602D02*
G01X1264Y21602D01*
G01X1869Y21602D02*
G01X1264Y21196D01*
G01X1869Y21196D02*
G01X1264Y21196D01*
G01X1869Y21005D02*
G01X1264Y21005D01*
G01X1869Y21005D02*
G01X1869Y20805D01*
G01X1841Y20718D01*
G01X1783Y20660D01*
G01X1727Y20632D01*
G01X1638Y20601D01*
G01X1496Y20601D01*
G01X1409Y20632D01*
G01X1351Y20660D01*
G01X1292Y20718D01*
G01X1264Y20805D01*
G01X1264Y21005D01*
G01X1869Y19367D02*
G01X1264Y19367D01*
G01X1869Y19004D02*
G01X1841Y19062D01*
G01X1783Y19118D01*
G01X1727Y19149D01*
G01X1638Y19177D01*
G01X1496Y19177D01*
G01X1409Y19149D01*
G01X1351Y19118D01*
G01X1292Y19062D01*
G01X1264Y19004D01*
G01X1264Y18887D01*
G01X1292Y18831D01*
G01X1351Y18773D01*
G01X1409Y18745D01*
G01X1496Y18714D01*
G01X1638Y18714D01*
G01X1727Y18745D01*
G01X1783Y18773D01*
G01X1841Y18831D01*
G01X1869Y18887D01*
G01X1869Y19004D01*
G01X1869Y18465D02*
G01X1869Y18148D01*
G01X1638Y18323D01*
G01X1638Y18237D01*
G01X1610Y18178D01*
G01X1582Y18148D01*
G01X1496Y18120D01*
G01X1437Y18120D01*
G01X1351Y18148D01*
G01X1292Y18206D01*
G01X1264Y18293D01*
G01X1264Y18379D01*
G01X1292Y18465D01*
G01X1320Y18496D01*
G01X1379Y18524D01*
G01X1811Y16827D02*
G01X1206Y16827D01*
G01X1811Y16464D02*
G01X1783Y16522D01*
G01X1724Y16578D01*
G01X1668Y16609D01*
G01X1579Y16637D01*
G01X1437Y16637D01*
G01X1351Y16609D01*
G01X1292Y16578D01*
G01X1234Y16522D01*
G01X1206Y16464D01*
G01X1206Y16347D01*
G01X1234Y16291D01*
G01X1292Y16233D01*
G01X1351Y16205D01*
G01X1437Y16174D01*
G01X1579Y16174D01*
G01X1668Y16205D01*
G01X1724Y16233D01*
G01X1783Y16291D01*
G01X1811Y16347D01*
G01X1811Y16464D01*
G01X1668Y15956D02*
G01X1696Y15956D01*
G01X1755Y15925D01*
G01X1783Y15897D01*
G01X1811Y15839D01*
G01X1811Y15725D01*
G01X1783Y15666D01*
G01X1755Y15638D01*
G01X1696Y15608D01*
G01X1638Y15608D01*
G01X1579Y15638D01*
G01X1493Y15697D01*
G01X1206Y15984D01*
G01X1206Y15580D01*
G01X1869Y14287D02*
G01X1264Y14287D01*
G01X1869Y13924D02*
G01X1841Y13982D01*
G01X1783Y14038D01*
G01X1727Y14069D01*
G01X1638Y14097D01*
G01X1496Y14097D01*
G01X1409Y14069D01*
G01X1351Y14038D01*
G01X1292Y13982D01*
G01X1264Y13924D01*
G01X1264Y13807D01*
G01X1292Y13751D01*
G01X1351Y13693D01*
G01X1409Y13665D01*
G01X1496Y13634D01*
G01X1638Y13634D01*
G01X1727Y13665D01*
G01X1783Y13693D01*
G01X1841Y13751D01*
G01X1869Y13807D01*
G01X1869Y13924D01*
G01X1755Y13444D02*
G01X1783Y13385D01*
G01X1869Y13299D01*
G01X1264Y13299D01*
G01X1869Y11747D02*
G01X1264Y11516D01*
G01X1869Y11285D02*
G01X1264Y11516D01*
G01X1869Y11094D02*
G01X1264Y11094D01*
G01X1869Y10904D02*
G01X1264Y10904D01*
G01X1869Y10904D02*
G01X1264Y10500D01*
G01X1869Y10500D02*
G01X1264Y10500D01*
G01X6299Y21793D02*
G01X6355Y21821D01*
G01X6413Y21879D01*
G01X6441Y21935D01*
G01X6441Y22052D01*
G01X6413Y22110D01*
G01X6355Y22166D01*
G01X6299Y22197D01*
G01X6210Y22225D01*
G01X6068Y22225D01*
G01X5981Y22197D01*
G01X5923Y22166D01*
G01X5864Y22110D01*
G01X5836Y22052D01*
G01X5836Y21935D01*
G01X5864Y21879D01*
G01X5923Y21821D01*
G01X5981Y21793D01*
G01X6068Y21793D01*
G01X6068Y21935D02*
G01X6068Y21793D01*
G01X6441Y21602D02*
G01X5836Y21602D01*
G01X6441Y21602D02*
G01X5836Y21196D01*
G01X6441Y21196D02*
G01X5836Y21196D01*
G01X6441Y21005D02*
G01X5836Y21005D01*
G01X6441Y21005D02*
G01X6441Y20805D01*
G01X6413Y20718D01*
G01X6355Y20660D01*
G01X6299Y20632D01*
G01X6210Y20601D01*
G01X6068Y20601D01*
G01X5981Y20632D01*
G01X5923Y20660D01*
G01X5864Y20718D01*
G01X5836Y20805D01*
G01X5836Y21005D01*
G01X6441Y19367D02*
G01X5836Y19367D01*
G01X6441Y19004D02*
G01X6413Y19062D01*
G01X6355Y19118D01*
G01X6299Y19149D01*
G01X6210Y19177D01*
G01X6068Y19177D01*
G01X5981Y19149D01*
G01X5923Y19118D01*
G01X5864Y19062D01*
G01X5836Y19004D01*
G01X5836Y18887D01*
G01X5864Y18831D01*
G01X5923Y18773D01*
G01X5981Y18745D01*
G01X6068Y18714D01*
G01X6210Y18714D01*
G01X6299Y18745D01*
G01X6355Y18773D01*
G01X6413Y18831D01*
G01X6441Y18887D01*
G01X6441Y19004D01*
G01X6441Y18465D02*
G01X6441Y18148D01*
G01X6210Y18323D01*
G01X6210Y18237D01*
G01X6182Y18178D01*
G01X6154Y18148D01*
G01X6068Y18120D01*
G01X6009Y18120D01*
G01X5923Y18148D01*
G01X5864Y18206D01*
G01X5836Y18293D01*
G01X5836Y18379D01*
G01X5864Y18465D01*
G01X5892Y18496D01*
G01X5951Y18524D01*
G01X6383Y16827D02*
G01X5778Y16827D01*
G01X6383Y16464D02*
G01X6355Y16522D01*
G01X6296Y16578D01*
G01X6240Y16609D01*
G01X6151Y16637D01*
G01X6009Y16637D01*
G01X5923Y16609D01*
G01X5864Y16578D01*
G01X5806Y16522D01*
G01X5778Y16464D01*
G01X5778Y16347D01*
G01X5806Y16291D01*
G01X5864Y16233D01*
G01X5923Y16205D01*
G01X6009Y16174D01*
G01X6151Y16174D01*
G01X6240Y16205D01*
G01X6296Y16233D01*
G01X6355Y16291D01*
G01X6383Y16347D01*
G01X6383Y16464D01*
G01X6240Y15956D02*
G01X6268Y15956D01*
G01X6327Y15925D01*
G01X6355Y15897D01*
G01X6383Y15839D01*
G01X6383Y15725D01*
G01X6355Y15666D01*
G01X6327Y15638D01*
G01X6268Y15608D01*
G01X6210Y15608D01*
G01X6151Y15638D01*
G01X6065Y15697D01*
G01X5778Y15984D01*
G01X5778Y15580D01*
G01X6441Y14287D02*
G01X5836Y14287D01*
G01X6441Y13924D02*
G01X6413Y13982D01*
G01X6355Y14038D01*
G01X6299Y14069D01*
G01X6210Y14097D01*
G01X6068Y14097D01*
G01X5981Y14069D01*
G01X5923Y14038D01*
G01X5864Y13982D01*
G01X5836Y13924D01*
G01X5836Y13807D01*
G01X5864Y13751D01*
G01X5923Y13693D01*
G01X5981Y13665D01*
G01X6068Y13634D01*
G01X6210Y13634D01*
G01X6299Y13665D01*
G01X6355Y13693D01*
G01X6413Y13751D01*
G01X6441Y13807D01*
G01X6441Y13924D01*
G01X6327Y13444D02*
G01X6355Y13385D01*
G01X6441Y13299D01*
G01X5836Y13299D01*
G01X6441Y11747D02*
G01X5836Y11516D01*
G01X6441Y11285D02*
G01X5836Y11516D01*
G01X6441Y11094D02*
G01X5836Y11094D01*
G01X6441Y10904D02*
G01X5836Y10904D01*
G01X6441Y10904D02*
G01X5836Y10500D01*
G01X6441Y10500D02*
G01X5836Y10500D01*
G01X6172Y52527D02*
G01X6228Y52555D01*
G01X6286Y52613D01*
G01X6314Y52669D01*
G01X6314Y52786D01*
G01X6286Y52844D01*
G01X6228Y52900D01*
G01X6172Y52931D01*
G01X6083Y52959D01*
G01X5941Y52959D01*
G01X5854Y52931D01*
G01X5796Y52900D01*
G01X5737Y52844D01*
G01X5709Y52786D01*
G01X5709Y52669D01*
G01X5737Y52613D01*
G01X5796Y52555D01*
G01X5854Y52527D01*
G01X5941Y52527D01*
G01X5941Y52669D02*
G01X5941Y52527D01*
G01X6314Y52336D02*
G01X5709Y52336D01*
G01X6314Y52336D02*
G01X5709Y51930D01*
G01X6314Y51930D02*
G01X5709Y51930D01*
G01X6314Y51739D02*
G01X5709Y51739D01*
G01X6314Y51739D02*
G01X6314Y51539D01*
G01X6286Y51452D01*
G01X6228Y51394D01*
G01X6172Y51366D01*
G01X6083Y51335D01*
G01X5941Y51335D01*
G01X5854Y51366D01*
G01X5796Y51394D01*
G01X5737Y51452D01*
G01X5709Y51539D01*
G01X5709Y51739D01*
G01X6314Y50101D02*
G01X5709Y50101D01*
G01X6314Y49738D02*
G01X6286Y49796D01*
G01X6228Y49852D01*
G01X6172Y49883D01*
G01X6083Y49911D01*
G01X5941Y49911D01*
G01X5854Y49883D01*
G01X5796Y49852D01*
G01X5737Y49796D01*
G01X5709Y49738D01*
G01X5709Y49621D01*
G01X5737Y49565D01*
G01X5796Y49507D01*
G01X5854Y49479D01*
G01X5941Y49448D01*
G01X6083Y49448D01*
G01X6172Y49479D01*
G01X6228Y49507D01*
G01X6286Y49565D01*
G01X6314Y49621D01*
G01X6314Y49738D01*
G01X6314Y49199D02*
G01X6314Y48882D01*
G01X6083Y49057D01*
G01X6083Y48971D01*
G01X6055Y48912D01*
G01X6027Y48882D01*
G01X5941Y48854D01*
G01X5882Y48854D01*
G01X5796Y48882D01*
G01X5737Y48940D01*
G01X5709Y49027D01*
G01X5709Y49113D01*
G01X5737Y49199D01*
G01X5765Y49230D01*
G01X5824Y49258D01*
G01X6256Y47561D02*
G01X5651Y47561D01*
G01X6256Y47198D02*
G01X6228Y47256D01*
G01X6169Y47312D01*
G01X6113Y47343D01*
G01X6024Y47371D01*
G01X5882Y47371D01*
G01X5796Y47343D01*
G01X5737Y47312D01*
G01X5679Y47256D01*
G01X5651Y47198D01*
G01X5651Y47081D01*
G01X5679Y47025D01*
G01X5737Y46967D01*
G01X5796Y46939D01*
G01X5882Y46908D01*
G01X6024Y46908D01*
G01X6113Y46939D01*
G01X6169Y46967D01*
G01X6228Y47025D01*
G01X6256Y47081D01*
G01X6256Y47198D01*
G01X6113Y46690D02*
G01X6141Y46690D01*
G01X6200Y46659D01*
G01X6228Y46631D01*
G01X6256Y46573D01*
G01X6256Y46459D01*
G01X6228Y46400D01*
G01X6200Y46372D01*
G01X6141Y46342D01*
G01X6083Y46342D01*
G01X6024Y46372D01*
G01X5938Y46431D01*
G01X5651Y46718D01*
G01X5651Y46314D01*
G01X6314Y45021D02*
G01X5709Y45021D01*
G01X6314Y44658D02*
G01X6286Y44716D01*
G01X6228Y44772D01*
G01X6172Y44803D01*
G01X6083Y44831D01*
G01X5941Y44831D01*
G01X5854Y44803D01*
G01X5796Y44772D01*
G01X5737Y44716D01*
G01X5709Y44658D01*
G01X5709Y44541D01*
G01X5737Y44485D01*
G01X5796Y44427D01*
G01X5854Y44399D01*
G01X5941Y44368D01*
G01X6083Y44368D01*
G01X6172Y44399D01*
G01X6228Y44427D01*
G01X6286Y44485D01*
G01X6314Y44541D01*
G01X6314Y44658D01*
G01X6200Y44178D02*
G01X6228Y44119D01*
G01X6314Y44033D01*
G01X5709Y44033D01*
G01X6314Y42481D02*
G01X5709Y42250D01*
G01X6314Y42019D02*
G01X5709Y42250D01*
G01X6314Y41828D02*
G01X5709Y41828D01*
G01X6314Y41638D02*
G01X5709Y41638D01*
G01X6314Y41638D02*
G01X5709Y41234D01*
G01X6314Y41234D02*
G01X5709Y41234D01*
G54D35*
G01X11742Y48260D02*
G01X11638Y48209D01*
G01X11534Y48105D01*
G01X11480Y48000D01*
G01X11430Y47845D01*
G01X11430Y47586D01*
G01X11480Y47429D01*
G01X11534Y47325D01*
G01X11638Y47221D01*
G01X11742Y47170D01*
G01X11950Y47170D01*
G01X12052Y47221D01*
G01X12156Y47325D01*
G01X12209Y47429D01*
G01X12260Y47586D01*
G01X12260Y47845D01*
G01X12209Y48000D01*
G01X12156Y48105D01*
G01X12052Y48209D01*
G01X11950Y48260D01*
G01X11742Y48260D01*
G01X11897Y47378D02*
G01X12209Y47066D01*
G01X12603Y48054D02*
G01X12707Y48105D01*
G01X12865Y48260D01*
G01X12865Y47170D01*
G01X22283Y48234D02*
G01X22179Y48183D01*
G01X22075Y48079D01*
G01X22021Y47975D01*
G01X21971Y47820D01*
G01X21971Y47561D01*
G01X22021Y47404D01*
G01X22075Y47299D01*
G01X22179Y47195D01*
G01X22283Y47144D01*
G01X22491Y47144D01*
G01X22593Y47195D01*
G01X22697Y47299D01*
G01X22750Y47404D01*
G01X22801Y47561D01*
G01X22801Y47820D01*
G01X22750Y47975D01*
G01X22697Y48079D01*
G01X22593Y48183D01*
G01X22491Y48234D01*
G01X22283Y48234D01*
G01X22438Y47353D02*
G01X22750Y47040D01*
G01X23197Y47975D02*
G01X23197Y48028D01*
G01X23248Y48133D01*
G01X23301Y48183D01*
G01X23406Y48234D01*
G01X23611Y48234D01*
G01X23716Y48183D01*
G01X23769Y48133D01*
G01X23820Y48028D01*
G01X23820Y47924D01*
G01X23769Y47820D01*
G01X23665Y47663D01*
G01X23144Y47144D01*
G01X23873Y47144D01*
G01X33078Y48260D02*
G01X32974Y48209D01*
G01X32870Y48105D01*
G01X32816Y48000D01*
G01X32766Y47845D01*
G01X32766Y47586D01*
G01X32816Y47429D01*
G01X32870Y47325D01*
G01X32974Y47221D01*
G01X33078Y47170D01*
G01X33286Y47170D01*
G01X33388Y47221D01*
G01X33492Y47325D01*
G01X33545Y47429D01*
G01X33596Y47586D01*
G01X33596Y47845D01*
G01X33545Y48000D01*
G01X33492Y48105D01*
G01X33388Y48209D01*
G01X33286Y48260D01*
G01X33078Y48260D01*
G01X33233Y47378D02*
G01X33545Y47066D01*
G01X34043Y48260D02*
G01X34615Y48260D01*
G01X34302Y47845D01*
G01X34460Y47845D01*
G01X34564Y47792D01*
G01X34615Y47741D01*
G01X34668Y47586D01*
G01X34668Y47482D01*
G01X34615Y47325D01*
G01X34510Y47221D01*
G01X34356Y47170D01*
G01X34201Y47170D01*
G01X34043Y47221D01*
G01X33992Y47274D01*
G01X33939Y47378D01*
G54D36*
G01X43327Y59331D02*
G01X43355Y59273D01*
G01X43413Y59217D01*
G01X43469Y59187D01*
G01X43558Y59159D01*
G01X43700Y59159D01*
G01X43787Y59187D01*
G01X43845Y59217D01*
G01X43903Y59273D01*
G01X43931Y59331D01*
G01X43931Y59448D01*
G01X43903Y59504D01*
G01X43845Y59562D01*
G01X43787Y59590D01*
G01X43700Y59621D01*
G01X43558Y59621D01*
G01X43469Y59590D01*
G01X43413Y59562D01*
G01X43355Y59504D01*
G01X43327Y59448D01*
G01X43327Y59331D01*
G01X43469Y59839D02*
G01X43441Y59839D01*
G01X43383Y59870D01*
G01X43355Y59898D01*
G01X43327Y59956D01*
G01X43327Y60070D01*
G01X43355Y60129D01*
G01X43383Y60157D01*
G01X43441Y60187D01*
G01X43500Y60187D01*
G01X43558Y60157D01*
G01X43644Y60098D01*
G01X43931Y59811D01*
G01X43931Y60215D01*
G01X43342Y56809D02*
G01X43370Y56723D01*
G01X43456Y56664D01*
G01X43601Y56636D01*
G01X43687Y56636D01*
G01X43832Y56664D01*
G01X43919Y56723D01*
G01X43947Y56809D01*
G01X43947Y56868D01*
G01X43919Y56954D01*
G01X43832Y57012D01*
G01X43687Y57040D01*
G01X43601Y57040D01*
G01X43456Y57012D01*
G01X43370Y56954D01*
G01X43342Y56868D01*
G01X43342Y56809D01*
G01X43342Y57289D02*
G01X43342Y57607D01*
G01X43573Y57434D01*
G01X43573Y57520D01*
G01X43601Y57576D01*
G01X43629Y57607D01*
G01X43715Y57635D01*
G01X43774Y57635D01*
G01X43860Y57607D01*
G01X43919Y57548D01*
G01X43947Y57462D01*
G01X43947Y57376D01*
G01X43919Y57289D01*
G01X43891Y57259D01*
G01X43832Y57231D01*
G01X43484Y54157D02*
G01X43428Y54129D01*
G01X43370Y54071D01*
G01X43342Y54015D01*
G01X43342Y53898D01*
G01X43370Y53840D01*
G01X43428Y53784D01*
G01X43484Y53754D01*
G01X43573Y53726D01*
G01X43715Y53726D01*
G01X43802Y53754D01*
G01X43860Y53784D01*
G01X43919Y53840D01*
G01X43947Y53898D01*
G01X43947Y54015D01*
G01X43919Y54071D01*
G01X43860Y54129D01*
G01X43802Y54157D01*
G01X43715Y54157D01*
G01X43715Y54015D02*
G01X43715Y54157D01*
G01X43342Y54348D02*
G01X43947Y54348D01*
G01X43342Y54348D02*
G01X43947Y54754D01*
G01X43342Y54754D02*
G01X43947Y54754D01*
G01X43342Y54945D02*
G01X43947Y54945D01*
G01X43342Y54945D02*
G01X43342Y55145D01*
G01X43370Y55232D01*
G01X43428Y55290D01*
G01X43484Y55318D01*
G01X43573Y55349D01*
G01X43715Y55349D01*
G01X43802Y55318D01*
G01X43860Y55290D01*
G01X43919Y55232D01*
G01X43947Y55145D01*
G01X43947Y54945D01*
G01X43327Y61871D02*
G01X43355Y61813D01*
G01X43413Y61757D01*
G01X43469Y61727D01*
G01X43558Y61699D01*
G01X43700Y61699D01*
G01X43787Y61727D01*
G01X43845Y61757D01*
G01X43903Y61813D01*
G01X43931Y61871D01*
G01X43931Y61988D01*
G01X43903Y62044D01*
G01X43845Y62102D01*
G01X43787Y62130D01*
G01X43700Y62161D01*
G01X43558Y62161D01*
G01X43469Y62130D01*
G01X43413Y62102D01*
G01X43355Y62044D01*
G01X43327Y61988D01*
G01X43327Y61871D01*
G01X43441Y62351D02*
G01X43413Y62410D01*
G01X43327Y62496D01*
G01X43931Y62496D01*
G01X43342Y64008D02*
G01X43947Y64239D01*
G01X43342Y64470D02*
G01X43947Y64239D01*
G01X43342Y64660D02*
G01X43947Y64660D01*
G01X43342Y64851D02*
G01X43947Y64851D01*
G01X43342Y64851D02*
G01X43947Y65255D01*
G01X43342Y65255D02*
G01X43947Y65255D01*
G01X43327Y28724D02*
G01X43355Y28666D01*
G01X43413Y28610D01*
G01X43469Y28580D01*
G01X43558Y28552D01*
G01X43700Y28552D01*
G01X43787Y28580D01*
G01X43845Y28610D01*
G01X43903Y28666D01*
G01X43931Y28724D01*
G01X43931Y28841D01*
G01X43903Y28897D01*
G01X43845Y28955D01*
G01X43787Y28983D01*
G01X43700Y29014D01*
G01X43558Y29014D01*
G01X43469Y28983D01*
G01X43413Y28955D01*
G01X43355Y28897D01*
G01X43327Y28841D01*
G01X43327Y28724D01*
G01X43469Y29232D02*
G01X43441Y29232D01*
G01X43383Y29263D01*
G01X43355Y29291D01*
G01X43327Y29349D01*
G01X43327Y29463D01*
G01X43355Y29522D01*
G01X43383Y29550D01*
G01X43441Y29580D01*
G01X43500Y29580D01*
G01X43558Y29550D01*
G01X43644Y29491D01*
G01X43931Y29204D01*
G01X43931Y29608D01*
G01X43342Y26202D02*
G01X43370Y26116D01*
G01X43456Y26057D01*
G01X43601Y26029D01*
G01X43687Y26029D01*
G01X43832Y26057D01*
G01X43919Y26116D01*
G01X43947Y26202D01*
G01X43947Y26261D01*
G01X43919Y26347D01*
G01X43832Y26405D01*
G01X43687Y26433D01*
G01X43601Y26433D01*
G01X43456Y26405D01*
G01X43370Y26347D01*
G01X43342Y26261D01*
G01X43342Y26202D01*
G01X43342Y26682D02*
G01X43342Y27000D01*
G01X43573Y26827D01*
G01X43573Y26913D01*
G01X43601Y26969D01*
G01X43629Y27000D01*
G01X43715Y27028D01*
G01X43774Y27028D01*
G01X43860Y27000D01*
G01X43919Y26941D01*
G01X43947Y26855D01*
G01X43947Y26769D01*
G01X43919Y26682D01*
G01X43891Y26652D01*
G01X43832Y26624D01*
G01X43484Y23550D02*
G01X43428Y23522D01*
G01X43370Y23464D01*
G01X43342Y23408D01*
G01X43342Y23291D01*
G01X43370Y23233D01*
G01X43428Y23177D01*
G01X43484Y23147D01*
G01X43573Y23119D01*
G01X43715Y23119D01*
G01X43802Y23147D01*
G01X43860Y23177D01*
G01X43919Y23233D01*
G01X43947Y23291D01*
G01X43947Y23408D01*
G01X43919Y23464D01*
G01X43860Y23522D01*
G01X43802Y23550D01*
G01X43715Y23550D01*
G01X43715Y23408D02*
G01X43715Y23550D01*
G01X43342Y23741D02*
G01X43947Y23741D01*
G01X43342Y23741D02*
G01X43947Y24147D01*
G01X43342Y24147D02*
G01X43947Y24147D01*
G01X43342Y24338D02*
G01X43947Y24338D01*
G01X43342Y24338D02*
G01X43342Y24538D01*
G01X43370Y24625D01*
G01X43428Y24683D01*
G01X43484Y24711D01*
G01X43573Y24742D01*
G01X43715Y24742D01*
G01X43802Y24711D01*
G01X43860Y24683D01*
G01X43919Y24625D01*
G01X43947Y24538D01*
G01X43947Y24338D01*
G01X43327Y31264D02*
G01X43355Y31206D01*
G01X43413Y31150D01*
G01X43469Y31120D01*
G01X43558Y31092D01*
G01X43700Y31092D01*
G01X43787Y31120D01*
G01X43845Y31150D01*
G01X43903Y31206D01*
G01X43931Y31264D01*
G01X43931Y31381D01*
G01X43903Y31437D01*
G01X43845Y31495D01*
G01X43787Y31523D01*
G01X43700Y31554D01*
G01X43558Y31554D01*
G01X43469Y31523D01*
G01X43413Y31495D01*
G01X43355Y31437D01*
G01X43327Y31381D01*
G01X43327Y31264D01*
G01X43441Y31744D02*
G01X43413Y31803D01*
G01X43327Y31889D01*
G01X43931Y31889D01*
G01X43342Y33401D02*
G01X43947Y33632D01*
G01X43342Y33863D02*
G01X43947Y33632D01*
G01X43342Y34053D02*
G01X43947Y34053D01*
G01X43342Y34244D02*
G01X43947Y34244D01*
G01X43342Y34244D02*
G01X43947Y34648D01*
G01X43342Y34648D02*
G01X43947Y34648D01*
G01X38882Y28851D02*
G01X38910Y28793D01*
G01X38968Y28737D01*
G01X39024Y28707D01*
G01X39113Y28679D01*
G01X39255Y28679D01*
G01X39342Y28707D01*
G01X39400Y28737D01*
G01X39458Y28793D01*
G01X39486Y28851D01*
G01X39486Y28968D01*
G01X39458Y29024D01*
G01X39400Y29082D01*
G01X39342Y29110D01*
G01X39255Y29141D01*
G01X39113Y29141D01*
G01X39024Y29110D01*
G01X38968Y29082D01*
G01X38910Y29024D01*
G01X38882Y28968D01*
G01X38882Y28851D01*
G01X39024Y29359D02*
G01X38996Y29359D01*
G01X38938Y29390D01*
G01X38910Y29418D01*
G01X38882Y29476D01*
G01X38882Y29590D01*
G01X38910Y29649D01*
G01X38938Y29677D01*
G01X38996Y29707D01*
G01X39055Y29707D01*
G01X39113Y29677D01*
G01X39199Y29618D01*
G01X39486Y29331D01*
G01X39486Y29735D01*
G01X38897Y26329D02*
G01X38925Y26243D01*
G01X39011Y26184D01*
G01X39156Y26156D01*
G01X39242Y26156D01*
G01X39387Y26184D01*
G01X39474Y26243D01*
G01X39502Y26329D01*
G01X39502Y26388D01*
G01X39474Y26474D01*
G01X39387Y26532D01*
G01X39242Y26560D01*
G01X39156Y26560D01*
G01X39011Y26532D01*
G01X38925Y26474D01*
G01X38897Y26388D01*
G01X38897Y26329D01*
G01X38897Y26809D02*
G01X38897Y27127D01*
G01X39128Y26954D01*
G01X39128Y27040D01*
G01X39156Y27096D01*
G01X39184Y27127D01*
G01X39270Y27155D01*
G01X39329Y27155D01*
G01X39415Y27127D01*
G01X39474Y27068D01*
G01X39502Y26982D01*
G01X39502Y26896D01*
G01X39474Y26809D01*
G01X39446Y26779D01*
G01X39387Y26751D01*
G01X39039Y23677D02*
G01X38983Y23649D01*
G01X38925Y23591D01*
G01X38897Y23535D01*
G01X38897Y23418D01*
G01X38925Y23360D01*
G01X38983Y23304D01*
G01X39039Y23274D01*
G01X39128Y23246D01*
G01X39270Y23246D01*
G01X39357Y23274D01*
G01X39415Y23304D01*
G01X39474Y23360D01*
G01X39502Y23418D01*
G01X39502Y23535D01*
G01X39474Y23591D01*
G01X39415Y23649D01*
G01X39357Y23677D01*
G01X39270Y23677D01*
G01X39270Y23535D02*
G01X39270Y23677D01*
G01X38897Y23868D02*
G01X39502Y23868D01*
G01X38897Y23868D02*
G01X39502Y24274D01*
G01X38897Y24274D02*
G01X39502Y24274D01*
G01X38897Y24465D02*
G01X39502Y24465D01*
G01X38897Y24465D02*
G01X38897Y24665D01*
G01X38925Y24752D01*
G01X38983Y24810D01*
G01X39039Y24838D01*
G01X39128Y24869D01*
G01X39270Y24869D01*
G01X39357Y24838D01*
G01X39415Y24810D01*
G01X39474Y24752D01*
G01X39502Y24665D01*
G01X39502Y24465D01*
G01X38882Y31391D02*
G01X38910Y31333D01*
G01X38968Y31277D01*
G01X39024Y31247D01*
G01X39113Y31219D01*
G01X39255Y31219D01*
G01X39342Y31247D01*
G01X39400Y31277D01*
G01X39458Y31333D01*
G01X39486Y31391D01*
G01X39486Y31508D01*
G01X39458Y31564D01*
G01X39400Y31622D01*
G01X39342Y31650D01*
G01X39255Y31681D01*
G01X39113Y31681D01*
G01X39024Y31650D01*
G01X38968Y31622D01*
G01X38910Y31564D01*
G01X38882Y31508D01*
G01X38882Y31391D01*
G01X38996Y31871D02*
G01X38968Y31930D01*
G01X38882Y32016D01*
G01X39486Y32016D01*
G01X38897Y33528D02*
G01X39502Y33759D01*
G01X38897Y33990D02*
G01X39502Y33759D01*
G01X38897Y34180D02*
G01X39502Y34180D01*
G01X38897Y34371D02*
G01X39502Y34371D01*
G01X38897Y34371D02*
G01X39502Y34775D01*
G01X38897Y34775D02*
G01X39502Y34775D01*
G01X21259Y32080D02*
G01X21231Y32136D01*
G01X21173Y32194D01*
G01X21117Y32222D01*
G01X21000Y32222D01*
G01X20942Y32194D01*
G01X20886Y32136D01*
G01X20855Y32080D01*
G01X20828Y31991D01*
G01X20828Y31849D01*
G01X20855Y31762D01*
G01X20886Y31704D01*
G01X20942Y31645D01*
G01X21000Y31617D01*
G01X21117Y31617D01*
G01X21173Y31645D01*
G01X21231Y31704D01*
G01X21259Y31762D01*
G01X21259Y31849D01*
G01X21117Y31849D02*
G01X21259Y31849D01*
G01X21450Y32222D02*
G01X21450Y31617D01*
G01X21450Y32222D02*
G01X21856Y31617D01*
G01X21856Y32222D02*
G01X21856Y31617D01*
G01X22047Y32222D02*
G01X22047Y31617D01*
G01X22047Y32222D02*
G01X22247Y32222D01*
G01X22334Y32194D01*
G01X22392Y32136D01*
G01X22420Y32080D01*
G01X22451Y31991D01*
G01X22451Y31849D01*
G01X22420Y31762D01*
G01X22392Y31704D01*
G01X22334Y31645D01*
G01X22247Y31617D01*
G01X22047Y31617D01*
G01X23495Y32258D02*
G01X23726Y31653D01*
G01X23957Y32258D02*
G01X23726Y31653D01*
G01X24147Y32258D02*
G01X24147Y31653D01*
G01X24338Y32258D02*
G01X24338Y31653D01*
G01X24338Y32258D02*
G01X24742Y31653D01*
G01X24742Y32258D02*
G01X24742Y31653D01*
G01X26339Y32115D02*
G01X26311Y32171D01*
G01X26253Y32230D01*
G01X26197Y32258D01*
G01X26080Y32258D01*
G01X26022Y32230D01*
G01X25966Y32171D01*
G01X25935Y32115D01*
G01X25908Y32026D01*
G01X25908Y31884D01*
G01X25935Y31798D01*
G01X25966Y31739D01*
G01X26022Y31681D01*
G01X26080Y31653D01*
G01X26197Y31653D01*
G01X26253Y31681D01*
G01X26311Y31739D01*
G01X26339Y31798D01*
G01X26339Y31884D01*
G01X26197Y31884D02*
G01X26339Y31884D01*
G01X26530Y32258D02*
G01X26530Y31653D01*
G01X26530Y32258D02*
G01X26936Y31653D01*
G01X26936Y32258D02*
G01X26936Y31653D01*
G01X27127Y32258D02*
G01X27127Y31653D01*
G01X27127Y32258D02*
G01X27327Y32258D01*
G01X27414Y32230D01*
G01X27472Y32171D01*
G01X27500Y32115D01*
G01X27531Y32026D01*
G01X27531Y31884D01*
G01X27500Y31798D01*
G01X27472Y31739D01*
G01X27414Y31681D01*
G01X27327Y31653D01*
G01X27127Y31653D01*
G01X1742Y34798D02*
G01X1137Y34566D01*
G01X1742Y34335D02*
G01X1137Y34566D01*
G01X1742Y34145D02*
G01X1137Y34145D01*
G01X1742Y33954D02*
G01X1137Y33954D01*
G01X1742Y33954D02*
G01X1137Y33550D01*
G01X1742Y33550D02*
G01X1137Y33550D01*
G01X1869Y32257D02*
G01X1264Y32257D01*
G01X1869Y31894D02*
G01X1841Y31953D01*
G01X1783Y32009D01*
G01X1727Y32039D01*
G01X1638Y32067D01*
G01X1496Y32067D01*
G01X1409Y32039D01*
G01X1351Y32009D01*
G01X1292Y31953D01*
G01X1264Y31894D01*
G01X1264Y31777D01*
G01X1292Y31722D01*
G01X1351Y31663D01*
G01X1409Y31635D01*
G01X1496Y31605D01*
G01X1638Y31605D01*
G01X1727Y31635D01*
G01X1783Y31663D01*
G01X1841Y31722D01*
G01X1869Y31777D01*
G01X1869Y31894D01*
G01X1727Y31386D02*
G01X1755Y31386D01*
G01X1813Y31356D01*
G01X1841Y31328D01*
G01X1869Y31269D01*
G01X1869Y31155D01*
G01X1841Y31097D01*
G01X1813Y31069D01*
G01X1755Y31038D01*
G01X1696Y31038D01*
G01X1638Y31069D01*
G01X1551Y31127D01*
G01X1264Y31414D01*
G01X1264Y31010D01*
G01X1722Y29413D02*
G01X1778Y29441D01*
G01X1836Y29499D01*
G01X1864Y29555D01*
G01X1864Y29672D01*
G01X1836Y29730D01*
G01X1778Y29786D01*
G01X1722Y29817D01*
G01X1633Y29844D01*
G01X1491Y29844D01*
G01X1404Y29817D01*
G01X1346Y29786D01*
G01X1287Y29730D01*
G01X1259Y29672D01*
G01X1259Y29555D01*
G01X1287Y29499D01*
G01X1346Y29441D01*
G01X1404Y29413D01*
G01X1491Y29413D01*
G01X1491Y29555D02*
G01X1491Y29413D01*
G01X1864Y29222D02*
G01X1259Y29222D01*
G01X1864Y29222D02*
G01X1259Y28816D01*
G01X1864Y28816D02*
G01X1259Y28816D01*
G01X1864Y28625D02*
G01X1259Y28625D01*
G01X1864Y28625D02*
G01X1864Y28425D01*
G01X1836Y28338D01*
G01X1778Y28280D01*
G01X1722Y28252D01*
G01X1633Y28221D01*
G01X1491Y28221D01*
G01X1404Y28252D01*
G01X1346Y28280D01*
G01X1287Y28338D01*
G01X1259Y28425D01*
G01X1259Y28625D01*
G54D10*
G75*
G01X45230Y73905D02*
G03X45230Y71406I28J-1250D01*
G01*
M00*
M02*
