;Layer: Drill PTH
;EasyEDA v6.2.46, 2019-12-24T13:35:47+01:00
;9af07930541e41a2aa19a6838659558f,f7dd187871414131b8e6a9aac608ee48,10
;Gerber Generator version 0.2
M48
METRIC,LZ,000.000
;Holesize 1 = 0.610 METRIC
T01C0.610
;Holesize 2 = 0.701 METRIC
T02C0.701
;Holesize 3 = 0.712 METRIC
T03C0.712
;Holesize 4 = 0.800 METRIC
T04C0.800
;Holesize 5 = 0.850 METRIC
T05C0.850
;Holesize 6 = 0.900 METRIC
T06C0.900
;Holesize 7 = 0.901 METRIC
T07C0.901
;Holesize 8 = 0.915 METRIC
T08C0.915
;Holesize 9 = 1.000 METRIC
T09C1.000
;Holesize 10 = 1.016 METRIC
T10C1.016
;Holesize 11 = 1.021 METRIC
T11C1.021
;Holesize 12 = 1.118 METRIC
T12C1.118
;Holesize 13 = 1.143 METRIC
T13C1.143
%
G05
G90
T01
X+017272Y+043180
X+028448Y+043307
T02
X+044273Y+088583G85X+043473Y+088583
X+044273Y+081342G85X+043473Y+081342
T03
X+034290Y+092583
X+034290Y+095123
X+036830Y+095123
X+036830Y+092583
T04
X+033680Y+074005G85X+033680Y+071305
X+039979Y+071305G85X+039979Y+074005
X+035630Y+077204G85X+038330Y+077204
T05
X+026670Y+034163
X+024130Y+034163
X+021590Y+034163
X+003810Y+029083
X+003810Y+031623
X+003810Y+034163
X+026670Y+064643
X+024130Y+064643
X+021590Y+064643
T06
X+016510Y+078613
X+024130Y+078613
X+015494Y+044450
X+007874Y+044450
X+026670Y+044450
X+019050Y+044450
X+038100Y+044450
X+030480Y+044450
X+004191Y+064897
X+011811Y+064897
X+005334Y+054864
X+005334Y+062484
X+002921Y+054864
X+002921Y+062484
T07
X+041173Y+082462
X+041173Y+087462
T08
X+011430Y+088773
X+008890Y+088773
X+011430Y+086233
X+008890Y+086233
X+011430Y+083693
X+008890Y+083693
X+011430Y+081153
X+008890Y+081153
X+003810Y+095123
X+003810Y+092583
X+003810Y+090043
X+021590Y+095123
X+024130Y+095123
X+026670Y+095123
T09
X+016510Y+081146
X+016510Y+083693
X+016510Y+086233
X+016510Y+088773
X+008890Y+095123
X+011430Y+095123
X+013970Y+095123
X+016510Y+095123
X+003810Y+072263
X+003810Y+074803
X+003810Y+077343
X+003810Y+079883
X+003810Y+082423
T10
X+011430Y+011176
X+008890Y+011176
X+013970Y+011176
X+016510Y+011176
X+019050Y+011176
X+021590Y+011176
X+024130Y+011176
X+026670Y+011176
X+011430Y+013716
X+008890Y+013716
X+013970Y+013716
X+016510Y+013716
X+019050Y+013716
X+021590Y+013716
X+024130Y+013716
X+026670Y+013716
X+011430Y+016256
X+008890Y+016256
X+013970Y+016256
X+016510Y+016256
X+019050Y+016256
X+021590Y+016256
X+024130Y+016256
X+026670Y+016256
X+011430Y+018796
X+008890Y+018796
X+013970Y+018796
X+016510Y+018796
X+019050Y+018796
X+021590Y+018796
X+024130Y+018796
X+026670Y+018796
X+011430Y+021336
X+008890Y+021336
X+013970Y+021336
X+016510Y+021336
X+019050Y+021336
X+021590Y+021336
X+024130Y+021336
X+026670Y+021336
X+011430Y+023876
X+008890Y+023876
X+013970Y+023876
X+016510Y+023876
X+019050Y+023876
X+021590Y+023876
X+024130Y+023876
X+026670Y+023876
X+011430Y+026416
X+008890Y+026416
X+013970Y+026416
X+016510Y+026416
X+019050Y+026416
X+021590Y+026416
X+024130Y+026416
X+026670Y+026416
X+011430Y+028956
X+008890Y+028956
X+013970Y+028956
X+016510Y+028956
X+019050Y+028956
X+021590Y+028956
X+024130Y+028956
X+026670Y+028956
X+029210Y+011176
X+029210Y+013716
X+029210Y+016256
X+029210Y+018796
X+029210Y+021336
X+029210Y+023876
X+029210Y+026416
X+029210Y+028956
X+031750Y+011176
X+031750Y+013716
X+031750Y+016256
X+031750Y+018796
X+031750Y+021336
X+031750Y+023876
X+031750Y+026416
X+031750Y+028956
X+034290Y+011176
X+034290Y+013716
X+034290Y+016256
X+034290Y+018796
X+034290Y+021336
X+034290Y+023876
X+034290Y+026416
X+034290Y+028956
X+036830Y+011176
X+036830Y+013716
X+036830Y+016256
X+036830Y+018796
X+036830Y+021336
X+036830Y+023876
X+036830Y+026416
X+036830Y+028956
T11
X+041402Y+024003
X+041402Y+026543
X+041402Y+029083
X+041402Y+031623
X+041402Y+034163
X+003810Y+052070
X+003810Y+049530
X+003810Y+046990
X+003810Y+044450
X+003810Y+041910
X+041402Y+054483
X+041402Y+057023
X+041402Y+059563
X+041402Y+062103
X+041402Y+064643
X+003810Y+021463
X+003810Y+018923
X+003810Y+016383
X+003810Y+013843
X+003810Y+011303
T12
X+014732Y+040894
X+012192Y+040894
X+009652Y+040894
X+025374Y+040894
X+022834Y+040894
X+020294Y+040894
X+036195Y+040894
X+033655Y+040894
X+031115Y+040894
X+035052Y+082463
X+035052Y+085003
X+035052Y+087543
T13
X+016383Y+071374
X+016383Y+075692
X+009017Y+075692
X+009017Y+071374
X+027813Y+071374
X+027813Y+075692
X+020447Y+075692
X+020447Y+071374
M30
