G04 ---------------------------- Layer name :TOP SOLDER LAYER*
G04 easyEDA 0.1*
G04 Scale: 100 percent, Rotated: No, Reflected: No *
G04 Dimensions in inches *
G04 leading zeros omitted , absolute positions ,2 integer and 4 * 
%FSLAX24Y24*%
%MOIN*%
G90*
G70D02*

%ADD11C,0.059181*%
%ADD12C,0.059181*%
%ADD15R,0.025716X0.086740*%
%ADD16R,0.070992X0.055240*%
%ADD17C,0.067055*%
%ADD19C,0.070000*%
%ADD21R,0.070000X0.070000*%
%ADD22C,0.068000*%
%ADD24R,0.083000X0.083000*%
%ADD25C,0.083000*%
%ADD27C,0.082000*%
%ADD29R,0.068000X0.068000*%
%ADD30R,0.115500X0.067700*%
%ADD31C,0.055000*%

%LPD*%
G54D11*
G01X9386Y22988D02*
G01X9386Y23343D01*
G01X12236Y22988D02*
G01X12236Y23343D01*
G54D12*
G01X4400Y21866D02*
G01X4400Y22733D01*
G01X2038Y22733D02*
G01X2038Y21866D01*
G01X3652Y20509D02*
G01X2785Y20509D01*
G54D15*
G01X10300Y21800D03*
G01X10556Y21800D03*
G01X10811Y21800D03*
G01X11068Y21800D03*
G01X11323Y21800D03*
G54D16*
G01X10184Y23492D03*
G01X11484Y23484D03*
G54D17*
G01X11760Y22103D03*
G01X9855Y22103D03*
G54D19*
G01X15500Y22500D03*
G01X14500Y22500D03*
G54D21*
G01X13500Y22500D03*
G54D22*
G01X8500Y13500D03*
G01X9500Y13500D03*
G01X10500Y13500D03*
G01X11500Y13500D03*
G01X12500Y13500D03*
G54D24*
G01X1050Y19550D03*
G54D25*
G01X1050Y17850D03*
G01X3950Y17850D03*
G01X3950Y19550D03*
G54D19*
G01X8000Y22500D03*
G01X7000Y22500D03*
G54D21*
G01X6000Y22500D03*
G54D27*
G01X6300Y13000D03*
G01X6300Y16000D03*
G54D19*
G01X32500Y22500D03*
G01X31500Y22500D03*
G54D21*
G01X30500Y22500D03*
G54D22*
G01X25500Y13500D03*
G01X26500Y13500D03*
G01X27500Y13500D03*
G01X28500Y13500D03*
G01X29500Y13500D03*
G54D19*
G01X25000Y22500D03*
G01X24000Y22500D03*
G54D21*
G01X23000Y22500D03*
G54D25*
G01X24900Y19009D03*
G01X24900Y20009D03*
G54D24*
G01X24900Y21009D03*
G54D25*
G01X22489Y13400D03*
G01X21489Y13400D03*
G54D24*
G01X20489Y13400D03*
G54D25*
G01X24900Y15009D03*
G01X24900Y16009D03*
G54D24*
G01X24900Y17009D03*
G54D19*
G01X18500Y15500D03*
G01X18500Y14500D03*
G54D21*
G01X18500Y13500D03*
G54D22*
G01X18500Y18500D03*
G01X18500Y19500D03*
G01X18500Y20500D03*
G01X18500Y21500D03*
G01X18500Y22500D03*
G54D29*
G01X14500Y16500D03*
G54D22*
G01X15500Y16500D03*
G01X14500Y17500D03*
G01X15500Y17500D03*
G01X14500Y18500D03*
G01X15500Y18500D03*
G54D29*
G01X14500Y19500D03*
G54D22*
G01X15500Y19500D03*
G54D30*
G01X5400Y19800D03*
G01X5400Y18800D03*
G01X5400Y17800D03*
G54D31*
G01X2510Y14530D03*
G01X1510Y14530D03*
G01X2510Y15530D03*
G01X1510Y15530D03*
G54D27*
G01X5300Y16000D03*
G01X5300Y13000D03*
G01X4300Y16000D03*
G01X4300Y13000D03*

M00*
M02*