G04 ---------------------------- Layer name :TOP SILK LAYER*
G04 easyEDA 0.1*
G04 Scale: 100 percent, Rotated: No, Reflected: No *
G04 Dimensions in inches *
G04 leading zeros omitted , absolute positions ,2 integer and 4 * 
%FSLAX24Y24*%
%MOIN*%
G90*
G70D02*

%ADD10C,0.010000*%
%ADD11C,0.008000*%
%ADD12C,0.007992*%
%ADD13C,0.007900*%
%ADD14C,0.007000*%
%ADD15C,0.006000*%

%LPD*%
G54D10*
G01X9237Y21717D02*
G01X9237Y23977D01*
G01X9237Y21713D02*
G01X12386Y21713D01*
G01X12386Y21713D02*
G01X12386Y23973D01*
G01X9237Y23980D02*
G01X12386Y23980D01*
G01X9477Y23701D02*
G01X12142Y23701D01*
G01X9245Y23980D02*
G01X9245Y23933D01*
G01X9477Y23701D01*
G01X12375Y23973D02*
G01X12375Y23933D01*
G01X12142Y23701D01*
G54D11*
G01X13750Y23000D02*
G01X13000Y23000D01*
G01X13000Y22000D01*
G01X16000Y22000D01*
G01X16000Y23000D01*
G54D12*
G01X16000Y23000D02*
G01X13750Y23000D01*
G54D10*
G01X8000Y13000D02*
G01X8000Y14000D01*
G01X13000Y14000D01*
G01X13000Y13000D01*
G01X8000Y13000D01*
G01X1280Y19919D02*
G01X3719Y19919D01*
G01X3719Y17480D01*
G01X1280Y17480D01*
G01X1280Y19919D01*
G54D11*
G01X6250Y23000D02*
G01X5500Y23000D01*
G01X5500Y22000D01*
G01X8500Y22000D01*
G01X8500Y23000D01*
G54D12*
G01X8500Y23000D02*
G01X6250Y23000D01*
G54D10*
G01X6000Y13500D02*
G01X6000Y15500D01*
G01X6000Y15500D02*
G01X6300Y15500D01*
G01X6300Y15500D02*
G01X6600Y15500D01*
G01X6600Y15500D02*
G01X6600Y13500D01*
G01X6600Y13500D02*
G01X6300Y13500D01*
G01X6300Y13500D02*
G01X6000Y13500D01*
G01X6300Y15500D02*
G01X6300Y15600D01*
G01X6300Y13500D02*
G01X6300Y13400D01*
G54D11*
G01X30750Y23000D02*
G01X30000Y23000D01*
G01X30000Y22000D01*
G01X33000Y22000D01*
G01X33000Y23000D01*
G54D12*
G01X33000Y23000D02*
G01X30750Y23000D01*
G54D10*
G01X25000Y13000D02*
G01X25000Y14000D01*
G01X30000Y14000D01*
G01X30000Y13000D01*
G01X25000Y13000D01*
G54D11*
G01X23250Y23000D02*
G01X22500Y23000D01*
G01X22500Y22000D01*
G01X25500Y22000D01*
G01X25500Y23000D01*
G54D12*
G01X25500Y23000D02*
G01X23250Y23000D01*
G54D10*
G01X27064Y18042D02*
G01X32971Y18042D01*
G01X27064Y21980D02*
G01X27064Y18042D01*
G01X27064Y21980D02*
G01X32971Y21980D01*
G01X27000Y21000D02*
G01X25400Y21000D01*
G01X27000Y20000D02*
G01X25400Y20000D01*
G01X27000Y19000D02*
G01X25400Y19000D01*
G01X23456Y15565D02*
G01X23456Y21471D01*
G01X19519Y15565D02*
G01X23456Y15565D01*
G01X19519Y15565D02*
G01X19519Y21471D01*
G01X20500Y15500D02*
G01X20500Y13900D01*
G01X21500Y15500D02*
G01X21500Y13900D01*
G01X22500Y15500D02*
G01X22500Y13900D01*
G01X27064Y14042D02*
G01X32971Y14042D01*
G01X27064Y17980D02*
G01X27064Y14042D01*
G01X27064Y17980D02*
G01X32971Y17980D01*
G01X27000Y17000D02*
G01X25400Y17000D01*
G01X27000Y16000D02*
G01X25400Y16000D01*
G01X27000Y15000D02*
G01X25400Y15000D01*
G54D11*
G01X18000Y13750D02*
G01X18000Y13000D01*
G01X19000Y13000D01*
G01X19000Y16000D01*
G01X18000Y16000D01*
G54D12*
G01X18000Y16000D02*
G01X18000Y13750D01*
G54D10*
G01X19000Y18000D02*
G01X18000Y18000D01*
G01X18000Y23000D01*
G01X19000Y23000D01*
G01X19000Y18000D01*
G01X16000Y15150D02*
G01X16000Y20850D01*
G01X16000Y15150D02*
G01X6250Y15150D01*
G01X16000Y20850D02*
G01X6250Y20850D01*
G01X6250Y15150D01*
G01X14800Y16000D02*
G01X14200Y16000D01*
G01X14000Y16200D01*
G01X14000Y16800D01*
G01X14200Y17000D01*
G01X14000Y17200D01*
G01X14000Y17800D01*
G01X14200Y18000D01*
G01X14000Y18200D01*
G01X14000Y18800D01*
G01X14200Y19000D01*
G01X14000Y19200D01*
G01X14000Y19800D01*
G01X14200Y20000D01*
G01X14800Y20000D01*
G01X15000Y19800D01*
G01X15200Y20000D01*
G01X15800Y20000D01*
G01X16000Y19800D01*
G01X16000Y19200D01*
G01X15800Y19000D01*
G01X16000Y18800D01*
G01X16000Y18200D01*
G01X15800Y18000D01*
G01X16000Y17800D01*
G01X16000Y17200D01*
G01X15800Y17000D01*
G01X16000Y16800D01*
G01X16000Y16200D01*
G01X15800Y16000D01*
G01X15200Y16000D01*
G01X15000Y16200D01*
G01X14800Y16000D01*
G01X14700Y16000D01*
G01X7400Y20850D02*
G01X7400Y16750D01*
G01X13650Y16750D02*
G01X13650Y20850D01*
G01X7400Y16750D02*
G01X12300Y16750D01*
G01X12300Y16750D02*
G01X12300Y17100D01*
G01X12300Y17100D02*
G01X12900Y17100D01*
G01X12900Y17100D02*
G01X12900Y16750D01*
G01X12900Y16750D02*
G01X13650Y16750D01*
G01X7400Y20850D02*
G01X12300Y20850D01*
G01X12300Y20850D02*
G01X12300Y20500D01*
G01X12300Y20500D02*
G01X12900Y20500D01*
G01X12900Y20500D02*
G01X12900Y20850D01*
G01X12900Y20850D02*
G01X13650Y20850D01*
G01X7650Y20600D02*
G01X7650Y17000D01*
G01X10900Y17000D02*
G01X7650Y17000D01*
G01X10900Y17000D02*
G01X10900Y20600D01*
G01X7650Y20600D02*
G01X10900Y20600D01*
G54D13*
G01X1010Y14030D02*
G01X3010Y14030D01*
G01X3010Y15030D01*
G01X1010Y15030D01*
G01X1010Y14030D01*
G01X1010Y15030D02*
G01X3010Y15030D01*
G01X3010Y16030D01*
G01X1010Y16030D01*
G01X1010Y15030D01*
G54D10*
G01X5600Y15500D02*
G01X5600Y13500D01*
G01X5600Y13500D02*
G01X5300Y13500D01*
G01X5300Y13500D02*
G01X5000Y13500D01*
G01X5000Y13500D02*
G01X5000Y15500D01*
G01X5000Y15500D02*
G01X5300Y15500D01*
G01X5300Y15500D02*
G01X5600Y15500D01*
G01X5300Y13500D02*
G01X5300Y13400D01*
G01X5300Y15500D02*
G01X5300Y15600D01*
G01X4600Y15500D02*
G01X4600Y13500D01*
G01X4600Y13500D02*
G01X4300Y13500D01*
G01X4300Y13500D02*
G01X4000Y13500D01*
G01X4000Y13500D02*
G01X4000Y15500D01*
G01X4000Y15500D02*
G01X4300Y15500D01*
G01X4300Y15500D02*
G01X4600Y15500D01*
G01X4300Y13500D02*
G01X4300Y13400D01*
G01X4300Y15500D02*
G01X4300Y15600D01*
G01X-954Y24032D02*
G01X-954Y20508D01*
G01X4400Y20508D01*
G01X4400Y24032D01*
G01X-954Y24032D01*
G01X-28Y20508D02*
G01X-28Y24032D01*
G54D14*
G01X7229Y20300D02*
G01X6800Y20300D01*
G01X6800Y20300D02*
G01X6800Y20055D01*
G01X7229Y19919D02*
G01X6800Y19919D01*
G01X7229Y19919D02*
G01X7229Y19776D01*
G01X7209Y19715D01*
G01X7168Y19673D01*
G01X7127Y19653D01*
G01X7066Y19632D01*
G01X6964Y19632D01*
G01X6902Y19653D01*
G01X6861Y19673D01*
G01X6820Y19715D01*
G01X6800Y19776D01*
G01X6800Y19919D01*
G01X7148Y19498D02*
G01X7168Y19457D01*
G01X7229Y19396D01*
G01X6800Y19396D01*
G01X7148Y19261D02*
G01X7168Y19219D01*
G01X7229Y19159D01*
G01X6800Y19159D01*
G01X7148Y19023D02*
G01X7168Y18982D01*
G01X7229Y18921D01*
G01X6800Y18921D01*
G01X7229Y18500D02*
G01X6800Y18705D01*
G01X7229Y18786D02*
G01X7229Y18500D01*
G01X7229Y18365D02*
G01X6800Y18201D01*
G01X7229Y18038D02*
G01X6800Y18201D01*
G01X7229Y17861D02*
G01X7229Y17636D01*
G01X7066Y17759D01*
G01X7066Y17698D01*
G01X7045Y17657D01*
G01X7025Y17636D01*
G01X6964Y17615D01*
G01X6923Y17615D01*
G01X6861Y17636D01*
G01X6820Y17678D01*
G01X6800Y17738D01*
G01X6800Y17800D01*
G01X6820Y17861D01*
G01X6841Y17882D01*
G01X6882Y17903D01*
G01X7229Y17440D02*
G01X7229Y17215D01*
G01X7066Y17338D01*
G01X7066Y17277D01*
G01X7045Y17236D01*
G01X7025Y17215D01*
G01X6964Y17194D01*
G01X6923Y17194D01*
G01X6861Y17215D01*
G01X6820Y17255D01*
G01X6800Y17317D01*
G01X6800Y17378D01*
G01X6820Y17440D01*
G01X6841Y17461D01*
G01X6882Y17480D01*
G01X16135Y19126D02*
G01X16135Y19276D01*
G01X16244Y19194D01*
G01X16244Y19235D01*
G01X16258Y19263D01*
G01X16272Y19276D01*
G01X16313Y19290D01*
G01X16340Y19290D01*
G01X16381Y19276D01*
G01X16408Y19249D01*
G01X16422Y19208D01*
G01X16422Y19167D01*
G01X16408Y19126D01*
G01X16394Y19113D01*
G01X16367Y19099D01*
G01X16135Y19380D02*
G01X16422Y19489D01*
G01X16135Y19598D02*
G01X16422Y19489D01*
G01X16135Y19715D02*
G01X16135Y19865D01*
G01X16244Y19784D01*
G01X16244Y19824D01*
G01X16258Y19852D01*
G01X16272Y19865D01*
G01X16313Y19879D01*
G01X16340Y19879D01*
G01X16381Y19865D01*
G01X16408Y19838D01*
G01X16422Y19797D01*
G01X16422Y19756D01*
G01X16408Y19715D01*
G01X16394Y19702D01*
G01X16367Y19688D01*
G01X16189Y15275D02*
G01X16477Y15275D01*
G01X16189Y15180D02*
G01X16189Y15371D01*
G01X16189Y15461D02*
G01X16477Y15651D01*
G01X16189Y15651D02*
G01X16477Y15461D01*
G01X16135Y15986D02*
G01X16572Y15742D01*
G01X16189Y16076D02*
G01X16477Y16076D01*
G01X16189Y16248D02*
G01X16203Y16221D01*
G01X16231Y16194D01*
G01X16259Y16180D01*
G01X16298Y16167D01*
G01X16368Y16167D01*
G01X16409Y16180D01*
G01X16435Y16194D01*
G01X16463Y16221D01*
G01X16477Y16248D01*
G01X16477Y16303D01*
G01X16463Y16330D01*
G01X16435Y16357D01*
G01X16409Y16371D01*
G01X16368Y16384D01*
G01X16298Y16384D01*
G01X16259Y16371D01*
G01X16231Y16357D01*
G01X16203Y16330D01*
G01X16189Y16303D01*
G01X16189Y16248D01*
G01X16244Y16475D02*
G01X16231Y16503D01*
G01X16189Y16544D01*
G01X16477Y16544D01*
G01X16136Y18127D02*
G01X16423Y18127D01*
G01X16136Y18127D02*
G01X16136Y18250D01*
G01X16150Y18290D01*
G01X16164Y18303D01*
G01X16191Y18317D01*
G01X16218Y18317D01*
G01X16245Y18303D01*
G01X16259Y18290D01*
G01X16273Y18250D01*
G01X16273Y18127D01*
G01X16273Y18221D02*
G01X16423Y18317D01*
G01X16177Y18598D02*
G01X16150Y18571D01*
G01X16136Y18530D01*
G01X16136Y18476D01*
G01X16150Y18434D01*
G01X16177Y18407D01*
G01X16205Y18407D01*
G01X16232Y18421D01*
G01X16245Y18434D01*
G01X16259Y18461D01*
G01X16286Y18544D01*
G01X16300Y18571D01*
G01X16314Y18584D01*
G01X16341Y18598D01*
G01X16382Y18598D01*
G01X16409Y18571D01*
G01X16423Y18530D01*
G01X16423Y18476D01*
G01X16409Y18434D01*
G01X16382Y18407D01*
G01X16136Y18784D02*
G01X16423Y18784D01*
G01X16136Y18688D02*
G01X16136Y18880D01*
G01X16281Y17094D02*
G01X16263Y17084D01*
G01X16245Y17067D01*
G01X16236Y17048D01*
G01X16236Y17013D01*
G01X16245Y16994D01*
G01X16263Y16976D01*
G01X16281Y16967D01*
G01X16309Y16957D01*
G01X16354Y16957D01*
G01X16381Y16967D01*
G01X16400Y16976D01*
G01X16418Y16994D01*
G01X16427Y17013D01*
G01X16427Y17048D01*
G01X16418Y17067D01*
G01X16400Y17084D01*
G01X16381Y17094D01*
G01X16236Y17153D02*
G01X16427Y17153D01*
G01X16236Y17282D02*
G01X16427Y17282D01*
G01X16327Y17153D02*
G01X16327Y17282D01*
G01X16490Y17342D02*
G01X16490Y17505D01*
G01X16236Y17565D02*
G01X16427Y17565D01*
G01X16236Y17565D02*
G01X16236Y17646D01*
G01X16245Y17673D01*
G01X16254Y17682D01*
G01X16272Y17692D01*
G01X16300Y17692D01*
G01X16318Y17682D01*
G01X16327Y17673D01*
G01X16336Y17646D01*
G01X16336Y17565D01*
G01X16236Y17753D02*
G01X16427Y17753D01*
G01X16236Y17753D02*
G01X16236Y17815D01*
G01X16245Y17842D01*
G01X16263Y17861D01*
G01X16281Y17871D01*
G01X16309Y17880D01*
G01X16354Y17880D01*
G01X16381Y17871D01*
G01X16400Y17861D01*
G01X16418Y17842D01*
G01X16427Y17815D01*
G01X16427Y17753D01*
G01X13268Y16038D02*
G01X13240Y16024D01*
G01X13213Y15997D01*
G01X13199Y15969D01*
G01X13199Y15915D01*
G01X13213Y15888D01*
G01X13240Y15860D01*
G01X13268Y15847D01*
G01X13308Y15833D01*
G01X13377Y15833D01*
G01X13418Y15847D01*
G01X13445Y15860D01*
G01X13472Y15888D01*
G01X13486Y15915D01*
G01X13486Y15969D01*
G01X13472Y15997D01*
G01X13445Y16024D01*
G01X13418Y16038D01*
G01X13377Y16038D01*
G01X13377Y15969D02*
G01X13377Y16038D01*
G01X13199Y16128D02*
G01X13486Y16128D01*
G01X13199Y16128D02*
G01X13486Y16318D01*
G01X13199Y16318D02*
G01X13486Y16318D01*
G01X13199Y16408D02*
G01X13486Y16408D01*
G01X13199Y16408D02*
G01X13199Y16504D01*
G01X13213Y16545D01*
G01X13240Y16572D01*
G01X13268Y16586D01*
G01X13308Y16599D01*
G01X13377Y16599D01*
G01X13418Y16586D01*
G01X13445Y16572D01*
G01X13472Y16545D01*
G01X13486Y16504D01*
G01X13486Y16408D01*
G01X13194Y17165D02*
G01X13481Y17165D01*
G01X13194Y17338D02*
G01X13209Y17311D01*
G01X13235Y17282D01*
G01X13264Y17269D01*
G01X13303Y17255D01*
G01X13372Y17255D01*
G01X13414Y17269D01*
G01X13440Y17282D01*
G01X13468Y17311D01*
G01X13481Y17338D01*
G01X13481Y17392D01*
G01X13468Y17419D01*
G01X13440Y17446D01*
G01X13414Y17461D01*
G01X13372Y17473D01*
G01X13303Y17473D01*
G01X13264Y17461D01*
G01X13235Y17446D01*
G01X13209Y17419D01*
G01X13194Y17392D01*
G01X13194Y17338D01*
G01X13264Y17578D02*
G01X13250Y17578D01*
G01X13222Y17590D01*
G01X13209Y17605D01*
G01X13194Y17632D01*
G01X13194Y17686D01*
G01X13209Y17713D01*
G01X13222Y17728D01*
G01X13250Y17740D01*
G01X13277Y17740D01*
G01X13303Y17728D01*
G01X13344Y17701D01*
G01X13481Y17563D01*
G01X13481Y17755D01*
G01X13194Y18165D02*
G01X13481Y18165D01*
G01X13194Y18338D02*
G01X13209Y18311D01*
G01X13235Y18282D01*
G01X13264Y18269D01*
G01X13303Y18255D01*
G01X13372Y18255D01*
G01X13414Y18269D01*
G01X13440Y18282D01*
G01X13468Y18311D01*
G01X13481Y18338D01*
G01X13481Y18392D01*
G01X13468Y18419D01*
G01X13440Y18446D01*
G01X13414Y18461D01*
G01X13372Y18473D01*
G01X13303Y18473D01*
G01X13264Y18461D01*
G01X13235Y18446D01*
G01X13209Y18419D01*
G01X13194Y18392D01*
G01X13194Y18338D01*
G01X13194Y18646D02*
G01X13209Y18605D01*
G01X13250Y18578D01*
G01X13318Y18563D01*
G01X13359Y18563D01*
G01X13427Y18578D01*
G01X13468Y18605D01*
G01X13481Y18646D01*
G01X13481Y18673D01*
G01X13468Y18713D01*
G01X13427Y18740D01*
G01X13359Y18755D01*
G01X13318Y18755D01*
G01X13250Y18740D01*
G01X13209Y18713D01*
G01X13194Y18673D01*
G01X13194Y18646D01*
G01X13189Y19165D02*
G01X13477Y19165D01*
G01X13189Y19338D02*
G01X13203Y19311D01*
G01X13231Y19282D01*
G01X13259Y19269D01*
G01X13298Y19255D01*
G01X13368Y19255D01*
G01X13409Y19269D01*
G01X13435Y19282D01*
G01X13463Y19311D01*
G01X13477Y19338D01*
G01X13477Y19392D01*
G01X13463Y19419D01*
G01X13435Y19446D01*
G01X13409Y19461D01*
G01X13368Y19473D01*
G01X13298Y19473D01*
G01X13259Y19461D01*
G01X13231Y19446D01*
G01X13203Y19419D01*
G01X13189Y19392D01*
G01X13189Y19338D01*
G01X13189Y19590D02*
G01X13189Y19740D01*
G01X13298Y19659D01*
G01X13298Y19701D01*
G01X13313Y19728D01*
G01X13327Y19740D01*
G01X13368Y19755D01*
G01X13394Y19755D01*
G01X13435Y19740D01*
G01X13463Y19713D01*
G01X13477Y19673D01*
G01X13477Y19632D01*
G01X13463Y19590D01*
G01X13448Y19578D01*
G01X13422Y19563D01*
G01X13135Y20090D02*
G01X13572Y19844D01*
G01X13189Y20180D02*
G01X13477Y20180D01*
G01X13189Y20180D02*
G01X13189Y20303D01*
G01X13203Y20344D01*
G01X13218Y20357D01*
G01X13244Y20371D01*
G01X13272Y20371D01*
G01X13298Y20357D01*
G01X13313Y20344D01*
G01X13327Y20303D01*
G01X13327Y20180D01*
G01X13327Y20276D02*
G01X13477Y20371D01*
G01X13189Y20461D02*
G01X13477Y20652D01*
G01X13189Y20652D02*
G01X13477Y20461D01*
G54D11*
G01X8150Y21322D02*
G01X8150Y21800D01*
G01X8150Y21322D02*
G01X7944Y21322D01*
G01X7877Y21345D01*
G01X7855Y21368D01*
G01X7831Y21413D01*
G01X7831Y21481D01*
G01X7855Y21527D01*
G01X7877Y21550D01*
G01X7944Y21572D01*
G01X8150Y21572D01*
G01X7544Y21322D02*
G01X7590Y21345D01*
G01X7635Y21390D01*
G01X7659Y21436D01*
G01X7681Y21504D01*
G01X7681Y21618D01*
G01X7659Y21686D01*
G01X7635Y21731D01*
G01X7590Y21777D01*
G01X7544Y21800D01*
G01X7455Y21800D01*
G01X7409Y21777D01*
G01X7364Y21731D01*
G01X7340Y21686D01*
G01X7318Y21618D01*
G01X7318Y21504D01*
G01X7340Y21436D01*
G01X7364Y21390D01*
G01X7409Y21345D01*
G01X7455Y21322D01*
G01X7544Y21322D01*
G01X7168Y21322D02*
G01X7055Y21800D01*
G01X6940Y21322D02*
G01X7055Y21800D01*
G01X6940Y21322D02*
G01X6827Y21800D01*
G01X6714Y21322D02*
G01X6827Y21800D01*
G01X6564Y21322D02*
G01X6564Y21800D01*
G01X6564Y21322D02*
G01X6268Y21322D01*
G01X6564Y21550D02*
G01X6381Y21550D01*
G01X6564Y21800D02*
G01X6268Y21800D01*
G01X6118Y21322D02*
G01X6118Y21800D01*
G01X6118Y21322D02*
G01X5914Y21322D01*
G01X5844Y21345D01*
G01X5822Y21368D01*
G01X5800Y21413D01*
G01X5800Y21459D01*
G01X5822Y21504D01*
G01X5844Y21527D01*
G01X5914Y21550D01*
G01X6118Y21550D01*
G01X5959Y21550D02*
G01X5800Y21800D01*
G01X15463Y21436D02*
G01X15486Y21390D01*
G01X15531Y21344D01*
G01X15577Y21321D01*
G01X15668Y21321D01*
G01X15713Y21344D01*
G01X15759Y21390D01*
G01X15781Y21436D01*
G01X15804Y21503D01*
G01X15804Y21617D01*
G01X15781Y21686D01*
G01X15759Y21730D01*
G01X15713Y21777D01*
G01X15668Y21800D01*
G01X15577Y21800D01*
G01X15531Y21777D01*
G01X15486Y21730D01*
G01X15463Y21686D01*
G01X15177Y21321D02*
G01X15222Y21344D01*
G01X15268Y21390D01*
G01X15290Y21436D01*
G01X15313Y21503D01*
G01X15313Y21617D01*
G01X15290Y21686D01*
G01X15268Y21730D01*
G01X15222Y21777D01*
G01X15177Y21800D01*
G01X15086Y21800D01*
G01X15040Y21777D01*
G01X14995Y21730D01*
G01X14972Y21686D01*
G01X14949Y21617D01*
G01X14949Y21503D01*
G01X14972Y21436D01*
G01X14995Y21390D01*
G01X15040Y21344D01*
G01X15086Y21321D01*
G01X15177Y21321D01*
G01X14799Y21321D02*
G01X14799Y21800D01*
G01X14799Y21321D02*
G01X14481Y21800D01*
G01X14481Y21321D02*
G01X14481Y21800D01*
G01X14331Y21321D02*
G01X14331Y21800D01*
G01X14331Y21321D02*
G01X14013Y21800D01*
G01X14013Y21321D02*
G01X14013Y21800D01*
G01X13513Y21413D02*
G01X13468Y21390D01*
G01X13399Y21321D01*
G01X13399Y21800D01*
G01X29464Y22436D02*
G01X29487Y22390D01*
G01X29532Y22344D01*
G01X29578Y22321D01*
G01X29669Y22321D01*
G01X29714Y22344D01*
G01X29760Y22390D01*
G01X29782Y22436D01*
G01X29805Y22503D01*
G01X29805Y22617D01*
G01X29782Y22686D01*
G01X29760Y22730D01*
G01X29714Y22777D01*
G01X29669Y22800D01*
G01X29578Y22800D01*
G01X29532Y22777D01*
G01X29487Y22730D01*
G01X29464Y22686D01*
G01X29178Y22321D02*
G01X29223Y22344D01*
G01X29269Y22390D01*
G01X29291Y22436D01*
G01X29314Y22503D01*
G01X29314Y22617D01*
G01X29291Y22686D01*
G01X29269Y22730D01*
G01X29223Y22777D01*
G01X29178Y22800D01*
G01X29087Y22800D01*
G01X29041Y22777D01*
G01X28996Y22730D01*
G01X28973Y22686D01*
G01X28950Y22617D01*
G01X28950Y22503D01*
G01X28973Y22436D01*
G01X28996Y22390D01*
G01X29041Y22344D01*
G01X29087Y22321D01*
G01X29178Y22321D01*
G01X28800Y22321D02*
G01X28800Y22800D01*
G01X28800Y22321D02*
G01X28482Y22800D01*
G01X28482Y22321D02*
G01X28482Y22800D01*
G01X28332Y22321D02*
G01X28332Y22800D01*
G01X28332Y22321D02*
G01X28014Y22800D01*
G01X28014Y22321D02*
G01X28014Y22800D01*
G01X27514Y22413D02*
G01X27469Y22390D01*
G01X27400Y22321D01*
G01X27400Y22800D01*
G01X9540Y12686D02*
G01X9518Y12732D01*
G01X9472Y12776D01*
G01X9427Y12800D01*
G01X9335Y12800D01*
G01X9290Y12776D01*
G01X9244Y12732D01*
G01X9222Y12686D01*
G01X9200Y12617D01*
G01X9200Y12503D01*
G01X9222Y12436D01*
G01X9244Y12390D01*
G01X9290Y12344D01*
G01X9335Y12321D01*
G01X9427Y12321D01*
G01X9472Y12344D01*
G01X9518Y12390D01*
G01X9540Y12436D01*
G01X9827Y12800D02*
G01X9781Y12776D01*
G01X9735Y12732D01*
G01X9714Y12686D01*
G01X9690Y12617D01*
G01X9690Y12503D01*
G01X9714Y12436D01*
G01X9735Y12390D01*
G01X9781Y12344D01*
G01X9827Y12321D01*
G01X9918Y12321D01*
G01X9964Y12344D01*
G01X10009Y12390D01*
G01X10031Y12436D01*
G01X10055Y12503D01*
G01X10055Y12617D01*
G01X10031Y12686D01*
G01X10009Y12732D01*
G01X9964Y12776D01*
G01X9918Y12800D01*
G01X9827Y12800D01*
G01X10205Y12800D02*
G01X10205Y12321D01*
G01X10205Y12800D02*
G01X10522Y12321D01*
G01X10522Y12800D02*
G01X10522Y12321D01*
G01X10672Y12800D02*
G01X10672Y12321D01*
G01X10672Y12800D02*
G01X10990Y12321D01*
G01X10990Y12800D02*
G01X10990Y12321D01*
G01X11514Y12686D02*
G01X11514Y12709D01*
G01X11535Y12753D01*
G01X11559Y12776D01*
G01X11605Y12800D01*
G01X11694Y12800D01*
G01X11740Y12776D01*
G01X11764Y12753D01*
G01X11785Y12709D01*
G01X11785Y12663D01*
G01X11764Y12617D01*
G01X11718Y12550D01*
G01X11490Y12321D01*
G01X11809Y12321D01*
G01X26640Y12659D02*
G01X26618Y12705D01*
G01X26572Y12750D01*
G01X26527Y12773D01*
G01X26435Y12773D01*
G01X26390Y12750D01*
G01X26344Y12705D01*
G01X26322Y12659D01*
G01X26300Y12590D01*
G01X26300Y12476D01*
G01X26322Y12409D01*
G01X26344Y12363D01*
G01X26390Y12317D01*
G01X26435Y12294D01*
G01X26527Y12294D01*
G01X26572Y12317D01*
G01X26618Y12363D01*
G01X26640Y12409D01*
G01X26927Y12773D02*
G01X26881Y12750D01*
G01X26835Y12705D01*
G01X26814Y12659D01*
G01X26790Y12590D01*
G01X26790Y12476D01*
G01X26814Y12409D01*
G01X26835Y12363D01*
G01X26881Y12317D01*
G01X26927Y12294D01*
G01X27018Y12294D01*
G01X27064Y12317D01*
G01X27109Y12363D01*
G01X27131Y12409D01*
G01X27155Y12476D01*
G01X27155Y12590D01*
G01X27131Y12659D01*
G01X27109Y12705D01*
G01X27064Y12750D01*
G01X27018Y12773D01*
G01X26927Y12773D01*
G01X27305Y12773D02*
G01X27305Y12294D01*
G01X27305Y12773D02*
G01X27622Y12294D01*
G01X27622Y12773D02*
G01X27622Y12294D01*
G01X27772Y12773D02*
G01X27772Y12294D01*
G01X27772Y12773D02*
G01X28090Y12294D01*
G01X28090Y12773D02*
G01X28090Y12294D01*
G01X28614Y12659D02*
G01X28614Y12682D01*
G01X28635Y12726D01*
G01X28659Y12750D01*
G01X28705Y12773D01*
G01X28794Y12773D01*
G01X28840Y12750D01*
G01X28864Y12726D01*
G01X28885Y12682D01*
G01X28885Y12636D01*
G01X28864Y12590D01*
G01X28818Y12523D01*
G01X28590Y12294D01*
G01X28909Y12294D01*
G01X19563Y15059D02*
G01X19609Y15082D01*
G01X19654Y15126D01*
G01X19677Y15173D01*
G01X19677Y15263D01*
G01X19654Y15309D01*
G01X19609Y15355D01*
G01X19563Y15376D01*
G01X19495Y15400D01*
G01X19381Y15400D01*
G01X19313Y15376D01*
G01X19268Y15355D01*
G01X19222Y15309D01*
G01X19199Y15263D01*
G01X19199Y15173D01*
G01X19222Y15126D01*
G01X19268Y15082D01*
G01X19313Y15059D01*
G01X19677Y14773D02*
G01X19654Y14817D01*
G01X19609Y14863D01*
G01X19563Y14886D01*
G01X19495Y14909D01*
G01X19381Y14909D01*
G01X19313Y14886D01*
G01X19268Y14863D01*
G01X19222Y14817D01*
G01X19199Y14773D01*
G01X19199Y14682D01*
G01X19222Y14636D01*
G01X19268Y14590D01*
G01X19313Y14567D01*
G01X19381Y14544D01*
G01X19495Y14544D01*
G01X19563Y14567D01*
G01X19609Y14590D01*
G01X19654Y14636D01*
G01X19677Y14682D01*
G01X19677Y14773D01*
G01X19677Y14394D02*
G01X19199Y14394D01*
G01X19677Y14394D02*
G01X19199Y14076D01*
G01X19677Y14076D02*
G01X19199Y14076D01*
G01X19677Y13926D02*
G01X19199Y13926D01*
G01X19677Y13926D02*
G01X19199Y13609D01*
G01X19677Y13609D02*
G01X19199Y13609D01*
G01X19677Y13063D02*
G01X19677Y12813D01*
G01X19495Y12950D01*
G01X19495Y12882D01*
G01X19472Y12836D01*
G01X19449Y12813D01*
G01X19381Y12790D01*
G01X19336Y12790D01*
G01X19268Y12813D01*
G01X19222Y12859D01*
G01X19199Y12926D01*
G01X19199Y12994D01*
G01X19222Y13063D01*
G01X19245Y13086D01*
G01X19290Y13109D01*
G01X17731Y21527D02*
G01X17777Y21550D01*
G01X17822Y21595D01*
G01X17846Y21641D01*
G01X17846Y21732D01*
G01X17822Y21777D01*
G01X17777Y21823D01*
G01X17731Y21845D01*
G01X17664Y21868D01*
G01X17550Y21868D01*
G01X17481Y21845D01*
G01X17436Y21823D01*
G01X17390Y21777D01*
G01X17368Y21732D01*
G01X17368Y21641D01*
G01X17390Y21595D01*
G01X17436Y21550D01*
G01X17481Y21527D01*
G01X17846Y21241D02*
G01X17822Y21286D01*
G01X17777Y21332D01*
G01X17731Y21354D01*
G01X17664Y21377D01*
G01X17550Y21377D01*
G01X17481Y21354D01*
G01X17436Y21332D01*
G01X17390Y21286D01*
G01X17368Y21241D01*
G01X17368Y21150D01*
G01X17390Y21104D01*
G01X17436Y21059D01*
G01X17481Y21036D01*
G01X17550Y21013D01*
G01X17664Y21013D01*
G01X17731Y21036D01*
G01X17777Y21059D01*
G01X17822Y21104D01*
G01X17846Y21150D01*
G01X17846Y21241D01*
G01X17846Y20863D02*
G01X17368Y20863D01*
G01X17846Y20863D02*
G01X17368Y20545D01*
G01X17846Y20545D02*
G01X17368Y20545D01*
G01X17846Y20395D02*
G01X17368Y20395D01*
G01X17846Y20395D02*
G01X17368Y20077D01*
G01X17846Y20077D02*
G01X17368Y20077D01*
G01X17846Y19350D02*
G01X17527Y19577D01*
G01X17527Y19236D01*
G01X17846Y19350D02*
G01X17368Y19350D01*
G01X17846Y13476D02*
G01X17600Y13476D01*
G01X17722Y13600D02*
G01X17722Y13355D01*
G01X17700Y15600D02*
G01X17700Y15355D01*
G01X7100Y23400D02*
G01X6855Y23400D01*
G01X5977Y23277D02*
G01X5977Y23523D01*
G01X6100Y23400D02*
G01X5855Y23400D01*
G01X7977Y23277D02*
G01X7977Y23523D01*
G01X8100Y23400D02*
G01X7855Y23400D01*
G01X24100Y23400D02*
G01X23855Y23400D01*
G01X22977Y23277D02*
G01X22977Y23523D01*
G01X23100Y23400D02*
G01X22855Y23400D01*
G01X24977Y23277D02*
G01X24977Y23523D01*
G01X25100Y23400D02*
G01X24855Y23400D01*
G01X32644Y23400D02*
G01X32399Y23400D01*
G01X30521Y23253D02*
G01X30521Y23500D01*
G01X30644Y23377D02*
G01X30399Y23377D01*
G01X22300Y22327D02*
G01X22300Y22805D01*
G01X22300Y22327D02*
G01X22094Y22327D01*
G01X22027Y22350D01*
G01X22005Y22373D01*
G01X21981Y22418D01*
G01X21981Y22486D01*
G01X22005Y22532D01*
G01X22027Y22555D01*
G01X22094Y22577D01*
G01X22300Y22577D01*
G01X21694Y22327D02*
G01X21740Y22350D01*
G01X21785Y22395D01*
G01X21809Y22441D01*
G01X21831Y22509D01*
G01X21831Y22623D01*
G01X21809Y22691D01*
G01X21785Y22736D01*
G01X21740Y22782D01*
G01X21694Y22805D01*
G01X21605Y22805D01*
G01X21559Y22782D01*
G01X21514Y22736D01*
G01X21490Y22691D01*
G01X21468Y22623D01*
G01X21468Y22509D01*
G01X21490Y22441D01*
G01X21514Y22395D01*
G01X21559Y22350D01*
G01X21605Y22327D01*
G01X21694Y22327D01*
G01X21318Y22327D02*
G01X21205Y22805D01*
G01X21090Y22327D02*
G01X21205Y22805D01*
G01X21090Y22327D02*
G01X20977Y22805D01*
G01X20864Y22327D02*
G01X20977Y22805D01*
G01X20714Y22327D02*
G01X20714Y22805D01*
G01X20714Y22327D02*
G01X20418Y22327D01*
G01X20714Y22555D02*
G01X20531Y22555D01*
G01X20714Y22805D02*
G01X20418Y22805D01*
G01X20268Y22327D02*
G01X20268Y22805D01*
G01X20268Y22327D02*
G01X20064Y22327D01*
G01X19994Y22350D01*
G01X19972Y22373D01*
G01X19950Y22418D01*
G01X19950Y22464D01*
G01X19972Y22509D01*
G01X19994Y22532D01*
G01X20064Y22555D01*
G01X20268Y22555D01*
G01X20109Y22555D02*
G01X19950Y22805D01*
G01X12754Y21021D02*
G01X12754Y21363D01*
G01X12731Y21430D01*
G01X12686Y21477D01*
G01X12618Y21500D01*
G01X12572Y21500D01*
G01X12504Y21477D01*
G01X12459Y21430D01*
G01X12436Y21363D01*
G01X12436Y21021D01*
G01X11968Y21090D02*
G01X12013Y21044D01*
G01X12081Y21021D01*
G01X12172Y21021D01*
G01X12240Y21044D01*
G01X12286Y21090D01*
G01X12286Y21136D01*
G01X12263Y21180D01*
G01X12240Y21203D01*
G01X12195Y21227D01*
G01X12059Y21271D01*
G01X12013Y21294D01*
G01X11990Y21317D01*
G01X11968Y21363D01*
G01X11968Y21430D01*
G01X12013Y21477D01*
G01X12081Y21500D01*
G01X12172Y21500D01*
G01X12240Y21477D01*
G01X12286Y21430D01*
G01X11818Y21021D02*
G01X11818Y21500D01*
G01X11818Y21021D02*
G01X11613Y21021D01*
G01X11545Y21044D01*
G01X11522Y21067D01*
G01X11499Y21113D01*
G01X11499Y21159D01*
G01X11522Y21203D01*
G01X11545Y21227D01*
G01X11613Y21250D01*
G01X11818Y21250D02*
G01X11613Y21250D01*
G01X11545Y21271D01*
G01X11522Y21294D01*
G01X11499Y21340D01*
G01X11499Y21409D01*
G01X11522Y21453D01*
G01X11545Y21477D01*
G01X11613Y21500D01*
G01X11818Y21500D01*
G01X1172Y23400D02*
G01X694Y23400D01*
G01X1172Y23400D02*
G01X1172Y23194D01*
G01X1149Y23127D01*
G01X1126Y23105D01*
G01X1081Y23082D01*
G01X1013Y23082D01*
G01X967Y23105D01*
G01X944Y23127D01*
G01X922Y23194D01*
G01X922Y23400D01*
G01X1172Y22794D02*
G01X1149Y22840D01*
G01X1104Y22886D01*
G01X1058Y22909D01*
G01X990Y22932D01*
G01X876Y22932D01*
G01X808Y22909D01*
G01X763Y22886D01*
G01X717Y22840D01*
G01X694Y22794D01*
G01X694Y22705D01*
G01X717Y22659D01*
G01X763Y22613D01*
G01X808Y22590D01*
G01X876Y22567D01*
G01X990Y22567D01*
G01X1058Y22590D01*
G01X1104Y22613D01*
G01X1149Y22659D01*
G01X1172Y22705D01*
G01X1172Y22794D01*
G01X1172Y22417D02*
G01X694Y22305D01*
G01X1172Y22190D02*
G01X694Y22305D01*
G01X1172Y22190D02*
G01X694Y22077D01*
G01X1172Y21963D02*
G01X694Y22077D01*
G01X1172Y21813D02*
G01X694Y21813D01*
G01X1172Y21813D02*
G01X1172Y21517D01*
G01X944Y21813D02*
G01X944Y21632D01*
G01X694Y21813D02*
G01X694Y21517D01*
G01X1172Y21367D02*
G01X694Y21367D01*
G01X1172Y21367D02*
G01X1172Y21163D01*
G01X1149Y21094D01*
G01X1126Y21073D01*
G01X1081Y21050D01*
G01X1035Y21050D01*
G01X990Y21073D01*
G01X967Y21094D01*
G01X944Y21163D01*
G01X944Y21367D01*
G01X944Y21209D02*
G01X694Y21050D01*
G01X8422Y12453D02*
G01X8422Y12700D01*
G01X8545Y12576D02*
G01X8300Y12576D01*
G01X12645Y12600D02*
G01X12400Y12600D01*
G54D14*
G01X2699Y12828D02*
G01X2986Y12828D01*
G01X2699Y12828D02*
G01X2699Y12951D01*
G01X2713Y12992D01*
G01X2727Y13005D01*
G01X2754Y13019D01*
G01X2781Y13019D01*
G01X2808Y13005D01*
G01X2822Y12992D01*
G01X2836Y12951D01*
G01X2836Y12828D01*
G01X2836Y12923D02*
G01X2986Y13019D01*
G01X2699Y13136D02*
G01X2699Y13286D01*
G01X2808Y13204D01*
G01X2808Y13245D01*
G01X2822Y13273D01*
G01X2836Y13286D01*
G01X2877Y13300D01*
G01X2904Y13300D01*
G01X2945Y13286D01*
G01X2972Y13259D01*
G01X2986Y13218D01*
G01X2986Y13177D01*
G01X2972Y13136D01*
G01X2958Y13123D01*
G01X2931Y13109D01*
G54D11*
G01X25500Y12432D02*
G01X25500Y12678D01*
G01X25622Y12555D02*
G01X25377Y12555D01*
G01X29600Y12555D02*
G01X29355Y12555D01*
G54D14*
G01X27689Y20211D02*
G01X27669Y20253D01*
G01X27628Y20294D01*
G01X27587Y20315D01*
G01X27526Y20334D01*
G01X27424Y20334D01*
G01X27362Y20315D01*
G01X27321Y20294D01*
G01X27280Y20253D01*
G01X27260Y20211D01*
G01X27260Y20130D01*
G01X27280Y20090D01*
G01X27321Y20048D01*
G01X27362Y20028D01*
G01X27424Y20007D01*
G01X27526Y20007D01*
G01X27587Y20028D01*
G01X27628Y20048D01*
G01X27669Y20090D01*
G01X27689Y20130D01*
G01X27689Y20211D01*
G01X27342Y20151D02*
G01X27219Y20028D01*
G01X27608Y19873D02*
G01X27628Y19832D01*
G01X27689Y19769D01*
G01X27260Y19769D01*
G01X21223Y16200D02*
G01X21182Y16180D01*
G01X21141Y16138D01*
G01X21120Y16098D01*
G01X21100Y16036D01*
G01X21100Y15934D01*
G01X21120Y15873D01*
G01X21141Y15832D01*
G01X21182Y15790D01*
G01X21223Y15771D01*
G01X21305Y15771D01*
G01X21345Y15790D01*
G01X21386Y15832D01*
G01X21407Y15873D01*
G01X21427Y15934D01*
G01X21427Y16036D01*
G01X21407Y16098D01*
G01X21386Y16138D01*
G01X21345Y16180D01*
G01X21305Y16200D01*
G01X21223Y16200D01*
G01X21284Y15853D02*
G01X21407Y15730D01*
G01X21583Y16098D02*
G01X21583Y16119D01*
G01X21603Y16159D01*
G01X21624Y16180D01*
G01X21665Y16200D01*
G01X21746Y16200D01*
G01X21787Y16180D01*
G01X21808Y16159D01*
G01X21828Y16119D01*
G01X21828Y16078D01*
G01X21808Y16036D01*
G01X21767Y15975D01*
G01X21562Y15771D01*
G01X21849Y15771D01*
G01X27689Y16328D02*
G01X27669Y16369D01*
G01X27628Y16410D01*
G01X27587Y16431D01*
G01X27526Y16451D01*
G01X27424Y16451D01*
G01X27362Y16431D01*
G01X27321Y16410D01*
G01X27280Y16369D01*
G01X27260Y16328D01*
G01X27260Y16246D01*
G01X27280Y16206D01*
G01X27321Y16165D01*
G01X27362Y16144D01*
G01X27424Y16124D01*
G01X27526Y16124D01*
G01X27587Y16144D01*
G01X27628Y16165D01*
G01X27669Y16206D01*
G01X27689Y16246D01*
G01X27689Y16328D01*
G01X27342Y16267D02*
G01X27219Y16144D01*
G01X27689Y15948D02*
G01X27689Y15723D01*
G01X27526Y15846D01*
G01X27526Y15784D01*
G01X27505Y15743D01*
G01X27485Y15723D01*
G01X27424Y15702D01*
G01X27383Y15702D01*
G01X27321Y15723D01*
G01X27280Y15764D01*
G01X27260Y15825D01*
G01X27260Y15886D01*
G01X27280Y15948D01*
G01X27301Y15968D01*
G01X27342Y15989D01*
G54D11*
G01X17768Y18453D02*
G01X17522Y18453D01*
G01X17644Y18577D02*
G01X17644Y18332D01*
G01X17644Y22600D02*
G01X17644Y22355D01*
G54D14*
G01X7399Y15700D02*
G01X7399Y15318D01*
G01X7399Y15700D02*
G01X7635Y15700D01*
G01X7399Y15518D02*
G01X7544Y15518D01*
G01X7399Y15318D02*
G01X7635Y15318D01*
G01X8010Y15646D02*
G01X7974Y15682D01*
G01X7919Y15700D01*
G01X7846Y15700D01*
G01X7792Y15682D01*
G01X7755Y15646D01*
G01X7755Y15609D01*
G01X7774Y15573D01*
G01X7792Y15555D01*
G01X7828Y15537D01*
G01X7937Y15500D01*
G01X7974Y15482D01*
G01X7992Y15464D01*
G01X8010Y15427D01*
G01X8010Y15373D01*
G01X7974Y15337D01*
G01X7919Y15318D01*
G01X7846Y15318D01*
G01X7792Y15337D01*
G01X7755Y15373D01*
G01X8130Y15700D02*
G01X8130Y15318D01*
G01X8130Y15700D02*
G01X8294Y15700D01*
G01X8348Y15682D01*
G01X8366Y15664D01*
G01X8384Y15627D01*
G01X8384Y15573D01*
G01X8366Y15537D01*
G01X8348Y15518D01*
G01X8294Y15500D01*
G01X8130Y15500D01*
G01X8595Y15700D02*
G01X8541Y15682D01*
G01X8523Y15646D01*
G01X8523Y15609D01*
G01X8541Y15573D01*
G01X8577Y15555D01*
G01X8650Y15537D01*
G01X8704Y15518D01*
G01X8741Y15482D01*
G01X8759Y15446D01*
G01X8759Y15391D01*
G01X8741Y15355D01*
G01X8723Y15337D01*
G01X8668Y15318D01*
G01X8595Y15318D01*
G01X8541Y15337D01*
G01X8523Y15355D01*
G01X8504Y15391D01*
G01X8504Y15446D01*
G01X8523Y15482D01*
G01X8559Y15518D01*
G01X8614Y15537D01*
G01X8686Y15555D01*
G01X8723Y15573D01*
G01X8741Y15609D01*
G01X8741Y15646D01*
G01X8723Y15682D01*
G01X8668Y15700D01*
G01X8595Y15700D01*
G01X8897Y15609D02*
G01X8897Y15627D01*
G01X8915Y15664D01*
G01X8934Y15682D01*
G01X8970Y15700D01*
G01X9043Y15700D01*
G01X9079Y15682D01*
G01X9097Y15664D01*
G01X9115Y15627D01*
G01X9115Y15591D01*
G01X9097Y15555D01*
G01X9061Y15500D01*
G01X8879Y15318D01*
G01X9134Y15318D01*
G01X9472Y15646D02*
G01X9454Y15682D01*
G01X9399Y15700D01*
G01X9363Y15700D01*
G01X9308Y15682D01*
G01X9272Y15627D01*
G01X9254Y15537D01*
G01X9254Y15446D01*
G01X9272Y15373D01*
G01X9308Y15337D01*
G01X9363Y15318D01*
G01X9381Y15318D01*
G01X9435Y15337D01*
G01X9472Y15373D01*
G01X9490Y15427D01*
G01X9490Y15446D01*
G01X9472Y15500D01*
G01X9435Y15537D01*
G01X9381Y15555D01*
G01X9363Y15555D01*
G01X9308Y15537D01*
G01X9272Y15500D01*
G01X9254Y15446D01*
G01X9828Y15646D02*
G01X9810Y15682D01*
G01X9755Y15700D01*
G01X9719Y15700D01*
G01X9664Y15682D01*
G01X9628Y15627D01*
G01X9610Y15537D01*
G01X9610Y15446D01*
G01X9628Y15373D01*
G01X9664Y15337D01*
G01X9719Y15318D01*
G01X9737Y15318D01*
G01X9792Y15337D01*
G01X9828Y15373D01*
G01X9846Y15427D01*
G01X9846Y15446D01*
G01X9828Y15500D01*
G01X9792Y15537D01*
G01X9737Y15555D01*
G01X9719Y15555D01*
G01X9664Y15537D01*
G01X9628Y15500D01*
G01X9610Y15446D01*
G01X9966Y15482D02*
G01X10294Y15482D01*
G01X10523Y15700D02*
G01X10468Y15682D01*
G01X10432Y15627D01*
G01X10414Y15537D01*
G01X10414Y15482D01*
G01X10432Y15391D01*
G01X10468Y15337D01*
G01X10523Y15318D01*
G01X10559Y15318D01*
G01X10614Y15337D01*
G01X10650Y15391D01*
G01X10668Y15482D01*
G01X10668Y15537D01*
G01X10650Y15627D01*
G01X10614Y15682D01*
G01X10559Y15700D01*
G01X10523Y15700D01*
G01X10788Y15627D02*
G01X10824Y15646D01*
G01X10879Y15700D01*
G01X10879Y15318D01*
G54D15*
G01X11109Y20477D02*
G01X10918Y20550D01*
G01X11109Y20477D02*
G01X10918Y20405D01*
G01X10981Y20523D02*
G01X10981Y20432D01*
G01X11072Y20344D02*
G01X11081Y20326D01*
G01X11109Y20298D01*
G01X10918Y20298D01*
G01X11109Y20111D02*
G01X10918Y20203D01*
G01X11109Y20238D02*
G01X11109Y20111D01*
G01X10955Y20034D02*
G01X10944Y20042D01*
G01X10955Y20052D01*
G01X10964Y20042D01*
G01X10955Y20034D01*
G01X10935Y20034D01*
G01X10918Y20052D01*
G01X11109Y19865D02*
G01X11109Y19955D01*
G01X11027Y19965D01*
G01X11035Y19955D01*
G01X11044Y19928D01*
G01X11044Y19901D01*
G01X11035Y19873D01*
G01X11018Y19855D01*
G01X10990Y19846D01*
G01X10972Y19846D01*
G01X10944Y19855D01*
G01X10927Y19873D01*
G01X10918Y19901D01*
G01X10918Y19928D01*
G01X10927Y19955D01*
G01X10935Y19965D01*
G01X10955Y19973D01*
G01X11044Y19786D02*
G01X10918Y19786D01*
G01X11009Y19786D02*
G01X11035Y19759D01*
G01X11044Y19740D01*
G01X11044Y19713D01*
G01X11035Y19694D01*
G01X11009Y19686D01*
G01X10918Y19686D01*
G01X11009Y19686D02*
G01X11035Y19659D01*
G01X11044Y19640D01*
G01X11044Y19613D01*
G01X11035Y19594D01*
G01X11009Y19586D01*
G01X10918Y19586D01*
G01X11044Y19526D02*
G01X10918Y19526D01*
G01X11009Y19526D02*
G01X11035Y19498D01*
G01X11044Y19480D01*
G01X11044Y19453D01*
G01X11035Y19434D01*
G01X11009Y19426D01*
G01X10918Y19426D01*
G01X11009Y19426D02*
G01X11035Y19398D01*
G01X11044Y19380D01*
G01X11044Y19353D01*
G01X11035Y19334D01*
G01X11009Y19326D01*
G01X10918Y19326D01*
G54D14*
G01X605Y14630D02*
G01X591Y14659D01*
G01X564Y14686D01*
G01X536Y14700D01*
G01X482Y14700D01*
G01X455Y14686D01*
G01X427Y14659D01*
G01X414Y14630D01*
G01X400Y14590D01*
G01X400Y14521D01*
G01X414Y14480D01*
G01X427Y14453D01*
G01X455Y14426D01*
G01X482Y14413D01*
G01X536Y14413D01*
G01X564Y14426D01*
G01X591Y14453D01*
G01X605Y14480D01*
G01X695Y14644D02*
G01X722Y14659D01*
G01X763Y14700D01*
G01X763Y14413D01*
G01X604Y15630D02*
G01X590Y15659D01*
G01X563Y15686D01*
G01X535Y15700D01*
G01X481Y15700D01*
G01X454Y15686D01*
G01X426Y15659D01*
G01X413Y15630D01*
G01X399Y15590D01*
G01X399Y15521D01*
G01X413Y15480D01*
G01X426Y15453D01*
G01X454Y15426D01*
G01X481Y15413D01*
G01X535Y15413D01*
G01X563Y15426D01*
G01X590Y15453D01*
G01X604Y15480D01*
G01X707Y15630D02*
G01X707Y15644D01*
G01X721Y15671D01*
G01X734Y15686D01*
G01X762Y15700D01*
G01X816Y15700D01*
G01X844Y15686D01*
G01X857Y15671D01*
G01X871Y15644D01*
G01X871Y15617D01*
G01X857Y15590D01*
G01X830Y15550D01*
G01X694Y15413D01*
G01X884Y15413D01*
G01X3200Y12851D02*
G01X3487Y12851D01*
G01X3200Y12851D02*
G01X3200Y12974D01*
G01X3214Y13015D01*
G01X3228Y13028D01*
G01X3255Y13042D01*
G01X3282Y13042D01*
G01X3309Y13028D01*
G01X3323Y13015D01*
G01X3337Y12974D01*
G01X3337Y12851D01*
G01X3337Y12946D02*
G01X3487Y13042D01*
G01X3255Y13132D02*
G01X3241Y13159D01*
G01X3200Y13200D01*
G01X3487Y13200D01*
G01X2200Y12828D02*
G01X2487Y12828D01*
G01X2200Y12828D02*
G01X2200Y12951D01*
G01X2214Y12992D01*
G01X2228Y13005D01*
G01X2255Y13019D01*
G01X2282Y13019D01*
G01X2309Y13005D01*
G01X2323Y12992D01*
G01X2337Y12951D01*
G01X2337Y12828D01*
G01X2337Y12923D02*
G01X2487Y13019D01*
G01X2269Y13123D02*
G01X2255Y13123D01*
G01X2228Y13136D01*
G01X2214Y13150D01*
G01X2200Y13176D01*
G01X2200Y13232D01*
G01X2214Y13259D01*
G01X2228Y13273D01*
G01X2255Y13286D01*
G01X2282Y13286D01*
G01X2309Y13273D01*
G01X2350Y13244D01*
G01X2487Y13109D01*
G01X2487Y13300D01*
G54D10*
G75*
G01X-28Y21807D02*
G03X-28Y22792I-12J493D01*
G01*
G75*
G01X13010Y18800D02*
G03X13010Y18800I-710J0D01*
G01*

M00*
M02*