G04 ---------------------------- Layer name :BOTTOM LAYER*
G04 easyEDA 0.1*
G04 Scale: 100 percent, Rotated: No, Reflected: No *
G04 Dimensions in inches *
G04 leading zeros omitted , absolute positions ,2 integer and 4 * 
%FSLAX24Y24*%
%MOIN*%
G90*
G70D02*

%ADD11C,0.050000*%
%ADD12C,0.025000*%
%ADD13C,0.024400*%
%ADD14C,0.059055*%
%ADD16C,0.062000*%
%ADD18R,0.062000X0.062000*%
%ADD19C,0.060000*%
%ADD21R,0.075000X0.075000*%
%ADD22C,0.075000*%
%ADD24C,0.074000*%
%ADD26R,0.060000X0.060000*%
%ADD27R,0.107500X0.059700*%
%ADD28C,0.047000*%
%ADD30C,0.051181*%
%ADD31C,0.051181*%

%LPD*%
G36*
G01X0Y12000D02*
G01X0Y24000D01*
G01X16897Y24000D01*
G01X16897Y23700D01*
G01X16869Y23696D01*
G01X16842Y23680D01*
G01X16819Y23657D01*
G01X16803Y23630D01*
G01X16800Y23600D01*
G01X16800Y12500D01*
G01X16803Y12469D01*
G01X16819Y12442D01*
G01X16842Y12419D01*
G01X16869Y12403D01*
G01X16897Y12400D01*
G01X16897Y12000D01*
G01X0Y12000D01*
G37*

%LPC*%
G36*
G01X9319Y22642D02*
G01X9452Y22642D01*
G01X9460Y22644D01*
G01X9469Y22646D01*
G01X9477Y22648D01*
G01X9593Y22705D01*
G01X9602Y22711D01*
G01X9607Y22715D01*
G01X9619Y22728D01*
G01X9692Y22815D01*
G01X9697Y22823D01*
G01X9706Y22840D01*
G01X9710Y22850D01*
G01X9711Y22857D01*
G01X9735Y22967D01*
G01X9735Y22971D01*
G01X9738Y22978D01*
G01X9738Y23355D01*
G01X9735Y23361D01*
G01X9735Y23365D01*
G01X9711Y23476D01*
G01X9710Y23484D01*
G01X9706Y23494D01*
G01X9697Y23509D01*
G01X9692Y23517D01*
G01X9619Y23605D01*
G01X9607Y23617D01*
G01X9602Y23621D01*
G01X9593Y23628D01*
G01X9477Y23686D01*
G01X9469Y23688D01*
G01X9460Y23690D01*
G01X9452Y23692D01*
G01X9319Y23692D01*
G01X9311Y23690D01*
G01X9302Y23688D01*
G01X9293Y23686D01*
G01X9285Y23682D01*
G01X9184Y23632D01*
G01X9176Y23628D01*
G01X9168Y23621D01*
G01X9161Y23617D01*
G01X9156Y23609D01*
G01X9150Y23603D01*
G01X9080Y23515D01*
G01X9073Y23509D01*
G01X9065Y23494D01*
G01X9064Y23486D01*
G01X9060Y23478D01*
G01X9034Y23367D01*
G01X9034Y23361D01*
G01X9031Y23357D01*
G01X9031Y22976D01*
G01X9034Y22971D01*
G01X9034Y22965D01*
G01X9060Y22855D01*
G01X9064Y22848D01*
G01X9065Y22840D01*
G01X9073Y22823D01*
G01X9080Y22817D01*
G01X9150Y22730D01*
G01X9156Y22723D01*
G01X9161Y22715D01*
G01X9168Y22711D01*
G01X9176Y22705D01*
G01X9184Y22702D01*
G01X9285Y22652D01*
G01X9293Y22648D01*
G01X9302Y22646D01*
G01X9311Y22644D01*
G01X9319Y22642D01*
G37*
G36*
G01X4268Y12532D02*
G01X4396Y12540D01*
G01X4515Y12582D01*
G01X4619Y12655D01*
G01X4702Y12755D01*
G01X4752Y12873D01*
G01X4769Y13000D01*
G01X4752Y13126D01*
G01X4702Y13244D01*
G01X4650Y13307D01*
G01X4650Y13800D01*
G01X4646Y13855D01*
G01X4631Y13907D01*
G01X4611Y13959D01*
G01X4581Y14007D01*
G01X4546Y14048D01*
G01X2850Y15723D01*
G01X2850Y17936D01*
G01X3188Y18276D01*
G01X3193Y18280D01*
G01X3907Y18994D01*
G01X4010Y18994D01*
G01X4452Y18552D01*
G01X4493Y18515D01*
G01X4542Y18488D01*
G01X4592Y18467D01*
G01X4646Y18453D01*
G01X4700Y18450D01*
G01X4777Y18450D01*
G01X4781Y18444D01*
G01X4803Y18421D01*
G01X4831Y18405D01*
G01X4861Y18402D01*
G01X5935Y18402D01*
G01X5965Y18405D01*
G01X5993Y18421D01*
G01X6015Y18444D01*
G01X6019Y18450D01*
G01X9042Y18450D01*
G01X9096Y18453D01*
G01X9150Y18467D01*
G01X9200Y18488D01*
G01X9247Y18515D01*
G01X9289Y18552D01*
G01X10723Y19986D01*
G01X14876Y19986D01*
G01X15150Y19713D01*
G01X15150Y19690D01*
G01X15139Y19673D01*
G01X15103Y19559D01*
G01X15103Y19440D01*
G01X15139Y19326D01*
G01X15150Y19311D01*
G01X15150Y18688D01*
G01X15139Y18673D01*
G01X15103Y18559D01*
G01X15103Y18440D01*
G01X15139Y18326D01*
G01X15150Y18311D01*
G01X15150Y17688D01*
G01X15139Y17673D01*
G01X15103Y17559D01*
G01X15103Y17440D01*
G01X15139Y17326D01*
G01X15206Y17228D01*
G01X15300Y17153D01*
G01X15410Y17109D01*
G01X15530Y17102D01*
G01X15646Y17128D01*
G01X15750Y17188D01*
G01X15830Y17273D01*
G01X15881Y17382D01*
G01X15900Y17500D01*
G01X15881Y17617D01*
G01X15850Y17684D01*
G01X15850Y18315D01*
G01X15881Y18382D01*
G01X15900Y18500D01*
G01X15881Y18617D01*
G01X15850Y18684D01*
G01X15850Y19315D01*
G01X15881Y19382D01*
G01X15900Y19500D01*
G01X15881Y19617D01*
G01X15850Y19684D01*
G01X15850Y19857D01*
G01X15846Y19911D01*
G01X15831Y19965D01*
G01X15811Y20017D01*
G01X15781Y20063D01*
G01X15746Y20105D01*
G01X15265Y20584D01*
G01X15226Y20619D01*
G01X15177Y20648D01*
G01X15127Y20667D01*
G01X15073Y20682D01*
G01X15019Y20686D01*
G01X10577Y20686D01*
G01X10523Y20682D01*
G01X10469Y20667D01*
G01X10419Y20648D01*
G01X10372Y20619D01*
G01X10330Y20584D01*
G01X8896Y19150D01*
G01X6019Y19150D01*
G01X6015Y19157D01*
G01X5993Y19180D01*
G01X5965Y19196D01*
G01X5935Y19200D01*
G01X4861Y19200D01*
G01X4831Y19196D01*
G01X4811Y19184D01*
G01X4419Y19576D01*
G01X4406Y19678D01*
G01X4353Y19796D01*
G01X4273Y19896D01*
G01X4168Y19969D01*
G01X4046Y20013D01*
G01X3918Y20021D01*
G01X3792Y19996D01*
G01X3676Y19938D01*
G01X3581Y19850D01*
G01X3515Y19738D01*
G01X3480Y19613D01*
G01X3480Y19557D01*
G01X2946Y19023D01*
G01X2172Y19798D01*
G01X2153Y19809D01*
G01X2147Y19817D01*
G01X2119Y19834D01*
G01X2072Y19867D01*
G01X2052Y19871D01*
G01X2043Y19878D01*
G01X2003Y19886D01*
G01X1953Y19898D01*
G01X1939Y19896D01*
G01X1923Y19900D01*
G01X1523Y19900D01*
G01X1523Y19926D01*
G01X1519Y19955D01*
G01X1503Y19984D01*
G01X1481Y20005D01*
G01X1453Y20021D01*
G01X1423Y20026D01*
G01X673Y20026D01*
G01X643Y20021D01*
G01X615Y20005D01*
G01X593Y19984D01*
G01X577Y19955D01*
G01X573Y19926D01*
G01X573Y19176D01*
G01X577Y19146D01*
G01X593Y19117D01*
G01X615Y19096D01*
G01X643Y19080D01*
G01X673Y19076D01*
G01X1423Y19076D01*
G01X1453Y19080D01*
G01X1481Y19096D01*
G01X1503Y19117D01*
G01X1519Y19146D01*
G01X1523Y19176D01*
G01X1523Y19200D01*
G01X1777Y19200D01*
G01X2452Y18526D01*
G01X2252Y18326D01*
G01X2242Y18313D01*
G01X2231Y18303D01*
G01X2215Y18276D01*
G01X2181Y18228D01*
G01X2177Y18209D01*
G01X2172Y18200D01*
G01X2164Y18159D01*
G01X2152Y18109D01*
G01X2153Y18096D01*
G01X2150Y18080D01*
G01X2150Y15530D01*
G01X2156Y15500D01*
G01X2156Y15469D01*
G01X2165Y15440D01*
G01X2172Y15409D01*
G01X2184Y15388D01*
G01X2196Y15355D01*
G01X2214Y15336D01*
G01X2231Y15305D01*
G01X2256Y15286D01*
G01X2276Y15261D01*
G01X2300Y15248D01*
G01X2326Y15226D01*
G01X2357Y15213D01*
G01X2380Y15201D01*
G01X2388Y15200D01*
G01X3950Y13653D01*
G01X3950Y13309D01*
G01X3935Y13296D01*
G01X3868Y13188D01*
G01X3834Y13063D01*
G01X3834Y12936D01*
G01X3868Y12811D01*
G01X3935Y12703D01*
G01X4027Y12615D01*
G01X4142Y12557D01*
G01X4268Y12532D01*
G37*
G36*
G01X5268Y12532D02*
G01X5396Y12540D01*
G01X5515Y12582D01*
G01X5619Y12655D01*
G01X5702Y12755D01*
G01X5752Y12873D01*
G01X5769Y13000D01*
G01X5752Y13126D01*
G01X5702Y13244D01*
G01X5619Y13344D01*
G01X5515Y13417D01*
G01X5396Y13459D01*
G01X5268Y13467D01*
G01X5142Y13442D01*
G01X5027Y13384D01*
G01X4935Y13296D01*
G01X4868Y13188D01*
G01X4834Y13063D01*
G01X4834Y12936D01*
G01X4868Y12811D01*
G01X4935Y12703D01*
G01X5027Y12615D01*
G01X5142Y12557D01*
G01X5268Y12532D01*
G37*
G36*
G01X12169Y22642D02*
G01X12302Y22642D01*
G01X12310Y22644D01*
G01X12319Y22646D01*
G01X12327Y22648D01*
G01X12443Y22705D01*
G01X12452Y22711D01*
G01X12457Y22715D01*
G01X12469Y22728D01*
G01X12542Y22815D01*
G01X12547Y22823D01*
G01X12556Y22840D01*
G01X12560Y22850D01*
G01X12561Y22857D01*
G01X12585Y22967D01*
G01X12585Y22971D01*
G01X12588Y22978D01*
G01X12588Y23355D01*
G01X12585Y23361D01*
G01X12585Y23365D01*
G01X12561Y23476D01*
G01X12560Y23484D01*
G01X12556Y23494D01*
G01X12547Y23509D01*
G01X12542Y23517D01*
G01X12469Y23605D01*
G01X12457Y23617D01*
G01X12452Y23621D01*
G01X12443Y23628D01*
G01X12327Y23686D01*
G01X12319Y23688D01*
G01X12310Y23690D01*
G01X12302Y23692D01*
G01X12169Y23692D01*
G01X12161Y23690D01*
G01X12152Y23688D01*
G01X12143Y23686D01*
G01X12135Y23682D01*
G01X12034Y23632D01*
G01X12026Y23628D01*
G01X12018Y23621D01*
G01X12011Y23617D01*
G01X12006Y23609D01*
G01X12000Y23603D01*
G01X11930Y23515D01*
G01X11923Y23509D01*
G01X11915Y23494D01*
G01X11914Y23486D01*
G01X11910Y23478D01*
G01X11884Y23367D01*
G01X11884Y23361D01*
G01X11881Y23357D01*
G01X11881Y22976D01*
G01X11884Y22971D01*
G01X11884Y22965D01*
G01X11910Y22855D01*
G01X11914Y22848D01*
G01X11915Y22840D01*
G01X11923Y22823D01*
G01X11930Y22817D01*
G01X12000Y22730D01*
G01X12006Y22723D01*
G01X12011Y22715D01*
G01X12018Y22711D01*
G01X12026Y22705D01*
G01X12034Y22702D01*
G01X12135Y22652D01*
G01X12143Y22648D01*
G01X12152Y22646D01*
G01X12161Y22644D01*
G01X12169Y22642D01*
G37*
G36*
G01X11530Y13101D02*
G01X11646Y13128D01*
G01X11750Y13188D01*
G01X11830Y13273D01*
G01X11881Y13382D01*
G01X11900Y13500D01*
G01X11881Y13617D01*
G01X11850Y13684D01*
G01X11850Y14748D01*
G01X14252Y17150D01*
G01X14310Y17150D01*
G01X14410Y17109D01*
G01X14530Y17102D01*
G01X14646Y17128D01*
G01X14750Y17188D01*
G01X14830Y17273D01*
G01X14881Y17382D01*
G01X14900Y17500D01*
G01X14881Y17617D01*
G01X14830Y17726D01*
G01X14750Y17811D01*
G01X14646Y17871D01*
G01X14530Y17898D01*
G01X14410Y17890D01*
G01X14310Y17850D01*
G01X14106Y17850D01*
G01X14052Y17846D01*
G01X13997Y17832D01*
G01X13947Y17811D01*
G01X13900Y17784D01*
G01X13857Y17748D01*
G01X11252Y15142D01*
G01X11215Y15100D01*
G01X11188Y15051D01*
G01X11168Y15001D01*
G01X11153Y14948D01*
G01X11150Y14894D01*
G01X11150Y13688D01*
G01X11139Y13673D01*
G01X11103Y13559D01*
G01X11103Y13440D01*
G01X11139Y13326D01*
G01X11206Y13228D01*
G01X11300Y13153D01*
G01X11410Y13109D01*
G01X11530Y13101D01*
G37*
G36*
G01X9530Y13101D02*
G01X9646Y13128D01*
G01X9750Y13188D01*
G01X9830Y13273D01*
G01X9881Y13382D01*
G01X9900Y13500D01*
G01X9881Y13617D01*
G01X9850Y13684D01*
G01X9850Y14990D01*
G01X10553Y14990D01*
G01X10607Y14994D01*
G01X10661Y15007D01*
G01X10711Y15028D01*
G01X10760Y15055D01*
G01X10802Y15092D01*
G01X13861Y18150D01*
G01X14310Y18150D01*
G01X14410Y18109D01*
G01X14530Y18102D01*
G01X14646Y18128D01*
G01X14750Y18188D01*
G01X14830Y18273D01*
G01X14881Y18382D01*
G01X14900Y18500D01*
G01X14881Y18617D01*
G01X14830Y18726D01*
G01X14750Y18811D01*
G01X14646Y18871D01*
G01X14530Y18898D01*
G01X14410Y18890D01*
G01X14310Y18850D01*
G01X13715Y18850D01*
G01X13661Y18846D01*
G01X13607Y18832D01*
G01X13557Y18811D01*
G01X13510Y18784D01*
G01X13468Y18748D01*
G01X10407Y15690D01*
G01X9646Y15690D01*
G01X8150Y17184D01*
G01X8107Y17219D01*
G01X8060Y17248D01*
G01X8010Y17267D01*
G01X7956Y17282D01*
G01X7902Y17286D01*
G01X5989Y17286D01*
G01X5935Y17282D01*
G01X5881Y17267D01*
G01X5831Y17248D01*
G01X5784Y17219D01*
G01X5742Y17184D01*
G01X5052Y16494D01*
G01X5015Y16452D01*
G01X4988Y16403D01*
G01X4968Y16353D01*
G01X4957Y16317D01*
G01X4935Y16296D01*
G01X4868Y16188D01*
G01X4834Y16063D01*
G01X4834Y15936D01*
G01X4868Y15811D01*
G01X4935Y15703D01*
G01X5027Y15615D01*
G01X5142Y15557D01*
G01X5268Y15532D01*
G01X5396Y15540D01*
G01X5515Y15582D01*
G01X5619Y15655D01*
G01X5702Y15755D01*
G01X5752Y15873D01*
G01X5769Y16000D01*
G01X5752Y16126D01*
G01X5730Y16180D01*
G01X6135Y16586D01*
G01X7756Y16586D01*
G01X9150Y15194D01*
G01X9150Y13688D01*
G01X9139Y13673D01*
G01X9103Y13559D01*
G01X9103Y13440D01*
G01X9139Y13326D01*
G01X9206Y13228D01*
G01X9300Y13153D01*
G01X9410Y13109D01*
G01X9530Y13101D01*
G37*
G36*
G01X8530Y13101D02*
G01X8646Y13128D01*
G01X8750Y13188D01*
G01X8830Y13273D01*
G01X8881Y13382D01*
G01X8900Y13500D01*
G01X8881Y13617D01*
G01X8830Y13726D01*
G01X8750Y13811D01*
G01X8646Y13871D01*
G01X8530Y13898D01*
G01X8410Y13890D01*
G01X8300Y13846D01*
G01X8206Y13771D01*
G01X8139Y13673D01*
G01X8103Y13559D01*
G01X8103Y13440D01*
G01X8139Y13326D01*
G01X8206Y13228D01*
G01X8300Y13153D01*
G01X8410Y13109D01*
G01X8530Y13101D01*
G37*
G36*
G01X2481Y14198D02*
G01X2592Y14205D01*
G01X2692Y14250D01*
G01X2773Y14323D01*
G01X2826Y14421D01*
G01X2843Y14530D01*
G01X2826Y14638D01*
G01X2773Y14736D01*
G01X2692Y14809D01*
G01X2592Y14853D01*
G01X2481Y14861D01*
G01X2376Y14836D01*
G01X2284Y14776D01*
G01X2215Y14688D01*
G01X2180Y14584D01*
G01X2180Y14476D01*
G01X2215Y14371D01*
G01X2284Y14284D01*
G01X2376Y14223D01*
G01X2481Y14198D01*
G37*
G36*
G01X4268Y15532D02*
G01X4396Y15540D01*
G01X4515Y15582D01*
G01X4619Y15655D01*
G01X4702Y15755D01*
G01X4752Y15873D01*
G01X4769Y16000D01*
G01X4752Y16126D01*
G01X4702Y16244D01*
G01X4619Y16344D01*
G01X4515Y16417D01*
G01X4396Y16459D01*
G01X4268Y16467D01*
G01X4142Y16442D01*
G01X4027Y16384D01*
G01X3935Y16296D01*
G01X3868Y16188D01*
G01X3834Y16063D01*
G01X3834Y15936D01*
G01X3868Y15811D01*
G01X3935Y15703D01*
G01X4027Y15615D01*
G01X4142Y15557D01*
G01X4268Y15532D01*
G37*
G36*
G01X14530Y22094D02*
G01X14650Y22119D01*
G01X14753Y22182D01*
G01X14838Y22269D01*
G01X14889Y22380D01*
G01X14907Y22500D01*
G01X14889Y22619D01*
G01X14838Y22730D01*
G01X14753Y22817D01*
G01X14650Y22880D01*
G01X14530Y22905D01*
G01X14410Y22898D01*
G01X14296Y22853D01*
G01X14200Y22778D01*
G01X14131Y22678D01*
G01X14096Y22559D01*
G01X14096Y22440D01*
G01X14131Y22321D01*
G01X14200Y22221D01*
G01X14296Y22146D01*
G01X14410Y22102D01*
G01X14530Y22094D01*
G37*
G36*
G01X6268Y15532D02*
G01X6396Y15540D01*
G01X6515Y15582D01*
G01X6619Y15655D01*
G01X6702Y15755D01*
G01X6752Y15873D01*
G01X6769Y16000D01*
G01X6752Y16126D01*
G01X6702Y16244D01*
G01X6619Y16344D01*
G01X6515Y16417D01*
G01X6396Y16459D01*
G01X6268Y16467D01*
G01X6142Y16442D01*
G01X6027Y16384D01*
G01X5935Y16296D01*
G01X5868Y16188D01*
G01X5834Y16063D01*
G01X5834Y15936D01*
G01X5868Y15811D01*
G01X5935Y15703D01*
G01X6027Y15615D01*
G01X6142Y15557D01*
G01X6268Y15532D01*
G37*
G36*
G01X8030Y22094D02*
G01X8150Y22119D01*
G01X8253Y22182D01*
G01X8338Y22269D01*
G01X8389Y22380D01*
G01X8407Y22500D01*
G01X8389Y22619D01*
G01X8338Y22730D01*
G01X8253Y22817D01*
G01X8150Y22880D01*
G01X8030Y22905D01*
G01X7910Y22898D01*
G01X7796Y22853D01*
G01X7700Y22778D01*
G01X7631Y22678D01*
G01X7596Y22559D01*
G01X7596Y22440D01*
G01X7631Y22321D01*
G01X7700Y22221D01*
G01X7796Y22146D01*
G01X7910Y22102D01*
G01X8030Y22094D01*
G37*
G36*
G01X10331Y15801D02*
G01X10450Y15832D01*
G01X10550Y15901D01*
G01X13800Y19150D01*
G01X14115Y19150D01*
G01X14119Y19142D01*
G01X14142Y19119D01*
G01X14169Y19103D01*
G01X14200Y19100D01*
G01X14800Y19100D01*
G01X14830Y19103D01*
G01X14857Y19119D01*
G01X14880Y19142D01*
G01X14896Y19169D01*
G01X14900Y19200D01*
G01X14900Y19800D01*
G01X14896Y19830D01*
G01X14880Y19857D01*
G01X14857Y19880D01*
G01X14830Y19896D01*
G01X14800Y19900D01*
G01X14200Y19900D01*
G01X14169Y19896D01*
G01X14142Y19880D01*
G01X14119Y19857D01*
G01X14115Y19850D01*
G01X13653Y19850D01*
G01X13600Y19846D01*
G01X13546Y19832D01*
G01X13496Y19811D01*
G01X13447Y19784D01*
G01X13406Y19748D01*
G01X10053Y16398D01*
G01X9984Y16298D01*
G01X9953Y16180D01*
G01X9964Y16059D01*
G01X10015Y15950D01*
G01X10102Y15863D01*
G01X10211Y15811D01*
G01X10331Y15801D01*
G37*
G36*
G01X13188Y22090D02*
G01X13810Y22090D01*
G01X13839Y22094D01*
G01X13868Y22109D01*
G01X13889Y22132D01*
G01X13906Y22159D01*
G01X13910Y22190D01*
G01X13910Y22809D01*
G01X13906Y22840D01*
G01X13889Y22867D01*
G01X13868Y22890D01*
G01X13839Y22905D01*
G01X13810Y22909D01*
G01X13188Y22909D01*
G01X13157Y22905D01*
G01X13130Y22890D01*
G01X13107Y22867D01*
G01X13092Y22840D01*
G01X13088Y22809D01*
G01X13088Y22190D01*
G01X13092Y22159D01*
G01X13107Y22132D01*
G01X13130Y22109D01*
G01X13157Y22094D01*
G01X13188Y22090D01*
G37*
G36*
G01X5688Y22090D02*
G01X6310Y22090D01*
G01X6339Y22094D01*
G01X6368Y22109D01*
G01X6389Y22132D01*
G01X6406Y22159D01*
G01X6410Y22190D01*
G01X6410Y22809D01*
G01X6406Y22840D01*
G01X6389Y22867D01*
G01X6368Y22890D01*
G01X6339Y22905D01*
G01X6310Y22909D01*
G01X5688Y22909D01*
G01X5657Y22905D01*
G01X5630Y22890D01*
G01X5607Y22867D01*
G01X5592Y22840D01*
G01X5588Y22809D01*
G01X5588Y22190D01*
G01X5592Y22159D01*
G01X5607Y22132D01*
G01X5630Y22109D01*
G01X5657Y22094D01*
G01X5688Y22090D01*
G37*
G36*
G01X3918Y17378D02*
G01X4046Y17386D01*
G01X4168Y17430D01*
G01X4273Y17503D01*
G01X4353Y17603D01*
G01X4406Y17721D01*
G01X4423Y17850D01*
G01X4406Y17978D01*
G01X4353Y18096D01*
G01X4273Y18196D01*
G01X4168Y18269D01*
G01X4046Y18313D01*
G01X3918Y18321D01*
G01X3792Y18296D01*
G01X3676Y18238D01*
G01X3581Y18150D01*
G01X3515Y18038D01*
G01X3480Y17913D01*
G01X3480Y17786D01*
G01X3515Y17661D01*
G01X3581Y17550D01*
G01X3676Y17461D01*
G01X3792Y17403D01*
G01X3918Y17378D01*
G37*
G36*
G01X1018Y17378D02*
G01X1146Y17386D01*
G01X1268Y17430D01*
G01X1373Y17503D01*
G01X1453Y17603D01*
G01X1506Y17721D01*
G01X1523Y17850D01*
G01X1506Y17978D01*
G01X1453Y18096D01*
G01X1373Y18196D01*
G01X1268Y18269D01*
G01X1146Y18313D01*
G01X1018Y18321D01*
G01X892Y18296D01*
G01X776Y18238D01*
G01X681Y18150D01*
G01X615Y18038D01*
G01X580Y17913D01*
G01X580Y17786D01*
G01X615Y17661D01*
G01X681Y17550D01*
G01X776Y17461D01*
G01X892Y17403D01*
G01X1018Y17378D01*
G37*
G36*
G01X4861Y17402D02*
G01X5935Y17402D01*
G01X5965Y17405D01*
G01X5993Y17421D01*
G01X6015Y17444D01*
G01X6031Y17471D01*
G01X6035Y17502D01*
G01X6035Y18100D01*
G01X6031Y18130D01*
G01X6015Y18157D01*
G01X5993Y18180D01*
G01X5965Y18196D01*
G01X5935Y18200D01*
G01X4861Y18200D01*
G01X4831Y18196D01*
G01X4803Y18180D01*
G01X4781Y18157D01*
G01X4765Y18130D01*
G01X4761Y18100D01*
G01X4761Y17502D01*
G01X4765Y17471D01*
G01X4781Y17444D01*
G01X4803Y17421D01*
G01X4831Y17405D01*
G01X4861Y17402D01*
G37*
G36*
G01X11130Y12346D02*
G01X12857Y12346D01*
G01X12911Y12350D01*
G01X12965Y12363D01*
G01X13015Y12384D01*
G01X13064Y12411D01*
G01X13106Y12448D01*
G01X15747Y15088D01*
G01X15784Y15130D01*
G01X15811Y15178D01*
G01X15831Y15228D01*
G01X15846Y15282D01*
G01X15850Y15336D01*
G01X15850Y16315D01*
G01X15881Y16382D01*
G01X15900Y16500D01*
G01X15881Y16617D01*
G01X15830Y16726D01*
G01X15750Y16811D01*
G01X15646Y16871D01*
G01X15530Y16898D01*
G01X15410Y16890D01*
G01X15300Y16846D01*
G01X15206Y16771D01*
G01X15139Y16673D01*
G01X15103Y16559D01*
G01X15103Y16440D01*
G01X15139Y16326D01*
G01X15150Y16311D01*
G01X15150Y15482D01*
G01X12711Y13046D01*
G01X11276Y13046D01*
G01X10889Y13434D01*
G01X10900Y13500D01*
G01X10881Y13617D01*
G01X10830Y13726D01*
G01X10750Y13811D01*
G01X10646Y13871D01*
G01X10530Y13898D01*
G01X10410Y13890D01*
G01X10300Y13846D01*
G01X10206Y13771D01*
G01X10139Y13673D01*
G01X10103Y13559D01*
G01X10103Y13440D01*
G01X10139Y13326D01*
G01X10152Y13309D01*
G01X10153Y13273D01*
G01X10168Y13219D01*
G01X10188Y13169D01*
G01X10215Y13121D01*
G01X10252Y13080D01*
G01X10881Y12448D01*
G01X10923Y12413D01*
G01X10969Y12384D01*
G01X11022Y12363D01*
G01X11076Y12350D01*
G01X11130Y12346D01*
G37*
G36*
G01X11789Y21711D02*
G01X11903Y21738D01*
G01X12006Y21796D01*
G01X12085Y21882D01*
G01X12135Y21988D01*
G01X12153Y22103D01*
G01X12135Y22219D01*
G01X12085Y22326D01*
G01X12006Y22411D01*
G01X11903Y22469D01*
G01X11789Y22496D01*
G01X11672Y22488D01*
G01X11561Y22446D01*
G01X11472Y22371D01*
G01X11406Y22273D01*
G01X11369Y22161D01*
G01X11369Y22046D01*
G01X11406Y21934D01*
G01X11472Y21836D01*
G01X11561Y21761D01*
G01X11672Y21719D01*
G01X11789Y21711D01*
G37*
G36*
G01X9884Y21711D02*
G01X9997Y21738D01*
G01X10100Y21796D01*
G01X10180Y21882D01*
G01X10230Y21988D01*
G01X10247Y22103D01*
G01X10230Y22219D01*
G01X10180Y22326D01*
G01X10100Y22411D01*
G01X9997Y22469D01*
G01X9884Y22496D01*
G01X9765Y22488D01*
G01X9656Y22446D01*
G01X9565Y22371D01*
G01X9500Y22273D01*
G01X9464Y22161D01*
G01X9464Y22046D01*
G01X9500Y21934D01*
G01X9565Y21836D01*
G01X9656Y21761D01*
G01X9765Y21719D01*
G01X9884Y21711D01*
G37*
G36*
G01X1972Y21519D02*
G01X2100Y21519D01*
G01X2110Y21521D01*
G01X2118Y21523D01*
G01X2127Y21526D01*
G01X2135Y21530D01*
G01X2239Y21580D01*
G01X2247Y21584D01*
G01X2253Y21590D01*
G01X2261Y21594D01*
G01X2268Y21600D01*
G01X2273Y21607D01*
G01X2343Y21696D01*
G01X2350Y21702D01*
G01X2357Y21717D01*
G01X2360Y21726D01*
G01X2364Y21734D01*
G01X2389Y21844D01*
G01X2389Y21850D01*
G01X2392Y21853D01*
G01X2392Y22748D01*
G01X2389Y22752D01*
G01X2389Y22757D01*
G01X2364Y22867D01*
G01X2360Y22876D01*
G01X2357Y22884D01*
G01X2350Y22900D01*
G01X2343Y22905D01*
G01X2273Y22994D01*
G01X2268Y23002D01*
G01X2261Y23007D01*
G01X2253Y23011D01*
G01X2247Y23017D01*
G01X2239Y23021D01*
G01X2135Y23071D01*
G01X2127Y23076D01*
G01X2118Y23078D01*
G01X2110Y23080D01*
G01X2100Y23082D01*
G01X1972Y23082D01*
G01X1964Y23080D01*
G01X1953Y23078D01*
G01X1946Y23076D01*
G01X1938Y23071D01*
G01X1835Y23021D01*
G01X1827Y23017D01*
G01X1819Y23011D01*
G01X1814Y23007D01*
G01X1807Y23000D01*
G01X1802Y22994D01*
G01X1731Y22905D01*
G01X1726Y22900D01*
G01X1718Y22884D01*
G01X1715Y22876D01*
G01X1711Y22867D01*
G01X1685Y22757D01*
G01X1685Y22752D01*
G01X1684Y22748D01*
G01X1684Y21853D01*
G01X1685Y21850D01*
G01X1685Y21844D01*
G01X1711Y21734D01*
G01X1715Y21726D01*
G01X1718Y21717D01*
G01X1726Y21702D01*
G01X1731Y21696D01*
G01X1802Y21607D01*
G01X1807Y21602D01*
G01X1814Y21594D01*
G01X1819Y21590D01*
G01X1827Y21584D01*
G01X1835Y21580D01*
G01X1938Y21530D01*
G01X1946Y21526D01*
G01X1953Y21523D01*
G01X1964Y21521D01*
G01X1972Y21519D01*
G37*
G36*
G01X2769Y20155D02*
G01X3665Y20155D01*
G01X3669Y20157D01*
G01X3676Y20157D01*
G01X3785Y20184D01*
G01X3793Y20188D01*
G01X3802Y20190D01*
G01X3818Y20198D01*
G01X3823Y20203D01*
G01X3911Y20273D01*
G01X3918Y20280D01*
G01X3926Y20286D01*
G01X3930Y20292D01*
G01X3935Y20300D01*
G01X3939Y20307D01*
G01X3989Y20409D01*
G01X3993Y20417D01*
G01X3996Y20426D01*
G01X3997Y20436D01*
G01X4000Y20444D01*
G01X4000Y20576D01*
G01X3997Y20584D01*
G01X3996Y20594D01*
G01X3993Y20602D01*
G01X3989Y20609D01*
G01X3939Y20711D01*
G01X3935Y20719D01*
G01X3930Y20728D01*
G01X3926Y20734D01*
G01X3918Y20740D01*
G01X3911Y20746D01*
G01X3823Y20815D01*
G01X3818Y20821D01*
G01X3802Y20830D01*
G01X3793Y20832D01*
G01X3785Y20836D01*
G01X3676Y20861D01*
G01X3669Y20861D01*
G01X3665Y20863D01*
G01X2769Y20863D01*
G01X2765Y20861D01*
G01X2760Y20861D01*
G01X2650Y20836D01*
G01X2642Y20832D01*
G01X2634Y20830D01*
G01X2626Y20826D01*
G01X2619Y20821D01*
G01X2611Y20815D01*
G01X2522Y20746D01*
G01X2515Y20742D01*
G01X2510Y20734D01*
G01X2503Y20728D01*
G01X2497Y20719D01*
G01X2493Y20711D01*
G01X2443Y20609D01*
G01X2439Y20602D01*
G01X2438Y20594D01*
G01X2435Y20584D01*
G01X2434Y20576D01*
G01X2434Y20444D01*
G01X2435Y20436D01*
G01X2438Y20426D01*
G01X2439Y20417D01*
G01X2443Y20409D01*
G01X2493Y20307D01*
G01X2497Y20300D01*
G01X2503Y20292D01*
G01X2510Y20286D01*
G01X2515Y20278D01*
G01X2522Y20273D01*
G01X2611Y20203D01*
G01X2619Y20198D01*
G01X2626Y20194D01*
G01X2634Y20190D01*
G01X2642Y20188D01*
G01X2650Y20184D01*
G01X2760Y20157D01*
G01X2765Y20157D01*
G01X2769Y20155D01*
G37*

%LPD*%
G36*
G01X17107Y12000D02*
G01X17107Y12401D01*
G01X17130Y12403D01*
G01X17157Y12419D01*
G01X17180Y12442D01*
G01X17196Y12469D01*
G01X17200Y12500D01*
G01X17200Y23600D01*
G01X17196Y23630D01*
G01X17180Y23657D01*
G01X17157Y23680D01*
G01X17130Y23696D01*
G01X17106Y23700D01*
G01X17106Y24000D01*
G01X34000Y24000D01*
G01X34000Y12000D01*
G01X17107Y12000D01*
G37*

%LPC*%
G36*
G01X25030Y22094D02*
G01X25150Y22119D01*
G01X25253Y22182D01*
G01X25338Y22269D01*
G01X25389Y22380D01*
G01X25407Y22500D01*
G01X25389Y22619D01*
G01X25338Y22730D01*
G01X25253Y22817D01*
G01X25150Y22880D01*
G01X25030Y22905D01*
G01X24910Y22898D01*
G01X24796Y22853D01*
G01X24700Y22778D01*
G01X24631Y22678D01*
G01X24596Y22559D01*
G01X24596Y22440D01*
G01X24631Y22321D01*
G01X24700Y22221D01*
G01X24796Y22146D01*
G01X24910Y22102D01*
G01X25030Y22094D01*
G37*
G36*
G01X30188Y22090D02*
G01X30810Y22090D01*
G01X30839Y22094D01*
G01X30868Y22109D01*
G01X30889Y22132D01*
G01X30906Y22159D01*
G01X30910Y22190D01*
G01X30910Y22809D01*
G01X30906Y22840D01*
G01X30889Y22867D01*
G01X30868Y22890D01*
G01X30839Y22905D01*
G01X30810Y22909D01*
G01X30188Y22909D01*
G01X30157Y22905D01*
G01X30130Y22890D01*
G01X30107Y22867D01*
G01X30092Y22840D01*
G01X30088Y22809D01*
G01X30088Y22190D01*
G01X30092Y22159D01*
G01X30107Y22132D01*
G01X30130Y22109D01*
G01X30157Y22094D01*
G01X30188Y22090D01*
G37*
G36*
G01X21456Y12928D02*
G01X21584Y12936D01*
G01X21706Y12980D01*
G01X21811Y13053D01*
G01X21892Y13153D01*
G01X21943Y13271D01*
G01X21961Y13400D01*
G01X21943Y13528D01*
G01X21892Y13646D01*
G01X21811Y13746D01*
G01X21706Y13819D01*
G01X21584Y13863D01*
G01X21456Y13871D01*
G01X21330Y13846D01*
G01X21214Y13788D01*
G01X21119Y13700D01*
G01X21053Y13588D01*
G01X21018Y13463D01*
G01X21018Y13336D01*
G01X21053Y13211D01*
G01X21119Y13100D01*
G01X21214Y13011D01*
G01X21330Y12953D01*
G01X21456Y12928D01*
G37*
G36*
G01X22688Y22090D02*
G01X23310Y22090D01*
G01X23339Y22094D01*
G01X23368Y22109D01*
G01X23389Y22132D01*
G01X23406Y22159D01*
G01X23410Y22190D01*
G01X23410Y22809D01*
G01X23406Y22840D01*
G01X23389Y22867D01*
G01X23368Y22890D01*
G01X23339Y22905D01*
G01X23310Y22909D01*
G01X22688Y22909D01*
G01X22657Y22905D01*
G01X22630Y22890D01*
G01X22607Y22867D01*
G01X22592Y22840D01*
G01X22588Y22809D01*
G01X22588Y22190D01*
G01X22592Y22159D01*
G01X22607Y22132D01*
G01X22630Y22109D01*
G01X22657Y22094D01*
G01X22688Y22090D01*
G37*
G36*
G01X18188Y13090D02*
G01X18810Y13090D01*
G01X18839Y13094D01*
G01X18868Y13109D01*
G01X18889Y13132D01*
G01X18906Y13159D01*
G01X18910Y13190D01*
G01X18910Y13809D01*
G01X18906Y13840D01*
G01X18889Y13867D01*
G01X18868Y13890D01*
G01X18839Y13905D01*
G01X18810Y13909D01*
G01X18188Y13909D01*
G01X18157Y13905D01*
G01X18130Y13890D01*
G01X18107Y13867D01*
G01X18092Y13840D01*
G01X18088Y13809D01*
G01X18088Y13190D01*
G01X18092Y13159D01*
G01X18107Y13132D01*
G01X18130Y13109D01*
G01X18157Y13094D01*
G01X18188Y13090D01*
G37*
G36*
G01X28530Y13101D02*
G01X28646Y13128D01*
G01X28750Y13188D01*
G01X28830Y13273D01*
G01X28881Y13382D01*
G01X28900Y13500D01*
G01X28881Y13617D01*
G01X28850Y13684D01*
G01X28850Y14286D01*
G01X28846Y14340D01*
G01X28831Y14394D01*
G01X28811Y14444D01*
G01X28784Y14492D01*
G01X28747Y14534D01*
G01X26592Y16690D01*
G01X31747Y21846D01*
G01X31784Y21888D01*
G01X31811Y21936D01*
G01X31831Y21986D01*
G01X31846Y22040D01*
G01X31850Y22094D01*
G01X31850Y22296D01*
G01X31889Y22380D01*
G01X31907Y22500D01*
G01X31889Y22619D01*
G01X31838Y22730D01*
G01X31753Y22817D01*
G01X31650Y22880D01*
G01X31530Y22905D01*
G01X31410Y22898D01*
G01X31296Y22853D01*
G01X31200Y22778D01*
G01X31131Y22678D01*
G01X31096Y22559D01*
G01X31096Y22440D01*
G01X31131Y22321D01*
G01X31150Y22296D01*
G01X31150Y22240D01*
G01X26093Y17184D01*
G01X26019Y17257D01*
G01X26006Y17267D01*
G01X25997Y17278D01*
G01X25960Y17300D01*
G01X25919Y17328D01*
G01X25903Y17332D01*
G01X25893Y17338D01*
G01X25850Y17346D01*
G01X25803Y17357D01*
G01X25789Y17355D01*
G01X25773Y17359D01*
G01X25373Y17359D01*
G01X25373Y17386D01*
G01X25369Y17415D01*
G01X25353Y17444D01*
G01X25331Y17465D01*
G01X25303Y17482D01*
G01X25273Y17486D01*
G01X24523Y17486D01*
G01X24493Y17482D01*
G01X24465Y17465D01*
G01X24443Y17444D01*
G01X24427Y17415D01*
G01X24423Y17386D01*
G01X24423Y16636D01*
G01X24427Y16605D01*
G01X24443Y16578D01*
G01X24465Y16555D01*
G01X24493Y16540D01*
G01X24523Y16536D01*
G01X25273Y16536D01*
G01X25303Y16540D01*
G01X25331Y16555D01*
G01X25353Y16578D01*
G01X25369Y16605D01*
G01X25373Y16636D01*
G01X25373Y16659D01*
G01X25630Y16659D01*
G01X25839Y16452D01*
G01X25847Y16442D01*
G01X28150Y14140D01*
G01X28150Y13688D01*
G01X28139Y13673D01*
G01X28103Y13559D01*
G01X28103Y13440D01*
G01X28139Y13326D01*
G01X28206Y13228D01*
G01X28300Y13153D01*
G01X28410Y13109D01*
G01X28530Y13101D01*
G37*
G36*
G01X26530Y13101D02*
G01X26646Y13128D01*
G01X26750Y13188D01*
G01X26830Y13273D01*
G01X26881Y13382D01*
G01X26900Y13500D01*
G01X26881Y13617D01*
G01X26830Y13726D01*
G01X26750Y13811D01*
G01X26646Y13871D01*
G01X26530Y13898D01*
G01X26410Y13890D01*
G01X26300Y13846D01*
G01X26206Y13771D01*
G01X26139Y13673D01*
G01X26103Y13559D01*
G01X26103Y13440D01*
G01X26139Y13326D01*
G01X26206Y13228D01*
G01X26300Y13153D01*
G01X26410Y13109D01*
G01X26530Y13101D01*
G37*
G36*
G01X25530Y13101D02*
G01X25646Y13128D01*
G01X25750Y13188D01*
G01X25830Y13273D01*
G01X25881Y13382D01*
G01X25900Y13500D01*
G01X25881Y13617D01*
G01X25830Y13726D01*
G01X25750Y13811D01*
G01X25646Y13871D01*
G01X25530Y13898D01*
G01X25410Y13890D01*
G01X25300Y13846D01*
G01X25206Y13771D01*
G01X25139Y13673D01*
G01X25103Y13559D01*
G01X25103Y13440D01*
G01X25139Y13326D01*
G01X25206Y13228D01*
G01X25300Y13153D01*
G01X25410Y13109D01*
G01X25530Y13101D01*
G37*
G36*
G01X24523Y20536D02*
G01X25273Y20536D01*
G01X25303Y20540D01*
G01X25331Y20555D01*
G01X25353Y20578D01*
G01X25369Y20605D01*
G01X25373Y20636D01*
G01X25373Y21386D01*
G01X25369Y21415D01*
G01X25353Y21444D01*
G01X25331Y21465D01*
G01X25303Y21482D01*
G01X25273Y21486D01*
G01X24523Y21486D01*
G01X24493Y21482D01*
G01X24465Y21465D01*
G01X24443Y21444D01*
G01X24427Y21415D01*
G01X24423Y21386D01*
G01X24423Y20636D01*
G01X24427Y20605D01*
G01X24443Y20578D01*
G01X24465Y20555D01*
G01X24493Y20540D01*
G01X24523Y20536D01*
G37*
G36*
G01X18530Y14094D02*
G01X18650Y14119D01*
G01X18700Y14150D01*
G01X19365Y14150D01*
G01X19419Y14153D01*
G01X19473Y14167D01*
G01X19523Y14188D01*
G01X19572Y14215D01*
G01X19614Y14251D01*
G01X21022Y15659D01*
G01X24585Y15659D01*
G01X24626Y15621D01*
G01X24742Y15563D01*
G01X24868Y15538D01*
G01X24996Y15546D01*
G01X25118Y15590D01*
G01X25223Y15663D01*
G01X25303Y15763D01*
G01X25356Y15882D01*
G01X25373Y16009D01*
G01X25356Y16138D01*
G01X25303Y16255D01*
G01X25223Y16355D01*
G01X25118Y16430D01*
G01X24996Y16473D01*
G01X24868Y16482D01*
G01X24742Y16455D01*
G01X24626Y16398D01*
G01X24585Y16359D01*
G01X20876Y16359D01*
G01X20822Y16355D01*
G01X20768Y16342D01*
G01X20718Y16321D01*
G01X20669Y16294D01*
G01X20627Y16257D01*
G01X19219Y14850D01*
G01X18700Y14850D01*
G01X18650Y14880D01*
G01X18530Y14905D01*
G01X18410Y14898D01*
G01X18402Y14896D01*
G01X17993Y15305D01*
G01X17993Y20748D01*
G01X18372Y21123D01*
G01X18410Y21109D01*
G01X18530Y21102D01*
G01X18646Y21128D01*
G01X18750Y21188D01*
G01X18830Y21273D01*
G01X18881Y21382D01*
G01X18900Y21500D01*
G01X18881Y21617D01*
G01X18830Y21726D01*
G01X18750Y21811D01*
G01X18646Y21871D01*
G01X18530Y21898D01*
G01X18410Y21890D01*
G01X18310Y21850D01*
G01X18252Y21850D01*
G01X18197Y21846D01*
G01X18143Y21832D01*
G01X18093Y21811D01*
G01X18046Y21784D01*
G01X18003Y21748D01*
G01X17396Y21142D01*
G01X17361Y21100D01*
G01X17331Y21053D01*
G01X17311Y21002D01*
G01X17297Y20948D01*
G01X17293Y20894D01*
G01X17293Y15159D01*
G01X17297Y15105D01*
G01X17311Y15051D01*
G01X17331Y15001D01*
G01X17360Y14953D01*
G01X17396Y14911D01*
G01X18053Y14251D01*
G01X18096Y14217D01*
G01X18142Y14188D01*
G01X18193Y14167D01*
G01X18247Y14153D01*
G01X18289Y14150D01*
G01X18296Y14146D01*
G01X18410Y14101D01*
G01X18530Y14094D01*
G37*
G36*
G01X18530Y20102D02*
G01X18646Y20128D01*
G01X18750Y20188D01*
G01X18830Y20273D01*
G01X18881Y20382D01*
G01X18900Y20500D01*
G01X18881Y20617D01*
G01X18830Y20726D01*
G01X18750Y20811D01*
G01X18646Y20871D01*
G01X18530Y20898D01*
G01X18410Y20890D01*
G01X18300Y20846D01*
G01X18206Y20771D01*
G01X18139Y20673D01*
G01X18103Y20559D01*
G01X18103Y20440D01*
G01X18139Y20326D01*
G01X18206Y20228D01*
G01X18300Y20153D01*
G01X18410Y20109D01*
G01X18530Y20102D01*
G37*
G36*
G01X18530Y19102D02*
G01X18646Y19128D01*
G01X18684Y19150D01*
G01X22072Y19150D01*
G01X22126Y19153D01*
G01X22180Y19167D01*
G01X22230Y19188D01*
G01X22277Y19215D01*
G01X22319Y19252D01*
G01X22727Y19659D01*
G01X24585Y19659D01*
G01X24626Y19621D01*
G01X24742Y19563D01*
G01X24868Y19538D01*
G01X24996Y19546D01*
G01X25118Y19590D01*
G01X25223Y19663D01*
G01X25303Y19763D01*
G01X25356Y19882D01*
G01X25373Y20009D01*
G01X25356Y20138D01*
G01X25303Y20255D01*
G01X25223Y20355D01*
G01X25118Y20430D01*
G01X24996Y20473D01*
G01X24868Y20482D01*
G01X24742Y20455D01*
G01X24626Y20398D01*
G01X24585Y20359D01*
G01X22581Y20359D01*
G01X22527Y20355D01*
G01X22473Y20342D01*
G01X22423Y20321D01*
G01X22376Y20294D01*
G01X22334Y20257D01*
G01X21926Y19850D01*
G01X18684Y19850D01*
G01X18646Y19871D01*
G01X18530Y19898D01*
G01X18410Y19890D01*
G01X18300Y19846D01*
G01X18206Y19771D01*
G01X18139Y19673D01*
G01X18103Y19559D01*
G01X18103Y19440D01*
G01X18139Y19326D01*
G01X18206Y19228D01*
G01X18300Y19153D01*
G01X18410Y19109D01*
G01X18530Y19102D01*
G37*
G36*
G01X18530Y18102D02*
G01X18646Y18128D01*
G01X18750Y18188D01*
G01X18830Y18273D01*
G01X18881Y18382D01*
G01X18900Y18500D01*
G01X18881Y18617D01*
G01X18830Y18726D01*
G01X18750Y18811D01*
G01X18646Y18871D01*
G01X18530Y18898D01*
G01X18410Y18890D01*
G01X18300Y18846D01*
G01X18206Y18771D01*
G01X18139Y18673D01*
G01X18103Y18559D01*
G01X18103Y18440D01*
G01X18139Y18326D01*
G01X18206Y18228D01*
G01X18300Y18153D01*
G01X18410Y18109D01*
G01X18530Y18102D01*
G37*
G36*
G01X24477Y12346D02*
G01X26868Y12346D01*
G01X26922Y12350D01*
G01X26976Y12363D01*
G01X27026Y12384D01*
G01X27073Y12411D01*
G01X27115Y12448D01*
G01X27747Y13078D01*
G01X27781Y13119D01*
G01X27811Y13165D01*
G01X27831Y13217D01*
G01X27846Y13271D01*
G01X27850Y13313D01*
G01X27881Y13382D01*
G01X27900Y13500D01*
G01X27881Y13617D01*
G01X27830Y13726D01*
G01X27750Y13811D01*
G01X27646Y13871D01*
G01X27530Y13898D01*
G01X27410Y13890D01*
G01X27300Y13846D01*
G01X27206Y13771D01*
G01X27139Y13673D01*
G01X27103Y13559D01*
G01X27103Y13440D01*
G01X27107Y13430D01*
G01X26722Y13046D01*
G01X24623Y13046D01*
G01X23143Y14523D01*
G01X23102Y14559D01*
G01X23053Y14588D01*
G01X23003Y14607D01*
G01X22950Y14621D01*
G01X22896Y14626D01*
G01X20488Y14626D01*
G01X20456Y14619D01*
G01X20427Y14619D01*
G01X20397Y14609D01*
G01X20368Y14603D01*
G01X20346Y14592D01*
G01X20314Y14580D01*
G01X20288Y14557D01*
G01X20264Y14544D01*
G01X20242Y14517D01*
G01X20219Y14500D01*
G01X20207Y14480D01*
G01X20184Y14451D01*
G01X20173Y14421D01*
G01X20160Y14396D01*
G01X20156Y14371D01*
G01X20143Y14336D01*
G01X20143Y14307D01*
G01X20138Y14276D01*
G01X20138Y13876D01*
G01X20114Y13876D01*
G01X20084Y13871D01*
G01X20056Y13855D01*
G01X20034Y13834D01*
G01X20018Y13805D01*
G01X20014Y13776D01*
G01X20014Y13026D01*
G01X20018Y12996D01*
G01X20034Y12967D01*
G01X20056Y12946D01*
G01X20084Y12930D01*
G01X20114Y12926D01*
G01X20864Y12926D01*
G01X20893Y12930D01*
G01X20922Y12946D01*
G01X20943Y12967D01*
G01X20960Y12996D01*
G01X20964Y13026D01*
G01X20964Y13776D01*
G01X20960Y13805D01*
G01X20943Y13834D01*
G01X20922Y13855D01*
G01X20893Y13871D01*
G01X20864Y13876D01*
G01X20838Y13876D01*
G01X20838Y13926D01*
G01X22750Y13926D01*
G01X24230Y12448D01*
G01X24272Y12411D01*
G01X24319Y12384D01*
G01X24369Y12363D01*
G01X24423Y12350D01*
G01X24477Y12346D01*
G37*

%LPD*%
G54D11*
G01X18500Y21500D02*
G01X18252Y21500D01*
G01X17644Y20892D01*
G01X17644Y15158D01*
G01X18303Y14500D01*
G01X18500Y14500D01*
G01X18500Y14500D02*
G01X19367Y14500D01*
G01X20877Y16009D01*
G01X24900Y16009D01*
G01X14500Y17500D02*
G01X14106Y17500D01*
G01X11500Y14893D01*
G01X11500Y13500D01*
G01X9500Y15338D02*
G01X9500Y13500D01*
G01X5300Y16000D02*
G01X5300Y16244D01*
G01X5990Y16935D01*
G01X7903Y16935D01*
G01X9500Y15338D01*
G01X9500Y15338D02*
G01X10554Y15338D01*
G01X13716Y18500D01*
G01X14500Y18500D01*
G01X15500Y16500D02*
G01X15500Y15335D01*
G01X12859Y12695D01*
G01X11131Y12695D01*
G01X10500Y13326D01*
G01X10500Y13500D01*
G01X2947Y18527D02*
G01X2500Y18080D01*
G01X4156Y19343D02*
G01X3763Y19343D01*
G01X2947Y18527D01*
G01X2947Y18527D02*
G01X1925Y19550D01*
G01X1050Y19550D02*
G01X1925Y19550D01*
G01X4156Y19343D02*
G01X3950Y19550D01*
G01X5400Y18800D02*
G01X4700Y18800D01*
G01X4156Y19343D01*
G01X15500Y19500D02*
G01X15500Y19856D01*
G01X15021Y20334D01*
G01X10577Y20334D01*
G01X9043Y18799D01*
G01X5400Y18799D01*
G01X15500Y18500D02*
G01X15500Y19500D01*
G01X15500Y18500D02*
G01X15500Y17500D01*
G01X4300Y13000D02*
G01X4300Y13800D01*
G01X2550Y15530D01*
G01X2510Y15530D01*
G01X14500Y19500D02*
G01X13655Y19500D01*
G01X10303Y16148D01*
G01X26096Y16688D02*
G01X28500Y14285D01*
G01X28500Y13500D01*
G01X25775Y17009D02*
G01X26096Y16688D01*
G01X26096Y16688D02*
G01X31500Y22092D01*
G01X31500Y22500D01*
G01X24900Y17009D02*
G01X25775Y17009D01*
G01X20489Y13400D02*
G01X20489Y14275D01*
G01X20489Y14275D02*
G01X22856Y14275D01*
G01X22897Y14275D01*
G01X24477Y12694D01*
G01X26868Y12694D01*
G01X27500Y13326D01*
G01X27500Y13500D01*
G01X18500Y19500D02*
G01X22072Y19500D01*
G01X22582Y20009D01*
G01X24900Y20009D01*
G01X2500Y18080D02*
G01X2500Y15530D01*
G01X2500Y15530D02*
G01X2510Y15530D01*
G54D14*
G01X11760Y22103D03*
G01X9855Y22103D03*
G54D16*
G01X15500Y22500D03*
G01X14500Y22500D03*
G54D18*
G01X13500Y22500D03*
G54D19*
G01X8500Y13500D03*
G01X9500Y13500D03*
G01X10500Y13500D03*
G01X11500Y13500D03*
G01X12500Y13500D03*
G54D21*
G01X1050Y19550D03*
G54D22*
G01X1050Y17850D03*
G01X3950Y17850D03*
G01X3950Y19550D03*
G54D16*
G01X8000Y22500D03*
G01X7000Y22500D03*
G54D18*
G01X6000Y22500D03*
G54D24*
G01X6300Y13000D03*
G01X6300Y16000D03*
G54D16*
G01X32500Y22500D03*
G01X31500Y22500D03*
G54D18*
G01X30500Y22500D03*
G54D19*
G01X25500Y13500D03*
G01X26500Y13500D03*
G01X27500Y13500D03*
G01X28500Y13500D03*
G01X29500Y13500D03*
G54D16*
G01X25000Y22500D03*
G01X24000Y22500D03*
G54D18*
G01X23000Y22500D03*
G54D22*
G01X24900Y19009D03*
G01X24900Y20009D03*
G54D21*
G01X24900Y21009D03*
G54D22*
G01X22489Y13400D03*
G01X21489Y13400D03*
G54D21*
G01X20489Y13400D03*
G54D22*
G01X24900Y15009D03*
G01X24900Y16009D03*
G54D21*
G01X24900Y17009D03*
G54D16*
G01X18500Y15500D03*
G01X18500Y14500D03*
G54D18*
G01X18500Y13500D03*
G54D19*
G01X18500Y18500D03*
G01X18500Y19500D03*
G01X18500Y20500D03*
G01X18500Y21500D03*
G01X18500Y22500D03*
G54D26*
G01X14500Y16500D03*
G54D19*
G01X15500Y16500D03*
G01X14500Y17500D03*
G01X15500Y17500D03*
G01X14500Y18500D03*
G01X15500Y18500D03*
G54D26*
G01X14500Y19500D03*
G54D19*
G01X15500Y19500D03*
G54D27*
G01X5400Y19800D03*
G01X5400Y18800D03*
G01X5400Y17800D03*
G54D28*
G01X2510Y14530D03*
G01X1510Y14530D03*
G01X2510Y15530D03*
G01X1510Y15530D03*
G54D24*
G01X5300Y16000D03*
G01X5300Y13000D03*
G01X4300Y16000D03*
G01X4300Y13000D03*
G54D12*
G01X10303Y16148D03*
G54D13*
G01X10600Y22700D03*
G01X9000Y12600D03*
G54D14*
G01X11760Y22103D03*
G01X9855Y22103D03*
G54D16*
G01X15500Y22500D03*
G01X14500Y22500D03*
G54D18*
G01X13500Y22500D03*
G54D19*
G01X8500Y13500D03*
G01X9500Y13500D03*
G01X10500Y13500D03*
G01X11500Y13500D03*
G01X12500Y13500D03*
G54D21*
G01X1050Y19550D03*
G54D22*
G01X1050Y17850D03*
G01X3950Y17850D03*
G01X3950Y19550D03*
G54D16*
G01X8000Y22500D03*
G01X7000Y22500D03*
G54D18*
G01X6000Y22500D03*
G54D24*
G01X6300Y13000D03*
G01X6300Y16000D03*
G54D16*
G01X32500Y22500D03*
G01X31500Y22500D03*
G54D18*
G01X30500Y22500D03*
G54D19*
G01X25500Y13500D03*
G01X26500Y13500D03*
G01X27500Y13500D03*
G01X28500Y13500D03*
G01X29500Y13500D03*
G54D16*
G01X25000Y22500D03*
G01X24000Y22500D03*
G54D18*
G01X23000Y22500D03*
G54D22*
G01X24900Y19009D03*
G01X24900Y20009D03*
G54D21*
G01X24900Y21009D03*
G54D22*
G01X22489Y13400D03*
G01X21489Y13400D03*
G54D21*
G01X20489Y13400D03*
G54D22*
G01X24900Y15009D03*
G01X24900Y16009D03*
G54D21*
G01X24900Y17009D03*
G54D16*
G01X18500Y15500D03*
G01X18500Y14500D03*
G54D18*
G01X18500Y13500D03*
G54D19*
G01X18500Y18500D03*
G01X18500Y19500D03*
G01X18500Y20500D03*
G01X18500Y21500D03*
G01X18500Y22500D03*
G54D26*
G01X14500Y16500D03*
G54D19*
G01X15500Y16500D03*
G01X14500Y17500D03*
G01X15500Y17500D03*
G01X14500Y18500D03*
G01X15500Y18500D03*
G54D26*
G01X14500Y19500D03*
G54D19*
G01X15500Y19500D03*
G54D27*
G01X5400Y19800D03*
G01X5400Y18800D03*
G01X5400Y17800D03*
G54D28*
G01X2510Y14530D03*
G01X1510Y14530D03*
G01X2510Y15530D03*
G01X1510Y15530D03*
G54D24*
G01X5300Y16000D03*
G01X5300Y13000D03*
G01X4300Y16000D03*
G01X4300Y13000D03*
G54D30*
G01X9386Y22988D02*
G01X9386Y23343D01*
G01X12236Y22988D02*
G01X12236Y23343D01*
G54D31*
G01X4400Y21866D02*
G01X4400Y22733D01*
G01X2038Y22733D02*
G01X2038Y21866D01*
G01X3652Y20509D02*
G01X2785Y20509D01*

M00*
M02*