;PTH Drill file created by EasyEDA 
M48
;Holesize 1 = 0.028 INCH
T01C0.028
;Holesize 2 = 0.035 INCH
T02C0.035
;Holesize 3 = 0.035 INCH
T03C0.035
;Holesize 4 = 0.036 INCH
T04C0.036
;Holesize 5 = 0.045 INCH
T05C0.045
;Holesize 6 = 0.035 INCH
T06C0.035
;Holesize 7 = 0.044 INCH
T07C0.044
;Holesize 8 = 0.028 INCH
T08C0.028
;Holesize 9 = 0.032 INCH
T09C0.032
;Holesize 10 = 0.020 INCH
T10C0.020
;Holesize 11 = 0.012 INCH
T11C0.012
INCH,00.0000
%
G05
G90
T01
X009386Y023323G85X009386Y023008
X012236Y023323G85X012236Y023008
T02
X011760Y022103
X009855Y022103
T03
X015500Y022500
X014500Y022500
X013500Y022500
X008000Y022500
X007000Y022500
X006000Y022500
X032500Y022500
X031500Y022500
X030500Y022500
X025000Y022500
X024000Y022500
X023000Y022500
X018500Y015500
X018500Y014500
X018500Y013500
T04
X008500Y013500
X009500Y013500
X010500Y013500
X011500Y013500
X012500Y013500
X025500Y013500
X026500Y013500
X027500Y013500
X028500Y013500
X029500Y013500
X018500Y018500
X018500Y019500
X018500Y020500
X018500Y021500
X018500Y022500
X014500Y016500
X015500Y016500
X014500Y017500
X015500Y017500
X014500Y018500
X015500Y018500
X014500Y019500
X015500Y019500
T05
X001050Y019550
X001050Y017850
X003950Y017850
X003950Y019550
T06
X006300Y013000
X006300Y016000
X005300Y016000
X005300Y013000
X004300Y016000
X004300Y013000
T07
X024900Y019009
X024900Y020009
X024900Y021009
X022489Y013400
X021489Y013400
X020489Y013400
X024900Y015009
X024900Y016009
X024900Y017009
X005400Y019800
X005400Y018800
X005400Y017800
T08
X002510Y014530
X001510Y014530
X002510Y015530
X001510Y015530
T09
X004400Y021866G85X004400Y022733
X002038Y022733G85X002038Y021866
X003652Y020509G85X002785Y020509
T10
X010303Y016148
T11
X010600Y022700
X009000Y012600
M30
