<svg xmlns="http://www.w3.org/2000/svg" xmlns:xlink="http://www.w3.org/1999/xlink" id="svg18" version="1.1" viewBox="0 0 200 30">
  <defs id="defs9">
    <linearGradient id="linearGradient845" x1="1440" x2="0" y1="377" y2="1063" gradientTransform="matrix(1.33333 0 0 .75 401.3 -590.6)" gradientUnits="userSpaceOnUse">
      <stop id="stop841" offset="0%" stop-color="#8882ee" stop-opacity="1"/>
      <stop id="stop843" offset="100%" stop-color="#40e5d0" stop-opacity="1"/>
    </linearGradient>
    <linearGradient id="p1" x1="1440" x2="0" y1="377" y2="1063" gradientTransform="matrix(1.33333 0 0 .75 401.3 -590.6)" gradientUnits="userSpaceOnUse">
      <stop id="stop4" offset="0%" stop-color="violet"/>
      <stop id="stop6" offset="100%" stop-color="#40e0d0"/>
    </linearGradient>
    <linearGradient id="linearGradient837" x1="-15.9" x2="396.7" y1="1047" y2="885.2" gradientTransform="matrix(.48476 0 0 .18542 7.7 -164.1)" gradientUnits="userSpaceOnUse" xlink:href="#linearGradient845"/>
  </defs>
  <rect id="rect829" width="200" height="30" x="0" y="0" fill="url(#linearGradient837)" fill-opacity="1" stroke="#000" stroke-dasharray="none" stroke-miterlimit="4" stroke-opacity="1" stroke-width="0" ry="15"/>
  <g id="text13" aria-label="Download Gerber Files" font-family="Segoe UI" font-stretch="normal" font-style="normal" font-variant="normal" font-weight="400">
    <path d="M40.9 19.4V11h2.3q4.4 0 4.4 4 0 2-1.2 3.2-1.2 1.2-3.3 1.2zm1-7.5v6.6H43q1.7 0 2.6-.9 1-.9 1-2.5 0-3.2-3.5-3.2z" style="-inkscape-font-specification:'Segoe UI'" id="path849"/>
    <path d="M51.7 19.5q-1.4 0-2.2-.8-.7-.9-.7-2.3 0-1.5.8-2.3.8-.9 2.2-.9 1.4 0 2.1.9.8.8.8 2.2 0 1.5-.9 2.4-.8.8-2.1.8zm0-5.5q-.9 0-1.4.7-.6.6-.6 1.7 0 1 .6 1.7.5.6 1.4.6 1 0 1.5-.6t.5-1.7q0-1.1-.5-1.8-.5-.6-1.5-.6z" style="-inkscape-font-specification:'Segoe UI'" id="path851"/>
    <path d="M63.8 13.4l-1.8 6h-1L59.7 15v-.6l-.2.6-1.4 4.3h-1l-1.7-6h1l1.2 4.5.1.5.2-.5 1.3-4.5h1l1.2 4.5v.5l.2-.5 1.2-4.5z" style="-inkscape-font-specification:'Segoe UI'" id="path853"/>
    <path d="M69.9 19.4h-1v-3.5q0-1.9-1.4-1.9-.7 0-1.2.6-.5.5-.5 1.3v3.5h-1v-6h1v1q.7-1.2 2-1.2 1 0 1.5.7.6.6.6 1.8z" style="-inkscape-font-specification:'Segoe UI'" id="path855"/>
    <path d="M72.6 19.4h-1v-9h1z" style="-inkscape-font-specification:'Segoe UI'" id="path857"/>
    <path d="M77 19.5q-1.2 0-2-.8-.8-.9-.8-2.3 0-1.5.8-2.3.8-.9 2.2-.9 1.4 0 2.1.9.8.8.8 2.2 0 1.5-.8 2.4-.9.8-2.2.8zm.2-5.5q-1 0-1.5.7-.6.6-.6 1.7 0 1 .6 1.7.5.6 1.5.6.9 0 1.4-.6.5-.6.5-1.7t-.5-1.8q-.5-.6-1.4-.6z" style="-inkscape-font-specification:'Segoe UI'" id="path859"/>
    <path d="M85.9 19.4h-1v-1q-.6 1.1-1.8 1.1-1 0-1.4-.5-.5-.4-.5-1.2 0-1.7 2-2l1.7-.2q0-1.6-1.2-1.6-1 0-2 .8v-1q1-.6 2-.6 2.2 0 2.2 2.3zm-1-3l-1.4.1q-.7.1-1 .4-.4.2-.4.8 0 .4.4.7.3.3.8.3.7 0 1.2-.5.4-.5.4-1.3z" style="-inkscape-font-specification:'Segoe UI'" id="path861"/>
    <path d="M92.8 19.4h-1v-1q-.6 1.1-2 1.1-1.1 0-1.8-.8t-.7-2.2q0-1.5.8-2.4.7-.9 2-.9 1.2 0 1.8 1v-3.7h1zm-1-2.7v-1q0-.7-.4-1.2-.5-.5-1.2-.5-.9 0-1.4.7-.5.6-.5 1.8 0 1 .5 1.6.5.6 1.3.6t1.3-.6q.5-.6.5-1.4z" style="-inkscape-font-specification:'Segoe UI'" id="path863"/>
    <path d="M104.5 18.8q-1.3.7-2.8.7-1.8 0-3-1.1-1-1.2-1-3.1 0-2 1.2-3.2 1.2-1.3 3.1-1.3 1.4 0 2.3.5v1q-1-.6-2.4-.6t-2.3 1q-1 1-1 2.5 0 1.6 1 2.5.8 1 2.2 1 1 0 1.7-.5V16h-1.8v-1h2.8z" style="-inkscape-font-specification:'Segoe UI'" id="path865"/>
    <path d="M111.1 16.6H107q0 1 .5 1.6.5.5 1.5.5t1.8-.7v1q-.8.5-2 .5-1.3 0-2-.8-.8-.8-.8-2.3 0-1.4.8-2.3.8-.9 2-.9 1.1 0 1.8.8.6.8.6 2.1zm-1-.8q0-.8-.4-1.3t-1-.5q-.7 0-1.2.5t-.6 1.3z" style="-inkscape-font-specification:'Segoe UI'" id="path867"/>
    <path d="M115.7 14.3l-.7-.1q-.6 0-1 .5-.5.6-.5 1.6v3h-1v-6h1v1.3l.7-1q.4-.3 1-.3h.5z" style="-inkscape-font-specification:'Segoe UI'" id="path869"/>
    <path d="M117.7 18.5v.9h-1v-9h1v4q.8-1.2 2.1-1.2 1.2 0 1.8.8.7.8.7 2.2 0 1.5-.8 2.4-.7 1-2 1-1.1 0-1.8-1.1zm0-2.4v.8q0 .8.5 1.3t1.2.5q1 0 1.4-.7.5-.6.5-1.8 0-1-.5-1.6-.4-.6-1.2-.6-.9 0-1.4.6-.5.6-.5 1.5z" style="-inkscape-font-specification:'Segoe UI'" id="path871"/>
    <path d="M128.6 16.6h-4.2q0 1 .5 1.6.6.5 1.5.5 1 0 1.8-.7v1q-.8.5-2 .5-1.3 0-2-.8-.8-.8-.8-2.3 0-1.4.8-2.3.8-.9 2-.9 1.1 0 1.8.8.6.8.6 2.1zm-1-.8q0-.8-.4-1.3-.3-.5-1-.5t-1.2.5q-.5.5-.6 1.3z" style="-inkscape-font-specification:'Segoe UI'" id="path873"/>
    <path d="M133.2 14.3l-.7-.1q-.6 0-1 .5-.4.6-.4 1.6v3h-1v-6h1v1.3q.2-.6.6-1 .4-.3 1-.3h.5z" style="-inkscape-font-specification:'Segoe UI'" id="path875"/>
    <path d="M142 11.9h-3.3v2.9h3v.9h-3v3.7h-1V11h4.2z" style="-inkscape-font-specification:'Segoe UI'" id="path877"/>
    <path d="M143.9 11.8l-.4-.1q-.2-.2-.2-.5l.2-.4q.1-.2.4-.2.3 0 .4.2l.2.4q0 .3-.2.5l-.4.1zm.5 7.6h-1v-6h1z" style="-inkscape-font-specification:'Segoe UI'" id="path879"/>
    <path d="M147.3 19.4h-1v-9h1z" style="-inkscape-font-specification:'Segoe UI'" id="path881"/>
    <path d="M154 16.6h-4.2q0 1 .5 1.6.6.5 1.5.5 1 0 1.8-.7v1q-.8.5-2 .5-1.3 0-2-.8-.8-.8-.8-2.3 0-1.4.8-2.3.8-.9 2-.9t1.8.8q.6.8.6 2.1zm-1-.8q0-.8-.3-1.3-.4-.5-1.1-.5-.7 0-1.2.5t-.6 1.3z" style="-inkscape-font-specification:'Segoe UI'" id="path883"/>
    <path d="M155.1 19.2v-1q.8.5 1.8.5 1.2 0 1.2-.8v-.4l-.4-.3-.4-.3q-.3 0-.5-.2l-.7-.3-.5-.4-.3-.4-.1-.6.1-.8q.2-.3.6-.5l.7-.4h.8q.8 0 1.4.2v1q-.6-.5-1.5-.5l-.5.1q-.2 0-.3.2-.2 0-.3.2v.8l.3.3.4.2.5.2.7.3.6.4.3.4.1.7q0 .4-.2.7-.2.4-.5.6l-.8.3-.9.1q-.9 0-1.6-.3z" style="-inkscape-font-specification:'Segoe UI'" id="path885"/>
  </g>
</svg>